<svg width="142" height="48" viewBox="0 0 142 48" xmlns="http://www.w3.org/2000/svg" xmlns:xlink="http://www.w3.org/1999/xlink"><title>Group 3</title><defs><path d="M.824 11.5L10.504.737C10.868.33 11.613 0 12.16 0H138.82c1.66 0 3.006 1.336 3.006 3.007v16.986c0 1.66-1.336 3.007-3.006 3.007H12.16c-.548 0-1.292-.332-1.657-.737L.823 11.5z" id="a"/><mask id="b" x="0" y="0" width="141" height="23" fill="#fff"><use xlink:href="#a"/></mask></defs><g fill="none" fill-rule="evenodd"><path d="M0-1h143v50H0z"/><g><use stroke="#FFF" mask="url(#b)" stroke-width="2" xlink:href="#a"/><path d="M22.032 12.856c.075.128.14.263.196.404.056.14.11.284.164.428.053-.15.11-.292.168-.428.06-.136.125-.273.2-.412L26.64 5.8c.07-.123.14-.197.216-.224.075-.027.18-.04.32-.04h1.144V17h-1.36V8.576c0-.112.003-.232.008-.36.005-.128.013-.26.024-.392l-3.928 7.168c-.133.24-.32.36-.56.36h-.224c-.24 0-.427-.12-.56-.36L17.704 7.8c.016.14.028.275.036.408.008.133.012.256.012.368V17h-1.36V5.536h1.144c.14 0 .245.013.32.04.075.027.147.1.216.224l3.96 7.056zm10.94-3.96V17h-1.424V8.896h1.424zm.32-2.544c0 .14-.028.268-.084.388-.056.12-.13.227-.224.32-.093.093-.2.167-.324.22-.123.053-.253.08-.392.08-.14 0-.268-.027-.388-.08-.12-.053-.227-.127-.32-.22s-.167-.2-.22-.32c-.053-.12-.08-.25-.08-.388 0-.14.027-.27.08-.396.053-.125.127-.235.22-.328.093-.093.2-.167.32-.22.12-.053.25-.08.388-.08.14 0 .27.027.392.08.123.053.23.127.324.22.093.093.168.203.224.328.056.125.084.257.084.396zm8.22 3.984c-.043.06-.085.104-.128.136-.043.032-.104.048-.184.048s-.167-.033-.26-.1-.212-.14-.356-.22c-.144-.08-.32-.153-.524-.22-.205-.067-.457-.1-.756-.1-.395 0-.744.07-1.048.212-.304.14-.56.345-.764.612-.205.267-.36.59-.464.968-.104.38-.156.803-.156 1.272 0 .49.056.927.168 1.308.112.38.27.7.472.96.203.26.45.456.74.592.29.136.617.204.98.204.347 0 .632-.04.856-.124.224-.083.41-.175.56-.276.15-.1.272-.193.368-.276.096-.083.192-.124.288-.124.123 0 .213.045.272.136l.4.52c-.352.432-.792.748-1.32.948-.528.2-1.085.3-1.672.3-.507 0-.977-.093-1.412-.28-.435-.187-.812-.457-1.132-.812-.32-.355-.572-.79-.756-1.308-.184-.517-.276-1.107-.276-1.768 0-.603.084-1.16.252-1.672.168-.512.413-.953.736-1.324.323-.37.72-.66 1.196-.868.475-.208 1.02-.312 1.632-.312.565 0 1.067.092 1.504.276.437.184.824.444 1.16.78l-.376.512zM43.956 17V5.216h1.424v4.768c.347-.368.73-.663 1.152-.884.42-.22.907-.332 1.456-.332.443 0 .833.073 1.172.22.34.147.62.355.848.624.227.27.4.593.516.972.117.38.176.797.176 1.256V17h-1.424v-5.16c0-.613-.14-1.09-.42-1.428-.28-.34-.708-.508-1.284-.508-.42 0-.815.1-1.18.304-.365.203-.703.477-1.012.824V17h-1.424zm15.348 0h-.632c-.14 0-.25-.02-.336-.064-.085-.043-.14-.133-.168-.272l-.16-.752c-.213.192-.42.364-.624.516-.203.152-.416.28-.64.384-.224.104-.463.183-.716.236-.253.053-.535.08-.844.08-.315 0-.61-.044-.884-.132-.275-.088-.513-.22-.716-.396-.203-.176-.364-.4-.484-.668-.12-.27-.18-.588-.18-.956 0-.32.088-.628.264-.924.176-.296.46-.56.852-.788.392-.23.905-.417 1.54-.564.635-.147 1.41-.23 2.328-.252v-.632c0-.63-.135-1.105-.404-1.428-.27-.323-.668-.484-1.196-.484-.347 0-.64.044-.876.132-.237.088-.443.187-.616.296-.173.11-.323.208-.448.296s-.25.132-.372.132c-.096 0-.18-.025-.252-.076-.072-.05-.13-.113-.172-.188l-.256-.456c.448-.432.93-.755 1.448-.968.517-.213 1.09-.32 1.72-.32.453 0 .856.075 1.208.224.352.15.648.357.888.624s.42.59.544.968c.123.38.184.795.184 1.248V17zm-3.696-.872c.25 0 .48-.025.688-.076.208-.05.404-.123.588-.216.184-.093.36-.207.528-.34.168-.133.332-.285.492-.456v-1.688c-.656.02-1.213.073-1.672.156-.46.083-.832.19-1.12.324-.288.133-.497.29-.628.472-.13.18-.196.384-.196.608 0 .213.035.397.104.552.07.155.163.28.28.38.117.1.256.17.416.216.16.045.333.068.52.068zm9.564-7.36c.485 0 .933.08 1.344.244.41.163.765.397 1.064.704.3.307.532.685.7 1.136.168.45.252.964.252 1.54 0 .224-.024.373-.072.448-.048.075-.14.112-.272.112h-5.392c.01.512.08.957.208 1.336.128.38.304.695.528.948.224.253.49.443.8.568.31.125.656.188 1.04.188.357 0 .665-.04.924-.124.26-.083.48-.172.668-.268.187-.096.343-.185.468-.268.125-.083.233-.124.324-.124.117 0 .208.045.272.136l.4.52c-.176.213-.387.4-.632.556-.245.157-.508.287-.788.388-.28.1-.57.177-.868.228-.3.05-.595.076-.888.076-.56 0-1.076-.095-1.548-.284-.472-.19-.88-.467-1.224-.832-.344-.365-.612-.817-.804-1.356-.192-.54-.288-1.157-.288-1.856 0-.565.087-1.093.26-1.584.173-.49.423-.916.748-1.276s.723-.643 1.192-.848c.47-.205.997-.308 1.584-.308zm.032 1.048c-.688 0-1.23.2-1.624.596-.395.397-.64.948-.736 1.652h4.408c0-.33-.045-.633-.136-.908-.09-.275-.224-.512-.4-.712-.176-.2-.39-.355-.644-.464-.253-.11-.543-.164-.868-.164zm7.228-4.6V17h-1.424V5.216h1.424zm16.76 6.056c0 .86-.136 1.64-.408 2.344-.272.704-.656 1.307-1.152 1.808-.496.5-1.09.89-1.784 1.164-.693.275-1.46.412-2.304.412h-4.288V5.536h4.288c.843 0 1.61.137 2.304.412.693.275 1.288.664 1.784 1.168.496.504.88 1.108 1.152 1.812.272.704.408 1.485.408 2.344zm-1.592 0c0-.704-.096-1.333-.288-1.888-.192-.555-.464-1.024-.816-1.408-.352-.384-.78-.677-1.28-.88-.5-.203-1.06-.304-1.672-.304h-2.728v8.952h2.728c.613 0 1.17-.1 1.672-.304.5-.203.928-.495 1.28-.876.352-.38.624-.85.816-1.404.192-.555.288-1.184.288-1.888zm7.188-2.504c.485 0 .933.08 1.344.244.41.163.765.397 1.064.704.3.307.532.685.7 1.136.168.45.252.964.252 1.54 0 .224-.024.373-.072.448-.048.075-.14.112-.272.112h-5.392c.01.512.08.957.208 1.336.128.38.304.695.528.948.224.253.49.443.8.568.31.125.656.188 1.04.188.357 0 .665-.04.924-.124.26-.083.48-.172.668-.268.187-.096.343-.185.468-.268.125-.083.233-.124.324-.124.117 0 .208.045.272.136l.4.52c-.176.213-.387.4-.632.556-.245.157-.508.287-.788.388-.28.1-.57.177-.868.228-.3.05-.595.076-.888.076-.56 0-1.076-.095-1.548-.284-.472-.19-.88-.467-1.224-.832-.344-.365-.612-.817-.804-1.356-.192-.54-.288-1.157-.288-1.856 0-.565.087-1.093.26-1.584.173-.49.423-.916.748-1.276s.723-.643 1.192-.848c.47-.205.997-.308 1.584-.308zm.032 1.048c-.688 0-1.23.2-1.624.596-.395.397-.64.948-.736 1.652h4.408c0-.33-.045-.633-.136-.908-.09-.275-.224-.512-.4-.712-.176-.2-.39-.355-.644-.464-.253-.11-.543-.164-.868-.164zM100.464 17V8.896h.848c.203 0 .33.1.384.296l.112.88c.352-.39.745-.704 1.18-.944.435-.24.937-.36 1.508-.36.443 0 .833.073 1.172.22.34.147.62.355.848.624.227.27.4.593.516.972.117.38.176.797.176 1.256V17h-1.424v-5.16c0-.613-.14-1.09-.42-1.428-.28-.34-.708-.508-1.284-.508-.42 0-.815.1-1.18.304-.365.203-.703.477-1.012.824V17h-1.424zm11.852.128c-.64 0-1.132-.18-1.476-.536-.344-.357-.516-.872-.516-1.544v-4.96h-.976c-.085 0-.157-.025-.216-.076-.06-.05-.088-.13-.088-.236v-.568l1.328-.168.328-2.504c.01-.08.045-.145.104-.196.06-.05.133-.076.224-.076h.72v2.792h2.32v1.032h-2.32v4.864c0 .34.083.595.248.76.165.165.38.248.64.248.15 0 .28-.02.388-.06.11-.04.204-.084.284-.132.08-.048.148-.092.204-.132.056-.04.105-.06.148-.06.075 0 .14.045.2.136l.416.68c-.245.23-.54.41-.888.54-.347.13-.704.196-1.072.196zm7.292-8.36c.592 0 1.127.1 1.604.296.477.197.883.477 1.216.84.333.363.59.8.768 1.316.18.515.268 1.09.268 1.724 0 .64-.09 1.216-.268 1.728-.18.512-.435.95-.768 1.312-.333.363-.74.64-1.216.836-.477.195-1.012.292-1.604.292-.592 0-1.127-.097-1.604-.292-.477-.195-.884-.473-1.22-.836-.336-.363-.595-.8-.776-1.312-.18-.512-.272-1.088-.272-1.728 0-.635.09-1.21.272-1.724.18-.515.44-.953.776-1.316.336-.363.743-.643 1.22-.84.477-.197 1.012-.296 1.604-.296zm0 7.232c.8 0 1.397-.268 1.792-.804s.592-1.284.592-2.244c0-.965-.197-1.717-.592-2.256-.395-.54-.992-.808-1.792-.808-.405 0-.757.07-1.056.208-.3.14-.548.34-.748.6-.2.26-.35.583-.448.964-.1.38-.148.812-.148 1.292s.05.91.148 1.288c.1.38.248.697.448.956.2.26.45.457.748.596.3.14.65.208 1.056.208zm6.116 1V8.896h.848c.203 0 .33.1.384.296l.112.88c.352-.39.745-.704 1.18-.944.435-.24.937-.36 1.508-.36.443 0 .833.073 1.172.22.34.147.62.355.848.624.227.27.4.593.516.972.117.38.176.797.176 1.256V17h-1.424v-5.16c0-.613-.14-1.09-.42-1.428-.28-.34-.708-.508-1.284-.508-.42 0-.815.1-1.18.304-.365.203-.703.477-1.012.824V17h-1.424z" fill="#FFF"/></g><path d="M.824 36.5l9.68-10.763c.365-.407 1.11-.737 1.657-.737H138.82c1.66 0 3.006 1.336 3.006 3.007v16.986c0 1.66-1.336 3.007-3.006 3.007H12.16c-.548 0-1.292-.332-1.657-.737L.823 36.5zm21.208 1.356c.075.128.14.263.196.404.056.14.11.284.164.428.053-.15.11-.292.168-.428.06-.136.125-.273.2-.412l3.88-7.048c.07-.123.14-.197.216-.224.075-.027.18-.04.32-.04h1.144V42h-1.36v-8.424c0-.112.003-.232.008-.36.005-.128.013-.26.024-.392l-3.928 7.168c-.133.24-.32.36-.56.36h-.224c-.24 0-.427-.12-.56-.36L17.704 32.8c.016.14.028.275.036.408.008.133.012.256.012.368V42h-1.36V30.536h1.144c.14 0 .245.013.32.04.075.027.147.1.216.224l3.96 7.056zm10.94-3.96V42h-1.424v-8.104h1.424zm.32-2.544c0 .14-.028.268-.084.388-.056.12-.13.227-.224.32-.093.093-.2.167-.324.22-.123.053-.253.08-.392.08-.14 0-.268-.027-.388-.08-.12-.053-.227-.127-.32-.22s-.167-.2-.22-.32c-.053-.12-.08-.25-.08-.388 0-.14.027-.27.08-.396.053-.125.127-.235.22-.328.093-.093.2-.167.32-.22.12-.053.25-.08.388-.08.14 0 .27.027.392.08.123.053.23.127.324.22.093.093.168.203.224.328.056.125.084.257.084.396zm8.22 3.984c-.043.06-.085.104-.128.136-.043.032-.104.048-.184.048s-.167-.033-.26-.1-.212-.14-.356-.22c-.144-.08-.32-.153-.524-.22-.205-.067-.457-.1-.756-.1-.395 0-.744.07-1.048.212-.304.14-.56.345-.764.612-.205.267-.36.59-.464.968-.104.38-.156.803-.156 1.272 0 .49.056.927.168 1.308.112.38.27.7.472.96.203.26.45.456.74.592.29.136.617.204.98.204.347 0 .632-.04.856-.124.224-.083.41-.175.56-.276.15-.1.272-.193.368-.276.096-.083.192-.124.288-.124.123 0 .213.045.272.136l.4.52c-.352.432-.792.748-1.32.948-.528.2-1.085.3-1.672.3-.507 0-.977-.093-1.412-.28-.435-.187-.812-.457-1.132-.812-.32-.355-.572-.79-.756-1.308-.184-.517-.276-1.107-.276-1.768 0-.603.084-1.16.252-1.672.168-.512.413-.953.736-1.324.323-.37.72-.66 1.196-.868.475-.208 1.02-.312 1.632-.312.565 0 1.067.092 1.504.276.437.184.824.444 1.16.78l-.376.512zM43.956 42V30.216h1.424v4.768c.347-.368.73-.663 1.152-.884.42-.22.907-.332 1.456-.332.443 0 .833.073 1.172.22.34.147.62.355.848.624.227.27.4.593.516.972.117.38.176.797.176 1.256V42h-1.424v-5.16c0-.613-.14-1.09-.42-1.428-.28-.34-.708-.508-1.284-.508-.42 0-.815.1-1.18.304-.365.203-.703.477-1.012.824V42h-1.424zm15.348 0h-.632c-.14 0-.25-.02-.336-.064-.085-.043-.14-.133-.168-.272l-.16-.752c-.213.192-.42.364-.624.516-.203.152-.416.28-.64.384-.224.104-.463.183-.716.236-.253.053-.535.08-.844.08-.315 0-.61-.044-.884-.132-.275-.088-.513-.22-.716-.396-.203-.176-.364-.4-.484-.668-.12-.27-.18-.588-.18-.956 0-.32.088-.628.264-.924.176-.296.46-.56.852-.788.392-.23.905-.417 1.54-.564.635-.147 1.41-.23 2.328-.252v-.632c0-.63-.135-1.105-.404-1.428-.27-.323-.668-.484-1.196-.484-.347 0-.64.044-.876.132-.237.088-.443.187-.616.296-.173.11-.323.208-.448.296s-.25.132-.372.132c-.096 0-.18-.025-.252-.076-.072-.05-.13-.113-.172-.188l-.256-.456c.448-.432.93-.755 1.448-.968.517-.213 1.09-.32 1.72-.32.453 0 .856.075 1.208.224.352.15.648.357.888.624s.42.59.544.968c.123.38.184.795.184 1.248V42zm-3.696-.872c.25 0 .48-.025.688-.076.208-.05.404-.123.588-.216.184-.093.36-.207.528-.34.168-.133.332-.285.492-.456v-1.688c-.656.02-1.213.073-1.672.156-.46.083-.832.19-1.12.324-.288.133-.497.29-.628.472-.13.18-.196.384-.196.608 0 .213.035.397.104.552.07.155.163.28.28.38.117.1.256.17.416.216.16.045.333.068.52.068zm9.564-7.36c.485 0 .933.08 1.344.244.41.163.765.397 1.064.704.3.307.532.685.7 1.136.168.45.252.964.252 1.54 0 .224-.024.373-.072.448-.048.075-.14.112-.272.112h-5.392c.01.512.08.957.208 1.336.128.38.304.695.528.948.224.253.49.443.8.568.31.125.656.188 1.04.188.357 0 .665-.04.924-.124.26-.083.48-.172.668-.268.187-.096.343-.185.468-.268.125-.083.233-.124.324-.124.117 0 .208.045.272.136l.4.52c-.176.213-.387.4-.632.556-.245.157-.508.287-.788.388-.28.1-.57.177-.868.228-.3.05-.595.076-.888.076-.56 0-1.076-.095-1.548-.284-.472-.19-.88-.467-1.224-.832-.344-.365-.612-.817-.804-1.356-.192-.54-.288-1.157-.288-1.856 0-.565.087-1.093.26-1.584.173-.49.423-.916.748-1.276s.723-.643 1.192-.848c.47-.205.997-.308 1.584-.308zm.032 1.048c-.688 0-1.23.2-1.624.596-.395.397-.64.948-.736 1.652h4.408c0-.33-.045-.633-.136-.908-.09-.275-.224-.512-.4-.712-.176-.2-.39-.355-.644-.464-.253-.11-.543-.164-.868-.164zm7.228-4.6V42h-1.424V30.216h1.424zm16.76 6.056c0 .86-.136 1.64-.408 2.344-.272.704-.656 1.307-1.152 1.808-.496.5-1.09.89-1.784 1.164-.693.275-1.46.412-2.304.412h-4.288V30.536h4.288c.843 0 1.61.137 2.304.412.693.275 1.288.664 1.784 1.168.496.504.88 1.108 1.152 1.812.272.704.408 1.485.408 2.344zm-1.592 0c0-.704-.096-1.333-.288-1.888-.192-.555-.464-1.024-.816-1.408-.352-.384-.78-.677-1.28-.88-.5-.203-1.06-.304-1.672-.304h-2.728v8.952h2.728c.613 0 1.17-.1 1.672-.304.5-.203.928-.495 1.28-.876.352-.38.624-.85.816-1.404.192-.555.288-1.184.288-1.888zm7.188-2.504c.485 0 .933.08 1.344.244.41.163.765.397 1.064.704.3.307.532.685.7 1.136.168.45.252.964.252 1.54 0 .224-.024.373-.072.448-.048.075-.14.112-.272.112h-5.392c.01.512.08.957.208 1.336.128.38.304.695.528.948.224.253.49.443.8.568.31.125.656.188 1.04.188.357 0 .665-.04.924-.124.26-.083.48-.172.668-.268.187-.096.343-.185.468-.268.125-.083.233-.124.324-.124.117 0 .208.045.272.136l.4.52c-.176.213-.387.4-.632.556-.245.157-.508.287-.788.388-.28.1-.57.177-.868.228-.3.05-.595.076-.888.076-.56 0-1.076-.095-1.548-.284-.472-.19-.88-.467-1.224-.832-.344-.365-.612-.817-.804-1.356-.192-.54-.288-1.157-.288-1.856 0-.565.087-1.093.26-1.584.173-.49.423-.916.748-1.276s.723-.643 1.192-.848c.47-.205.997-.308 1.584-.308zm.032 1.048c-.688 0-1.23.2-1.624.596-.395.397-.64.948-.736 1.652h4.408c0-.33-.045-.633-.136-.908-.09-.275-.224-.512-.4-.712-.176-.2-.39-.355-.644-.464-.253-.11-.543-.164-.868-.164zM100.464 42v-8.104h.848c.203 0 .33.1.384.296l.112.88c.352-.39.745-.704 1.18-.944.435-.24.937-.36 1.508-.36.443 0 .833.073 1.172.22.34.147.62.355.848.624.227.27.4.593.516.972.117.38.176.797.176 1.256V42h-1.424v-5.16c0-.613-.14-1.09-.42-1.428-.28-.34-.708-.508-1.284-.508-.42 0-.815.1-1.18.304-.365.203-.703.477-1.012.824V42h-1.424zm11.852.128c-.64 0-1.132-.18-1.476-.536-.344-.357-.516-.872-.516-1.544v-4.96h-.976c-.085 0-.157-.025-.216-.076-.06-.05-.088-.13-.088-.236v-.568l1.328-.168.328-2.504c.01-.08.045-.145.104-.196.06-.05.133-.076.224-.076h.72v2.792h2.32v1.032h-2.32v4.864c0 .34.083.595.248.76.165.165.38.248.64.248.15 0 .28-.02.388-.06.11-.04.204-.084.284-.132.08-.048.148-.092.204-.132.056-.04.105-.06.148-.06.075 0 .14.045.2.136l.416.68c-.245.23-.54.41-.888.54-.347.13-.704.196-1.072.196zm7.292-8.36c.592 0 1.127.1 1.604.296.477.197.883.477 1.216.84.333.363.59.8.768 1.316.18.515.268 1.09.268 1.724 0 .64-.09 1.216-.268 1.728-.18.512-.435.95-.768 1.312-.333.363-.74.64-1.216.836-.477.195-1.012.292-1.604.292-.592 0-1.127-.097-1.604-.292-.477-.195-.884-.473-1.22-.836-.336-.363-.595-.8-.776-1.312-.18-.512-.272-1.088-.272-1.728 0-.635.09-1.21.272-1.724.18-.515.44-.953.776-1.316.336-.363.743-.643 1.22-.84.477-.197 1.012-.296 1.604-.296zm0 7.232c.8 0 1.397-.268 1.792-.804s.592-1.284.592-2.244c0-.965-.197-1.717-.592-2.256-.395-.54-.992-.808-1.792-.808-.405 0-.757.07-1.056.208-.3.14-.548.34-.748.6-.2.26-.35.583-.448.964-.1.38-.148.812-.148 1.292s.05.91.148 1.288c.1.38.248.697.448.956.2.26.45.457.748.596.3.14.65.208 1.056.208zm6.116 1v-8.104h.848c.203 0 .33.1.384.296l.112.88c.352-.39.745-.704 1.18-.944.435-.24.937-.36 1.508-.36.443 0 .833.073 1.172.22.34.147.62.355.848.624.227.27.4.593.516.972.117.38.176.797.176 1.256V42h-1.424v-5.16c0-.613-.14-1.09-.42-1.428-.28-.34-.708-.508-1.284-.508-.42 0-.815.1-1.18.304-.365.203-.703.477-1.012.824V42h-1.424z" fill="#FFF"/></g></svg>