<?xml version="1.0" encoding="UTF-8"?>
<svg width="962px" height="483px" viewBox="0 0 962 483" version="1.1" xmlns="http://www.w3.org/2000/svg" xmlns:xlink="http://www.w3.org/1999/xlink">
    <!-- Generator: Sketch 43.2 (39069) - http://www.bohemiancoding.com/sketch -->
    <title>Group 71 Copy 2</title>
    <desc>Created with Sketch.</desc>
    <defs></defs>
    <g id="Page-1" stroke="none" stroke-width="1" fill="none" fill-rule="evenodd" opacity="0.704200634">
        <g id="Group-71-Copy-2" transform="translate(0.000000, -5.000000)" fill="#464643">
            <g id="Group-55" opacity="0.0965240036" transform="translate(143.139062, 375.076681) rotate(-37.000000) translate(-143.139062, -375.076681) translate(114.639062, 320.076681)">
                <path d="M31.297,50.134 C18.897,51.099 7.073,43.526 4.4,31.06 C1.695,18.449 10.204,6.989 22.59,4.446 C35.585,1.083 47.707,10.193 51.798,22.128 C56.823,36.787 45.863,49.001 31.297,50.134 Z M32.232,61.764 C30.787,61.557 29.228,61.619 27.824,61.967 C27.361,59.057 27.19,56.092 27.008,53.148 C28.65,53.254 30.3,53.217 31.94,53.066 C32.132,55.96 32.034,58.87 32.232,61.764 Z M36.499,75.792 C37.103,83.338 37.911,91.411 37.499,98.971 C37.341,101.887 37.196,104.211 34.639,105.751 C32.884,106.807 30.802,106.939 28.795,106.425 C28.721,106.406 28.66,106.378 28.589,106.357 C28.892,106.217 29.186,106.061 29.498,105.94 C30.062,105.721 30.46,105.184 30.284,104.556 C30.133,104.017 29.471,103.549 28.9,103.77 C28.051,104.101 27.229,104.482 26.432,104.91 C26.135,104.519 25.907,104.078 25.734,103.598 C27.17,102.462 28.656,101.396 30.199,100.407 C31.414,99.628 30.287,97.68 29.063,98.465 C27.749,99.306 26.486,100.218 25.245,101.161 C25.197,100.629 25.169,100.087 25.152,99.545 C26.664,98.503 28.177,97.462 29.688,96.421 C30.873,95.605 29.749,93.654 28.552,94.478 C27.393,95.277 26.233,96.075 25.073,96.874 C25.06,96.342 25.043,95.808 25.026,95.275 C26.408,93.969 27.865,92.761 29.442,91.692 C30.634,90.884 29.509,88.934 28.306,89.75 C27.128,90.549 26.001,91.416 24.919,92.336 C24.884,91.468 24.848,90.6 24.813,89.732 C26.243,88.627 27.741,87.615 29.3,86.7 C30.548,85.968 29.417,84.022 28.164,84.757 C26.972,85.457 25.832,86.231 24.713,87.035 C24.697,86.551 24.681,86.067 24.668,85.582 C26.112,84.592 27.555,83.602 28.998,82.611 C30.185,81.797 29.061,79.846 27.863,80.669 C26.781,81.411 25.699,82.153 24.617,82.895 C24.613,82.413 24.616,81.932 24.617,81.45 C24.717,81.395 24.815,81.327 24.906,81.229 C26.385,79.647 28.02,78.263 29.837,77.083 C31.047,76.297 29.92,74.348 28.701,75.14 C27.268,76.071 25.926,77.12 24.68,78.281 C24.703,77.683 24.737,77.086 24.774,76.488 C26.423,75.132 28.212,73.991 30.139,73.06 C31.442,72.429 30.302,70.489 29.003,71.117 C27.59,71.801 26.26,72.609 24.99,73.509 C25.033,72.947 25.079,72.372 25.14,71.795 C26.482,70.854 27.889,70.03 29.377,69.335 C30.687,68.723 29.546,66.782 28.241,67.393 C27.373,67.798 26.531,68.248 25.714,68.738 C26.342,66.698 27.561,65.068 30.153,64.734 C36.079,63.97 36.177,71.771 36.499,75.792 Z M52.495,16.252 C46.766,5.341 34.171,-1.65 21.792,1.553 C11.571,3.652 2.492,11.971 1.071,22.571 C-0.362,33.257 5.18,44.362 14.616,49.587 C17.525,51.197 20.711,52.248 23.987,52.787 C24.214,56.291 24.405,59.824 25.006,63.284 C22.063,65.719 22.194,71.337 21.89,74.76 C21.226,82.264 21.923,89.815 22.086,97.325 C22.25,100.766 21.979,106.126 25.164,108.426 C27.628,110.205 34.013,110.415 36.602,108.817 C40.28,106.547 40.549,100.826 40.516,97.065 C40.451,89.426 40.168,81.496 39.322,73.905 C38.891,70.044 39.005,65.033 35.316,62.785 C34.994,59.416 35.163,56.021 34.905,52.649 C39.362,51.803 43.627,50.004 47.236,47.245 C57.364,39.5 58.181,27.081 52.495,16.252 L52.495,16.252 Z" id="Fill-14"></path>
                <path d="M45.062,39.241 C41.91,43.746 36.239,45.254 31.023,45.359 C21.71,45.548 11.388,39.839 8.971,30.333 C6.177,19.343 16.77,9.254 27.191,8.551 C36.603,8.278 44.241,15.294 46.711,24.178 C48.033,28.936 48.005,35.035 45.062,39.241 Z M27.191,6.301 C15.999,7.056 4.608,17.275 6.454,29.187 C8.22,40.574 20.113,47.83 31.023,47.609 C43.135,47.364 51.23,39.152 49.535,26.777 C48.006,15.604 38.736,5.966 27.191,6.301 L27.191,6.301 Z" id="Fill-16"></path>
                <path d="M19.832,17.295 C18.055,18.718 16.448,20.46 15.333,22.456 C14.701,23.587 14.201,24.831 13.927,26.098 C13.843,26.489 13.864,26.945 13.737,27.323 C13.369,28.417 12.485,30.259 12.499,27.203 C12.849,23.272 14.734,19.761 17.849,17.301 C18.351,16.906 22.221,14.351 22.125,15.7 C22.108,15.935 20.146,17.044 19.832,17.295 Z M19.072,13.839 C13.94,16.432 10.75,21.57 10.249,27.203 C10.241,28.864 10.509,31.395 12.48,31.881 C14.007,32.258 15.255,31.032 15.692,29.72 C16.109,28.467 15.956,27.082 16.324,25.802 C16.839,24.015 17.911,22.405 19.133,21.027 C20.605,19.365 23.077,18.482 24.365,16.793 C25.105,15.822 25.147,14.175 24.236,13.301 C22.88,11.999 20.452,13.141 19.072,13.839 L19.072,13.839 Z" id="Fill-17"></path>
                <path d="M29.794,14.58 C29.538,14.805 29.201,14.922 28.875,14.787 C28.049,14.444 28.223,13.417 28.87,13.023 C29.276,12.885 29.569,12.863 29.802,13.152 C30.014,13.415 30.114,13.878 30.077,14.208 C30.072,14.238 30.065,14.265 30.058,14.276 C30,14.373 29.877,14.508 29.794,14.58 Z M28.06,10.926 C28.043,10.933 28.03,10.943 28.013,10.95 C27.94,10.972 27.866,11.001 27.791,11.04 C25.987,11.985 25.508,14.453 26.838,15.997 C28.229,17.612 30.699,17.324 31.866,15.602 C32.568,14.566 32.405,13.168 31.803,12.119 C31.025,10.76 29.476,10.376 28.06,10.926 L28.06,10.926 Z" id="Fill-18"></path>
            </g>
            <g id="Group-54" opacity="0.0965240036" transform="translate(352.000000, 409.000000)">
                <path d="M95.839,59.237 C95.711,63.342 95.812,67.505 95.478,71.601 C95.237,74.573 94.018,74.441 91.283,74.888 C88.463,75.35 85.617,75.704 82.758,75.768 C72.249,76.004 61.62,75.519 51.089,75.54 C38.637,75.565 26.189,75.203 13.744,74.825 C9.847,74.707 3.812,75.24 3.569,70.22 C3.431,67.394 3.475,64.539 3.388,61.709 C3.203,55.626 3.026,49.555 3.404,43.475 C3.956,34.527 3.668,25.512 4.16,16.554 C34.645,15.647 65.147,15.746 95.624,16.852 C95.658,21.088 95.463,25.33 95.441,29.564 C95.388,39.475 96.148,49.319 95.839,59.237 Z M8.997,4.267 C10.262,4.147 11.533,4.116 12.801,4.032 C18.023,3.684 23.229,3.438 28.465,3.399 C39.696,3.317 50.932,3.448 62.163,3.497 C66.992,3.518 71.822,3.54 76.65,3.559 C81.744,3.58 87.275,2.951 92.314,3.613 C94.678,3.924 94.785,4.118 95.209,6.529 C95.599,8.746 95.461,11.357 95.558,13.612 C95.572,13.941 95.568,14.271 95.578,14.601 C65.162,13.498 34.723,13.398 4.301,14.301 C4.423,12.583 4.569,10.868 4.771,9.157 C5.154,5.924 5.759,4.575 8.997,4.267 Z M98.524,37.021 C98.366,31.893 98.46,26.762 98.565,21.634 C98.632,18.359 98.641,15.115 98.467,11.843 C98.328,9.233 98.788,5.906 98.081,3.391 C97.369,0.859 95.416,0.737 93.079,0.626 C87.015,0.336 80.889,0.577 74.817,0.552 C61.264,0.495 47.711,0.412 34.159,0.391 C27.022,0.381 19.922,0.558 12.801,1.032 C10.236,1.202 5.95,0.707 3.858,2.501 C2.465,3.695 2.295,5.589 2,7.256 C1.34,10.988 1.249,14.889 1.097,18.669 C0.764,26.937 0.914,35.213 0.404,43.475 C-0.011,50.163 0.252,56.835 0.445,63.525 C0.553,67.272 -0.645,73.324 2.533,76.141 C5.81,79.044 12.746,77.796 16.632,77.912 C23.787,78.128 30.943,78.331 38.1,78.443 C51.516,78.654 64.913,78.171 78.317,78.693 C83.445,78.892 89.082,78.689 94.145,77.82 C97.156,77.303 98.092,75.503 98.394,72.651 C99.644,60.88 98.884,48.811 98.524,37.021 L98.524,37.021 Z" id="Fill-54"></path>
                <path d="M10.289,9.445 C10.441,8.893 10.874,8.045 11.536,8.059 C12.146,8.085 12.547,8.363 12.727,8.923 C13.026,9.848 12.492,10.062 11.647,10.218 C11.251,10.291 10.917,10.287 10.541,10.12 C10.149,9.946 10.172,9.871 10.289,9.445 Z M11.627,12.485 C13.462,12.267 15.385,11.208 15.067,9.076 C14.785,7.176 13.493,5.892 11.536,5.809 C9.666,5.77 8.299,7.608 8.011,9.313 C7.652,11.432 9.699,12.714 11.627,12.485 L11.627,12.485 Z" id="Fill-55"></path>
                <path d="M19.858,8.631 C20.012,7.951 20.87,7.686 21.477,7.718 C22.214,7.733 22.722,8.113 22.617,8.866 C22.5,9.701 21.972,10.274 21.082,10.123 C20.41,10.01 19.687,9.389 19.858,8.631 Z M21.06,12.377 C23.146,12.55 24.622,11.02 24.846,9.03 C25.078,6.967 23.494,5.511 21.477,5.468 C19.663,5.374 17.706,6.691 17.606,8.606 C17.501,10.612 19.111,12.215 21.06,12.377 L21.06,12.377 Z" id="Fill-56"></path>
                <path d="M30.981,7.415 C32.606,7.35 32.854,9.659 31.23,9.955 C30.588,10.072 29.608,9.803 29.558,9.088 C29.505,8.313 30.212,7.446 30.981,7.415 Z M31.195,12.215 C33.044,12.1 34.644,10.524 34.646,8.638 C34.648,6.756 32.837,5.091 30.981,5.165 C28.961,5.246 27.455,6.943 27.322,8.93 C27.179,11.063 29.218,12.337 31.195,12.215 L31.195,12.215 Z" id="Fill-57"></path>
                <path d="M20.688,47.837 C22.354,49.915 26.001,51.385 28.098,53.104 C29.741,54.452 31.261,55.921 32.788,57.396 C33.404,57.991 35.292,59.194 35.55,60.053 C36.813,64.264 33.423,63.964 31.345,63.279 C31.542,63.133 31.739,62.987 31.936,62.841 C32.424,62.48 32.67,61.866 32.34,61.302 C32.058,60.821 31.292,60.535 30.801,60.898 C30.36,61.224 29.92,61.55 29.48,61.875 C29.32,61.993 29.201,62.144 29.105,62.305 C28.635,62.068 28.168,61.814 27.704,61.542 C27.869,61.424 28.033,61.306 28.211,61.199 C29.451,60.455 28.322,58.509 27.075,59.257 C26.587,59.549 26.135,59.896 25.705,60.269 C25.147,59.889 24.595,59.5 24.05,59.1 C24.364,58.934 24.677,58.768 24.99,58.602 C26.27,57.924 25.134,55.981 23.854,56.659 C23.259,56.975 22.663,57.291 22.068,57.607 C21.709,57.33 21.353,57.054 21.004,56.784 C21.185,56.66 21.369,56.539 21.565,56.429 C22.828,55.721 21.695,53.777 20.429,54.487 C19.977,54.74 19.558,55.045 19.156,55.369 C18.645,54.984 18.09,54.565 17.516,54.115 C17.802,53.887 18.101,53.685 18.447,53.522 C18.996,53.262 19.138,52.474 18.85,51.982 C18.522,51.42 17.863,51.318 17.311,51.579 C16.738,51.85 16.225,52.229 15.76,52.66 C15.344,52.292 14.936,51.91 14.549,51.517 C14.909,51.279 15.27,51.04 15.63,50.802 C16.832,50.005 15.706,48.056 14.494,48.859 C14.023,49.171 13.552,49.483 13.08,49.795 C12.557,49.066 12.152,48.309 11.922,47.536 L12.991,47.536 C14.438,47.536 14.441,45.286 12.991,45.286 L11.804,45.286 C11.948,44.593 12.271,43.894 12.813,43.195 C13.229,43.637 13.653,44.071 14.149,44.426 C14.643,44.78 15.401,44.512 15.688,44.023 C16.019,43.457 15.78,42.838 15.284,42.483 C15.465,42.613 15.102,42.316 15.068,42.283 C14.925,42.148 14.788,42.006 14.652,41.864 C14.573,41.782 14.495,41.699 14.418,41.616 C14.796,41.305 15.171,40.992 15.54,40.674 C15.978,41.093 16.391,41.533 16.769,42.008 C17.148,42.484 17.965,42.404 18.36,42.008 C18.83,41.538 18.74,40.894 18.36,40.417 C18.011,39.978 17.63,39.571 17.23,39.18 C17.766,38.698 18.3,38.214 18.832,37.729 C19.257,38.111 19.693,38.481 20.098,38.882 C21.128,39.902 22.72,38.312 21.689,37.291 C21.312,36.917 20.908,36.571 20.511,36.217 C21.125,35.672 21.748,35.135 22.38,34.608 C22.781,35.076 23.213,35.508 23.626,35.97 C24.595,37.051 26.182,35.455 25.218,34.379 C24.866,33.987 24.448,33.639 24.116,33.23 C24.399,33.015 24.678,32.797 24.968,32.589 C25.383,32.291 25.785,31.977 26.184,31.661 C26.391,31.944 26.598,32.227 26.805,32.511 C27.163,33.001 27.782,33.243 28.344,32.914 C28.828,32.632 29.108,31.868 28.748,31.375 C28.483,31.012 28.218,30.65 27.953,30.287 C28.458,29.908 28.984,29.559 29.53,29.239 C29.561,29.279 29.59,29.319 29.629,29.357 C29.962,29.682 30.295,30.007 30.627,30.332 C31.664,31.345 33.256,29.756 32.219,28.741 C32.028,28.555 31.837,28.368 31.646,28.182 C33.044,27.646 34.244,27.648 35.167,29.371 C36.334,31.553 35.11,32.062 33.622,33.577 C29.904,37.364 25.147,39.978 21.39,43.65 C19.98,45.03 19.402,46.233 20.688,47.837 Z M37.119,26.712 C33.992,24.169 29.616,26.319 26.83,28.252 C21.583,31.894 17.276,36.462 12.317,40.449 C4.783,47.041 13.903,54.232 19.129,58.146 C22.666,60.794 26.911,64.434 31.233,65.715 C34.092,66.561 38.498,65.445 38.704,61.853 C38.908,58.298 33.422,54.747 31.036,52.656 C29.576,51.375 28.045,50.169 26.454,49.056 C25.759,48.57 25.041,48.116 24.339,47.641 C22.8,46.6 22.189,46.823 23.133,45.328 C25.513,41.557 44.313,32.56 37.119,26.712 L37.119,26.712 Z" id="Fill-58"></path>
                <path d="M85.202,49.539 C81.395,52.6 78.116,56.14 74.143,58.99 C72.405,60.237 70.874,61.744 68.95,62.712 C66.91,63.739 65.178,64.514 63.944,62.207 C63.438,61.262 63.398,60.637 63.617,60.101 C64.161,60.535 64.699,60.978 65.264,61.386 C65.757,61.741 66.518,61.47 66.803,60.982 C67.135,60.414 66.894,59.8 66.4,59.443 C65.945,59.114 65.506,58.762 65.069,58.409 C65.205,58.279 65.344,58.148 65.489,58.001 C65.819,57.665 66.165,57.348 66.509,57.03 C66.967,57.516 67.419,58.007 67.926,58.442 C68.387,58.838 69.065,58.895 69.517,58.442 C69.922,58.037 69.98,57.248 69.517,56.851 C69.048,56.449 68.626,55.998 68.203,55.548 C68.744,55.102 69.293,54.666 69.849,54.239 C70.312,54.833 70.771,55.432 71.296,55.973 C72.308,57.013 73.898,55.421 72.887,54.382 C72.434,53.915 72.031,53.404 71.631,52.891 C72.09,52.549 72.548,52.206 73.005,51.862 C73.434,52.262 73.791,52.71 74.175,53.158 C74.571,53.62 75.36,53.564 75.766,53.158 C76.224,52.7 76.162,52.03 75.766,51.567 C75.446,51.193 75.137,50.824 74.799,50.475 C75.392,50.004 75.968,49.516 76.534,49.016 C76.82,49.227 77.086,49.455 77.334,49.717 C78.333,50.769 79.922,49.177 78.925,48.126 C78.693,47.882 78.444,47.656 78.183,47.445 C78.595,46.982 78.884,46.531 79.029,46.07 C79.494,46.098 79.96,46.127 80.426,46.156 C81.033,46.194 81.551,45.612 81.551,45.031 C81.551,44.391 81.035,43.944 80.426,43.906 C79.768,43.866 79.11,43.825 78.451,43.784 C78.44,43.769 78.434,43.756 78.422,43.741 C78.138,43.387 77.782,43.055 77.4,42.732 C77.76,42.562 78.12,42.392 78.481,42.222 C79.031,41.964 79.171,41.175 78.884,40.683 C78.555,40.12 77.897,40.02 77.345,40.28 C76.664,40.6 75.985,40.921 75.304,41.241 C74.947,41.018 74.588,40.798 74.225,40.581 C74.531,40.433 74.835,40.285 75.14,40.137 C75.687,39.871 75.833,39.093 75.543,38.597 C75.217,38.039 74.553,37.928 74.004,38.194 C73.388,38.493 72.772,38.792 72.155,39.092 C72.099,39.119 72.065,39.171 72.017,39.208 C71.658,38.967 71.317,38.724 71.012,38.474 C70.875,38.362 70.749,38.239 70.614,38.124 C71.037,37.889 71.468,37.669 71.908,37.464 C72.458,37.207 72.598,36.415 72.312,35.925 C71.982,35.36 71.325,35.263 70.773,35.521 C70.107,35.832 69.467,36.187 68.839,36.566 C68.407,36.167 67.979,35.762 67.553,35.356 C67.801,35.204 68.058,35.064 68.317,34.956 C68.877,34.723 69.278,34.211 69.102,33.572 C68.956,33.043 68.283,32.552 67.718,32.786 C67.049,33.065 66.463,33.409 65.887,33.813 C65.573,33.561 65.186,33.267 64.81,32.955 C65.087,32.712 65.379,32.499 65.714,32.32 C66.991,31.637 65.857,29.695 64.578,30.377 C64.182,30.589 63.815,30.856 63.467,31.145 C62.472,27.114 66.174,27.69 68.125,28.427 C72.155,29.946 76.047,33.24 79.434,35.815 C83.337,38.784 91.245,44.251 85.202,49.539 Z M79.981,33.432 C76.445,30.784 72.199,27.145 67.877,25.864 C65.019,25.017 60.613,26.134 60.407,29.726 C60.202,33.281 65.688,36.831 68.074,38.923 C69.534,40.203 71.066,41.41 72.657,42.523 C73.351,43.009 74.07,43.463 74.772,43.938 C76.31,44.978 76.921,44.756 75.977,46.251 C73.597,50.021 54.797,59.018 61.991,64.867 C65.118,67.41 69.494,65.26 72.28,63.326 C77.528,59.685 81.834,55.116 86.793,51.13 C94.327,44.537 85.208,37.346 79.981,33.432 L79.981,33.432 Z" id="Fill-59"></path>
                <path d="M52.395,46.379 C51.837,48.833 51.236,51.277 50.595,53.711 C49.782,56.801 49.136,63.001 45.279,62.889 C43.162,62.827 43.053,62.631 43.133,61.267 C43.404,61.313 43.674,61.396 43.931,61.484 C44.506,61.681 45.161,61.258 45.315,60.699 C45.485,60.081 45.106,59.512 44.53,59.314 C44.118,59.173 43.703,59.096 43.278,59.034 C43.319,58.63 43.37,58.225 43.429,57.82 C43.927,57.914 44.429,57.981 44.936,57.992 C46.385,58.025 46.384,55.775 44.936,55.742 C44.54,55.734 44.165,55.683 43.785,55.604 C43.823,55.377 43.862,55.148 43.896,54.923 C43.915,54.804 43.938,54.686 43.957,54.568 C44.448,54.627 44.933,54.708 45.417,54.829 C46.822,55.18 47.421,53.011 46.015,52.66 C45.461,52.521 44.898,52.429 44.332,52.357 C44.445,51.699 44.545,51.04 44.667,50.384 C45.311,50.464 45.941,50.623 46.55,50.849 C47.12,51.061 47.783,50.614 47.934,50.064 C48.107,49.434 47.72,48.892 47.148,48.68 C46.485,48.433 45.803,48.293 45.11,48.194 C45.208,47.707 45.303,47.219 45.406,46.734 C45.918,46.851 46.429,46.968 46.942,47.085 C48.351,47.408 48.953,45.239 47.54,44.915 C46.976,44.786 46.413,44.657 45.849,44.529 C45.942,44.054 46.048,43.508 46.167,42.904 C46.521,42.997 46.875,43.09 47.229,43.183 C48.631,43.552 49.228,41.382 47.827,41.013 C47.425,40.907 47.022,40.802 46.62,40.696 C46.679,40.416 46.741,40.132 46.804,39.844 C47.439,39.979 48.073,40.115 48.707,40.25 C49.301,40.377 49.924,40.074 50.092,39.465 C50.245,38.904 49.903,38.208 49.306,38.08 C48.641,37.939 47.978,37.797 47.314,37.655 C47.423,37.21 47.536,36.763 47.654,36.318 C48.089,36.413 48.529,36.477 48.96,36.593 C50.361,36.966 50.958,34.797 49.558,34.423 C49.135,34.31 48.701,34.245 48.274,34.153 C48.362,33.869 48.452,33.588 48.544,33.313 C48.958,33.374 49.351,33.471 49.745,33.619 C50.314,33.833 50.978,33.382 51.128,32.833 C51.302,32.202 50.914,31.664 50.343,31.449 C50.015,31.327 49.686,31.244 49.347,31.183 C49.49,30.851 49.637,30.539 49.786,30.243 C50.134,30.402 50.5,30.519 50.877,30.575 C51.478,30.664 52.086,30.426 52.261,29.79 C52.407,29.26 52.08,28.495 51.476,28.406 C51.341,28.386 51.229,28.344 51.108,28.31 C51.533,27.905 51.979,27.682 52.445,27.695 C57.802,27.837 52.981,43.801 52.395,46.379 Z M52.445,25.445 C49.148,25.352 48.181,28.281 47.27,31.032 C45.243,37.153 43.681,43.445 42.502,49.781 C41.886,53.096 37.741,67.317 45.299,66.428 C48.273,66.078 50.136,62.949 51.064,60.45 C53.025,55.169 54.093,49.309 55.262,43.803 C55.832,41.115 56.336,38.414 56.853,35.715 C57.203,33.885 58.167,31.508 57.926,29.613 C57.542,26.588 55.246,25.519 52.445,25.445 L52.445,25.445 Z" id="Fill-60"></path>
            </g>
            <g id="Group-61" opacity="0.0965240036" transform="translate(237.514501, 235.949557) rotate(6.000000) translate(-237.514501, -235.949557) translate(188.014501, 194.949557)">
                <path d="M37.68,78.532 C35.92,78.627 34.171,78.141 33.667,76.263 C33.026,73.867 35.148,71.949 37.467,72.353 C37.485,72.356 37.502,72.354 37.52,72.357 C37.627,72.384 37.742,72.402 37.866,72.407 C39.438,72.47 40.523,73.742 40.824,75.236 C41.225,77.225 39.502,78.436 37.68,78.532 Z M37.866,69.407 L37.852,69.407 C34.134,68.954 30.783,71.177 30.557,75.186 C30.341,79.051 33.51,81.419 37.068,81.534 C40.482,81.646 44.043,79.443 43.893,75.684 C43.761,72.349 41.216,69.54 37.866,69.407 L37.866,69.407 Z" id="Fill-33"></path>
                <path d="M82.148,78.45 C80.095,78.36 78.362,78.099 77.993,75.661 C77.663,73.479 79.106,71.924 81.308,72.183 C83.122,72.205 83.533,72.8 83.942,74.453 C84.306,75.925 84.232,78.542 82.148,78.45 Z M81.308,69.183 C77.676,68.757 74.802,71.753 74.94,75.316 C75.015,77.264 75.929,79.266 77.538,80.415 C78.88,81.374 80.565,81.333 82.148,81.45 C85.619,81.707 87.693,77.773 87.078,74.695 C86.402,71.314 84.994,69.229 81.308,69.183 L81.308,69.183 Z" id="Fill-34"></path>
                <path d="M87.118,51.338 C85.679,55.91 83.098,55.8 78.492,55.914 C77.539,55.938 76.584,55.95 75.63,55.969 C76.322,52.619 76.98,49.25 77.637,45.874 C81.342,45.986 85.046,46.114 88.749,46.263 C88.199,47.953 87.652,49.644 87.118,51.338 Z M54.593,56.058 C54.364,52.459 54.112,48.863 53.866,45.265 C57.244,45.349 60.624,45.429 64.003,45.511 C63.765,49.034 63.545,52.559 63.352,56.086 C60.433,56.089 57.514,56.079 54.593,56.058 Z M24.422,18.22 C27.77,18.344 31.115,18.485 34.455,18.646 C35.177,21.803 35.836,24.973 36.464,28.149 C33.115,27.879 29.764,27.618 26.411,27.373 C26.226,26.685 26.037,25.998 25.857,25.31 C25.283,23.126 24.883,20.668 24.422,18.22 Z M66.046,20.666 C65.726,23.954 65.428,27.243 65.147,30.534 C61.009,30.199 56.872,29.854 52.735,29.503 C52.489,26.221 52.25,22.938 51.99,19.657 C56.085,19.93 60.182,20.22 64.282,20.541 C64.87,20.587 65.458,20.622 66.046,20.666 Z M80.714,21.632 C79.817,24.905 79.014,28.211 78.277,31.539 C74.643,31.282 71.012,31.005 67.382,30.716 C67.663,27.418 67.962,24.12 68.282,20.825 C72.325,21.112 76.37,21.372 80.416,21.62 C80.501,21.626 80.615,21.628 80.714,21.632 Z M52.907,31.768 C56.925,32.108 60.944,32.443 64.964,32.769 C64.674,36.266 64.407,39.764 64.162,43.264 C60.679,43.18 57.197,43.098 53.714,43.011 C53.454,39.263 53.184,35.515 52.907,31.768 Z M38.787,28.339 C38.159,25.14 37.501,21.948 36.785,18.768 C41.102,18.987 45.416,19.237 49.729,19.514 C49.988,22.779 50.225,26.046 50.47,29.313 C46.577,28.983 42.683,28.657 38.787,28.339 Z M41.61,42.675 C40.782,38.666 40.012,34.645 39.234,30.625 C43.038,30.937 46.841,31.255 50.642,31.576 C50.924,35.368 51.197,39.16 51.46,42.953 C48.177,42.87 44.893,42.777 41.61,42.675 Z M44.729,55.941 C43.729,52.299 42.876,48.626 42.087,44.94 C45.262,45.037 48.437,45.127 51.612,45.207 C51.859,48.818 52.112,52.428 52.342,56.039 C49.804,56.017 47.267,55.991 44.733,55.962 C44.731,55.954 44.731,55.949 44.729,55.941 Z M27.031,29.67 C30.326,29.912 33.619,30.169 36.91,30.436 C37.699,34.493 38.47,38.554 39.299,42.603 C36.377,42.506 33.455,42.401 30.534,42.278 C29.381,38.071 28.184,33.875 27.031,29.67 Z M33.943,55.841 C33.108,52.056 32.16,48.296 31.153,44.551 C34.027,44.67 36.902,44.774 39.776,44.867 C40.561,48.576 41.413,52.271 42.404,55.935 C39.579,55.903 36.759,55.869 33.943,55.841 Z M66.408,43.319 C66.65,39.862 66.914,36.406 67.199,32.95 C70.726,33.233 74.255,33.505 77.786,33.757 C77.09,37.017 76.44,40.292 75.801,43.567 C72.67,43.476 69.539,43.396 66.408,43.319 Z M65.602,56.082 C65.794,52.574 66.013,49.07 66.249,45.565 C69.287,45.64 72.326,45.717 75.365,45.804 C74.7,49.219 74.034,52.628 73.328,56.014 C70.757,56.053 68.18,56.073 65.602,56.082 Z M90.166,41.904 C89.936,42.616 89.703,43.328 89.471,44.041 C85.673,43.884 81.873,43.753 78.073,43.638 C78.708,40.389 79.356,37.142 80.052,33.908 C84.18,34.193 88.312,34.447 92.45,34.663 C91.708,37.083 90.944,39.496 90.166,41.904 Z M95.037,23.634 C95.857,25.268 93.99,29.481 93.519,31.119 C93.392,31.565 93.249,32.006 93.118,32.45 C88.922,32.235 84.732,31.977 80.547,31.691 C81.299,28.323 82.117,24.976 83.037,21.667 C87.238,21.691 94.088,21.743 95.037,23.634 Z M7.505,5.994 C6.61,5.679 3.672,4.889 3.213,3.882 C2.862,3.111 3.706,2.522 4.256,2.403 C4.589,2.33 4.979,2.449 5.305,2.504 C6.272,2.666 7.225,2.995 8.15,3.31 C9.204,3.67 10.247,4.071 11.275,4.502 C12.343,4.949 12.875,5.021 12.58,6.236 C12.025,7.722 8.458,6.33 7.505,5.994 Z M93.4,19.679 C84.394,17.836 74.555,18.343 65.414,17.63 C51.534,16.546 37.702,15.699 23.791,15.195 C23.376,13.412 22.876,11.695 22.176,10.172 C20.799,7.176 17.851,6.551 14.97,5.636 C15.073,4.551 14.778,3.719 13.5,3.034 C11.859,2.154 9.964,1.528 8.199,0.958 C5.91,0.218 0.589,-0.863 0.661,3.16 C0.717,6.26 4.784,7.443 7.145,8.248 C9.114,8.92 11.936,9.619 13.638,8.354 C15.472,8.969 17.14,9.302 18.499,10.744 C20.14,12.486 20.222,14.928 20.759,17.249 C21.889,22.139 23.18,26.991 24.504,31.832 C26.72,39.94 29.124,48.012 30.958,56.218 C28.514,57.088 26.687,59.254 26.759,62.09 C26.87,66.529 31.109,67.513 34.744,67.601 C51.718,68.009 68.712,67.733 85.689,67.773 C87.62,67.778 87.623,64.778 85.689,64.773 C75.646,64.749 65.602,64.799 55.558,64.775 C50.216,64.762 44.874,64.726 39.533,64.663 C37.443,64.639 31.923,65.496 30.353,63.57 C28.793,61.656 30.582,59.02 32.742,58.828 C47.223,58.966 61.711,58.777 76.193,58.943 C79.733,58.984 85.801,59.629 88.323,56.468 C89.393,55.126 89.708,53.093 90.211,51.509 C91.294,48.097 92.419,44.699 93.514,41.29 C95.179,36.111 97.518,30.51 98.065,25.055 C98.407,21.646 96.66,20.347 93.4,19.679 L93.4,19.679 Z" id="Fill-35"></path>
                <path d="M27.669,73.052 C28.241,71.738 26.303,70.591 25.726,71.916 C24.461,74.824 24.871,77.92 26.868,80.388 C27.78,81.514 29.363,79.913 28.459,78.797 C27.163,77.196 26.846,74.945 27.669,73.052" id="Fill-36"></path>
                <path d="M23.44,74.716 C23.49,74.11 22.888,73.591 22.315,73.591 C21.666,73.591 21.24,74.109 21.19,74.716 C21.099,75.845 21.26,77.015 21.82,78.01 C22.53,79.273 24.474,78.14 23.762,76.875 C23.395,76.221 23.381,75.448 23.44,74.716" id="Fill-37"></path>
            </g>
            <g id="Group-56" opacity="0.0965240036" transform="translate(711.905076, 377.216541) rotate(17.000000) translate(-711.905076, -377.216541) translate(667.405076, 324.716541)">
                <path d="M36.499,55.81 C35.843,55.881 35.21,55.896 34.624,55.85 C33.092,55.729 28.031,54.088 29.668,51.245 C31.889,47.389 35.64,53.289 36.254,55.013 C36.347,55.276 36.416,55.545 36.499,55.81 Z M52.748,56.155 C52.792,56.032 52.83,55.904 52.875,55.781 C53.433,54.113 54.317,52.642 55.526,51.366 C59.476,50.003 60.221,51.252 57.762,55.114 C56.545,56.273 54.631,56.436 52.748,56.155 Z M71.737,55.977 C70.893,60.014 70.049,62.533 67.46,65.931 C65.358,68.692 63.211,71.514 61.319,74.419 C60.371,75.873 59.55,77.333 59.135,79.034 C58.563,81.384 59.475,83.564 56.291,84.798 C54.808,85.373 52.713,85.471 50.617,85.442 C50.112,76.851 49.649,66.828 52.051,58.35 C56.362,58.707 62.682,56.807 61.575,51.714 C59.99,44.412 53.199,49.58 51.302,53.699 C51.014,54.324 50.751,54.969 50.507,55.624 C49.578,55.326 48.741,54.968 48.115,54.626 C47.579,54.335 46.979,53.949 46.373,53.495 C49.596,50.557 50.897,46.778 47.621,42.963 C44.956,39.859 41.033,41.967 40.185,45.831 C39.582,48.576 40.884,51.282 42.93,53.477 C41.632,54.333 40.135,54.991 38.641,55.396 C36.949,49.605 34.117,46.008 29.363,48.406 C26.6,49.799 26.946,53.659 28.739,55.731 C30.806,58.12 33.955,58.545 37.076,58.002 C37.936,62.012 37.916,66.219 38.134,70.291 C38.398,75.225 38.661,80.159 38.925,85.093 C37.511,84.972 36.116,84.784 34.798,84.49 C32.692,84.02 32.259,84.078 31.393,81.821 C30.822,80.33 30.906,78.721 30.148,77.253 C28.322,73.717 24.584,71.176 22.386,67.808 C19.972,64.109 17.568,59.62 16.643,55.271 C15.181,48.395 17.394,41.075 21.136,35.38 C26.582,27.093 34.955,22.946 44.736,22.182 C53.652,21.486 62.756,26.168 67.699,33.665 C72.111,40.358 73.335,48.324 71.737,55.977 Z M58.125,95.737 C57.383,97.302 56.234,97.96 54.677,97.71 C53.519,97.778 52.362,97.845 51.204,97.912 C49.238,98.025 47.27,98.144 45.302,98.231 C43.753,98.3 30.265,98.753 32.509,95.669 C32.546,95.617 32.572,95.567 32.598,95.515 C36.773,96.453 42.728,96.222 44.549,96.24 C46.369,96.256 53.398,96.746 58.05,95.681 C58.076,95.699 58.097,95.72 58.125,95.737 Z M47.125,102.167 C46.297,102.477 45.111,102.552 44.241,102.565 C43.861,102.571 43.328,102.636 42.979,102.468 C42.652,102.31 42.906,102.519 42.692,102.155 C42.492,101.815 42.398,101.209 42.336,100.656 C44.911,100.587 47.109,100.404 48.039,100.343 C47.964,101.106 47.773,101.925 47.125,102.167 Z M58.137,93.538 C57.245,93.65 56.355,93.76 55.463,93.871 C54.343,93.971 53.215,94.011 52.091,94.038 C49.578,94.099 47.061,94.012 44.549,93.99 C42.519,93.97 40.493,93.94 38.466,93.839 C37.893,93.811 30.272,93.578 31.162,91.305 C34.417,92.852 40.379,92.219 43.192,92.326 C47.98,92.508 54.217,93.417 58.935,91.862 C58.668,92.42 58.403,92.98 58.137,93.538 Z M45.413,88.3 C49.026,88.269 52.691,88.095 56.291,87.798 C57.186,87.725 57.975,87.64 58.672,87.437 C60.873,89.669 54.444,90.137 52.891,90.199 C50.441,90.296 47.99,90.242 45.54,90.161 C43.289,90.087 41.034,90.021 38.786,89.881 C37.262,89.786 29.265,88.823 31.949,87.106 C32.229,87.182 32.533,87.249 32.867,87.308 C36.914,88.021 41.31,88.316 45.413,88.3 Z M44.513,54.957 C46.161,56.306 48.038,57.342 49.766,57.895 C47.275,66.487 47.858,76.879 48.364,85.377 C47.287,85.335 46.269,85.293 45.413,85.3 C44.053,85.305 42.627,85.294 41.191,85.235 C41.102,81.547 41.449,67.346 39.184,57.495 C41.187,56.881 43.064,55.947 44.513,54.957 Z M42.349,46.926 C42.648,45.108 43.66,44.056 45.386,43.772 C46.603,44.741 47.036,45.99 46.685,47.518 C46.748,49.242 45.949,50.773 44.697,52.043 C43.244,50.574 42.123,48.758 42.349,46.926 Z M27.756,24.409 C16.745,31.31 10.147,46.539 14.773,59.059 C16.276,63.124 18.176,67.074 20.676,70.624 C21.969,72.459 23.469,74.06 24.957,75.731 C27.183,78.231 27.809,80.166 28.645,83.195 C28.991,84.448 29.364,85.31 29.915,85.934 C28.958,87.007 28.587,88.513 29.378,89.812 C27.43,92.335 28.296,93.874 30.385,94.812 C27.162,99.634 33.925,100.641 40.096,100.68 C40.205,101.633 40.337,102.665 40.731,103.46 C41.35,104.707 43.012,104.833 44.241,104.815 C45.627,104.794 47.574,104.666 48.781,103.935 C49.924,103.241 50.192,101.665 50.293,100.328 C53.837,100.412 59.22,100.68 61.001,98.427 C62.094,97.044 61.573,95.768 60.574,94.79 C62.283,93.866 62.951,92.42 61.552,90.179 C62.331,88.971 61.874,87.464 60.616,86.17 C60.858,85.875 61.085,85.542 61.287,85.117 C62.087,83.436 61.612,81.6 62.029,79.831 C62.66,77.15 64.424,75.778 65.868,73.631 C68.006,70.456 70.972,67.378 72.645,63.96 C78.127,52.76 75.873,37.148 67.143,28.283 C56.531,17.51 40.449,16.454 27.756,24.409 L27.756,24.409 Z" id="Fill-38"></path>
                <path d="M86.308,25.86 C83.071,27.326 79.756,28.684 76.856,30.768 C75.301,31.885 76.798,34.488 78.369,33.358 C81.271,31.274 84.585,29.916 87.822,28.45 C89.578,27.656 88.055,25.069 86.308,25.86" id="Fill-39"></path>
                <path d="M64.548,18.845 C66.77,15.998 68.475,12.899 70.236,9.757 C71.18,8.07 68.589,6.556 67.645,8.242 C66.02,11.144 64.481,14.093 62.427,16.723 C61.253,18.228 63.362,20.366 64.548,18.845" id="Fill-40"></path>
                <path d="M45.556,12.554 C45.789,9.178 45.898,5.802 45.88,2.418 C45.869,0.488 42.87,0.484 42.88,2.418 C42.898,5.802 42.79,9.178 42.556,12.554 C42.423,14.481 45.423,14.472 45.556,12.554" id="Fill-41"></path>
                <path d="M24.437,18.809 C25.506,20.406 28.106,18.906 27.028,17.295 C25.002,14.27 22.705,11.276 21.408,7.845 C20.731,6.057 17.83,6.832 18.514,8.643 C19.917,12.349 22.247,15.539 24.437,18.809" id="Fill-42"></path>
                <path d="M12.034,30.489 C9.071,28.307 5.878,26.58 2.465,25.214 C0.673,24.496 -0.106,27.396 1.668,28.106 C4.833,29.374 7.776,31.059 10.52,33.079 C12.076,34.224 13.574,31.622 12.034,30.489" id="Fill-43"></path>
                <path d="M34.757,28.214 C27.759,30.254 21.435,37.781 20.463,44.966 C20.271,46.382 22.439,46.995 22.632,45.565 C23.501,39.143 29.046,32.223 35.355,30.384 C36.742,29.979 36.152,27.807 34.757,28.214" id="Fill-44"></path>
                <path d="M36.157,32.077 C34.01,32.379 31.995,33.869 30.691,35.553 C29.816,36.685 31.397,38.289 32.282,37.145 C33.385,35.72 34.932,34.503 36.755,34.247 C38.182,34.047 37.575,31.878 36.157,32.077" id="Fill-45"></path>
            </g>
            <g id="Group-52" opacity="0.0965240036" transform="translate(123.433626, 47.989023) rotate(-8.000000) translate(-123.433626, -47.989023) translate(66.433626, 8.489023)">
                <path d="M108.343296,74.429561 C105.851059,75.5950106 100.221237,74.6800584 97.4806259,74.6641369 C83.6417078,74.5834683 69.7274282,74.1631422 55.912923,74.3446466 C41.4721743,74.5335811 27.0526542,75.4262433 12.5843084,75.1014459 C9.78425734,75.0388215 4.1777866,75.702215 3.87952491,72.0668189 C3.68740616,69.7465339 6.04802542,68.2828226 7.62424826,66.91464 C12.4335854,62.7400377 17.9328518,59.4209475 23.073355,55.6847156 C23.2155865,55.5806955 23.3259752,55.4618154 23.4225653,55.3376282 C25.9243547,55.7526471 28.7774772,55.5902484 31.2548537,55.460754 C41.318267,54.9374692 51.4326289,55.0956222 61.5130251,54.7718862 C66.5134196,54.6105489 71.5148755,54.5054674 76.5184543,54.5787061 C81.5284016,54.6519447 87.0212994,55.287741 92.0450453,54.9703735 C92.0747654,54.9969093 92.095994,55.0255679 92.1278368,55.0510422 C97.2842615,59.2054773 102.612638,63.600857 107.530241,68.0227724 C109.429138,69.7316739 112.634655,72.4213363 108.343296,74.429561 Z M19.9283393,40.0795788 C19.7723091,35.2246001 19.6417533,30.3632529 19.7914149,25.50509 C19.9294007,21.0184274 20.0960452,16.6368463 19.9909636,12.1501837 C19.925155,9.27264831 19.9431993,5.46423918 23.3673709,4.35186104 C25.2206269,3.74896907 28.178831,4.32214102 30.1085098,4.31152672 C38.9534021,4.25951667 47.7982943,4.2138752 56.6431865,4.1597423 C62.3409402,4.36884392 68.0864582,4.48453973 73.782089,4.16611088 C78.0554042,3.9262278 93.277365,2.45508649 94.8546493,7.63592399 C95.4129612,9.47219706 94.9597308,12.0780065 94.9523008,14.0098083 C94.9374408,18.291615 95.0584438,22.5649302 95.2452554,26.8424912 C95.3938555,30.2549871 95.5636842,33.6664216 95.6220628,37.0821018 C95.6592129,39.2155751 95.6602743,41.3490485 95.6072028,43.4814604 C95.5297185,46.5436846 96.0190375,49.0571497 93.2741807,50.6928126 C90.190728,52.5301471 84.6543116,51.4973761 81.0762327,51.4761476 C77.1149777,51.4517347 73.1590298,51.3402846 69.1977749,51.3965403 C61.4344793,51.5058676 53.6817981,51.9399923 45.919564,52.0217223 C42.1822707,52.0620567 38.4396702,51.9166408 34.7066225,52.0747938 C31.3174781,52.2180868 25.4371585,53.5990066 22.26773,51.8646308 C18.8435583,49.9912077 20.0302365,43.3020788 19.9283393,40.0795788 Z M112.401141,68.4505285 C110.585035,65.958292 107.807274,64.1358175 105.375539,62.3027287 C101.969411,59.7351307 98.9729958,56.7217323 95.7409429,53.9598926 C100.03761,51.0367157 98.8774672,42.3478537 98.8222728,37.959904 C98.7055156,28.6246314 98.360551,19.2649458 98.1291594,9.93179604 C98.0622893,7.24850221 98.0835179,4.149128 95.6305543,2.3765407 C92.9355847,0.425633239 87.3344211,1.21002966 84.0822011,0.952102282 C75.0037944,0.232453065 65.7693575,1.31192689 56.6431865,0.975453731 C46.3727944,1.0391395 36.1013409,1.08902669 25.8309489,1.15165103 C23.0330206,1.1686339 20.4187197,0.874617927 18.5803238,3.30316867 C16.2335031,6.40254288 16.7716479,11.0431128 16.9170637,14.6349903 C17.3777241,26.0400505 16.2292574,37.4790764 17.011531,48.9265938 C17.1866668,51.4931304 18.2735707,53.0863361 19.8476706,54.0787727 C15.5860311,57.0964169 11.2055115,59.9516623 7.12643781,63.2198038 C4.10985511,65.6356174 0.682499183,67.9134451 0.695236337,72.0668189 C0.704789203,75.7213207 2.39670786,77.5915595 5.90579386,78.0012713 C12.8634644,78.8111421 20.2170481,78.5691361 27.1991315,78.3165159 C43.374256,77.7316682 59.5069233,78.2284172 75.6661264,77.7836783 C82.6662541,77.5915595 89.6557675,77.7868626 96.6548338,77.8431183 C100.932395,77.8770841 108.667032,79.391744 111.946849,75.830648 C113.931722,73.6738232 114.029374,70.6837762 112.401141,68.4505285 L112.401141,68.4505285 Z" id="Fill-61"></path>
                <path d="M87.3567111,11.6035475 C87.7653615,22.5904045 87.855583,33.5486029 88.1082032,44.5237842 C78.0776943,44.0026223 67.757415,44.4908799 57.7438889,44.9175745 C47.7823728,45.3421463 37.7550481,45.3442692 27.7807949,45.5002993 C27.6077819,34.1865221 27.4347689,22.8727448 27.2606944,11.5589675 C47.2962381,11.3732173 67.3285975,11.8190177 87.3567111,11.6035475 Z M26.6057924,47.9044372 C36.9653446,47.7293013 47.3917668,47.7462842 57.7438889,47.305791 C68.1639425,46.861052 78.917285,46.3388287 89.3277858,46.9693178 C89.9625206,47.0075293 90.5378154,46.3919001 90.521894,45.7752096 C90.235308,33.9806047 90.1716222,22.2093513 89.7067161,10.4009479 C89.6812418,9.76196732 89.1802471,9.19834824 88.5126079,9.20683968 C67.6947907,9.45733705 46.8737891,8.95846517 26.0485419,9.17818108 C25.7662017,9.18136537 25.5528543,9.28220118 25.3755956,9.41487987 C25.0720268,9.59850717 24.8470037,9.90632173 24.8544337,10.3722893 C25.0401839,22.485323 25.225934,34.5972953 25.4116842,46.710329 C25.4201756,47.3471867 25.9508904,47.9150515 26.6057924,47.9044372 L26.6057924,47.9044372 Z" id="Fill-62"></path>
                <path d="M47.3662924,69.2667678 C47.6656156,68.2796383 48.0042116,67.290386 48.1591803,66.3329766 C48.2907976,66.0092406 48.4224148,65.686566 48.5550935,65.36283 C48.5922435,65.3585843 48.6187793,65.3564614 48.6591136,65.3500928 C51.7807778,65.1293155 54.9364078,65.1102098 58.0644406,65.0337869 C60.8443245,64.9658554 63.7728086,64.7238494 66.5452625,65.1027798 C66.5643682,65.1059641 66.5781668,65.1070255 66.5951497,65.1102098 C66.7384427,65.4774644 66.8806742,65.844719 67.0229058,66.2109122 C67.1736288,67.0600558 67.5387605,67.9919909 67.8975237,68.8857146 C61.2158249,69.7422882 54.1169842,69.3304536 47.3662924,69.2667678 Z M68.5789615,63.6475599 C68.3741056,63.1200294 67.9972981,62.810092 67.4273104,62.7708191 C60.8570617,62.3250187 54.3324544,62.938525 47.7632671,62.9724907 C47.184788,62.975675 46.816472,63.3524825 46.6116161,63.8492315 C45.7444281,65.9614763 45.1203076,67.8646194 44.6692,70.12971 C44.61719,70.3918831 44.6490329,70.6253976 44.7307629,70.8281306 C44.8602573,71.273931 45.2190205,71.6411856 45.8208511,71.6411856 C53.6871053,71.6369399 62.0819513,72.2387705 69.872844,71.0181265 C70.4778589,70.9225978 70.9087993,70.1052971 70.7071276,69.549108 C69.9927856,67.5790948 69.3357607,65.6037745 68.5789615,63.6475599 L68.5789615,63.6475599 Z" id="Fill-63"></path>
                <path d="M56.7535751,7.83547274 C58.2905251,7.83547274 58.292648,5.44725631 56.7535751,5.44725631 C55.2166252,5.44725631 55.2145023,7.83547274 56.7535751,7.83547274" id="Fill-64"></path>
                <path d="M29.1818819,15.6751912 C30.0904655,17.108121 31.0563664,18.5007166 32.0806459,19.8540392 C32.4723134,20.3730783 33.1070482,20.6288828 33.7141859,20.2828567 C34.2236721,19.9930865 34.5314867,19.1619872 34.141942,18.6493167 C33.1176625,17.2959941 32.1528231,15.9033985 31.2442394,14.4694073 C30.4237544,13.1744632 28.3560897,14.3717557 29.1818819,15.6751912" id="Fill-65"></path>
                <path d="M36.8146216,19.5886818 C37.8707439,20.70849 39.5573554,19.0176328 38.5033559,17.8999475 C37.2582991,16.5795291 36.0132423,15.2601722 34.767124,13.9408154 C33.7110016,12.8199458 32.0243901,14.5118644 33.0783896,15.6295497 C34.3234465,16.9489066 35.5685033,18.2693249 36.8146216,19.5886818" id="Fill-66"></path>
            </g>
            <g id="Group-60" opacity="0.0965240036" transform="translate(260.000000, 42.000000)">
                <path d="M74.7081429,18.3031668 C73.0508603,21.6023097 70.5872625,24.5928811 67.8755016,27.4128811 C62.2441756,21.5877383 56.5364256,15.8405954 50.7565451,10.1628811 C50.8836321,10.048024 51.0064256,9.92973827 51.1343712,9.81573827 C55.0276973,6.31002399 59.8896321,1.06088113 65.7605342,2.68173827 C68.4748712,3.43173827 70.6963169,5.79145256 72.5296321,7.81345256 C75.5050125,11.0954526 76.9210016,13.8948811 74.7081429,18.3031668 Z M60.3730777,34.678024 C59.7221864,34.0248811 59.0712951,33.3691668 58.4229799,32.704024 C59.2121212,31.7971668 60.0330342,30.9185954 60.8934473,30.0768811 C61.5915669,30.7651668 62.3266103,31.4337383 63.1080234,32.0817383 C62.1832082,32.9551668 61.2652625,33.820024 60.3730777,34.678024 Z M41.0996538,54.4668811 C38.0384038,57.6554526 34.9788712,60.8457383 31.9098929,64.0265954 C30.044806,65.9594526 28.2698821,68.3663097 26.0278277,69.8465954 C25.8835669,67.8057383 25.7066756,65.7623097 25.4026973,63.7403097 C34.6869147,54.6511668 43.5503712,45.1548811 52.2704256,35.5265954 C53.4811864,36.7454526 54.6618929,37.9934526 55.8013821,39.280024 C50.872469,44.314024 45.9804799,49.384024 41.0996538,54.4668811 Z M13.3543386,73.1354526 C11.3260995,70.5254526 8.07421903,67.2845954 4.94255599,64.7628811 C5.09196903,64.0805954 5.23708859,63.3965954 5.39594729,62.716024 C5.95324077,60.3134526 6.39546903,57.520024 7.35892555,55.1431668 C9.41120816,55.3265954 12.6244473,55.3685954 14.4242734,56.2857383 C13.7261538,56.0568811 14.4113929,57.5671668 14.5376212,58.5597383 C14.7394147,60.1334526 14.9223169,61.7097383 15.1069364,63.286024 C15.1653277,63.7883097 15.5010777,64.2717383 16.072969,64.2503097 C17.8925451,64.1808811 19.7645016,64.2965954 21.5763495,64.1294526 C23.5479147,63.9477383 23.479219,63.5517383 23.6973277,65.4888811 C23.8974038,67.2528811 24.0339364,69.0245954 24.159306,70.7963097 C23.9369038,70.876024 23.7102082,70.9463097 23.4775016,71.0037383 C20.1577842,71.8343097 16.7650777,72.520024 13.3543386,73.1354526 Z M23.1760995,37.1465954 C27.9392842,32.1323097 32.790056,27.2157383 37.7352842,22.3943097 C39.1280886,23.6105954 40.5286212,24.8225954 41.9291538,26.0371668 C37.0397408,30.9357383 32.0258169,35.7443097 27.2969799,40.7988811 C23.0825016,45.3048811 19.2673169,50.0337383 14.8501864,54.3588811 C14.1056973,54.142024 13.1396647,54.1137383 12.5961103,54.016024 C11.1792625,53.7605954 9.75554512,53.5454526 8.32839294,53.3585954 C12.4999364,47.5103097 18.2677951,42.3117383 23.1760995,37.1465954 Z M55.206306,29.3954526 C56.1465777,28.6085954 57.0181538,27.7497383 57.8193169,26.8223097 C58.3903495,27.4565954 58.9622408,28.0823097 59.542719,28.6977383 C58.6840234,29.5377383 57.863969,30.4128811 57.0756864,31.3188811 C56.4548495,30.6777383 55.829719,30.0383097 55.206306,29.3954526 Z M47.6068495,21.970024 C46.9714147,21.3965954 46.3273929,20.8351668 45.6747842,20.284024 C46.6665777,19.3583097 47.6145777,18.3888811 48.5007516,17.3594526 C49.1275995,17.9405954 49.7518712,18.5234526 50.3709908,19.1114526 C49.4298603,20.0457383 48.5076212,20.998024 47.6068495,21.970024 Z M50.6380451,24.808024 C50.1065125,24.2911668 49.577556,23.7725954 49.0374364,23.2668811 C49.9253277,22.3103097 50.832969,21.3717383 51.7595016,20.4528811 C52.3485669,21.0271668 52.9290451,21.610024 53.5060886,22.1963097 C52.6044582,23.1254526 51.6530234,24.0014526 50.6380451,24.808024 Z M52.0171103,26.1605954 C53.0217842,25.3617383 53.9629147,24.4951668 54.8568169,23.5754526 C54.8868712,23.608024 54.9186429,23.638024 54.9486973,23.6697383 C55.4905342,24.2431668 56.0083277,24.8123097 56.5201103,25.3797383 C55.7069256,26.3303097 54.8198929,27.2088811 53.8607299,28.0137383 C53.2501973,27.3923097 52.6345125,26.776024 52.0171103,26.1605954 Z M45.7185777,14.800024 C46.1745451,15.2165954 46.6305125,15.6323097 47.0864799,16.0497383 C46.1754038,17.1031668 45.2033603,18.0965954 44.1823712,19.042024 C43.6413929,18.610024 43.0858169,18.2011668 42.5310995,17.7888811 C43.5872951,16.7877383 44.6520777,15.7925954 45.7185777,14.800024 Z M24.3379147,62.0757383 C24.3344799,62.0757383 24.3310451,62.074024 24.328469,62.0748811 C21.8768929,62.2205954 19.4235995,62.224024 16.9694473,62.296024 C16.8878712,60.424024 16.8973169,57.4531668 16.2146538,55.7243097 C20.635219,51.3974526 24.4452516,46.6703097 28.6640234,42.1625954 C33.4211973,37.0763097 38.4686103,32.2403097 43.3863603,27.3091668 C45.9426973,29.542024 48.4689799,31.8074526 50.8973712,34.1688811 C42.2752082,43.690024 33.5096429,53.0791668 24.3379147,62.0757383 Z M57.6003495,37.4363097 C52.1476321,31.2888811 45.776969,26.0088811 39.5943603,20.6088811 C40.1052842,20.1168811 40.6170669,19.6257383 41.1288495,19.1363097 C47.6970125,23.9423097 53.2656538,30.2825954 58.9931538,36.0263097 C58.7733277,36.2448811 58.5509256,36.4634526 58.3362516,36.6811668 C58.089806,36.9314526 57.8467951,37.186024 57.6003495,37.4363097 Z M64.5119908,30.7471668 C61.4327082,28.2023097 59.0841756,25.2374526 56.3148821,22.306024 C53.400469,19.222024 50.2773929,16.3471668 47.1422951,13.4894526 C47.7141864,12.9614526 48.2860777,12.4325954 48.8605451,11.908024 C54.6704799,17.6123097 60.4065669,23.3894526 66.0653712,29.2428811 C65.5510125,29.7494526 65.0315016,30.250024 64.5119908,30.7471668 Z M72.4772516,4.08402399 C68.1245234,0.0331668434 63.9984908,-1.13683316 58.4092408,1.1723097 C53.4640125,3.21573827 49.5981647,7.67716684 45.6988277,11.2265954 C39.8305016,16.570024 34.1734147,22.1431668 28.6150777,27.8054526 C23.2490886,33.274024 17.9758386,38.8377383 12.8099256,44.494024 C10.5043277,47.0191668 7.90505599,49.5177383 5.91202338,52.3188811 C5.83559946,52.4011668 5.76346903,52.4928811 5.70164294,52.6077383 C5.62006686,52.7277383 5.56854512,52.8443097 5.5316212,52.9608811 C4.15942555,55.7191668 3.59354512,59.0911668 2.91088207,62.0328811 C1.8194799,66.7411668 0.911838594,71.5103097 0.480773377,76.3283097 C0.39919729,77.2445954 1.3652299,77.6843097 2.11143642,77.5677383 C9.64391468,76.3934526 17.0819364,74.7297383 24.5877951,73.408024 C27.6413169,72.8697383 28.9714364,70.7654526 31.1087299,68.5583097 C34.6920669,64.8605954 38.2565125,61.144024 41.8226756,57.4291668 C48.451806,50.5248811 55.0800777,43.6197383 61.8174038,36.820024 C67.3714473,31.2151668 75.224219,25.1345954 77.8724364,17.4203097 C79.8268277,11.7254526 76.4667516,7.7963097 72.4772516,4.08402399 L72.4772516,4.08402399 Z" id="Fill-70"></path>
                <path d="M59.0325842,8.41045669 C58.8033124,7.19159955 56.9408015,7.70759955 57.1692146,8.92302812 C57.4972363,10.6707424 57.941182,12.384171 58.505345,14.0718853 C58.8960515,15.2427424 60.7628559,14.7404567 60.3678559,13.5584567 C59.8036929,11.8715996 59.3597472,10.158171 59.0325842,8.41045669" id="Fill-71"></path>
                <path d="M62.50168,7.52397116 C62.1109735,6.35139973 60.2441691,6.85368544 60.6391691,8.03654259 C61.1243321,9.48939973 61.6077778,10.9413997 62.0929408,12.3942569 C62.4836474,13.5659712 64.3504517,13.0645426 63.9563104,11.8816854 C63.4711474,10.4288283 62.986843,8.97597116 62.50168,7.52397116" id="Fill-72"></path>
            </g>
            <g id="Group-62" opacity="0.0965240036" transform="translate(920.787260, 348.332418) rotate(17.000000) translate(-920.787260, -348.332418) translate(887.787260, 295.332418)">
                <path d="M62.369,93.694 C60.907,101.347 53.738,101.554 47.372,101.614 C37.156,101.708 26.921,102.686 16.706,102.087 C12.59,101.846 7.731,100.791 5.792,96.604 C4.62,94.074 4.786,90.574 4.632,87.848 C4.168,79.709 4.331,71.539 4.358,63.392 C4.572,54.305 4.505,45.225 4.133,36.144 C3.933,31.288 4.026,26.47 4.495,21.63 C5.035,16.056 5.087,7.574 11.311,5.126 C15.406,3.516 21.223,4.079 25.611,3.925 C30.123,3.768 34.637,3.715 39.15,3.861 C43.4,3.997 48.022,3.971 52.141,5.099 C58.699,6.894 60.241,11.492 60.627,17.781 C61.878,38.181 62.686,58.676 62.693,79.116 C62.695,83.799 63.25,89.084 62.369,93.694 Z M65.691,78.126 C65.678,71.198 65.55,64.27 65.345,57.345 C64.957,44.157 64.417,30.952 63.627,17.781 C63.078,8.642 59.566,3.113 50.066,1.658 C39.435,0.031 28.219,0.653 17.531,1.3 C12.732,1.591 7.84,2.059 4.933,6.388 C2.087,10.626 1.969,16.71 1.495,21.63 C0.167,35.439 1.685,49.52 1.358,63.392 C1.328,72.513 1.027,81.72 1.84,90.817 C2.348,96.501 3.537,100.861 9.001,103.752 C12.787,105.757 18.576,105.225 22.641,105.255 C29.899,105.309 37.146,104.822 44.4,104.661 C52.667,104.479 63.719,104.866 65.348,94.307 C66.154,89.083 65.701,83.396 65.691,78.126 L65.691,78.126 Z" id="Fill-80"></path>
                <path d="M27.37,11.397 C31.352,11.205 35.334,11.114 39.321,11.119 C40.768,11.121 40.771,8.871 39.321,8.869 C35.334,8.864 31.352,8.955 27.37,9.147 C25.928,9.215 25.92,11.466 27.37,11.397" id="Fill-81"></path>
                <path d="M44.302,10.888 C44.324,10.866 44.347,10.843 44.37,10.82 C45.395,9.795 43.804,8.203 42.779,9.229 C42.756,9.252 42.733,9.275 42.71,9.297 C41.685,10.323 43.276,11.914 44.302,10.888" id="Fill-82"></path>
                <path d="M48.852,10.956 C48.875,10.934 48.898,10.911 48.92,10.888 C49.946,9.864 48.355,8.272 47.329,9.297 C47.306,9.321 47.284,9.343 47.261,9.366 C46.236,10.391 47.826,11.983 48.852,10.956" id="Fill-83"></path>
                <path d="M39.473,97.188 C38.479,98.336 34.408,98.084 32.938,98.103 C31.899,98.116 27.574,98.31 27.24,97.561 C25.951,94.679 33.143,95.239 34.222,95.25 C35.216,95.237 41.534,94.811 39.473,97.188 Z M34.222,93 C31.084,92.966 24.993,92.262 24.599,96.74 C24.235,100.872 30.882,100.417 33.446,100.336 C35.904,100.259 41.974,100.562 42.143,96.93 C42.36,92.251 37.346,92.957 34.222,93 L34.222,93 Z" id="Fill-84"></path>
                <path d="M33.529,88.943 C25.12,89.39 16.731,89.117 8.321,89.289 C8.013,77.108 8.688,64.952 8.942,52.777 C9.18,41.341 8.088,29.902 8.687,18.481 C24.78,18.685 40.872,18.026 56.952,17.866 C58.031,41.495 57.898,65.198 58.982,88.831 C50.488,88.999 42.026,88.491 33.529,88.943 Z M59.05,16.307 L59.05,16.306 C59.03,16.261 59.005,16.224 58.981,16.185 C58.82,15.854 58.513,15.599 58.031,15.603 C41.233,15.744 24.423,16.477 7.612,16.222 C7.103,16.214 6.783,16.493 6.632,16.852 C6.624,16.866 6.616,16.878 6.609,16.892 C6.595,16.926 6.59,16.961 6.581,16.996 C6.539,17.106 6.495,17.213 6.487,17.347 C5.748,29.144 6.938,40.963 6.692,52.777 C6.43,65.334 5.711,77.869 6.094,90.434 C6.1,90.655 6.169,90.829 6.262,90.983 C6.421,91.317 6.73,91.572 7.219,91.559 C15.998,91.337 24.753,91.677 33.529,91.193 C42.416,90.702 51.265,91.306 60.153,91.062 C60.348,91.056 60.512,91.005 60.654,90.931 C61.022,90.786 61.303,90.459 61.278,89.937 C60.118,65.558 60.31,41.103 59.156,16.728 C59.148,16.568 59.105,16.432 59.05,16.307 L59.05,16.307 Z" id="Fill-85"></path>
                <path d="M19.347,24.334 C17.179,26.117 15.381,28.272 13.993,30.712 C13.276,31.972 15.219,33.108 15.935,31.848 C17.236,29.561 18.908,27.595 20.938,25.925 C22.057,25.004 20.458,23.421 19.347,24.334" id="Fill-86"></path>
                <path d="M24.236,25.123 C22.875,26.723 21.514,28.322 20.153,29.92 C19.219,31.017 20.803,32.616 21.744,31.512 C23.105,29.912 24.466,28.314 25.827,26.714 C26.761,25.617 25.177,24.019 24.236,25.123" id="Fill-87"></path>
            </g>
            <g id="Group-63" opacity="0.0965240036" transform="translate(883.733503, 92.435957) rotate(-1.000000) translate(-883.733503, -92.435957) translate(829.733503, 49.935957)">
                <path d="M16.7265038,41.0874216 C20.1068407,40.7370604 23.428784,41.2950431 26.77668,41.6172889 C28.1975894,41.7546219 31.1572766,41.2366496 32.061295,42.3634285 C32.820411,43.3085387 32.0396678,48.441763 32.0310169,49.583681 C32.0007387,53.5176751 31.9607283,57.4516693 31.9272061,61.3856634 C31.9055789,63.7949374 31.8871957,66.2052927 31.8709753,68.6134854 C31.8450226,72.6199307 30.6165957,73.3087582 26.5214787,73.2698292 C24.0451602,73.2471206 18.9097732,74.1468136 15.9403538,73.0859977 C16.7654328,72.3917634 17.5310369,71.6272406 18.2241898,70.7902666 C19.2147172,69.5921178 17.5029215,67.8608576 16.5037433,69.0698201 C15.7478714,69.9835708 14.9065719,70.7935107 13.994984,71.5201858 C13.9690313,71.4682805 13.9311836,71.4271887 13.9095564,71.3731206 C13.5202662,70.4344986 13.3721196,69.0016943 13.3385974,67.5072523 C14.6859741,66.340463 16.0344323,65.1736736 17.381809,64.0068843 C18.5680629,62.9795906 16.8411281,61.2656322 15.6624438,62.2864377 C14.9108974,62.9352548 14.159351,63.5862345 13.4088859,64.2372143 C13.4488963,63.5689328 13.4953948,62.9493125 13.5375679,62.4518861 C13.5310798,61.7295364 13.552707,61.0115122 13.5667647,60.2924066 C15.1779937,58.7557915 16.849779,57.289465 18.598341,55.9074846 C19.826768,54.9375031 18.0944264,53.2267888 16.8789758,54.1881194 C15.7857191,55.0499648 14.7270659,55.9529018 13.6878772,56.8774662 C13.7343758,55.9604714 13.7819557,55.0434766 13.8371052,54.1264818 C15.3142453,52.916438 16.7924669,51.7063942 18.2685257,50.4963504 C19.4807322,49.5036603 17.749472,47.7918646 16.5480791,48.7759038 C15.7046169,49.466894 14.8600734,50.1578841 14.0166112,50.8488743 C14.045808,50.3049493 14.0793302,49.7621057 14.0998761,49.2170994 C14.1182592,48.7845547 14.1193406,48.3476845 14.1160965,47.9108144 C15.4061611,46.9570533 16.6983884,46.0043736 17.9895343,45.0506125 C19.2352631,44.131455 18.0230565,42.0184741 16.7611074,42.9495266 C15.8668212,43.6102386 14.9714536,44.272032 14.0771675,44.9316627 C14.0814929,44.5153384 14.0923065,44.1000955 14.1215033,43.6891781 C14.2901957,41.3999352 14.3302061,41.3361349 16.7265038,41.0874216 Z M25.0681285,76.4436259 C29.550373,76.5031008 34.5916815,77.0643276 35.0955961,71.5807421 C35.7119723,64.8990077 35.2080577,57.8658308 35.2632072,51.1473302 C35.2891599,47.9000008 37.1134172,40.3239802 33.0583105,38.7852025 C30.7496032,37.9103808 26.9864642,38.3461696 24.4982508,38.0606901 C22.0662682,37.7806174 19.6970046,37.7589901 17.2509642,37.8325227 C12.9763412,37.9601234 10.8428144,38.2001857 10.8222686,42.8316582 C10.7930718,49.3717341 10.2340078,55.9096474 10.2934826,62.4518861 C10.0371999,65.4688854 9.53652941,71.5234299 11.2266979,74.0949082 C13.7581657,77.9434747 21.4596242,76.3949647 25.0681285,76.4436259 L25.0681285,76.4436259 Z" id="Fill-97"></path>
                <path d="M47.8881058,25.697481 C49.3987682,23.4558181 57.8777258,25.2108682 60.0101712,25.4509305 C62.4280961,25.7234337 65.0038998,24.9134937 65.9208946,27.0448578 C66.7394855,28.9426477 65.886291,33.4832857 65.8754774,35.5021881 C65.8441179,41.8681648 65.8160025,48.2341416 65.784643,54.5990369 C65.7716667,57.7144402 65.7565276,60.8298434 65.7403072,63.9441653 C65.7316563,65.5878352 66.6129661,70.6550964 65.6581237,72.0381581 C64.7032813,73.4244639 56.9391038,73.3898603 52.6817825,73.1541235 C53.8593855,72.3041731 55.0369884,71.4531414 56.2145914,70.603191 C57.4722151,69.6948472 56.2589272,67.5829476 54.9861644,68.5031865 C53.0624218,69.891655 51.1365165,71.2812049 49.212774,72.6696734 C48.2957792,72.289034 47.8621531,71.6250779 47.6610198,70.7935107 C50.0043308,69.0179147 52.3011432,67.1860879 54.5330738,65.2731589 C55.7247345,64.2523534 53.9967184,62.538395 52.8126273,63.5527123 C51.0802857,65.0363407 49.3036083,66.4648196 47.5009783,67.8608576 C47.5074665,67.3872212 47.5096292,66.9016897 47.4836765,66.418321 C47.4566424,65.9230573 47.4339339,65.4342818 47.4079812,64.9444249 C49.5663793,62.5740799 51.9399683,60.4394718 54.5536197,58.5806109 C55.8177316,57.6798366 54.6044437,55.5690184 53.3251928,56.479525 C51.1689574,58.0139774 49.1522177,59.7063085 47.2825432,61.5651694 C47.2663228,60.7173818 47.2728109,59.8674314 47.2966009,59.014237 C49.1879026,56.972626 51.2176187,55.0780802 53.3933185,53.3403318 C54.6174201,52.3649435 52.8872412,50.6531478 51.672872,51.6209666 C50.1741046,52.8158714 48.7499511,54.0918782 47.3863539,55.4327668 C47.3852726,54.1481091 47.3928421,52.8634513 47.4177134,51.5798749 C49.1511363,49.7772448 51.0478449,48.175748 53.1500121,46.8056627 C54.4562972,45.9535496 53.2386838,43.8470569 51.9215852,44.7056581 C50.3536106,45.727545 48.8829586,46.8748698 47.4988156,48.1195172 C47.5290937,47.1160135 47.56586,46.1103471 47.6015449,45.1046806 C49.365246,43.2231111 51.3008835,41.5437563 53.4408985,40.0958129 C54.730963,39.2253167 53.5155124,37.1155799 52.2124715,37.9958084 C50.6228697,39.070682 49.1316718,40.2655867 47.7280643,41.5610581 C47.7464474,41.061469 47.7648306,40.5607985 47.7832137,40.0612093 C47.8005155,39.5259353 47.8167359,38.9906612 47.8351191,38.4564685 C49.3782223,36.5662481 51.1365165,34.8847306 53.1456867,33.4886925 C54.4216936,32.6008945 53.2073243,30.4911577 51.9172597,31.3876066 C50.4866181,32.3835408 49.1673568,33.5016689 47.945418,34.7225263 C47.9659638,33.9396204 47.9756961,33.1567145 47.9865097,32.3738085 C49.4020123,30.9269465 50.9288951,29.6141733 52.6006804,28.4657671 C53.8820941,27.5855386 52.6666434,25.4758018 51.3722534,26.3657626 C50.1427451,27.2103061 48.9781185,28.1348704 47.870804,29.1253978 C47.7280643,27.8126246 47.5734295,26.1657106 47.8881058,25.697481 Z M44.8202825,73.3876976 C46.4142097,77.0545953 51.4392978,76.2197841 54.629315,76.1365192 C57.9415261,76.0510916 64.8568346,77.2892508 67.6629684,75.1319341 C70.4636954,72.9789428 68.9768229,65.3315524 68.991962,62.3026581 C69.0287283,55.0521275 69.0611692,47.8026782 69.0957727,40.5532289 C69.1119932,37.0258269 69.129295,33.4962621 69.1498408,29.9677786 C69.1574104,28.3349223 69.6753826,25.4368728 68.6891807,23.9391868 C66.9654901,21.3255354 60.5778861,22.2057639 57.9134107,21.9040639 C55.1537755,21.590469 48.4233799,20.6540097 45.9416546,22.4944875 C43.3020505,24.453915 44.777028,31.6017162 44.7121463,34.4121755 C44.534803,41.9698129 44.0503529,49.5242061 44.1401059,57.0850876 C43.9065318,60.2286063 44.0708988,63.2802092 44.2395912,66.418321 C44.3488087,68.4545252 43.9681694,71.4304328 44.8202825,73.3876976 L44.8202825,73.3876976 Z" id="Fill-98"></path>
                <path d="M82.6765952,5.26839452 C83.29189,2.70772986 87.8984911,3.35654692 90.3737282,3.47008991 C92.4131765,3.56308702 97.5766789,3.45170676 99.2992882,4.25407719 C101.253309,5.16566515 100.678024,6.8471827 100.665048,9.14507645 C100.63477,14.6816487 100.605573,20.2193023 100.577458,25.7558745 C100.511495,38.6251609 100.446613,51.4955286 100.377406,64.3658964 C100.368755,66.125272 101.103,69.9641062 100.368755,71.5677657 C99.1803384,74.1576272 93.2533946,73.3109209 90.9555008,73.2417138 C89.6265072,73.2017034 88.0628581,73.3357922 86.6311351,73.2546901 C87.1263988,72.8005182 87.6162557,72.336614 88.0736717,71.8359435 C89.1279995,70.6832118 87.4118783,68.9573584 86.3532252,70.1154969 C85.5573429,70.9859931 84.687928,71.7818754 83.7666078,72.5172014 C83.5168133,72.3582412 83.2951341,72.1668402 83.100489,71.9408355 C84.2467324,70.6615846 85.4362304,69.422344 86.6895287,68.2479851 C87.8336094,67.1731115 86.1110001,65.455909 84.9680007,66.5275386 C84.0109956,67.4261502 83.0950822,68.3669349 82.1986333,69.3261028 C82.0818462,68.5864514 81.9931745,67.8230099 81.9369437,67.0346972 C83.3589344,65.8646638 84.7820065,64.6957117 86.2029159,63.5256783 C87.4129597,62.5297441 85.6838622,60.8168671 84.4824693,61.8063131 C83.6000781,62.5319068 82.7155242,63.2585819 81.8320516,63.985257 C81.8320516,63.4910747 81.8417839,62.9990551 81.8547602,62.5070355 C84.0099142,60.9066201 86.1326274,59.2618688 88.2174928,57.5717004 C89.4340248,56.5844171 87.703846,54.8726214 86.4981276,55.8512538 C85.016662,57.050484 83.5114064,58.2183547 81.9931745,59.370005 C82.0418358,58.5827737 82.0937412,57.8117627 82.1478093,57.0850876 C82.1424024,56.7022855 82.1488906,56.3184021 82.1434838,55.9356001 C83.7806655,54.4638667 85.5000307,53.1024322 87.3177999,51.8610289 C88.603539,50.9840445 87.3880884,48.8743077 86.0904543,49.759943 C84.7192875,50.6953209 83.4108398,51.7150451 82.1326702,52.7704542 C82.1305075,51.9021207 82.1196938,51.0359499 82.1240193,50.1686978 C83.6065663,49.0419188 85.0880319,47.9140585 86.5359753,46.7418623 C87.7525073,45.7567418 86.0212471,44.0438647 84.8144474,45.0214158 C83.9396257,45.7297077 83.0366886,46.4023147 82.1478093,47.0933049 C82.1586229,46.1254861 82.1737619,45.1555046 82.188901,44.1876858 C83.7958046,42.6629657 85.4967866,41.2615209 87.3199626,40.0017344 C88.6002949,39.1193432 87.3859256,37.0096064 86.092617,37.9017299 C84.7474029,38.8284569 83.4757215,39.844937 82.2364809,40.9035901 C82.2645963,39.4761926 82.2991999,38.0487951 82.3316408,36.6213976 C83.4908606,35.5411172 84.6922535,34.5084167 85.9628536,33.5611438 C86.4948836,33.1653654 86.7500849,32.5133042 86.3997237,31.896928 C86.1023492,31.3746303 85.2610498,31.0686049 84.735508,31.4600578 C83.9396257,32.0526441 83.1642893,32.6668576 82.404092,33.3026983 C82.4203124,32.6333354 82.4322074,31.9639724 82.4462651,31.2946095 C84.2737665,29.9007342 86.1845327,28.6279714 88.173157,27.4741584 C89.5259406,26.6880084 88.3029204,24.5847597 86.9458114,25.3730725 C85.4167659,26.2597891 83.9450325,27.2265265 82.5111468,28.2484134 C82.5316927,27.2881642 82.5554826,26.3257522 82.5727844,25.3644216 C82.5749472,25.2562854 82.5760285,25.1481492 82.5781912,25.040013 C83.9580089,23.8061793 85.3367451,22.5723455 86.7176441,21.3395931 C87.8876775,20.2939163 86.1618241,18.5777951 84.9971975,19.6191465 C84.2088848,20.323113 83.4216534,21.0270795 82.6344221,21.731046 C82.6560493,20.5123513 82.6776765,19.2936566 82.697141,18.0749619 C83.8012114,16.9449389 84.9604312,15.8743907 86.209404,14.9011651 C86.7317018,14.4945731 86.6289724,13.6089378 86.209404,13.1807186 C85.7033267,12.6627463 85.004767,12.7795333 84.4889575,13.1807186 C83.8833949,13.6521923 83.3059477,14.1582696 82.7339073,14.667591 C82.7458023,13.6121819 82.7576973,12.5567728 82.7631041,11.5013637 C84.3451364,10.3086217 85.8860769,9.06829977 87.3675425,7.7522825 C88.54082,6.71093112 86.8149666,4.99481 85.6470959,6.03183593 C84.6911721,6.88178628 83.7060516,7.69497032 82.7057919,8.48868986 C82.6052253,7.38029405 82.4657296,6.15078572 82.6765952,5.26839452 Z M79.172983,70.5404721 C79.3827672,73.1519607 79.6952808,74.7512948 82.2991999,75.7634494 C84.8944681,76.7723599 88.2131674,76.4025342 90.9555008,76.4857991 C94.2763628,76.5863657 98.0384204,76.8210212 101.1668,75.4293086 C105.299765,73.5888309 103.609596,66.684336 103.630142,62.8022473 C103.672315,54.8336924 103.712326,46.8640562 103.754499,38.89442 C103.796672,30.8198917 103.836682,22.744282 103.879937,14.6708351 C103.897238,11.2418369 105.657695,2.73692663 101.668552,1.22302016 C98.8937776,0.170855159 94.6169918,0.575284459 91.6010738,0.311432189 C88.8619845,0.0724512383 84.876085,-0.210865544 82.1694365,0.529867265 C77.8580471,1.70855159 79.552541,7.89610361 79.5265883,11.4418888 C79.4195335,26.6501607 78.6690685,41.8778971 78.903724,57.0850876 C78.5739086,61.5305658 78.8161337,66.0993193 79.172983,70.5404721 L79.172983,70.5404721 Z" id="Fill-99"></path>
                <path d="M105.532257,80.4165491 C89.5443237,81.0340066 73.5466578,81.1021324 57.5511545,80.7766425 C42.3807303,80.4652103 27.2038179,79.3870927 12.0323124,79.6509449 C10.4794769,79.6790603 6.92828483,80.3213892 5.75608868,79.576331 C4.34491157,78.6820448 4.44980367,75.1730259 4.38275924,73.8159169 C4.21622952,70.4226036 4.09079156,67.0292904 4.00644534,63.6327331 C3.83991563,56.8969307 3.84748516,50.1589655 3.92534321,43.4231631 C4.08322203,29.6758109 4.35896928,15.9403538 4.0810593,2.19300166 C4.03888619,0.107054815 0.794800898,0.100566644 0.836974007,2.19300166 C1.14299939,17.3061137 0.74722098,32.405168 0.642328889,47.5193614 C0.592586248,54.7060917 0.661793401,61.8949847 0.932133842,69.078471 C1.09433811,73.3995926 -0.390371597,81.0610407 4.89316199,82.7057919 C7.6052173,83.5492541 10.9877169,82.912332 13.7819557,82.8561012 C17.7116244,82.7782432 21.6056081,82.8117654 25.5341954,82.9761324 C34.1429164,83.3362258 42.7538001,83.6530648 51.367928,83.8769067 C69.4234254,84.3429736 87.4832482,84.3570313 105.532257,83.6606344 C107.613879,83.5806136 107.624692,80.3354469 105.532257,80.4165491" id="Fill-100"></path>
            </g>
            <g id="Group-58" opacity="0.0965240036" transform="translate(604.000000, 39.000000)">
                <path d="M93.542,43.661 C89.796,56.678 87.059,69.642 84.515,82.906 C73.058,74.928 60.842,68.032 48.992,60.667 C49.08,60.552 49.159,60.433 49.254,60.32 C50.636,58.677 52.396,57.241 53.929,55.737 C57.397,52.336 60.863,48.932 64.326,45.528 C77.272,32.803 90.196,20.057 103.114,7.305 C100.292,19.519 97.009,31.613 93.542,43.661 Z M41.783,86.779 C43.499,80.518 44.696,74.101 46.209,67.796 C46.592,66.2 46.934,64.695 47.509,63.277 C50.149,64.917 52.806,66.536 55.471,68.146 C50.754,74.237 46.226,80.48 41.783,86.779 Z M97.902,7.162 C77.487,23.171 57.392,39.775 37.951,56.908 C27.735,54.532 17.536,52.258 7.19,50.6 C23.033,42.881 38.706,34.815 54.707,27.426 C69.127,20.768 83.23,13.277 97.902,7.162 Z M46.658,60.132 C46.264,60.393 45.992,60.848 45.936,61.329 C45.367,62.408 44.909,63.675 44.48,65.395 C42.708,72.497 41.431,79.767 39.445,86.822 C39.438,77.418 39.612,68.016 39.41,58.614 C57.213,42.92 75.566,27.675 94.21,12.92 C83.102,23.879 71.994,34.839 60.864,45.776 C57.433,49.147 53.999,52.517 50.565,55.885 C48.817,57.598 47.593,58.78 46.658,60.132 Z M105.342,1.013 C87.947,7.458 71.604,16.357 54.783,24.107 C36.824,32.381 19.267,41.48 1.456,50.06 C0.363,50.587 0.542,52.623 1.814,52.802 C13.492,54.449 24.951,56.969 36.427,59.633 C36.644,71.346 36.31,83.057 36.504,94.773 C36.531,96.333 38.472,96.717 39.3,95.53 C45.38,86.811 51.505,78.086 58.033,69.693 C67.096,75.156 76.183,80.608 84.793,86.737 C85.546,87.272 86.826,86.741 86.997,85.84 C89.658,71.829 92.487,58.175 96.435,44.459 C100.399,30.689 104.12,16.859 107.187,2.859 C107.411,1.837 106.485,0.59 105.342,1.013 L105.342,1.013 Z" id="Fill-102"></path>
                <path d="M27.659,49.803 C31.257,47.818 34.856,45.832 38.454,43.846 C39.723,43.147 38.589,41.203 37.319,41.903 C33.72,43.889 30.121,45.875 26.523,47.861 C25.254,48.56 26.388,50.504 27.659,49.803" id="Fill-104"></path>
                <path d="M37.888,46.725 C36.196,47.605 34.503,48.485 32.811,49.366 C31.526,50.034 32.662,51.976 33.947,51.308 C35.639,50.428 37.331,49.548 39.024,48.668 C40.309,47.999 39.172,46.057 37.888,46.725" id="Fill-105"></path>
            </g>
            <g id="Group-53" opacity="0.0965240036" transform="translate(712.000000, 173.000000)">
                <path d="M80.626,90.839 C78.449,88.568 76.333,86.239 74.157,83.968 C79.084,78.285 84.844,73.589 89.988,68.102 C91.047,66.97 92.073,65.807 93.17,64.713 C93.792,64.092 95.163,62.98 95.078,62.976 C96.376,63.041 101.103,67.955 102.076,68.941 C102.475,69.409 85.513,87.047 80.626,90.839 Z M71.838,78.183 C71.852,77.553 73.26,76.434 73.919,75.717 C76.146,73.298 78.377,70.878 80.729,68.578 C83.221,66.139 85.842,63.859 88.603,61.728 C90.084,60.584 89.966,61.071 91.013,62.267 C88.714,64.479 86.683,67.303 84.647,69.303 C80.895,72.986 77.067,76.351 73.533,80.167 C72.854,79.434 71.835,78.312 71.838,78.183 Z M71.164,73.955 C67.096,70.032 63.37,67.532 57.652,66.563 C47.982,64.926 36.133,60.524 39.607,48.957 C41.259,50.589 42.917,52.215 44.563,53.847 C45.935,55.208 48.058,53.088 46.684,51.726 C40.182,45.276 33.891,38.635 27.456,32.126 C24.655,29.293 20.26,26.209 18.322,22.715 C17.106,20.523 16.839,18.278 19.808,18.093 C21.695,17.975 22.237,18.489 23.578,19.648 C24.707,20.622 25.714,21.734 26.773,22.782 C31.98,27.938 36.682,33.551 42.123,38.469 C42.928,39.197 44.352,38.955 44.63,37.807 C45.324,34.828 47.395,34.033 50.846,35.423 C51.897,36.289 53.263,35.693 53.407,34.362 C54.124,31.187 56.289,30.73 59.901,32.99 C60.677,33.796 62.132,33.413 62.409,32.328 C64.084,25.752 71.499,34.355 73.126,36.124 C75.644,38.863 77.723,41.899 78.949,45.45 C80.808,50.84 81.909,55.782 85.325,60.481 C85.172,60.615 85.026,60.74 84.886,60.852 C82.696,62.609 80.614,64.493 78.608,66.456 C76.811,68.215 75.085,70.045 73.374,71.886 C72.831,72.471 71.992,73.186 71.164,73.955 Z M104.444,67.148 C104.379,67.035 104.301,66.925 104.198,66.82 C101.748,64.339 98.748,61.665 95.826,59.78 C95.367,59.483 94.777,59.536 94.312,59.78 C93.979,59.956 93.654,60.159 93.332,60.373 C92.074,59.086 90.841,57.474 88.951,57.905 C88.518,58.004 88.073,58.244 87.631,58.543 C84.741,54.382 83.533,49.953 82.018,45.151 C80.639,40.781 78.083,37.031 74.975,33.727 C72.7,31.309 69.625,27.209 66.083,26.728 C63.688,26.402 61.585,27.654 60.381,29.54 C56.918,27.406 52.593,28.415 50.992,32.112 C47.848,30.786 44.387,31.867 42.63,34.825 C36.448,28.81 31.215,21.434 24.287,16.347 C19.401,12.76 11.78,16.01 14.786,22.568 C16.816,26.994 21.459,30.301 24.802,33.705 C27.164,36.111 29.532,38.472 31.809,40.957 C33.584,42.894 35.424,44.777 37.283,46.642 C34.374,54.876 37.425,62.878 45.721,66.478 C49.966,68.32 54.458,68.984 58.97,69.801 C63.115,70.551 66.214,73.258 69.148,76.157 C68.891,76.534 68.696,76.909 68.598,77.273 C68.076,79.207 70.108,81.055 71.519,82.437 C71.369,82.613 71.216,82.781 71.069,82.96 C70.548,83.59 70.458,84.457 71.069,85.081 C73.884,87.955 76.543,90.972 79.356,93.849 C79.854,94.359 80.568,94.368 81.173,94.084 C84.18,92.668 86.617,89.539 88.851,87.18 C91.604,84.271 94.313,81.426 97.214,78.661 C99.377,76.6 107.089,71.052 104.444,67.148 L104.444,67.148 Z" id="Fill-107"></path>
                <path d="M34.498,19.453 C35.868,6.803 19.035,3.479 11.349,10.738 C2.77,18.84 6.558,36.248 20.161,34.841 C21.587,34.694 21.603,32.442 20.161,32.591 C8.463,33.801 5.711,19.045 12.94,12.329 C19.337,6.384 33.403,8.791 32.248,19.453 C32.092,20.891 34.343,20.88 34.498,19.453" id="Fill-110"></path>
                <path d="M23.902,36.765 C18.197,39.067 11.076,36.825 6.942,32.439 C0.71,25.829 3.046,14.297 8.694,8.185 C14.218,2.207 22.854,1.014 29.99,4.89 C36.436,8.393 40.896,17.917 36.962,24.644 C36.23,25.897 38.173,27.03 38.905,25.78 C43.165,18.493 39.432,8.675 32.833,4.013 C25.281,-1.322 14.74,-0.723 8.05,5.626 C1.289,12.043 -1.601,23.755 3.739,31.994 C7.859,38.353 17.405,41.797 24.499,38.934 C25.826,38.399 25.245,36.222 23.902,36.765" id="Fill-111"></path>
                <path d="M94.239,67.463 C93.507,66.214 91.561,67.345 92.295,68.598 C92.916,69.658 93.536,70.718 94.157,71.777 C94.888,73.026 96.834,71.894 96.1,70.641 C95.479,69.582 94.859,68.522 94.239,67.463" id="Fill-112"></path>
                <path d="M97.495,66.955 C97.247,66.4 96.44,66.268 95.956,66.551 C95.385,66.885 95.304,67.533 95.553,68.091 C96.019,69.133 96.484,70.176 96.95,71.218 C97.198,71.773 98.005,71.905 98.489,71.622 C99.06,71.288 99.141,70.64 98.893,70.083 C98.427,69.04 97.961,67.997 97.495,66.955" id="Fill-113"></path>
            </g>
            <g id="Group-64" opacity="0.0965240036" transform="translate(0.000000, 173.000000)">
                <path d="M86.838,36.948 C89.519,31.518 87.725,24.25 82.301,20.875 C77.067,17.617 71.363,18.785 67.442,22.508 C66.63,5.836 44.897,-2.892 30.036,2.001 C13.094,7.579 8.705,26.191 16.647,40.321 C8.178,38.239 -0.532,44.792 0.866,54.889 C2.683,68.028 16.292,68.655 26.837,68.373 C28.764,68.323 28.772,65.323 26.837,65.373 C19.774,65.562 10.45,66.33 5.875,59.809 C3.519,56.449 2.845,51.349 4.814,47.635 C7.801,41.997 15.274,41.456 19.968,45.116 C21.474,46.29 23.362,44.498 22.089,42.994 C11.446,30.418 14.167,10.395 30.834,4.894 C44.935,0.241 68.019,9.227 64.059,27.345 C63.715,28.916 66.03,30.115 66.8,28.501 C69.065,23.76 73.694,20.416 79.092,22.647 C85.222,25.18 87.298,33.614 82.137,38.22 C81.061,39.18 82.192,41.278 83.596,40.727 C95.865,35.915 103.478,54.329 93.259,61.418 C88.104,64.995 80.778,65.618 74.653,65.493 C72.721,65.453 72.722,68.453 74.653,68.493 C84.022,68.685 97.293,66.818 100.581,56.437 C103.522,47.157 96.217,36.476 86.838,36.948" id="Fill-118"></path>
                <path d="M37.094,77.671 C37.034,71.856 37.19,66.039 37.1,60.225 C37.091,59.62 36.592,59.094 35.975,59.1 C35.438,59.105 34.901,59.102 34.364,59.1 C36.331,56.599 38.397,54.181 40.45,51.748 C42.498,54.195 44.553,56.634 46.541,59.129 C46.117,59.122 45.695,59.116 45.258,59.1 C44.653,59.076 44.129,59.634 44.133,60.225 C44.173,66.042 44.054,71.861 44.124,77.678 C41.783,77.779 39.436,77.759 37.094,77.671 Z M41.247,49.211 C40.881,48.773 40.022,48.776 39.657,49.211 C36.766,52.665 33.809,56.053 31.104,59.657 C30.577,60.359 31.294,61.357 32.076,61.35 C33.003,61.341 33.93,61.348 34.857,61.35 C34.915,67.151 34.76,72.953 34.85,78.754 C34.857,79.192 35.077,79.481 35.367,79.655 C35.532,79.775 35.723,79.867 35.975,79.879 C39.065,80.02 42.169,80.069 45.258,79.879 C45.858,79.843 46.394,79.394 46.383,78.754 C46.287,72.962 46.404,67.168 46.384,61.375 C47.195,61.391 47.998,61.393 48.828,61.35 C49.58,61.311 50.362,60.383 49.8,59.657 C47.047,56.093 44.131,52.669 41.247,49.211 L41.247,49.211 Z" id="Fill-119"></path>
                <path d="M55.515,75.057 C56.048,75.054 56.582,75.052 57.117,75.057 C57.731,75.063 58.232,74.536 58.242,73.932 C58.331,68.116 58.175,62.3 58.235,56.486 C60.577,56.398 62.924,56.377 65.266,56.478 C65.196,62.295 65.314,68.115 65.275,73.932 C65.27,74.523 65.793,75.08 66.4,75.057 C66.807,75.041 67.201,75.036 67.598,75.029 C65.585,77.475 63.629,79.965 61.596,82.395 C59.575,79.944 57.492,77.544 55.515,75.057 Z M69.97,72.807 C69.14,72.764 68.335,72.765 67.525,72.781 C67.544,66.988 67.429,61.194 67.525,55.402 C67.534,54.767 66.999,54.314 66.4,54.277 C63.311,54.088 60.206,54.136 57.117,54.277 C56.867,54.288 56.676,54.38 56.513,54.498 C56.22,54.671 55.998,54.961 55.992,55.402 C55.902,61.203 56.057,67.005 55.997,72.807 C55.071,72.809 54.145,72.816 53.217,72.807 C52.436,72.799 51.718,73.798 52.245,74.499 C54.952,78.1 57.968,81.443 60.798,84.945 C61.16,85.393 62.025,85.371 62.389,84.945 C65.251,81.595 67.904,78.076 70.766,74.727 C71.405,73.979 70.979,72.859 69.97,72.807 L69.97,72.807 Z" id="Fill-120"></path>
                <path d="M34.827,11.824 C36.252,11.674 36.268,9.422 34.827,9.574 C26.613,10.442 19.729,19.565 21.673,27.665 C22.011,29.074 24.181,28.477 23.843,27.068 C22.275,20.532 28.114,12.533 34.827,11.824" id="Fill-121"></path>
                <path d="M34.979,14.261 C32.803,14.621 30.856,15.615 29.226,17.091 C28.151,18.066 29.745,19.653 30.817,18.682 C32.176,17.45 33.775,16.729 35.577,16.43 C37.002,16.194 36.398,14.026 34.979,14.261" id="Fill-122"></path>
            </g>
        </g>
    </g>
</svg>