<?xml version="1.0" encoding="UTF-8"?>
<svg width="554px" height="458px" viewBox="0 0 554 458" version="1.1" xmlns="http://www.w3.org/2000/svg" xmlns:xlink="http://www.w3.org/1999/xlink">
    <!-- Generator: Sketch 43.2 (39069) - http://www.bohemiancoding.com/sketch -->
    <title>Group 71</title>
    <desc>Created with Sketch.</desc>
    <defs></defs>
    <g id="Page-1" stroke="none" stroke-width="1" fill="none" fill-rule="evenodd" opacity="0.704200634">
        <g id="Group-71" fill="#464643">
            <g id="Group-55" opacity="0.0965240036" transform="translate(119.102973, 363.793781) rotate(-37.000000) translate(-119.102973, -363.793781) translate(95.602973, 317.793781)">
                <path d="M26.0541931,41.7446411 C15.7314147,42.5481593 5.88814607,36.2424153 3.66292135,25.8624597 C1.4110572,15.3617681 8.4946476,5.81946976 18.8057712,3.7020121 C29.6238764,0.901772177 39.7152247,8.48731653 43.1209091,18.425129 C47.3041318,30.6311109 38.1801277,40.8012359 26.0541931,41.7446411 Z M26.8325638,51.4284919 C25.6296272,51.256131 24.3317875,51.307756 23.1629826,51.5975222 C22.7775434,49.1744778 22.635189,46.7056371 22.4836772,44.2542823 C23.8506129,44.3425444 25.2242084,44.3117359 26.5894791,44.186004 C26.7493156,46.5957258 26.6677324,49.0187702 26.8325638,51.4284919 Z M30.3847651,63.1090645 C30.8875843,69.3923266 31.5602298,76.1144012 31.2172472,82.4093206 C31.085715,84.8373609 30.9650051,86.7724657 28.8363483,88.0547641 C27.3753422,88.9340544 25.6421144,89.0439657 23.9713228,88.6159778 C23.9097191,88.6001573 23.8589377,88.5768427 23.7998315,88.5593569 C24.0520735,88.4427843 24.2968233,88.3128891 24.5565577,88.2121371 C25.0260776,88.0297843 25.3574055,87.5826452 25.2108887,87.0597339 C25.0851839,86.6109294 24.5340807,86.221244 24.0587334,86.4052621 C23.3519561,86.680873 22.6676558,86.9981169 22.0041675,87.354496 C21.7569203,87.0289254 21.5671144,86.6617218 21.423095,86.2620444 C22.6185393,85.3161411 23.8556078,84.4285242 25.1401277,83.6050222 C26.1515935,82.956379 25.2133861,81.3343548 24.194428,81.987994 C23.1005465,82.6882621 22.0491216,83.4476492 21.0160112,84.2328488 C20.9760521,83.789873 20.9527426,83.3385706 20.9385904,82.8872681 C22.1973034,82.0196351 23.4568488,81.1528347 24.7147293,80.2860343 C25.7012206,79.6065827 24.7655107,77.9820605 23.7690296,78.6681734 C22.8041828,79.3334698 21.8385036,79.9979335 20.8728243,80.6632298 C20.862002,80.220254 20.8478498,79.7756129 20.8336977,79.3318044 C21.9841879,78.2443488 23.1971144,77.238494 24.5099387,76.348379 C25.5022574,75.6755887 24.565715,74.0518992 23.564239,74.7313508 C22.5835751,75.3966472 21.6453677,76.1185645 20.7446221,76.8846129 C20.7154852,76.1618629 20.6855158,75.4391129 20.656379,74.7163629 C21.8468284,73.7962722 23.0938866,72.953619 24.3917263,72.1917339 C25.4306639,71.5822258 24.4891267,69.9618669 23.4460266,70.573873 C22.4537079,71.1567359 21.5046782,71.8012157 20.5731307,72.4706754 C20.559811,72.0676673 20.5464913,71.6646593 20.5356691,71.2608185 C21.7377732,70.4364839 22.9390449,69.6121492 24.1403166,68.7869819 C25.1284729,68.1091956 24.192763,66.4846734 23.1954494,67.1699536 C22.2947038,67.7877883 21.3939581,68.405623 20.4932125,69.0234577 C20.4898825,68.6221149 20.49238,68.2216048 20.4932125,67.8202621 C20.5764607,67.7744657 20.6580439,67.7178448 20.7337998,67.636244 C21.9650409,66.3189738 23.3261491,65.1665706 24.8387692,64.1840302 C25.8460725,63.5295585 24.9078652,61.9067016 23.8930695,62.5661694 C22.7001226,63.341377 21.5829316,64.2148387 20.5456588,65.1815585 C20.5648059,64.683627 20.5931103,64.1865282 20.6239122,63.6885968 C21.9966752,62.5595081 23.4859857,61.6094415 25.0901788,60.8342339 C26.174903,60.3088246 25.2258733,58.6934617 24.1444791,59.216373 C22.9681818,59.7859133 21.8609806,60.4587036 20.8037283,61.2080988 C20.839525,60.7401431 20.8778192,60.2613629 20.9286006,59.7809173 C22.0457916,58.9973831 23.217094,58.3112702 24.4558274,57.7325706 C25.546379,57.2229819 24.5965169,55.6067863 23.5101277,56.1155423 C22.7875332,56.4527702 22.0865832,56.8274677 21.4064454,57.2354718 C21.9292441,55.5368427 22.9440398,54.1796048 25.1018335,53.901496 C30.0351226,53.2653427 30.1167058,59.7609335 30.3847651,63.1090645 Z M43.7011491,13.5324113 C38.931859,4.44724395 28.4467467,-1.37389113 18.1414505,1.29312298 C9.63265066,3.04087903 2.07454545,9.96778831 0.891588355,18.793998 C-0.301358529,27.6918165 4.31225741,36.9385202 12.1675587,41.2891754 C14.5892492,42.6297601 17.2415373,43.5048871 19.9687487,43.9536915 C20.1577222,46.8713367 20.3167263,49.813129 20.817048,52.6941371 C18.3670531,54.7216673 18.4761083,59.3995585 18.2230337,62.2497581 C17.6702656,68.4980484 18.2505056,74.7854738 18.3862002,81.0387601 C18.5227273,83.9039476 18.2971246,88.3670121 20.9485802,90.2821331 C22.9998161,91.7634375 28.3152145,91.9382964 30.4705107,90.6077036 C33.53238,88.7175625 33.7563177,83.9539073 33.7288458,80.8222681 C33.6747344,74.4615685 33.439142,67.8585645 32.7348621,61.5378327 C32.3760623,58.3229274 32.4709653,54.1504617 29.3999387,52.2786391 C29.1318795,49.4734032 29.2725689,46.6465181 29.0577886,43.8387843 C32.7681614,43.1343528 36.3186977,41.6363952 39.3231256,39.3390827 C47.7545046,32.890121 48.4346425,22.5493004 43.7011491,13.5324113 L43.7011491,13.5324113 Z" id="Fill-14"></path>
                <path d="M37.5133095,32.6744617 C34.8893258,36.4256008 30.1683197,37.681254 25.826093,37.7686835 C18.0731869,37.9260565 9.48030644,33.1723931 7.46819714,25.2571149 C5.14224208,16.1061673 13.9607252,7.70544758 22.6360215,7.12008669 C30.4713432,6.89277016 36.8298417,12.7347218 38.8860725,20.1320847 C39.9866139,24.0938871 39.9633044,29.1722883 37.5133095,32.6744617 Z M22.6360215,5.24659879 C13.3188815,5.87525806 3.83607763,14.3842238 5.37283963,24.3028851 C6.84300306,33.7843992 16.743713,39.8261895 25.826093,39.6421714 C35.9091164,39.4381694 42.6480592,32.6003548 41.237002,22.2961714 C39.9641369,12.9928468 32.2470276,4.96765726 22.6360215,5.24659879 L22.6360215,5.24659879 Z" id="Fill-16"></path>
                <path d="M16.5097855,14.400877 C15.0304648,15.585754 13.692666,17.03625 12.7644484,18.6982419 C12.2383197,19.6399819 11.8220787,20.6758125 11.5939785,21.7307944 C11.5240501,22.0563649 11.5415322,22.4360585 11.4358069,22.7508044 C11.1294535,23.6617359 10.3935393,25.195498 10.4051941,22.6508851 C10.6965628,19.3776935 12.2657916,16.4542198 14.8589734,14.405873 C15.2768795,14.0769718 18.4985853,11.9495222 18.418667,13.0727823 C18.4045148,13.2684577 16.7711849,14.191879 16.5097855,14.400877 Z M15.8770991,11.5231996 C11.6048008,13.6822903 8.94918284,17.960504 8.5321093,22.6508851 C8.52544944,24.0339355 8.74855465,26.1414012 10.3893769,26.5460746 C11.6605771,26.8599879 12.6995148,25.8391452 13.0633095,24.7466935 C13.4104545,23.703369 13.2830848,22.5501331 13.5894382,21.4843266 C14.0181665,19.9963609 14.9105873,18.6557762 15.9278805,17.508369 C17.1532942,16.1244859 19.21119,15.389246 20.283427,13.982881 C20.8994637,13.1743669 20.934428,11.8029738 20.1760368,11.0752278 C19.047191,9.99110282 17.0259244,10.942002 15.8770991,11.5231996 L15.8770991,11.5231996 Z" id="Fill-17"></path>
                <path d="M24.8029724,12.1402016 C24.589857,12.3275504 24.3093105,12.4249718 24.0379213,12.3125625 C23.3502911,12.0269597 23.495143,11.1718165 24.0337589,10.843748 C24.3717467,10.7288407 24.6156639,10.7105222 24.8096323,10.9511613 C24.9861185,11.1701512 25.0693667,11.5556734 25.0385649,11.8304516 C25.0344025,11.8554315 25.0285751,11.8779133 25.0227477,11.8870726 C24.9744637,11.9678407 24.8720684,12.08025 24.8029724,12.1402016 Z M23.3594484,9.09765726 C23.3452962,9.10348589 23.334474,9.1118125 23.3203218,9.11764113 C23.2595506,9.13595968 23.1979469,9.16010685 23.1355107,9.19258065 C21.633713,9.97944556 21.234954,12.0344536 22.3421553,13.3200827 C23.5001379,14.6648306 25.5563687,14.4250242 26.5278754,12.9911815 C27.1122778,12.1285444 26.9765832,10.9644839 26.475429,10.0910222 C25.8277579,8.95943548 24.5382431,8.63969355 23.3594484,9.09765726 L23.3594484,9.09765726 Z" id="Fill-18"></path>
            </g>
            <g id="Group-61" opacity="0.0965240036" transform="translate(238.329365, 288.099411) rotate(6.000000) translate(-238.329365, -288.099411) translate(197.329365, 254.099411)">
                <path d="M31.3679265,65.3905565 C29.9027579,65.4696593 28.4467467,65.0649859 28.0271757,63.501248 C27.4935546,61.5061915 29.2600817,59.9091472 31.1906078,60.2455423 C31.2055924,60.2480403 31.2197446,60.246375 31.2347293,60.248873 C31.3238049,60.2713548 31.4195403,60.2863427 31.5227681,60.290506 C32.83143,60.3429637 33.7346731,61.4021089 33.9852503,62.6461048 C34.3190756,64.3022681 32.8847089,65.310621 31.3679265,65.3905565 Z M31.5227681,57.7925222 L31.5111134,57.7925222 C28.4159448,57.4153266 25.6262972,59.2663327 25.4381563,62.6044718 C25.2583401,65.8227077 27.896476,67.7944496 30.8584474,67.8902056 C33.7005414,67.9834637 36.6650102,66.1491109 36.5401379,63.0191371 C36.4302503,60.2422117 34.3115832,57.9032661 31.5227681,57.7925222 L31.5227681,57.7925222 Z" id="Fill-33"></path>
                <path d="M68.3867416,65.3222782 C66.6776558,65.2473387 65.2349642,65.0300141 64.9277783,62.9999859 C64.6530592,61.183119 65.8543309,59.8883306 67.6874566,60.1039899 C69.1975792,60.1223085 69.5397293,60.6177419 69.8802145,61.994131 C70.183238,63.2198085 70.1216343,65.3988831 68.3867416,65.3222782 Z M67.6874566,57.606006 C64.6638815,57.2512923 62.2713279,59.7459456 62.3862104,62.7127177 C62.4486466,64.3347419 63.2095352,66.0017298 64.548999,66.9584577 C65.66619,67.7569798 67.0689224,67.7228407 68.3867416,67.8202621 C71.276287,68.034256 73.002855,64.7585665 72.4908784,62.1956351 C71.9281205,59.3804073 70.7559857,57.6443085 67.6874566,57.606006 L67.6874566,57.606006 Z" id="Fill-34"></path>
                <path d="M72.5241777,42.7471653 C71.326236,46.5540927 69.1775996,46.4625 65.3431869,46.5574234 C64.5498315,46.5774073 63.754811,46.5873992 62.9606231,46.6032198 C63.5367007,43.8138044 64.084474,41.0085685 64.6314147,38.197504 C67.715761,38.2907621 70.7992748,38.3973427 73.8819561,38.5214093 C73.4240909,39.9286069 72.9687232,41.3366371 72.5241777,42.7471653 Z M45.4476966,46.6773266 C45.2570582,43.6805786 45.0472727,40.6863286 44.8424821,37.6904133 C47.6546067,37.7603569 50.4683963,37.8269698 53.2813534,37.895248 C53.0832227,40.8287137 52.9000766,43.7638448 52.7394076,46.7006411 C50.3093922,46.7031391 47.8793769,46.6948125 45.4476966,46.6773266 Z M20.3308784,15.1710887 C23.1180286,15.2743387 25.9026813,15.391744 28.6831716,15.5258024 C29.2842237,18.1545141 29.8328294,20.7940504 30.3556282,23.4385827 C27.5676456,23.2137641 24.777998,22.9964395 21.9866854,22.7924375 C21.8326762,22.2195665 21.6753371,21.6475282 21.5254903,21.0746573 C21.0476456,19.256125 20.7146527,17.2094435 20.3308784,15.1710887 Z M54.9821144,17.2077782 C54.7157201,19.9455685 54.4676404,22.6841915 54.233713,25.4244798 C50.7889019,25.1455383 47.3449234,24.8582702 43.9009448,24.566006 C43.6961542,21.8332117 43.497191,19.0995847 43.2807457,16.367623 C46.68976,16.5949395 50.1004392,16.8364113 53.5136159,17.1036956 C54.0031154,17.141998 54.4926149,17.1711411 54.9821144,17.2077782 Z M67.1929622,18.012129 C66.4462257,20.7374294 65.7777426,23.4902077 65.1642033,26.2613044 C62.1389632,26.0473105 59.1162206,25.8166633 56.0943105,25.5760242 C56.328238,22.8299073 56.5771502,20.0837903 56.8435444,17.3401714 C60.2092697,17.5791452 63.5766599,17.7956371 66.9448825,18.0021371 C67.0156435,18.0071331 67.1105465,18.0087984 67.1929622,18.012129 Z M44.0441318,26.4519839 C47.3890449,26.7350887 50.7347906,27.0140302 54.0813687,27.2854778 C53.8399489,30.1972944 53.6176762,33.1099435 53.4137181,36.0242581 C50.5141828,35.9543145 47.6154801,35.8860363 44.7159448,35.8135948 C44.4994995,32.6927802 44.2747293,29.5719657 44.0441318,26.4519839 Z M32.2894842,23.5967883 C31.7666854,20.9331048 31.2189122,18.27525 30.622855,15.6273871 C34.2166803,15.8097399 37.8080082,16.0179052 41.3985036,16.2485524 C41.6141164,18.9671915 41.8114147,21.687496 42.0153728,24.4078004 C38.7745199,24.1330222 35.5328345,23.8615746 32.2894842,23.5967883 Z M34.6395812,35.5338206 C33.950286,32.1956815 33.3092748,28.8475504 32.6616037,25.500252 C35.8283657,25.7600423 38.9942952,26.0248286 42.1585598,26.2921129 C42.3933197,29.4495645 42.6205873,32.6070161 42.8395301,35.7653004 C40.1064913,35.6961895 37.37262,35.618752 34.6395812,35.5338206 Z M37.236093,46.5799052 C36.4036108,43.5473528 35.6935036,40.4889879 35.0366752,37.4197984 C37.6798059,37.5005665 40.3229367,37.575506 42.9660674,37.642119 C43.1716905,40.6488589 43.3823085,43.6547661 43.5737794,46.661506 C41.4609397,46.6431875 39.3489326,46.6215383 37.2394229,46.5973911 C37.2377579,46.5907298 37.2377579,46.5865665 37.236093,46.5799052 Z M22.5028243,24.7050605 C25.2458529,24.9065645 27.9872165,25.1205585 30.7269152,25.342879 C31.3837436,28.7209859 32.0255873,32.1024234 32.715715,35.473869 C30.2832022,35.3931008 27.8506895,35.3056714 25.4190092,35.203254 C24.4591573,31.700248 23.4626762,28.2064012 22.5028243,24.7050605 Z M28.2569408,46.4966391 C27.5618182,43.3450161 26.7726251,40.2142097 25.9343156,37.0958931 C28.3268693,37.1949798 30.7202554,37.2815766 33.112809,37.3590141 C33.7663075,40.4473548 34.4755822,43.5240383 35.300572,46.5749093 C32.94881,46.5482641 30.6012104,46.5199536 28.2569408,46.4966391 Z M55.2834729,36.0700544 C55.4849336,33.1915444 55.7047089,30.3138669 55.9419663,27.4361895 C58.8781307,27.6718327 61.8159602,27.8983165 64.7554545,28.1081472 C64.176047,30.822623 63.6349336,33.5495887 63.1029775,36.2765544 C60.496476,36.2007823 57.8899745,36.1341694 55.2834729,36.0700544 Z M54.6124923,46.6973105 C54.7723289,43.7763347 54.9546425,40.8586895 55.1511083,37.9402117 C57.680189,38.0026613 60.2101021,38.0667762 62.7400153,38.1392177 C62.1864147,40.982756 61.6319816,43.8212984 61.0442492,46.6406895 C58.9039377,46.6731633 56.7586313,46.6898165 54.6124923,46.6973105 Z M75.0615832,34.8918387 C74.8701124,35.4846935 74.676144,36.0775484 74.4830082,36.6712359 C71.3212411,36.5405081 68.157809,36.4314294 64.9943769,36.3356734 C65.5230031,33.6303569 66.0624515,30.9267056 66.641859,28.233879 C70.0783453,28.4711875 73.5181614,28.6826835 76.9629724,28.8625383 C76.3452707,30.8775786 75.7092543,32.8867903 75.0615832,34.8918387 Z M79.1166037,19.6791169 C79.799239,21.0396855 78.2449949,24.5476875 77.8528958,25.9115867 C77.7471706,26.2829536 77.6281256,26.6501573 77.5190705,27.0198589 C74.0259755,26.8408367 70.5378754,26.6260101 67.0539377,26.387869 C67.6799642,23.5834657 68.3609346,20.7965484 69.1268182,18.0412722 C72.6240756,18.061256 78.3265781,18.1045544 79.1166037,19.6791169 Z M6.24777835,4.99097177 C5.50270684,4.72868347 3.05687436,4.07088105 2.67476507,3.23239113 C2.38256384,2.59040927 3.08517875,2.09997177 3.54304392,2.00088508 C3.82026047,1.94010081 4.1449285,2.0391875 4.41631767,2.08498387 C5.22132789,2.219875 6.01468335,2.49382056 6.78472932,2.75610887 C7.66216547,3.05586694 8.53044433,3.38976411 9.38623596,3.74864113 C10.2753269,4.12084073 10.7182074,4.18079234 10.4726251,5.19247581 C10.0105975,6.42981048 7.04113381,5.27074597 6.24777835,4.99097177 Z M77.7538304,16.3859415 C70.2564964,14.8513468 62.0657048,15.273506 54.4559857,14.6798185 C42.9011338,13.7772137 31.3862411,13.0719496 19.8055822,12.6522883 C19.4601021,11.1676532 19.0438611,9.73797379 18.4611236,8.46983065 C17.3147957,5.97517742 14.8606384,5.45476411 12.4622574,4.69287903 C12.5480031,3.78944153 12.3024208,3.09666734 11.2385087,2.52629435 C9.87240552,1.79355242 8.29485189,1.27230645 6.82552094,0.797689516 C4.91996936,0.181520161 0.490331971,-0.718586694 0.550270684,2.63120968 C0.596889683,5.21245968 3.98259448,6.19749798 5.94808478,6.86779032 C7.58724208,7.42733871 9.93650664,8.00936895 11.3533912,6.95605242 C12.8801634,7.46813911 14.2687436,7.74541532 15.4000868,8.9461129 C16.76619,10.3966089 16.8344535,12.4299677 17.2814964,14.3625746 C18.2222012,18.4342883 19.2969356,22.4743609 20.399142,26.5052742 C22.2439224,33.2564919 24.2452094,39.9777339 25.7719816,46.8105524 C23.7373953,47.5349677 22.2164505,49.3385121 22.2763892,51.6999395 C22.3687947,55.396123 25.8976864,56.2154617 28.9237589,56.2887359 C43.0543105,56.6284617 57.2015117,56.3986472 71.3345608,56.4319536 C72.9420838,56.4361169 72.9445812,53.9381331 71.3345608,53.9339698 C62.9739428,53.9139859 54.6124923,53.955619 46.2510419,53.9356351 C41.8039224,53.9248105 37.3568029,53.8948347 32.9105158,53.842377 C31.1706282,53.8223931 26.5753269,54.5359839 25.2683299,52.9322782 C23.9696578,51.3385645 25.4589683,49.1436694 27.2571297,48.9837984 C39.3123034,49.0987056 51.3733044,48.9413327 63.4293105,49.0795544 C66.3762972,49.1136935 71.4277988,49.6507601 73.5273187,47.0187177 C74.4180746,45.9012863 74.6803064,44.2084859 75.0990449,42.8895504 C76.0006231,40.0485101 76.9371655,37.219127 77.8487334,34.3805847 C79.2348161,30.0682319 81.1819918,25.404496 81.6373596,20.8623286 C81.9220684,18.0237863 80.4677222,16.9421593 77.7538304,16.3859415 L77.7538304,16.3859415 Z" id="Fill-35"></path>
                <path d="M23.0339479,60.8275726 C23.5101277,59.7334556 21.8967773,58.7783931 21.4164351,59.8816694 C20.3633453,62.3030484 20.7046629,64.8809677 22.3671297,66.9359758 C23.1263534,67.8735524 24.4441726,66.5404617 23.6916088,65.6112117 C22.612712,64.278121 22.3488151,62.4038004 23.0339479,60.8275726" id="Fill-36"></path>
                <path d="M19.513381,62.213121 C19.5550051,61.7085282 19.0538509,61.276377 18.5768386,61.276377 C18.0365577,61.276377 17.6819203,61.7076956 17.6402962,62.213121 C17.5645403,63.1531956 17.69857,64.1274093 18.16476,64.9559073 C18.7558223,66.0075585 20.3741675,65.0641532 19.7814402,64.0108367 C19.4759193,63.4662762 19.4642646,62.822629 19.513381,62.213121" id="Fill-37"></path>
            </g>
            <g id="Group-56" opacity="0.0965240036" transform="translate(396.247631, 367.895162) rotate(17.000000) translate(-396.247631, -367.895162) translate(359.247631, 323.895162)">
                <path d="M30.3847651,46.4708266 C29.8386568,46.5299456 29.3116956,46.5424355 28.8238611,46.5041331 C27.5484985,46.403381 23.3353064,45.0369839 24.6980797,42.6697278 C26.5470225,39.4589859 29.6696629,44.3716875 30.1808069,45.8071956 C30.2582278,46.0261855 30.3156691,46.2501714 30.3847651,46.4708266 Z M43.9117671,46.7580948 C43.9483963,46.6556774 43.9800306,46.5490968 44.0174923,46.4466794 C44.4820174,45.0578004 45.2179316,43.8329556 46.2244025,42.7704798 C49.5127068,41.6355625 50.132906,42.6755565 48.0858325,45.8912944 C47.0727017,46.8563488 45.4793309,46.9920726 43.9117671,46.7580948 Z M59.7197702,46.609881 C59.0171553,49.9713347 58.3145403,52.0688085 56.1592441,54.8981915 C54.4093667,57.1971694 52.6220276,59.5469395 51.0469714,61.9658206 C50.2577783,63.1765101 49.5743105,64.3921956 49.2288304,65.8085524 C48.7526507,67.7653065 49.5118744,69.5805081 46.8612513,70.6080121 C45.6266803,71.0867923 43.8826302,71.1683931 42.1377477,71.144246 C41.7173442,63.9908528 41.331905,55.6450887 43.3315271,48.5857863 C46.9203575,48.8830464 52.1816445,47.3009899 51.2600868,43.060246 C49.9406027,36.9801532 44.2872165,41.2833468 42.707998,44.7130786 C42.4682431,45.2334919 42.2493003,45.7705585 42.0461747,46.3159516 C41.2727988,46.0678185 40.5760112,45.7697258 40.0548774,45.4849556 C39.608667,45.2426512 39.1091777,44.921244 38.6046936,44.5432157 C41.2877835,42.0968569 42.3708427,38.9502298 39.6436313,35.773627 C37.4250664,33.1890464 34.159239,34.9442964 33.4532942,38.1616996 C32.9513075,40.4473548 34.0351992,42.7005363 35.7384576,44.5282278 C34.6578958,45.2409859 33.4116701,45.788877 32.1679418,46.1261048 C30.759382,41.3041633 28.4017926,38.3090806 24.4441726,40.3058024 C22.1440245,41.4656996 22.4320633,44.6797722 23.9247038,46.4050464 C25.6454443,48.3942742 28.2669305,48.7481552 30.8651073,48.2960202 C31.5810419,51.6349919 31.5643922,55.137998 31.7458733,58.5285948 C31.9656486,62.6369456 32.1845914,66.7452964 32.4043667,70.8536472 C31.227237,70.7528952 30.0659244,70.5963548 28.968713,70.3515524 C27.2155056,69.9602016 26.8550409,70.008496 26.1341113,68.1291794 C25.658764,66.8876815 25.7286925,65.5479294 25.0976711,64.3255827 C23.5775587,61.3812923 20.4657406,59.2655 18.6359448,56.4610968 C16.626333,53.3810827 14.625046,49.6432661 13.855,46.0220222 C12.6379111,40.2966431 14.4801941,34.2015625 17.5953422,29.4595565 C22.1290398,22.5592923 29.0994127,19.106246 37.2419203,18.4700927 C44.6643309,17.8905605 52.2432482,21.7890806 56.3582074,28.0315423 C60.0311185,33.6045444 61.0500766,40.2375242 59.7197702,46.609881 Z M48.3880235,79.716494 C47.7703218,81.0196089 46.8137998,81.5675 45.5176251,81.3593347 C44.5536108,81.4159556 43.590429,81.471744 42.6264147,81.5275323 C40.9897549,81.621623 39.35143,81.7207097 37.7131052,81.7931512 C36.4235904,81.8506048 25.1950715,82.2278004 27.0631614,79.659873 C27.0939632,79.6165746 27.1156078,79.5749415 27.1372523,79.5316431 C30.6128652,80.3126794 35.5702962,80.1203347 37.0862462,80.1353226 C38.6013636,80.1486452 44.4528805,80.5566492 48.3255873,79.6698649 C48.3472319,79.6848528 48.364714,79.7023387 48.3880235,79.716494 Z M39.2307201,85.070506 C38.5414249,85.328631 37.5541011,85.3910806 36.8298417,85.4019052 C36.5134985,85.4069012 36.0697855,85.4610242 35.7792492,85.3211371 C35.5070276,85.1895766 35.718478,85.3636028 35.5403269,85.0605141 C35.3738304,84.7774093 35.2955771,84.2728165 35.2439632,83.8123548 C37.3876047,83.7549012 39.2174004,83.6025242 39.9916088,83.5517319 C39.9291726,84.1870524 39.7701685,84.869002 39.2307201,85.070506 Z M48.3980133,77.8854718 C47.6554392,77.9787298 46.9145301,78.0703226 46.1719561,78.162748 C45.2395761,78.2460141 44.3005363,78.2793206 43.3648264,78.3018024 C41.2727988,78.3525948 39.1774413,78.2801532 37.0862462,78.2618347 C35.3963075,78.2451815 33.7096987,78.2202016 32.0222574,78.1361028 C31.5452451,78.1127883 25.2008989,77.9187782 25.941808,76.0261391 C28.6515373,77.3142661 33.6147957,76.7871915 35.9565679,76.8762863 C39.9424923,77.0278306 45.1346834,77.7847198 49.062334,76.4899315 C48.8400613,76.9545565 48.6194535,77.4208468 48.3980133,77.8854718 Z M37.8055107,73.5239919 C40.8132686,73.4981794 43.8643156,73.3532964 46.8612513,73.105996 C47.6063228,73.0452117 48.2631512,72.9744355 48.8433912,72.8054052 C50.6756844,74.6639052 45.3236568,75.0535907 44.0308121,75.1052157 C41.9912308,75.1859839 39.9508172,75.1410202 37.911236,75.0735746 C36.0373187,75.0119577 34.1600715,74.957002 32.2886517,74.8404294 C31.0199489,74.7613266 24.3625894,73.9594738 26.5969714,72.5297944 C26.8300664,72.5930766 27.083141,72.6488649 27.36119,72.6979919 C30.7302451,73.2916794 34.3898366,73.5373145 37.8055107,73.5239919 Z M37.0562768,45.7605665 C38.4282074,46.8838266 39.9907763,47.7464637 41.4293054,48.2069254 C39.3555924,55.3611512 39.8409295,64.0141673 40.2621655,71.090123 C39.3655822,71.0551512 38.5181154,71.0201794 37.8055107,71.0260081 C36.673335,71.0301714 35.4862155,71.0210121 34.2907712,70.9718851 C34.2166803,67.9010302 34.5055516,56.0764073 32.6199796,47.8738609 C34.2874413,47.3626069 35.8500102,46.5849012 37.0562768,45.7605665 Z M35.2547855,39.0734637 C35.5036977,37.5596855 36.3461696,36.6837258 37.7830337,36.44725 C38.7961645,37.2540988 39.1566292,38.2940927 38.864428,39.5663992 C38.9168744,41.0019073 38.2517211,42.2767117 37.2094535,43.3341915 C35.999857,42.1110121 35.0666445,40.5988992 35.2547855,39.0734637 Z M23.1063739,20.3244294 C13.9399132,26.070625 8.44719612,38.7512238 12.2982584,49.1761431 C13.5494791,52.5609113 15.1311951,55.8499234 17.2124004,58.805871 C18.2887998,60.3338044 19.537523,61.6668952 20.7762564,63.0582722 C22.6293616,65.1399254 23.1504954,66.751125 23.8464505,69.273256 C24.1344893,70.3165806 24.4450051,71.0343347 24.9037028,71.5539153 C24.1070174,72.4473609 23.7981665,73.7013488 24.4566599,74.7829758 C22.8349847,76.8837802 23.5559142,78.165246 25.2949694,78.9462823 C22.6118795,82.961375 28.2419561,83.7998649 33.3792033,83.8323387 C33.4699438,84.6258649 33.5798315,85.4851714 33.9078294,86.1471371 C34.4231359,87.1854657 35.8067211,87.290381 36.8298417,87.2753931 C37.9836619,87.2579073 39.6045046,87.1513266 40.6093105,86.5426512 C41.5608376,85.9647843 41.7839428,84.6525101 41.8680235,83.5392419 C44.8183401,83.6091855 49.2995914,83.8323387 50.7822421,81.9563528 C51.692145,80.8047823 51.2584219,79.7423065 50.4267722,78.9279637 C51.8494842,78.1585847 52.4055822,76.9545565 51.2409397,75.0885625 C51.8894433,74.0827077 51.508999,72.8278871 50.4617365,71.7504234 C50.6631971,71.5047883 50.8521706,71.2275121 51.020332,70.873631 C51.6863177,69.4739274 51.2908887,67.9451613 51.6380337,66.4721835 C52.1633299,64.2398185 53.6318284,63.0974073 54.8339326,61.3096835 C56.6137794,58.6659839 59.0829213,56.1030524 60.4756639,53.2570161 C65.0393309,43.9312097 63.1629162,30.9317016 55.8953473,23.5501593 C47.061047,14.5798992 33.6730695,13.7006089 23.1063739,20.3244294 L23.1063739,20.3244294 Z" id="Fill-38"></path>
                <path d="M71.8498672,21.532621 C69.1551226,22.7533024 66.3954443,23.8840565 63.9812462,25.6193226 C62.6867365,26.5494052 63.9329622,28.7168226 65.2407916,27.7759153 C67.6566547,26.0406492 70.4155005,24.9098952 73.1102451,23.6892137 C74.5720838,23.0280806 73.3042135,20.8739859 71.8498672,21.532621" id="Fill-39"></path>
                <path d="M53.7350562,15.691502 C55.5848315,13.3209153 57.0042135,10.740498 58.4702145,8.12427621 C59.2560776,6.71957661 57.0991164,5.45892742 56.3132533,6.86279435 C54.9604699,9.27917742 53.6792799,11.7346956 51.9693616,13.9245948 C50.9920276,15.17775 52.7477324,16.9579798 53.7350562,15.691502" id="Fill-40"></path>
                <path d="M37.9245557,10.4532298 C38.118524,7.64216532 38.2092646,4.83110081 38.1942799,2.013375 C38.1851226,0.40633871 35.6885087,0.403008065 35.6968335,2.013375 C35.7118182,4.83110081 35.6219101,7.64216532 35.4271093,10.4532298 C35.3163892,12.0577681 37.8138355,12.0502742 37.9245557,10.4532298" id="Fill-41"></path>
                <path d="M20.3433657,15.6615262 C21.2332891,16.9912863 23.3977426,15.7422944 22.5003269,14.400877 C20.8137181,11.8820766 18.9015066,9.38908871 17.8217773,6.53222782 C17.2581869,5.04342944 14.8431563,5.68874194 15.4125741,7.19669153 C16.5805465,10.2825343 18.5202298,12.9387238 20.3433657,15.6615262" id="Fill-42"></path>
                <path d="M10.0180899,25.3870101 C7.55144535,23.5701431 4.89332993,22.1321371 2.05206844,20.9947218 C0.56026047,20.396871 -0.0882431052,22.8115887 1.38858018,23.4027782 C4.02338611,24.4585927 6.473381,25.861627 8.75771195,27.5436028 C10.0530541,28.497 11.3001124,26.3304153 10.0180899,25.3870101" id="Fill-43"></path>
                <path d="M28.9345812,23.4927056 C23.1088713,25.1913347 17.8442543,31.4587762 17.0350817,37.4414476 C16.8752451,38.620496 18.6800664,39.1309173 18.8407354,37.9402117 C19.5641624,32.5928609 24.1802758,26.8308448 29.4324055,25.2995806 C30.5870582,24.9623528 30.0958938,23.1538125 28.9345812,23.4927056" id="Fill-44"></path>
                <path d="M30.1000562,26.7092762 C28.3127171,26.9607399 26.6352656,28.2014052 25.5497089,29.6036069 C24.821287,30.5461794 26.1374413,31.8817681 26.8741879,30.9292036 C27.7924157,29.7426613 29.0802656,28.7293125 30.5978805,28.5161512 C31.7858325,28.349619 31.2805158,26.5435766 30.1000562,26.7092762" id="Fill-45"></path>
            </g>
            <g id="Group-54" opacity="0.0965240036" transform="translate(216.000000, 392.000000)">
                <path d="M79.7842543,49.3243569 C79.6776966,52.7424315 79.7617773,56.2088004 79.4837283,59.619381 C79.2831001,62.0940504 78.2683044,61.9841391 75.9914658,62.3563387 C73.6438662,62.7410282 71.2746221,63.0357903 68.8945557,63.0890806 C60.146001,63.2855887 51.2975485,62.881748 42.5306793,62.8992339 C32.1646118,62.9200504 21.8018744,62.618627 11.4416343,62.303881 C8.19745148,62.205627 3.17342186,62.6494355 2.9711287,58.4694758 C2.85624617,56.116375 2.89287538,53.739127 2.82044944,51.3826956 C2.66644025,46.3176169 2.51909091,41.2625302 2.83376915,36.1999496 C3.29329928,28.7492964 3.05354443,21.2428548 3.46312564,13.783875 C28.8413432,13.0286512 54.233713,13.1110847 79.6052707,14.0320081 C79.6335751,17.5591613 79.4712411,21.0913105 79.4529265,24.6167984 C79.4088049,32.8693044 80.0414913,41.0660222 79.7842543,49.3243569 Z M7.48984168,3.55296573 C8.54293156,3.45304637 9.60101634,3.42723387 10.6566037,3.35729032 C15.0038253,3.06752419 19.3377273,2.86268952 23.6966037,2.83021573 C33.0462104,2.7619375 42.3999796,2.87101613 51.7495863,2.91181653 C55.7696425,2.92930242 59.7905312,2.94762097 63.8097549,2.96344153 C68.0504188,2.98092742 72.6548774,2.45718347 76.8497549,3.00840524 C78.8177426,3.2673629 78.9068182,3.42889919 79.2597906,5.43644556 C79.5844586,7.28245565 79.4695761,9.45653427 79.5503269,11.3341855 C79.5619816,11.608131 79.5586517,11.8829093 79.5669765,12.1576875 C54.2462002,11.2392621 28.9062768,11.155996 3.58050562,11.9078891 C3.68206844,10.477377 3.80361083,9.0493629 3.97177222,7.62467944 C4.29061287,4.93268548 4.79426456,3.8094254 7.48984168,3.55296573 Z M82.0194688,30.8259536 C81.8879367,26.5560665 81.96619,22.2836815 82.0536006,18.0137944 C82.1093769,15.2868286 82.1168693,12.5856754 81.9720174,9.86120766 C81.8563023,7.68796169 82.2392441,4.91769758 81.6506793,2.82355444 C81.057952,0.715256048 79.4321144,0.613671371 77.4866037,0.521245968 C72.4384321,0.279774194 67.3386466,0.480445565 62.2838151,0.459629032 C51.0011849,0.412167339 39.7185546,0.343056452 28.4367569,0.325570565 C22.495332,0.317243952 16.5847089,0.464625 10.6566037,0.859306452 C8.52128703,1.00085887 4.95326864,0.588691532 3.21171604,2.08248589 C2.05206844,3.07668347 1.91054648,4.65374395 1.66496425,6.04179032 C1.11552605,9.14928226 1.03977017,12.397494 0.913232891,15.5449536 C0.636016343,22.4293972 0.760888662,29.320502 0.336322778,36.1999496 C-0.00915730337,41.7687883 0.209785495,47.3243044 0.370454545,52.8948085 C0.460362615,56.0147903 -0.53695097,61.0540565 2.10867722,63.3996633 C4.83672114,65.816879 10.6108172,64.7777177 13.8458427,64.8743065 C19.8022523,65.0541613 25.7594944,65.2231915 31.7175689,65.3164496 C42.8861491,65.4921411 54.0389122,65.0899657 65.1975026,65.5246149 C69.4664709,65.6903145 74.1591726,65.5212843 78.3740296,64.7977016 C80.8806333,64.3672157 81.6598366,62.8684254 81.9112462,60.4936754 C82.9518488,50.6924194 82.3191624,40.6430302 82.0194688,30.8259536 L82.0194688,30.8259536 Z" id="Fill-54"></path>
                <path d="M8.56540858,7.86448589 C8.69194586,7.40485685 9.05241062,6.69876008 9.60351379,6.71041734 C10.1113279,6.73206653 10.4451532,6.96354637 10.595,7.42983669 C10.8439122,8.20004839 10.3993667,8.3782379 9.69591931,8.50813306 C9.36625638,8.56891734 9.08820735,8.56558669 8.77519408,8.42653226 C8.44886108,8.28164919 8.46800817,8.2191996 8.56540858,7.86448589 Z M9.67926966,10.3957762 C11.2068744,10.214256 12.8077375,9.33246774 12.5430082,7.55723387 C12.3082482,5.97517742 11.2326813,4.90604032 9.60351379,4.83692944 C8.04677222,4.80445565 6.90876915,6.3348871 6.6690143,7.7545746 C6.37015322,9.51898387 8.07424413,10.5864556 9.67926966,10.3957762 L9.67926966,10.3957762 Z" id="Fill-55"></path>
                <path d="M16.53143,7.1866996 C16.6596323,6.62048992 17.3739019,6.39983468 17.8792186,6.42647984 C18.4927579,6.43896976 18.9156588,6.75538105 18.8282482,7.382375 C18.7308478,8.07764718 18.2912972,8.5547621 17.5503882,8.42903024 C16.9909602,8.33493952 16.3890756,7.81785685 16.53143,7.1866996 Z M17.5320735,10.3058488 C19.2686313,10.4498992 20.4973749,9.17592742 20.6838509,7.51893145 C20.8769867,5.80115121 19.558335,4.58879637 17.8792186,4.55299194 C16.369096,4.47472177 14.7399285,5.57133669 14.6566803,7.16588306 C14.5692697,8.83620161 15.9095659,10.1709577 17.5320735,10.3058488 L17.5320735,10.3058488 Z" id="Fill-56"></path>
                <path d="M25.7911287,6.17418347 C27.1439122,6.12006048 27.3503677,8.0426754 25.9984168,8.28914315 C25.4639632,8.38656452 24.6481307,8.16257863 24.6065066,7.56722581 C24.5623851,6.92191331 25.1509499,6.19999597 25.7911287,6.17418347 Z M25.9692799,10.1709577 C27.5085393,10.0752016 28.8405107,8.76292742 28.8421757,7.19252823 C28.8438407,5.62545968 27.3362155,4.23907863 25.7911287,4.30069556 C24.1095148,4.36814113 22.8557967,5.78116734 22.7450766,7.43566532 C22.6260317,9.21173185 24.3234627,10.2725423 25.9692799,10.1709577 L25.9692799,10.1709577 Z" id="Fill-57"></path>
                <path d="M17.2223902,39.8320181 C18.6093054,41.5622883 21.6453677,42.7863004 23.3910827,44.2176452 C24.7588509,45.3400726 26.0242237,46.563252 27.2954239,47.7914274 C27.8082329,48.2868609 29.3799591,49.2885524 29.5947395,50.0038085 C30.6461645,53.5101452 27.8240501,53.2603468 26.0941522,52.6899738 C26.2581512,52.5684052 26.4221502,52.4468367 26.5861491,52.3252681 C26.9924004,52.0246774 27.197191,51.5134234 26.9224719,51.0438024 C26.687712,50.6432923 26.0500306,50.4051512 25.6412819,50.7074073 C25.2741573,50.9788548 24.9078652,51.2503024 24.541573,51.5209173 C24.4083759,51.6191714 24.3093105,51.7449032 24.2293922,51.8789617 C23.8381256,51.681621 23.4493565,51.470125 23.0630848,51.2436411 C23.2004443,51.1453871 23.3369714,51.0471331 23.4851532,50.9580383 C24.5174311,50.3385383 23.5775587,48.7181794 22.5394535,49.3410101 C22.1332022,49.5841472 21.7569203,49.8730806 21.398953,50.1836633 C20.934428,49.867252 20.4748979,49.5433468 20.0211951,49.2102823 C20.2825945,49.0720605 20.5431614,48.9338387 20.8037283,48.7956169 C21.8693054,48.2310726 20.9236057,46.6132117 19.8580286,47.177756 C19.3627017,47.440877 18.8665424,47.703998 18.3712155,47.967119 C18.0723544,47.7364718 17.7759908,47.5066573 17.4854545,47.2818387 C17.6361338,47.1785887 17.7893105,47.0778367 17.952477,46.986244 C19.0039019,46.3967198 18.0606997,44.7780262 17.0067773,45.3692157 C16.6304954,45.579879 16.2816854,45.8338407 15.9470276,46.103623 C15.5216292,45.7830484 15.0596016,45.4341633 14.5817569,45.0594657 C14.8198468,44.869619 15.0687589,44.7014214 15.3567978,44.5656976 C15.8138304,44.3492056 15.9320429,43.6930685 15.692288,43.2833992 C15.4192339,42.8154435 14.8706282,42.7305121 14.4110981,42.9478367 C13.9340858,43.1734879 13.5070225,43.4890665 13.1199183,43.8479435 C12.7736057,43.5415242 12.433953,43.2234476 12.1117824,42.8962117 C12.411476,42.6980383 12.712002,42.4990323 13.0116956,42.3008589 C14.0123391,41.6372278 13.0749642,40.014371 12.0659959,40.682998 C11.6738968,40.9427883 11.2817978,41.2025786 10.8888662,41.462369 C10.453478,40.8553589 10.1163228,40.2250343 9.92485189,39.5813871 L10.8147753,39.5813871 C12.0193769,39.5813871 12.0218744,37.7078992 10.8147753,37.7078992 L9.826619,37.7078992 C9.94649642,37.1308649 10.2153882,36.5488347 10.6665935,35.9668044 C11.012906,36.3348407 11.3658784,36.6962157 11.7787896,36.9918105 C12.1900358,37.2865726 12.8210572,37.0634194 13.0599796,36.656248 C13.3355312,36.1849617 13.1365679,35.6695444 12.7236568,35.3739496 C12.8743361,35.4821956 12.572145,35.2348952 12.5438407,35.2074173 C12.4247957,35.0950081 12.3107457,34.9767702 12.1975281,34.8585323 C12.131762,34.790254 12.0668284,34.7211431 12.0027273,34.6520323 C12.3174055,34.3930746 12.6295863,34.1324516 12.9367722,33.8676653 C13.3013994,34.2165504 13.6452145,34.5829214 13.9598927,34.9784355 C14.2754035,35.3747823 14.9555414,35.3081694 15.2843718,34.9784355 C15.6756384,34.5870847 15.600715,34.0508508 15.2843718,33.6536714 C14.9938355,33.2881331 14.6766599,32.9492399 14.343667,32.6236694 C14.7898774,32.2223266 15.2344229,31.8193185 15.6773034,31.4154778 C16.0311083,31.7335544 16.3940705,32.0416391 16.7312257,32.3755363 C17.5886823,33.2248508 18.9139939,31.9009194 18.0557048,31.0507722 C17.741859,30.7393569 17.4055363,30.451256 17.0750409,30.156494 C17.5861849,29.7026935 18.1048212,29.2555544 18.6309499,28.8167419 C18.9647753,29.2064274 19.3244076,29.5661371 19.6682227,29.9508266 C20.4748979,30.8509335 21.796047,29.522006 20.9935342,28.6260625 C20.7005005,28.2996593 20.352523,28.0098931 20.0761389,27.6693347 C20.3117314,27.4903125 20.5439939,27.3087923 20.7854137,27.1355988 C21.1308938,26.8874657 21.4655516,26.6260101 21.797712,26.3628891 C21.9700358,26.5985323 22.1423596,26.8341754 22.3146834,27.0706512 C22.612712,27.4786552 23.1280184,27.6801593 23.5958733,27.4062137 C23.9987947,27.1714032 24.2318897,26.53525 23.9321961,26.124748 C23.7115884,25.8224919 23.4909806,25.5210685 23.2703728,25.2188125 C23.6907763,24.9032339 24.1286619,24.6126351 24.5831971,24.3461835 C24.6090041,24.3794899 24.6331461,24.4127964 24.6656129,24.4444375 C24.9428294,24.7150524 25.220046,24.9856673 25.49643,25.2562823 C26.359714,26.0997681 27.6850255,24.7766694 26.8217416,23.9315181 C26.6627375,23.7766431 26.5037334,23.6209355 26.3447293,23.4660605 C27.5085393,23.019754 28.5075179,23.0214194 29.2758989,24.4560948 C30.2474055,26.2729617 29.2284474,26.6967863 27.989714,27.9582681 C24.8945455,31.1115565 20.934428,33.2881331 17.8067926,36.3456653 C16.6329928,37.4947379 16.1518182,38.4964294 17.2223902,39.8320181 Z M30.900904,22.2420484 C28.2977324,20.1245907 24.6547906,21.9148125 22.3354954,23.5243468 C17.9674617,26.5568992 14.3819612,30.360496 10.2536823,33.6803165 C3.981762,39.1692198 11.573999,45.1568871 15.9245506,48.4159234 C18.8690398,50.6208105 22.4029265,53.6516976 26.0009142,54.7183367 C28.3809806,55.4227681 32.0488968,54.4935181 32.2203882,51.5025988 C32.3902145,48.5424879 27.8232176,45.5857077 25.8369152,43.8446129 C24.6214913,42.7779738 23.3469612,41.7737843 22.0224821,40.8470323 C21.443907,40.4423589 20.8461849,40.0643306 20.2617824,39.6688165 C18.9805924,38.8020161 18.4719459,38.9876996 19.257809,37.742871 C21.2391164,34.6029052 36.8897804,27.1114516 30.900904,22.2420484 L30.900904,22.2420484 Z" id="Fill-58"></path>
                <path d="M70.929142,41.2492077 C67.7598825,43.7979839 65.0301736,46.7456048 61.7227222,49.1186895 C60.2758682,50.1570181 59.0013381,51.4118387 57.3996425,52.2178548 C55.701379,53.072998 54.2595199,53.7183105 53.232237,51.7973609 C52.811001,51.010496 52.7777017,50.4900827 52.9600153,50.0437762 C53.4128856,50.4051512 53.860761,50.7740202 54.3311134,51.113746 C54.7415271,51.4093407 55.375046,51.1836895 55.6123034,50.7773508 C55.8886874,50.3043992 55.6880592,49.7931452 55.2768131,49.4958851 C54.8980337,49.2219395 54.5325741,48.9288427 54.1687794,48.6349133 C54.2819969,48.5266673 54.397712,48.4175887 54.5184219,48.2951875 C54.793141,48.0154133 55.0811798,47.7514597 55.3675536,47.4866734 C55.7488304,47.8913468 56.1251124,48.3001835 56.5471808,48.6623911 C56.9309551,48.992125 57.4953779,49.0395867 57.8716599,48.6623911 C58.2088151,48.3251633 58.2570991,47.6681935 57.8716599,47.337627 C57.4812257,47.0028972 57.1299183,46.6273669 56.7777783,46.2526694 C57.2281512,45.8813024 57.6851839,45.5182621 58.1480439,45.1627157 C58.5334831,45.6573165 58.9155924,46.1560806 59.3526456,46.6065504 C60.1951175,47.4725181 61.518764,46.1469214 60.6771246,45.2817863 C60.3000102,44.8929335 59.9645199,44.4674435 59.6315271,44.0402883 C60.0136364,43.7555181 60.3949132,43.4699153 60.7753575,43.1834798 C61.1324923,43.5165444 61.4296885,43.8895766 61.7493616,44.2626089 C62.0790245,44.6472984 62.7358529,44.6006694 63.0738407,44.2626089 C63.4551175,43.88125 63.4035036,43.3233669 63.0738407,42.9378448 C62.8074464,42.6264294 62.5502094,42.3191774 62.2688304,42.0285786 C62.7624923,41.6363952 63.242002,41.2300565 63.7131869,40.8137258 C63.9512768,40.9894173 64.1727171,41.1792641 64.3791726,41.3974214 C65.2108223,42.273381 66.5336364,40.9477843 65.7036517,40.0726573 C65.5105158,39.8694879 65.3032278,39.6813065 65.0859499,39.5056149 C65.4289326,39.1200927 65.6695199,38.7445625 65.7902298,38.3607056 C66.177334,38.3840202 66.5652707,38.4081673 66.9532074,38.4323145 C67.458524,38.4639556 67.8897497,37.9793468 67.8897497,37.4955706 C67.8897497,36.9626673 67.460189,36.5904677 66.9532074,36.5588266 C66.4054341,36.5255202 65.8576609,36.491381 65.3090552,36.4572419 C65.2998979,36.444752 65.294903,36.4339274 65.2849132,36.4214375 C65.0484883,36.1266754 64.7521246,35.8502319 64.4341164,35.5812823 C64.73381,35.4397298 65.0335036,35.2981774 65.3340296,35.156625 C65.7918948,34.9417984 65.9084423,34.2848286 65.6695199,33.8751593 C65.3956333,33.406371 64.8478601,33.3231048 64.3883299,33.5395968 C63.8214096,33.8060484 63.2561542,34.0733327 62.6892339,34.3397843 C62.3920378,34.1541008 62.0931767,33.9709153 61.7909857,33.7902278 C62.0457252,33.666994 62.2987998,33.5437601 62.5527068,33.4205262 C63.0080746,33.1990383 63.129617,32.5512278 62.8881971,32.1382278 C62.616808,31.6736028 62.0640398,31.5811774 61.6070072,31.8026653 C61.0941982,32.051631 60.5813892,32.3005968 60.0677477,32.5503952 C60.0211287,32.572877 59.9928243,32.6161754 59.9528652,32.6469839 C59.6540041,32.4463125 59.3701277,32.2439758 59.1162206,32.0358105 C59.0021706,31.9425524 58.8972778,31.8401351 58.7848927,31.744379 C59.1370327,31.5487036 59.4958325,31.3655181 59.8621246,31.1948226 C60.3199898,30.9808286 60.4365373,30.3213609 60.1984474,29.9133569 C59.9237283,29.4429032 59.3767875,29.3621351 58.9172574,29.5769617 C58.3628243,29.8359194 57.8300358,30.1315141 57.307237,30.4470927 C56.9476047,30.1148609 56.5913023,29.7776331 56.236665,29.4395726 C56.4431205,29.3130081 56.6570684,29.1964355 56.8726813,29.1065081 C57.3388713,28.912498 57.6726966,28.4861754 57.5261798,27.9541048 C57.4046374,27.513627 56.8443769,27.1047903 56.3740245,27.2996331 C55.817094,27.5319456 55.3292594,27.818381 54.8497497,28.1547762 C54.5883504,27.9449456 54.2661798,27.7001431 53.9531665,27.4403528 C54.183764,27.2380161 54.4268488,27.0606593 54.7057303,26.9116129 C55.76881,26.3429052 54.8247753,24.725877 53.7600306,25.293752 C53.4303677,25.4702762 53.1248468,25.6925968 52.835143,25.9332359 C52.0068233,22.5767782 55.0886721,23.0563911 56.7128447,23.6700625 C60.0677477,24.934875 63.3077681,27.6776613 66.1273851,29.8217641 C69.3765628,32.2939355 75.9598315,36.8460948 70.929142,41.2492077 Z M66.5827528,27.8375323 C63.639096,25.6326452 60.1043769,22.6025907 56.5063892,21.5359516 C54.1271553,20.8306875 50.459239,21.7607702 50.2877477,24.7516895 C50.1170889,27.7118004 54.6840858,30.667748 56.6703882,32.4096754 C57.8858121,33.4754819 59.1611747,34.480504 60.4856537,35.407256 C61.0633963,35.8119294 61.661951,36.1899577 62.2463534,36.5854718 C63.5267109,37.4514395 64.0353575,37.2665887 63.2494944,38.5114173 C61.2681869,41.6505504 45.617523,49.142004 51.6063994,54.0122399 C54.209571,56.1296976 57.8525128,54.3394758 60.171808,52.7291089 C64.5406742,49.6973891 68.1253422,45.8929597 72.253621,42.5739718 C78.5255414,37.0842359 70.9341369,31.0965685 66.5827528,27.8375323 L66.5827528,27.8375323 Z" id="Fill-59"></path>
                <path d="M43.6179009,38.617998 C43.1533759,40.6613488 42.6530541,42.696373 42.1194331,44.7230706 C41.4426251,47.295994 40.9048417,52.458494 37.6939581,52.3652359 C35.9315935,52.3136109 35.8408529,52.1504093 35.9074515,51.0146593 C36.1330541,51.0529617 36.3578243,51.1220726 36.5717722,51.1953468 C37.0504494,51.359381 37.5957252,51.0071653 37.7239275,50.5417077 C37.8654494,50.027123 37.5499387,49.5533387 37.070429,49.3884718 C36.7274464,49.2710665 36.3819663,49.2069516 36.0281614,49.1553266 C36.0622932,48.8189315 36.1047497,48.4817036 36.1538662,48.1444758 C36.5684423,48.222746 36.9863483,48.2785343 37.4084168,48.2876935 C38.6146834,48.3151714 38.6138509,46.4416835 37.4084168,46.4142056 C37.0787538,46.4075444 36.766573,46.3650786 36.4502298,46.2992984 C36.4818641,46.1102843 36.5143309,45.9196048 36.5426353,45.732256 C36.5584525,45.6331694 36.5775996,45.5349153 36.5934168,45.4366613 C37.0021655,45.4857883 37.4059193,45.5532339 37.8088407,45.6539859 C38.978478,45.94625 39.4771348,44.1402077 38.306665,43.8479435 C37.8454699,43.7322036 37.3767824,43.6555988 36.9055975,43.5956472 C36.999668,43.047756 37.0829162,42.4990323 37.1844791,41.9528065 C37.7205975,42.0194194 38.2450613,42.1518125 38.7520429,42.339994 C39.2265577,42.5165181 39.7784934,42.1443185 39.9041982,41.6863548 C40.0482176,41.1617782 39.726047,40.7104758 39.2498672,40.5339516 C38.6979316,40.3282843 38.1301788,40.2117117 37.5532686,40.1292782 C37.6348519,39.7237722 37.7139377,39.3174335 37.7996834,38.9135927 C38.2259142,39.0110141 38.6513126,39.1084355 39.0783759,39.2058569 C40.2513432,39.4748065 40.7524974,37.6687641 39.5762002,37.3989819 C39.1066803,37.2915685 38.6379928,37.1841552 38.1684729,37.0775746 C38.2458938,36.6820605 38.3341369,36.2274274 38.4332022,35.7245 C38.7279009,35.8019375 39.0225996,35.879375 39.3172983,35.9568125 C40.4844382,36.2640645 40.98143,34.4571895 39.8151226,34.1499375 C39.4804648,34.0616754 39.1449745,33.974246 38.8103166,33.8859839 C38.8594331,33.6528387 38.911047,33.4163629 38.9634934,33.1765565 C39.4921195,33.2889657 40.0199132,33.4022077 40.5477068,33.5146169 C41.0422012,33.6203649 41.5608376,33.3680685 41.7006946,32.8609778 C41.8280644,32.3938548 41.5433555,31.8143226 41.0463636,31.7077419 C40.492763,31.5903367 39.9408274,31.4720988 39.3880592,31.3538609 C39.4787998,30.9833266 39.5728703,30.611127 39.6711032,30.2405927 C40.0332329,30.3196956 40.399525,30.3729859 40.7583248,30.4695746 C41.9246323,30.7801573 42.4216241,28.9741149 41.2561491,28.6626996 C40.9040092,28.5686089 40.542712,28.5144859 40.1872421,28.437881 C40.2605005,28.2014052 40.3354239,27.9674274 40.4120123,27.7384456 C40.7566599,27.7892379 41.0838253,27.870006 41.4118233,27.9932399 C41.8855056,28.1714294 42.4382737,27.7958992 42.5631461,27.3387681 C42.707998,26.8133589 42.3849949,26.3653871 41.9096476,26.1863649 C41.6365935,26.0847802 41.3627068,26.0156694 41.0804954,25.964877 C41.1995403,25.6884335 41.3219152,25.4286431 41.4459551,25.1821754 C41.7356588,25.3145685 42.0403473,25.4119899 42.3541931,25.458619 C42.8545148,25.5327258 43.3606639,25.3345524 43.5063483,24.8049798 C43.6278907,24.3636694 43.3556691,23.7266835 42.8528498,23.6525766 C42.7404648,23.6359234 42.6472268,23.6009516 42.5464964,23.5726411 C42.9003013,23.2354133 43.2715884,23.0497298 43.659525,23.0605544 C48.1191318,23.1787923 44.1057354,36.4713972 43.6179009,38.617998 Z M43.659525,21.1870665 C40.9148315,21.109629 40.1098212,23.548494 39.35143,25.8391452 C37.6639888,30.9358649 36.3636517,36.1749698 35.3821553,41.4507117 C34.8693463,44.2109839 31.4187079,56.0522601 37.7106078,55.3120242 C40.1864096,55.0205927 41.7373238,52.4151956 42.5098672,50.334375 C44.1423647,45.9370907 45.0314556,41.0576956 46.0046272,36.4730625 C46.479142,34.234869 46.898713,31.9858508 47.3291062,29.738498 C47.620475,28.2147278 48.4229877,26.2354919 48.2223596,24.6575988 C47.9026864,22.1387984 45.9913075,21.2486835 43.659525,21.1870665 L43.659525,21.1870665 Z" id="Fill-60"></path>
            </g>
            <g id="Group-52" opacity="0.0965240036" transform="translate(100.489386, 117.160393) rotate(-8.000000) translate(-100.489386, -117.160393) translate(55.489386, 86.160393)">
                <path d="M84.9739479,58.387875 C83.0192799,59.3021371 78.6037947,58.5843831 76.4543258,58.5718931 C65.6004239,58.5086109 54.6874157,58.178877 43.8526609,58.3212621 C32.5267416,58.4694758 21.2174719,59.169744 9.86990807,58.9149496 C7.67382022,58.8658226 3.27664964,59.3862359 3.04272217,56.534371 C2.8920429,54.7141734 4.74348315,53.5659335 5.9797191,52.4926331 C9.75169561,49.2177762 14.0647855,46.6140444 18.0964964,43.6830766 C18.208049,43.6014758 18.2946272,43.5082177 18.370383,43.4107964 C20.3325434,43.7363669 22.5702554,43.6089698 24.5132686,43.5073851 C32.4060317,43.0968831 40.3387538,43.2209496 48.2448366,42.9669879 C52.1666599,42.8404234 56.0893156,42.7579899 60.0136364,42.8154435 C63.942952,42.8728972 68.251047,43.3716613 72.1911849,43.1226956 C72.2144944,43.1435121 72.231144,43.165994 72.2561185,43.1859778 C76.3003166,46.4450141 80.4793769,49.8930645 84.3362666,53.3619315 C85.8255771,54.7025161 88.3396731,56.8124798 84.9739479,58.387875 Z M15.6298519,31.4412903 C15.507477,27.6326976 15.4050817,23.8191089 15.5224617,20.0080181 C15.6306844,16.4883589 15.7613841,13.0511331 15.6789683,9.53147379 C15.6273544,7.27412903 15.6415066,4.28654032 18.327094,3.41391129 C19.7806078,2.94095968 22.1007354,3.39059677 23.6141879,3.38227016 C30.5512615,3.34146976 37.488335,3.30566532 44.4254086,3.2631996 C48.8941726,3.42723387 53.4003984,3.51799395 57.8674974,3.26819556 C61.2190705,3.08001411 73.1576966,1.92594556 74.3947651,5.99016532 C74.8326507,7.43066935 74.4771808,9.47485282 74.4713534,10.9902964 C74.4596987,14.349252 74.5546016,17.7015464 74.7011185,21.0571714 C74.817666,23.7341774 74.9508631,26.4103508 74.9966496,29.0898548 C75.0257865,30.763504 75.026619,32.4371532 74.9849949,34.1099698 C74.9242237,36.5121976 75.307998,38.4839395 73.1551992,39.7670706 C70.7368386,41.2084073 66.3946118,40.3982278 63.5883146,40.3815746 C60.4814913,40.3624234 57.3788304,40.274994 54.2720072,40.319125 C48.1832329,40.4048891 42.1027835,40.7454476 36.0148417,40.8095625 C33.0836721,40.8412036 30.1483401,40.727129 27.2205005,40.8511956 C24.5623851,40.9636048 19.9504341,42.0468972 17.4646425,40.6863286 C14.7790552,39.2166815 15.7097702,33.96925 15.6298519,31.4412903 Z M88.1565271,53.697494 C86.7321502,51.7424052 84.5535444,50.3127258 82.6463279,48.8747198 C79.9748927,46.8605121 77.6247957,44.4965867 75.0898876,42.330002 C78.4597753,40.0368528 77.5498723,33.2206875 77.5065832,29.7784657 C77.4150102,22.4552097 77.1444535,15.1128024 76.9629724,7.79121169 C76.910526,5.68624395 76.9271757,3.25487298 75.0033095,1.86432863 C72.8896374,0.333897177 68.4966292,0.949233871 65.945904,0.746897177 C58.8256844,0.182352823 51.5830899,1.02916935 44.4254086,0.765215726 C36.3703115,0.815175403 28.314382,0.854310484 20.259285,0.9034375 C18.0648621,0.916760081 16.0144586,0.686112903 14.5725996,2.59124194 C12.7319816,5.0226129 13.1540501,8.66300806 13.2681001,11.4807339 C13.6293973,20.4276794 12.7286517,29.4012702 13.342191,38.3815222 C13.4795506,40.3948972 14.3320123,41.6447218 15.5665832,42.4232601 C12.2241675,44.7905161 8.78851379,47.030375 5.58928498,49.5941391 C3.22337079,51.4892762 0.535286006,53.2761673 0.545275792,56.534371 C0.552768131,59.4012238 1.87974464,60.868373 4.63193054,61.1897802 C10.0888509,61.8251008 15.856287,61.635254 21.3323544,61.4370806 C34.0185495,60.9782843 46.6714454,61.3679698 59.3451532,61.0190847 C64.8353728,60.868373 70.3172676,61.0215827 75.8066547,61.0657137 C79.1615577,61.0923589 85.227855,62.2805665 87.8002247,59.4869879 C89.3569663,57.7950202 89.4335546,55.4494133 88.1565271,53.697494 L88.1565271,53.697494 Z" id="Fill-61"></path>
                <path d="M68.5141113,9.10265323 C68.834617,17.7215302 68.9053779,26.3179254 69.1035087,34.9276431 C61.2365526,34.5188065 53.1423289,34.9018306 45.2886925,35.2365605 C37.4758478,35.569625 29.6113892,35.5712903 21.7885546,35.6936915 C21.6528601,26.8183548 21.5171655,17.9430181 21.3806384,9.06768145 C37.094571,8.92196573 52.8060061,9.27168347 68.5141113,9.10265323 Z M20.8669969,37.5796694 C28.9920225,37.4422802 37.1694944,37.4556028 45.2886925,37.1100484 C53.4611696,36.7611633 61.895046,36.351494 70.0600306,36.8460948 C70.557855,36.8760706 71.0090603,36.393127 70.996573,35.9093508 C70.7718029,26.6568185 70.7218539,17.4226048 70.3572268,8.15924798 C70.3372472,7.65798589 69.9443156,7.21584274 69.4206844,7.22250403 C53.0932125,7.4190121 36.7632431,7.02766129 20.4299438,7.20002218 C20.2085036,7.20252016 20.0411747,7.28162298 19.9021502,7.38570565 C19.6640603,7.52975605 19.4875741,7.77122782 19.4934014,8.13676613 C19.6390858,17.6390968 19.7847702,27.1405948 19.9304545,36.6429254 C19.9371144,37.1425222 20.3533555,37.587996 20.8669969,37.5796694 L20.8669969,37.5796694 Z" id="Fill-62"></path>
                <path d="M37.1495148,54.3378105 C37.3842748,53.5634355 37.6498366,52.7873952 37.771379,52.0363347 C37.8746067,51.782373 37.9778345,51.529244 38.0818948,51.2752823 C38.1110317,51.2719516 38.1318437,51.2702863 38.163478,51.2652903 C40.611808,51.0920968 43.0867773,51.0771089 45.5401021,51.0171573 C47.7203728,50.9638669 50.017191,50.7740202 52.1916343,51.0712802 C52.206619,51.0737782 52.2174413,51.0746109 52.230761,51.0771089 C52.3431461,51.3652097 52.4546987,51.6533105 52.5662513,51.9405786 C52.6844637,52.6067077 52.9708376,53.3377843 53.2522165,54.0388851 C48.0117416,54.7108427 42.4441011,54.3877702 37.1495148,54.3378105 Z M53.7866701,49.9297016 C53.626001,49.515869 53.3304699,49.2727319 52.883427,49.2419234 C47.7303626,48.8922056 42.613095,49.3734839 37.4608631,49.400129 C37.0071604,49.402627 36.7182891,49.6982218 36.55762,50.0879073 C35.8774821,51.7449032 35.3879826,53.2378649 35.0341777,55.0147641 C34.9933861,55.2204315 35.0183606,55.4036169 35.0824617,55.5626552 C35.1840245,55.912373 35.4654035,56.2004738 35.9374208,56.2004738 C42.1069459,56.1971431 48.691047,56.6692621 54.8014658,55.7117016 C55.2759806,55.6367621 55.6139683,54.9956129 55.4557967,54.5592984 C54.8955363,53.013879 54.3802298,51.4642964 53.7866701,49.9297016 L53.7866701,49.9297016 Z" id="Fill-63"></path>
                <path d="M44.5119867,6.14670565 C45.7174208,6.14670565 45.7190858,4.27321774 44.5119867,4.27321774 C43.3065526,4.27321774 43.3048876,6.14670565 44.5119867,6.14670565" id="Fill-64"></path>
                <path d="M22.8874311,12.2967419 C23.6000358,13.4208347 24.3575945,14.5132863 25.1609397,15.5749294 C25.4681256,15.9821008 25.9659499,16.1827722 26.4421297,15.9113246 C26.8417211,15.6840081 27.083141,15.0320343 26.77762,14.6298589 C25.9742748,13.5682157 25.2175485,12.4757641 24.5049438,11.3508387 C23.8614351,10.3349919 22.23976,11.2742339 22.8874311,12.2967419" id="Fill-65"></path>
                <path d="M28.87381,15.3667641 C29.7021297,16.2452218 31.0249438,14.9187923 30.1982891,14.042 C29.2217875,13.0061694 28.245286,11.9711714 27.267952,10.9361734 C26.4396323,10.0568831 25.1168182,11.3841452 25.9434729,12.2609375 C26.9199745,13.2959355 27.896476,14.3317661 28.87381,15.3667641" id="Fill-66"></path>
            </g>
            <g id="Group-60" opacity="0.0965240036" transform="translate(233.000000, 86.000000)">
                <path d="M72.4275166,17.7803949 C70.8208261,20.9853082 68.4324348,23.8904635 65.8034563,26.6299191 C60.3440385,20.971153 54.8105298,15.3881591 49.2070927,9.87261067 C49.3303,9.76103405 49.449345,9.6461268 49.5733848,9.53538284 C53.3478587,6.12979817 58.0613725,1.03058042 63.7530528,2.60514292 C66.3845288,3.33372155 68.5381601,5.62603809 70.3155094,7.59028607 C73.20006,10.7785462 74.572823,13.4980179 72.4275166,17.7803949 Z M58.53006,33.6875562 C57.8990385,33.0530683 57.2680171,32.4160824 56.6394931,31.7699373 C57.4045441,30.8889816 58.200397,30.0355038 59.0345441,29.2178304 C59.7113521,29.8864574 60.4239568,30.5359332 61.1815155,31.1654252 C60.2849323,32.013907 59.3950089,32.8540623 58.53006,33.6875562 Z M39.8449987,52.9112074 C36.8771999,56.0087074 33.9110661,59.1078728 30.935775,62.1978788 C29.1276238,64.07553 27.4068833,66.4136429 25.2332724,67.851649 C25.0934154,65.8690824 24.9219241,63.8840179 24.6272254,61.9197699 C33.6280222,53.0902296 42.2209027,43.8651752 50.6747586,34.5118909 C51.8485584,35.6959353 52.9932214,36.9082901 54.0979251,38.1581147 C49.3194777,43.0483345 44.5768271,47.973526 39.8449987,52.9112074 Z M12.9466687,71.0465703 C10.980346,68.5111167 7.82773617,65.3628244 4.79167386,62.9131349 C4.93652575,62.2503365 5.07721523,61.5858728 5.23122442,60.9247397 C5.77150532,58.5907901 6.20023361,55.877147 7.13427856,53.5681772 C9.12391083,53.7463667 12.2390589,53.7871671 13.9839415,54.6781147 C13.3071335,54.4557941 13.9714542,55.9229433 14.0938291,56.8871651 C14.2894624,58.4159312 14.4667811,59.9471953 14.6457648,61.4784595 C14.7023736,61.966399 15.0278741,62.4360199 15.5823072,62.4152034 C17.3463368,62.3477578 19.1611478,62.4601671 20.9176851,62.2977982 C22.8290641,62.121274 22.7624655,61.7365845 22.9739159,63.618399 C23.1678843,65.3320159 23.3002489,67.0531268 23.4217913,68.7742377 C23.2061785,68.8516752 22.9864032,68.9199534 22.7608005,68.9757417 C19.5424246,69.7825905 16.2532877,70.4487195 12.9466687,71.0465703 Z M22.4685993,36.0856207 C27.0863776,31.2145522 31.7890692,26.438407 36.5833337,21.7546873 C37.9336197,22.9362337 39.2913981,24.1136167 40.6491764,25.2934978 C35.9090232,30.052157 31.0481601,34.7233869 26.463681,39.6335905 C22.3778587,44.0108909 18.6791407,48.6046832 14.3968526,52.8062921 C13.6750906,52.5956288 12.7385482,52.568151 12.211587,52.4732276 C10.8379915,52.2250945 9.45773617,52.0160966 8.07415087,51.8345764 C12.118349,46.1533284 17.7101315,41.1032377 22.4685993,36.0856207 Z M53.521015,28.5558647 C54.4325829,27.7914816 55.2775523,26.957155 56.0542581,26.0562155 C56.6078587,26.6723849 57.1622918,27.2802276 57.7250498,27.8780784 C56.8925676,28.6940865 56.0975472,29.5442337 55.3333286,30.4243566 C54.731444,29.801526 54.125397,29.1803607 53.521015,28.5558647 Z M46.1535482,21.3425199 C45.5375114,20.7854695 44.9131499,20.2400764 44.2804634,19.7046752 C45.2419803,18.805401 46.1610406,17.8636611 47.0201621,16.8636349 C47.6278741,17.4281792 48.2330886,17.9943889 48.8333082,18.5655945 C47.9209078,19.4731953 47.026822,20.398282 46.1535482,21.3425199 Z M49.0922101,24.0994615 C48.5769037,23.5973667 48.0640947,23.0936066 47.5404634,22.6023365 C48.40125,21.6730865 49.2811836,20.7613224 50.1794318,19.8687095 C50.7505145,20.4265925 51.3132724,20.9928022 51.8727004,21.5623425 C50.9985942,22.4649474 50.076204,23.3159272 49.0922101,24.0994615 Z M50.4291764,25.413401 C51.4031805,24.6373607 52.3155809,23.7955401 53.1821948,22.9020945 C53.2113317,22.9337357 53.2421335,22.9628788 53.2712704,22.9936873 C53.7965666,23.5507377 54.2985533,24.1036248 54.7947127,24.6548466 C54.0063521,25.5782679 53.1463981,26.4317457 52.2165155,27.2136147 C51.6246207,26.6099353 51.0277311,26.0112518 50.4291764,25.413401 Z M44.32292,14.3773082 C44.764968,14.7819816 45.207016,15.1858224 45.6490641,15.5913284 C44.7658005,16.6146691 43.8234308,17.5797236 42.8336095,18.498149 C42.3091458,18.0784877 41.7705298,17.6813082 41.2327464,17.2807982 C42.2566994,16.3082498 43.2889772,15.34153 44.32292,14.3773082 Z M23.5949476,60.3027417 C23.5916177,60.3027417 23.5882877,60.3010764 23.5857903,60.3019091 C21.2090538,60.4434615 18.8306524,60.4467921 16.4514185,60.5167357 C16.3723327,58.6982034 16.38149,55.8121994 15.7196667,54.1327216 C20.0052847,49.9294474 23.6990079,45.3373203 27.7889925,40.9583546 C32.4009435,36.0173425 37.2942734,31.3194675 42.0618986,26.5291671 C44.5401979,28.6982498 46.9893603,30.8989736 49.3436197,33.1929554 C40.9846667,42.442157 32.4866892,51.5631288 23.5949476,60.3027417 Z M55.8419752,36.3670603 C50.5557137,30.3952135 44.3795288,25.2660199 38.3856575,20.0202538 C38.8809844,19.5423062 39.3771437,19.0651913 39.8733031,18.5897417 C46.2409588,23.2584736 51.6396054,29.4176691 57.1922612,34.9973324 C56.9791458,35.2096611 56.7635329,35.4219897 56.5554124,35.6334857 C56.31649,35.8766228 56.0808976,36.1239232 55.8419752,36.3670603 Z M62.5426238,29.8689716 C59.5573429,27.3968002 57.2805043,24.5166248 54.5957494,21.6689232 C51.7703051,18.6730078 48.7425676,15.8802619 45.7031754,13.1041691 C46.2576085,12.5912498 46.8120416,12.0774978 47.3689721,11.5679091 C53.0015462,17.1092699 58.5625268,22.721407 64.048584,28.407651 C63.5499272,28.8997538 63.0462755,29.386028 62.5426238,29.8689716 Z M70.264728,3.9673768 C66.0448761,0.0322195377 62.0447995,-1.10436312 56.6261733,1.13882639 C51.8319088,3.12389091 48.0840743,7.45789292 44.3037729,10.9059433 C38.6145901,16.0967538 33.1301979,21.5107175 27.7415411,27.011278 C22.5393603,32.323657 17.4270875,37.7284615 12.4188751,43.2231933 C10.1836606,45.6762135 7.66373719,48.1034212 5.73154618,50.8245582 C5.65745527,50.9044937 5.58752677,50.9935885 5.52758806,51.1051651 C5.44850225,51.2217377 5.39855333,51.3349796 5.36275659,51.4482216 C4.03245016,54.1277256 3.48384444,57.4034151 2.82202115,60.2611087 C1.76393637,64.8349171 0.884002764,69.4678445 0.466096738,74.1482337 C0.387010936,75.0383486 1.32355333,75.4655038 2.04698029,75.3522619 C9.34951349,74.2115159 16.5604737,72.5953203 23.8371999,71.3113566 C26.7975063,70.7884453 28.0870212,68.7442619 30.1590692,66.6001591 C33.6330171,63.0080582 37.0886504,59.3976389 40.5459486,55.7888849 C46.9727106,49.0817982 53.3986401,42.3738788 59.9302949,35.7683768 C65.3147893,30.3236046 72.9278383,24.4167054 75.4952132,16.9227538 C77.3899425,11.3905522 74.1324399,7.57363284 70.264728,3.9673768 L70.264728,3.9673768 Z" id="Fill-70"></path>
                <path d="M57.2304878,8.17023868 C57.0082151,6.98619432 55.2025614,7.48745642 55.4240016,8.66817013 C55.7420098,10.3659665 56.1724031,12.0304564 56.7193438,13.6699665 C57.0981232,14.8073818 58.9079393,14.3194423 58.5249975,13.1712024 C57.9780568,11.532525 57.5476635,9.86803505 57.2304878,8.17023868" id="Fill-71"></path>
                <path d="M60.5936821,7.30907279 C60.2149027,6.16999214 58.4050866,6.65793166 58.7880283,7.80700424 C59.2583807,9.21836513 59.7270682,10.6288934 60.1974206,12.0402542 C60.5761999,13.1785022 62.3860161,12.6913954 62.0039068,11.5423228 C61.5335544,10.1309619 61.0640345,8.71960101 60.5936821,7.30907279" id="Fill-72"></path>
            </g>
            <g id="Group-62" opacity="0.0965240036" transform="translate(515.162736, 312.117631) rotate(17.000000) translate(-515.162736, -312.117631) translate(487.662736, 268.117631)">
                <path d="M51.9210776,78.0153669 C50.7039888,84.3877238 44.7359244,84.5600847 39.4363432,84.6100444 C30.9317058,84.6883145 22.4112513,85.5026573 13.9074464,85.0038931 C10.4809499,84.8032218 6.43591931,83.9247641 4.82173647,80.4384113 C3.84606742,78.3317782 3.98425945,75.4174637 3.8560572,73.147629 C3.4697855,66.3705988 3.60548008,59.567756 3.6279571,52.7840645 C3.80610827,45.2176714 3.75033197,37.6571069 3.44064862,30.0957097 C3.2741522,26.0523065 3.35157303,22.0405444 3.74200715,18.0104637 C4.1915475,13.3692097 4.23483657,6.30657661 9.41620531,4.26822177 C12.8252196,2.9276371 17.6677681,3.3964254 21.3206997,3.26819556 C25.076859,3.13746774 28.8346834,3.09333669 32.5916752,3.21490524 C36.1297242,3.32814718 39.9774566,3.30649798 43.4064505,4.24573992 C48.8658682,5.74036694 50.1495557,9.56894355 50.4708938,14.8055504 C51.5123289,31.7918407 52.1849745,48.8572339 52.1908018,65.8768306 C52.1924668,69.7761835 52.6544944,74.1767984 51.9210776,78.0153669 Z M54.6865832,65.052496 C54.675761,59.2838185 54.5692033,53.5151411 54.3985444,47.7489617 C54.0755414,36.7678246 53.626001,25.7725323 52.9683401,14.8055504 C52.5113075,7.19585887 49.5876302,2.5920746 41.6790501,1.38055242 C32.8289326,0.0258125 23.4918131,0.543727823 14.5942441,1.08245968 C10.5991624,1.32476411 6.52665986,1.7144496 4.10663432,5.31904032 C1.73739019,8.84785887 1.6391573,13.9137702 1.24456078,18.0104637 C0.139024515,29.5086835 1.40273238,41.2333871 1.13051073,52.7840645 C1.10553626,60.3787681 0.854959142,68.0450806 1.53176711,75.6198004 C1.95466803,80.3526472 2.94448927,83.9830504 7.4931716,86.3902742 C10.6449489,88.0597601 15.4641879,87.6167843 18.8482278,87.6417641 C24.890383,87.6867278 30.923381,87.2812218 36.9622063,87.1471633 C43.8443361,86.995619 53.0449285,87.3178589 54.4010419,78.5257883 C55.0720225,74.1759657 54.6949081,69.440621 54.6865832,65.052496 L54.6865832,65.052496 Z" id="Fill-80"></path>
                <path d="M22.7850358,9.48984073 C26.0999796,9.32996976 29.4149234,9.25419758 32.7340296,9.25836089 C33.9386313,9.26002621 33.9411287,7.38653831 32.7340296,7.38487298 C29.4149234,7.38070968 26.0999796,7.45648185 22.7850358,7.61635282 C21.5845965,7.67297379 21.5779367,9.54729435 22.7850358,9.48984073" id="Fill-81"></path>
                <path d="M36.8806231,9.06601613 C36.8989377,9.04769758 36.9180848,9.02854637 36.9372319,9.00939516 C37.790526,8.15591734 36.466047,6.83032056 35.6127528,7.68463105 C35.5936057,7.70378226 35.5744586,7.72293347 35.5553115,7.74125202 C34.7020174,8.5955625 36.0264964,9.92032661 36.8806231,9.06601613" id="Fill-82"></path>
                <path d="M40.6684168,9.1226371 C40.6875638,9.10431855 40.7067109,9.08516734 40.7250255,9.06601613 C41.5791522,8.21337097 40.2546731,6.88777419 39.4005465,7.74125202 C39.3813994,7.76123589 39.3630848,7.77955444 39.3439377,7.79870565 C38.4906435,8.65218347 39.8142901,9.97778024 40.6684168,9.1226371" id="Fill-83"></path>
                <path d="M32.8605669,80.9246855 C32.0330797,81.8805806 28.6440449,81.67075 27.4202962,81.6865706 C26.5553473,81.6973952 22.9548621,81.8589315 22.6768131,81.2352681 C21.6037436,78.8355383 27.5909551,79.3018286 28.4892033,79.3109879 C29.3166905,79.3001633 34.5763126,78.9454496 32.8605669,80.9246855 Z M28.4892033,77.4375 C25.8768744,77.4091895 20.8062257,76.822996 20.4782278,80.5516532 C20.1752043,83.9922097 25.708713,83.6133488 27.8431971,83.5459032 C29.8894382,83.4817883 34.9426047,83.7340847 35.0832942,80.7098589 C35.2639428,76.8138367 31.0898774,77.4016956 28.4892033,77.4375 L28.4892033,77.4375 Z" id="Fill-84"></path>
                <path d="M27.9122932,74.0593931 C20.911951,74.4315927 13.9282584,74.2042762 6.92708376,74.347494 C6.67067926,64.2048468 7.2326047,54.0830161 7.44405516,43.9453649 C7.6421859,34.4230504 6.73311542,24.8982379 7.23177222,15.3884133 C20.628907,15.5582762 34.0252094,15.0095524 47.411522,14.8763266 C48.3097702,34.5512802 48.1990501,54.2878508 49.1014607,73.9661351 C42.0303575,74.1060222 34.9858938,73.6830302 27.9122932,74.0593931 Z M49.1580695,13.5782077 L49.1580695,13.577375 C49.1414198,13.5399052 49.1206078,13.5090968 49.1006282,13.476623 C48.9665986,13.2010121 48.7110266,12.9886835 48.3097702,12.9920141 C34.3257354,13.1094194 20.3317109,13.7197601 6.33685393,13.5074315 C5.91312053,13.5007702 5.64672625,13.7330827 5.52102145,14.0320081 C5.51436159,14.0436653 5.50770174,14.0536573 5.50187436,14.0653145 C5.49021961,14.093625 5.4860572,14.1227681 5.47856486,14.1519113 C5.44360061,14.243504 5.4069714,14.3325988 5.40031154,14.4441754 C4.78510725,24.2670806 5.77576098,34.1083044 5.57097038,43.9453649 C5.35286006,54.4010927 4.75430541,64.838502 5.07314607,75.3008911 C5.07814096,75.4849093 5.13558223,75.6297923 5.21300306,75.7580222 C5.34536772,76.036131 5.6026047,76.2484597 6.00968846,76.2376351 C13.318049,76.0527843 20.60643,76.3358891 27.9122932,75.932881 C35.3105618,75.5240444 42.6771961,76.0269718 50.0762972,75.8238024 C50.2386313,75.8188065 50.3751583,75.7763407 50.4933708,75.7147238 C50.7997242,75.5939879 51.0336517,75.3217077 51.0128396,74.8870585 C50.0471604,54.5876089 50.2069969,34.224877 49.2463126,13.9287581 C49.2396527,13.7955323 49.203856,13.6822903 49.1580695,13.5782077 L49.1580695,13.5782077 Z" id="Fill-85"></path>
                <path d="M16.1060317,20.2619798 C14.3012104,21.7466149 12.8044076,23.541 11.6489224,25.5726935 C11.0520327,26.6218468 12.6695455,27.56775 13.2656027,26.5185968 C14.3486619,24.6143004 15.740572,22.9772883 17.4305107,21.586744 C18.3620582,20.8198629 17.0309193,19.5017601 16.1060317,20.2619798" id="Fill-86"></path>
                <path d="M20.1760368,20.9189496 C19.0430286,22.2512077 17.9100204,23.5826331 16.7770123,24.9132258 C15.999474,25.8266552 17.3181256,27.1580806 18.1014913,26.2388226 C19.2344995,24.9065645 20.3675077,23.5759718 21.5005158,22.2437137 C22.2780541,21.3302843 20.9594025,19.9996915 20.1760368,20.9189496" id="Fill-87"></path>
            </g>
            <g id="Group-63" opacity="0.0965240036" transform="translate(508.612707, 129.279951) rotate(-1.000000) translate(-508.612707, -129.279951) translate(463.612707, 93.779951)">
                <path d="M13.9245154,34.2119055 C16.7385854,33.9201733 19.5040439,34.3847839 22.2911075,34.6531055 C23.4739891,34.7674573 25.9378758,34.3361618 26.690455,35.2743871 C27.3224054,36.0613437 26.6724507,40.3355809 26.665249,41.2864118 C26.640043,44.5620964 26.606735,47.837781 26.5788284,51.1134657 C26.5608241,53.1195749 26.5455205,55.1265845 26.5320172,57.1317933 C26.5104121,60.4678052 25.4877686,61.0413652 22.0786569,61.0089505 C20.0171661,60.9900419 15.7420482,61.7391814 13.2700596,60.8558811 C13.9569231,60.2778191 14.5942749,59.6412306 15.1713123,58.9443148 C15.9959086,57.9466626 14.5708693,56.5051093 13.7390713,57.5117655 C13.1098214,58.2726103 12.4094547,58.947016 11.650574,59.5520902 C11.6289688,59.5088706 11.5974613,59.4746551 11.5794571,59.4296347 C11.2553799,58.6480805 11.1320505,57.4550398 11.1041439,56.2106758 C12.225811,55.2391355 13.3483782,54.2675952 14.4700453,53.2960548 C15.4575804,52.4406672 14.0199381,51.0135204 13.0387045,51.8635056 C12.4130555,52.4037504 11.7874066,52.9457961 11.1626578,53.4878418 C11.1959657,52.9313896 11.234675,52.4154557 11.2697833,52.001268 C11.264382,51.3997954 11.2823863,50.8019245 11.2940891,50.2031531 C12.6354085,48.9236732 14.0271398,47.7027198 15.4827864,46.5519983 C16.5054299,45.7443323 15.0632866,44.3198867 14.0514456,45.1203495 C13.1413289,45.8379747 12.2600191,46.5898154 11.3949131,47.3596644 C11.4336223,46.5961183 11.4732318,45.8325722 11.5191427,45.0690262 C12.7488355,44.0614695 13.9794285,43.0539129 15.2082211,42.0463563 C16.2173613,41.2197816 14.7761182,39.7944356 13.77598,40.613807 C13.0738129,41.1891678 12.3707455,41.7645285 11.6685783,42.3398893 C11.6928841,41.886984 11.7207907,41.4349792 11.7378948,40.9811735 C11.7531984,40.6210103 11.7540986,40.2572454 11.751398,39.8934805 C12.8253537,39.0993206 13.9011098,38.3060611 14.9759658,37.5119012 C16.0130127,36.7465543 15.0038724,34.9871569 13.9533223,35.7624082 C13.208845,36.3125576 12.4634675,36.8636073 11.7189903,37.4128563 C11.7225911,37.0661992 11.7315933,36.7204424 11.7558991,36.3782874 C11.8963325,34.4721235 11.9296404,34.4189994 13.9245154,34.2119055 Z M20.8687688,63.6516482 C24.6001573,63.7011707 28.7969565,64.1684825 29.2164564,59.6025131 C29.7295786,54.0388915 29.3100787,48.1826373 29.3559896,42.5884019 C29.3775948,39.8844765 30.8962564,33.5762174 27.5204526,32.2949367 C25.598495,31.5665066 22.4657491,31.929371 20.3943559,31.6916633 C18.3697738,31.4584576 16.3974042,31.4404494 14.3611194,31.5016772 C10.8025721,31.6079254 9.02644919,31.8078159 9.00934512,35.6642638 C8.98503933,41.1099319 8.51962852,46.5537991 8.5691403,52.001268 C8.35578951,54.5134066 7.93899027,59.5547914 9.34602528,61.6959619 C11.4534271,64.9005142 17.8647536,63.6111298 20.8687688,63.6516482 L20.8687688,63.6516482 Z" id="Fill-97"></path>
                <path d="M39.8659921,21.3972977 C41.1235915,19.5307517 48.1821721,20.9921141 49.9573948,21.1920046 C51.9702741,21.4189075 54.1145846,20.7445018 54.8779664,22.5192062 C55.5594286,24.0994223 54.8491595,27.8802359 54.8401574,29.5612978 C54.8140512,34.8620002 54.7906456,40.1627025 54.7645394,45.4625045 C54.7537368,48.0565802 54.7411338,50.6506559 54.7276306,53.2438312 C54.7204289,54.6124515 55.4541036,58.8317637 54.6592143,59.9833857 C53.864325,61.1377088 47.4007861,61.1088958 43.8566422,60.9126068 C44.8369756,60.2048861 45.8173091,59.4962649 46.7976425,58.7885442 C47.8445918,58.0322014 46.8345513,56.2737044 45.774999,57.0399517 C44.1735177,58.1960756 42.5702359,59.3531 40.9687546,60.509224 C40.2053729,60.1922804 39.8443869,59.6394298 39.676947,58.947016 C41.6277115,57.4685459 43.5397668,55.9432546 45.3978092,54.3504327 C46.3898454,53.5004475 44.9513029,52.0733007 43.9655682,52.9178835 C42.5234248,54.1532433 41.0443726,55.3426824 39.5437153,56.5051093 C39.5491166,56.1107305 39.550917,55.7064473 39.5293119,55.3039649 C39.5068065,54.891578 39.487902,54.4845935 39.4662969,54.0767087 C41.2631247,52.1030141 43.2390952,50.3256086 45.4149132,48.7778071 C46.4672638,48.0277672 45.4572233,46.2701706 44.3922698,47.0283142 C42.5972424,48.3059933 40.9183426,49.7151319 39.361872,51.2629334 C39.3483688,50.5570135 39.3537701,49.8492927 39.3735748,49.1388707 C40.9480497,47.4389003 42.637752,45.8613853 44.4489833,44.4144295 C45.4680259,43.6022614 44.027683,42.1769154 43.0167422,42.9827807 C41.7690452,43.9777316 40.5834629,45.0402131 39.4482926,46.1567192 C39.4473924,45.0870344 39.4536939,44.0173496 39.4743988,42.9485652 C40.9174424,41.4475849 42.4964184,40.1140805 44.246435,38.9732635 C45.333894,38.2637419 44.3202526,36.509747 43.2237915,37.224671 C41.9184808,38.0755566 40.6941892,39.0308896 39.5419149,40.0672593 C39.5671209,39.2316806 39.5977282,38.3943011 39.6274353,37.5569216 C41.0956848,35.9902115 42.7070685,34.5918777 44.4885927,33.3862313 C45.5625484,32.6614028 44.5507075,30.9047066 43.4659492,31.6376388 C42.1426341,32.5326445 40.9012385,33.5275954 39.7327603,34.6062843 C39.748064,34.1902957 39.7633676,33.7734068 39.7786713,33.3574183 C39.7930747,32.9117163 39.8065779,32.4660143 39.8218816,32.0212127 C41.1064874,30.4472993 42.5702359,29.0471648 44.2428342,27.8847379 C45.3050871,27.1455029 44.2941464,25.3888067 43.2201907,26.135245 C42.0292071,26.9645209 40.9309456,27.8955428 39.9137034,28.9121035 C39.9308075,28.2602081 39.9389094,27.6083126 39.9479116,26.9564172 C41.1262921,25.7516712 42.3973948,24.6585758 43.7891262,23.7023424 C44.8558801,22.9694102 43.8440392,21.212714 42.7664827,21.9537499 C41.742939,22.6569686 40.7734081,23.4268175 39.8515886,24.2515913 C39.7327603,23.1584959 39.6040297,21.7871744 39.8659921,21.3972977 Z M37.312084,61.107095 C38.6389999,64.1603788 42.8222959,63.4652637 45.4779283,63.3959323 C48.2352848,63.3248001 53.9921555,64.3557673 56.3282117,62.5594532 C58.6597668,60.7667407 57.4219721,54.3990548 57.4345751,51.8770117 C57.4651824,45.8397755 57.4921888,39.8034397 57.5209957,33.7671039 C57.5344989,30.8299728 57.5489023,27.8910408 57.5660064,24.9530092 C57.5723079,23.593393 58.0035106,21.1802993 57.1825151,19.9332341 C55.7475734,17.7569478 50.4300073,18.48988 48.2118792,18.2386661 C45.9145322,17.9775478 40.3115982,17.1977944 38.2456062,18.7302889 C36.048183,20.3618284 37.2760754,26.3135258 37.2220625,28.6536864 C37.0744274,34.9466385 36.6711314,41.2368894 36.7458492,47.5325427 C36.5514029,50.150029 36.6882354,52.6909806 36.8286689,55.3039649 C36.9195905,56.9994333 36.6027151,59.4773563 37.312084,61.107095 L37.312084,61.107095 Z" id="Fill-98"></path>
                <path d="M68.8267876,4.38678818 C69.3390096,2.25462184 73.1739226,2.79486669 75.2345133,2.88940954 C76.9323175,2.96684463 81.230841,2.8741026 82.6648824,3.5422054 C84.2915697,4.30124941 83.8126557,5.70138398 83.8018531,7.61475116 C83.7766471,12.2248405 83.7523414,16.8358303 83.7289358,21.4459197 C83.6740227,32.1616763 83.6200098,42.8783333 83.5623961,53.5949903 C83.5551944,55.0599543 84.16644,58.256403 83.5551944,59.5917082 C82.5658589,61.7481855 77.6317841,61.043166 75.7188286,60.9855399 C74.6124652,60.9522248 73.3107552,61.0638754 72.1188714,60.9963448 C72.5311696,60.6181734 72.9389667,60.2318983 73.3197574,59.8150094 C74.1974663,58.8551744 72.7688262,57.4181231 71.8875164,58.3824601 C71.2249586,59.1072886 70.5011863,59.769989 69.7342036,60.3822665 C69.5262541,60.2499065 69.3417102,60.0905342 69.1796716,59.902349 C70.1338988,58.8371662 71.1241346,57.8052985 72.167483,56.8274554 C73.1199098,55.9324497 71.6858683,54.5026017 70.7343418,55.3949061 C69.9376521,56.1431452 69.1751705,56.9265002 68.4288929,57.7251622 C68.3316697,57.1092831 68.2578521,56.473595 68.211041,55.8171975 C69.3948228,54.8429559 70.5795049,53.8696148 71.7623866,52.8953733 C72.7697264,52.0660974 71.3302837,50.639851 70.3301455,51.4637244 C69.5955706,52.0678982 68.8591953,52.6729725 68.1237202,53.2780467 C68.1237202,52.8665602 68.1318221,52.4568745 68.1426247,52.0471888 C69.9367519,50.7145849 71.7038726,49.3450642 73.4394859,47.9377263 C74.452227,47.1156538 73.0118841,45.6903078 72.0081451,46.5051771 C70.7748514,47.5037297 69.5217531,48.4761704 68.2578521,49.435105 C68.2983618,48.7796079 68.3415721,48.1376169 68.3865828,47.5325427 C68.3820817,47.2137982 68.387483,46.8941534 68.3829819,46.5754089 C69.7459064,45.3499535 71.1772472,44.2163397 72.6905075,43.1826713 C73.7608624,42.4524403 72.7490215,40.6957441 71.6687643,41.4331784 C70.5272925,42.2120313 69.4380331,43.0611162 68.3739798,43.9399145 C68.3721794,43.2168868 68.3631772,42.4956599 68.3667781,41.7735326 C69.6009719,40.8353074 70.8342656,39.8961818 72.0396526,38.9201394 C73.0523937,38.0998676 71.6111505,36.6736212 70.6065113,37.4875901 C69.8782379,38.0773574 69.126559,38.6374113 68.3865828,39.212772 C68.3955849,38.4069068 68.4081879,37.5992407 68.4207909,36.7933755 C69.7585094,35.5238001 71.1745466,34.3568712 72.692308,33.3078958 C73.7581617,32.5731628 72.747221,30.8164666 71.6705647,31.5593033 C70.5506981,32.330953 69.492046,33.1773366 68.4604004,34.0588362 C68.4838059,32.8702975 68.5126128,31.6817588 68.5396192,30.4932201 C69.504649,29.5937125 70.5047871,28.7338227 71.562539,27.9450653 C72.0054444,27.6155159 72.217895,27.0725698 71.9262256,26.5593372 C71.6786666,26.1244401 70.9782999,25.8696246 70.5407957,26.1955724 C69.8782379,26.688996 69.2327843,27.2004278 68.5999336,27.7298677 C68.6134368,27.1725151 68.6233392,26.6151625 68.6350419,26.0578099 C70.1564042,24.8971839 71.7470829,23.8374036 73.4025771,22.8766682 C74.5287452,22.2220715 73.5106028,20.4707778 72.3808338,21.1271753 C71.1079307,21.8655099 69.882739,22.6704747 68.6890548,23.5213604 C68.7061589,22.721798 68.7259636,21.9204348 68.740367,21.119972 C68.7421674,21.0299312 68.7430677,20.9398904 68.7448681,20.8498496 C69.8935416,19.822484 71.0413149,18.7951183 72.1908886,17.7686531 C73.1649205,16.8979585 71.7281784,15.4690109 70.7586476,16.3361039 C70.1023913,16.9222695 69.4470353,17.5084352 68.7916792,18.0946008 C68.8096835,17.0798409 68.8276878,16.065081 68.8438917,15.0503211 C69.7630105,14.1093947 70.7280403,13.2179907 71.7677878,12.4076234 C72.2025914,12.0690699 72.117071,11.3316357 71.7677878,10.9750741 C71.3464875,10.5437787 70.7649491,10.6410227 70.3355468,10.9750741 C69.8314268,11.367652 69.3507123,11.789043 68.874499,12.2131352 C68.8844013,11.334337 68.8943037,10.4555387 68.8988047,9.57674037 C70.2158183,8.58359026 71.4986238,7.55082219 72.7319174,6.45502555 C73.70865,5.58793256 72.2719079,4.15898494 71.2996764,5.02247629 C70.5038869,5.73019704 69.6837916,6.40730392 68.8510934,7.06820345 C68.7673734,6.14528517 68.6512458,5.12152118 68.8267876,4.38678818 Z M65.9100931,58.7363205 C66.0847347,60.910806 66.3448967,62.2425096 68.5126128,63.0852915 C70.6731272,63.9253723 73.435885,63.6174327 75.7188286,63.6867641 C78.4833868,63.7705021 81.6152325,63.9658906 84.2195526,62.8070654 C87.6601718,61.2745709 86.2531368,55.5254653 86.2702409,52.2930002 C86.3053492,45.6578931 86.3386572,39.0218855 86.3737655,32.3858779 C86.4088739,25.6625308 86.4421818,18.9382832 86.4781904,12.2158365 C86.4925938,9.36064243 87.9581428,2.27893286 84.6372521,1.01836154 C82.3273021,0.142264477 78.7669543,0.4790171 76.2562565,0.259317528 C73.9760136,0.0603273416 70.6578236,-0.175579576 68.4045871,0.441199961 C64.8154325,1.42264477 66.2260684,6.57477982 66.2044632,9.52721793 C66.115342,22.1905572 65.4905932,34.8701038 65.6859398,47.5325427 C65.4113744,51.2341203 65.6130224,55.0383445 65.9100931,58.7363205 L65.9100931,58.7363205 Z" id="Fill-99"></path>
                <path d="M87.8537179,66.9597475 C74.5440489,67.4738805 61.2262779,67.5306062 47.9103074,67.2595834 C35.2812004,67.0002659 22.6466922,66.102559 10.016685,66.3222586 C8.72397717,66.3456692 5.76767328,66.8805116 4.79184093,66.2601304 C3.61706122,65.5154929 3.70438201,62.5936687 3.64856872,61.4636566 C3.50993571,58.638176 3.40551085,55.8126954 3.33529413,52.9845137 C3.19666112,47.3758717 3.20296262,41.7654289 3.26777805,36.156787 C3.39920935,24.709899 3.62876401,13.2729156 3.39740892,1.82602759 C3.36230056,0.0891404002 0.66165754,0.0837379517 0.696765899,1.82602759 C0.951526558,14.410131 0.622048109,26.982529 0.534727318,39.5675328 C0.493317458,45.5516449 0.550931176,51.5375579 0.775984761,57.5189688 C0.911016912,61.1169995 -0.324977377,67.4963907 4.07346989,68.8659114 C6.33120745,69.5682297 9.14707791,69.0378894 11.4732318,68.9910681 C14.7446107,68.9262388 17.9862825,68.9541514 21.2567612,69.0910134 C28.4233676,69.3908493 35.5917744,69.6546689 42.7628818,69.8410534 C57.7937606,70.2291293 72.8282403,70.2408346 87.8537179,69.6609718 C89.5866305,69.5943416 89.5956326,66.8922169 87.8537179,66.9597475" id="Fill-100"></path>
            </g>
            <g id="Group-58" opacity="0.0965240036" transform="translate(334.000000, 0.000000)">
                <path d="M77.8720429,36.3548246 C74.7535649,47.1935766 72.4750613,57.9881976 70.3572268,69.0326169 C60.8194791,62.3896452 50.6498774,56.6476129 40.7849642,50.5150625 C40.8582227,50.4193065 40.9239888,50.3202198 41.0030746,50.226129 C42.1535649,48.8580665 43.6187334,47.6623649 44.8949285,46.4100423 C47.7819765,43.5781613 50.6673596,40.7437823 53.5502451,37.9094032 C64.3275587,27.3137883 75.0865577,16.7006875 85.8405618,6.08259073 C83.4912972,16.2527157 80.7582584,26.3229214 77.8720429,36.3548246 Z M34.7836006,72.2575141 C36.2121399,67.0442218 37.208621,61.7010343 38.4681665,56.4511048 C38.7870072,55.1221774 39.071716,53.8690222 39.5503933,52.6883085 C41.7481461,54.053873 43.9600511,55.4019516 46.1786159,56.7425363 C42.2517978,61.8142762 38.4823187,67.0125806 34.7836006,72.2575141 Z M81.501665,5.96352016 C64.5065424,19.2935948 47.7778141,33.1191028 31.5935291,47.3850887 C23.0888917,45.4066855 14.5984065,43.5132137 5.98554648,42.1326613 C19.1745608,35.7053488 32.2220531,28.9891028 45.5425996,22.8365685 C57.5469918,17.2927097 69.2874872,11.055244 81.501665,5.96352016 Z M38.841951,50.0695887 C38.513953,50.2869133 38.2875179,50.6657742 38.2408989,51.0662843 C37.7672165,51.9647258 37.3859397,53.0197077 37.0288049,54.4518851 C35.5536466,60.3654456 34.4905669,66.4188931 32.8372574,72.2933185 C32.83143,64.4629718 32.9762819,56.6342903 32.8081205,48.8056089 C47.6287998,35.7378226 62.9073442,23.0439012 78.428141,10.7579839 C69.1809295,19.883119 59.9337181,29.0090867 50.668192,38.1159032 C47.8119459,40.9228044 44.9532022,43.728873 42.0944586,46.5332762 C40.6392799,47.959625 39.6203218,48.9438306 38.841951,50.0695887 Z M87.695332,0.843485887 C73.2143054,6.2099879 59.6090501,13.6198407 45.6058682,20.0729657 C30.6553218,26.9624052 16.0394331,34.5387903 1.21209397,41.6830242 C0.302191011,42.1218367 0.451205312,43.8171351 1.51012257,43.9661815 C11.2318488,45.3375746 20.7712615,47.435881 30.3248264,49.6540907 C30.505475,59.4070524 30.2274259,69.1583488 30.3889275,78.9138085 C30.4114045,80.2127601 32.0272523,80.532502 32.7165475,79.5441331 C37.7780388,72.2841593 42.8769918,65.0191895 48.3114351,58.0306633 C55.8562206,62.5794919 63.4209857,67.1191613 70.5886568,72.2225423 C71.2155158,72.6680161 72.281093,72.225873 72.4234474,71.4756452 C74.6386823,59.8092278 76.9937743,48.4400706 80.2804137,37.0192883 C83.5803728,25.5535423 86.6780388,14.0378367 89.2312615,2.38057863 C89.4177375,1.52959879 88.646859,0.491270161 87.695332,0.843485887 L87.695332,0.843485887 Z" id="Fill-102"></path>
                <path d="M23.0256231,41.4690302 C26.0208938,39.8161976 29.0169969,38.1625323 32.0122676,36.5088669 C33.0686874,35.9268367 32.1246527,34.3081431 31.0674004,34.891006 C28.0712972,36.5446714 25.0751941,38.1983367 22.0799234,39.852002 C21.0235036,40.4340323 21.9675383,42.0527258 23.0256231,41.4690302" id="Fill-104"></path>
                <path d="M31.5410827,38.9060988 C30.132523,39.6388407 28.7231307,40.3715827 27.314571,41.1051573 C26.2448315,41.661375 27.1905312,43.2784032 28.2602707,42.7221855 C29.6688304,41.9894435 31.0773902,41.2567016 32.4867824,40.5239597 C33.556522,39.9669093 32.6099898,38.349881 31.5410827,38.9060988" id="Fill-105"></path>
            </g>
            <g id="Group-53" opacity="0.0965240036" transform="translate(338.000000, 171.000000)">
                <path d="M67.1197038,75.638119 C65.3073902,73.7471452 63.545858,71.807877 61.7343769,69.9169032 C65.8360163,65.1848891 70.6311134,61.2747117 74.9134014,56.7058992 C75.795,55.7633266 76.6491267,54.7949415 77.5623596,53.8840101 C78.0801634,53.3669274 79.2214964,52.4410081 79.1507354,52.4376774 C80.2312972,52.4918004 84.1664402,56.583498 84.9764454,57.404502 C85.3086057,57.7941875 71.1880439,72.4806673 67.1197038,75.638119 Z M59.8038509,65.0999577 C59.8155056,64.575381 60.9876404,63.6436331 61.5362462,63.0466149 C63.3901839,61.0324073 65.2474515,59.0173669 67.2054494,57.102246 C69.2799949,55.0713851 71.4619305,53.1729173 73.7604137,51.3985161 C74.9933197,50.4459516 74.8950868,50.8514577 75.7666956,51.8473206 C73.8528192,53.6891673 72.162048,56.0406028 70.4671144,57.7059254 C67.3436415,60.7726169 64.1568999,63.5745222 61.2149081,66.7519577 C60.6496527,66.1416169 59.8013534,65.207371 59.8038509,65.0999577 Z M59.2427579,61.5794657 C55.8562206,58.3129355 52.7543922,56.2312823 47.9942594,55.4244335 C39.9441573,54.0613669 30.0800766,50.3959919 32.9721195,40.7645988 C34.34738,42.123502 35.7276353,43.4774093 37.0979009,44.8363125 C38.2400664,45.9695645 40.0074259,44.2043226 38.8635955,43.0702379 C33.4507967,37.6995726 28.2136517,32.169869 22.8566292,26.7500766 C20.5248468,24.3911472 16.8660878,21.8232198 15.2527375,18.9139012 C14.2404392,17.0887077 14.0181665,15.2193831 16.4898059,15.0653407 C18.0606997,14.9670867 18.511905,15.3950746 19.6282635,16.360129 C20.5681359,17.1711411 21.4064454,18.0970605 22.2880439,18.9696895 C26.6227783,23.2628911 30.5371093,27.936619 35.0666445,32.0316472 C35.7367926,32.6378246 36.9222472,32.4363206 37.1536772,31.4804254 C37.7314198,28.9999274 39.4554903,28.3379617 42.3283861,29.4953609 C43.2033248,30.2164456 44.3404954,29.7201794 44.4603728,28.6119073 C45.0572625,25.9682077 46.8595863,25.5876815 49.8665117,27.469496 C50.5125179,28.140621 51.7237794,27.8217117 51.9543769,26.9182742 C53.3487845,21.4426935 59.5216394,28.6060786 60.8760878,30.0790565 C62.9722778,32.3597157 64.7030082,34.8876754 65.7236313,37.8444556 C67.2712155,42.3325 68.1877783,46.4475121 71.0315373,50.3601875 C70.9041675,50.4717641 70.7826251,50.5758468 70.6660776,50.6691048 C68.8429418,52.1320907 67.109714,53.7008246 65.4397549,55.3353387 C63.9437845,56.7999899 62.5069203,58.3237601 61.0825434,59.8566895 C60.6305056,60.3437964 59.9320531,60.9391492 59.2427579,61.5794657 Z M86.947763,55.9115403 C86.8936517,55.8174496 86.8287181,55.7258569 86.7429724,55.6384274 C84.7033912,53.5725948 82.2059448,51.3460585 79.7734321,49.7764919 C79.3913228,49.5291915 78.9001583,49.5733226 78.5130541,49.7764919 C78.2358376,49.9230403 77.9652809,50.0920706 77.6972217,50.2702601 C76.6499591,49.198625 75.6235087,47.856375 74.0501175,48.215252 C73.6896527,48.2976855 73.3191982,48.4975242 72.9512411,48.7464899 C70.5453677,45.2817863 69.5397293,41.5939294 68.2785189,37.5954899 C67.130526,33.9567601 65.0027017,30.8342802 62.4153473,28.0831673 C60.5214505,26.0697923 57.9615679,22.655881 55.0129162,22.255371 C53.0191216,21.9839234 51.2684116,23.0264153 50.2661032,24.5968145 C47.3832176,22.8199153 43.7827324,23.6600706 42.4499285,26.7384194 C39.8326047,25.6343105 36.9513841,26.5344173 35.488713,28.9974294 C30.3423085,23.9889718 25.9859295,17.8472621 20.2184934,13.6115141 C16.1509857,10.6247581 9.80663943,13.3309073 12.3090807,18.7915 C13.9990194,22.4768589 17.8642339,25.2304698 20.6472217,28.0648488 C22.6135444,30.0682319 24.5848621,32.0341452 26.4804239,34.1033085 C27.9580797,35.7161734 29.4898468,37.2840746 31.0374311,38.8369879 C28.6157406,45.693121 31.1556435,52.3560766 38.0619152,55.3536573 C41.5958018,56.8874194 45.3353115,57.4403065 49.0914709,58.1205907 C52.5421093,58.7450867 55.1219714,60.9991008 57.564474,63.4129859 C57.350526,63.7268992 57.188192,64.0391472 57.1066088,64.3422359 C56.6720531,65.9526028 58.3636568,67.4913609 59.5382891,68.6420988 C59.4134168,68.7886472 59.286047,68.9285343 59.1636721,69.0775806 C58.7299489,69.6021573 58.6550255,70.3240746 59.1636721,70.8436552 C61.5071093,73.2367238 63.7206793,75.7488629 66.0624515,78.1444294 C66.4770276,78.5690867 67.0714198,78.5765806 67.5750715,78.3401048 C70.0783453,77.1610565 72.1071042,74.5556593 73.9668693,72.5914113 C76.2586925,70.1691996 78.5138866,67.8002782 80.9289173,65.4979698 C82.7295761,63.7818548 89.1496782,59.16225 86.947763,55.9115403 L86.947763,55.9115403 Z" id="Fill-107"></path>
                <path d="M28.7189683,16.1977601 C29.8594688,5.66459476 15.8462972,2.89682863 9.44783963,8.94111694 C2.30597549,15.6873387 5.45941777,30.1823065 16.7836721,29.010752 C17.9707916,28.8883508 17.9841113,27.0131976 16.7836721,27.1372641 C7.04529622,28.1447843 4.75430541,15.8580343 10.7723187,10.265881 C16.0977068,5.31570968 27.8074004,7.3199254 26.8458836,16.1977601 C26.7160163,17.395127 28.5899336,17.3859677 28.7189683,16.1977601" id="Fill-110"></path>
                <path d="M19.8979877,30.6127923 C15.1486772,32.5295786 9.22057201,30.662752 5.77909091,27.0106996 C0.591062308,21.5068085 2.53574055,11.9045585 7.23759959,6.81533266 C11.8362308,1.83768347 19.0255465,0.844318548 24.9661389,4.07171371 C30.3323187,6.98852621 34.045189,14.9187923 30.7702043,20.5201048 C30.1608274,21.5634294 31.7783401,22.5068347 32.3877171,21.4660081 C35.9340909,15.3984052 32.8264351,7.22333669 27.3328856,3.34146976 C21.0459806,-1.10077823 12.2707865,-0.602014113 6.7014811,4.68455242 C1.07306946,10.0277399 -1.33280388,19.779869 3.11265066,26.6401653 C6.54247702,31.9350585 14.4893514,34.802744 20.3949796,32.4188347 C21.4996834,31.9733609 21.0160112,30.1606573 19.8979877,30.6127923" id="Fill-111"></path>
                <path d="M78.4522829,56.1738286 C77.842906,55.1338347 76.2228958,56.0755746 76.8339377,57.1188992 C77.3509091,58.0015202 77.867048,58.8841411 78.3840194,59.7659294 C78.9925638,60.8059234 80.6125741,59.8633508 80.0015322,58.8200262 C79.4845608,57.9382379 78.9684219,57.0556169 78.4522829,56.1738286" id="Fill-112"></path>
                <path d="M81.1628447,55.7508367 C80.9563892,55.2887097 80.2845761,55.1787984 79.8816547,55.4144415 C79.4063075,55.6925504 79.3388764,56.2321149 79.5461645,56.6967399 C79.9341011,57.564373 80.3212053,58.4328387 80.709142,59.3004718 C80.9155975,59.7625988 81.5874106,59.8725101 81.990332,59.6368669 C82.4656793,59.3587581 82.5331103,58.8191935 82.3266547,58.3554012 C81.9387181,57.4869355 81.5507814,56.6184698 81.1628447,55.7508367" id="Fill-113"></path>
            </g>
            <g id="Group-64" opacity="0.0965240036" transform="translate(0.000000, 214.385081)">
                <path d="M72.2910827,30.7651694 C74.5229673,26.2438185 73.0294944,20.1920363 68.5141113,17.3818044 C64.1568999,14.668994 59.4084219,15.6415423 56.1442594,18.7415403 C55.468284,4.85941129 37.3759499,-2.40805645 25.0044331,1.66615524 C10.9005209,6.31073992 7.24675689,21.8082319 13.8583299,33.5737359 C6.80803882,31.8401351 -0.44288049,37.2965645 0.72092952,45.7039456 C2.23354954,56.6442823 13.5627988,57.1663609 22.3413228,56.9315504 C23.9455158,56.8899173 23.9521757,54.3919335 22.3413228,54.4335665 C16.4615015,54.5909395 8.6994382,55.2304234 4.89083248,49.8006391 C2.9295046,47.0028972 2.36841164,42.7563246 4.00756895,39.6638206 C6.49419305,34.9692762 12.715332,34.5188065 16.6230031,37.5663468 C17.8767211,38.5438911 19.4484474,37.0517621 18.3886977,35.7994395 C9.5285904,25.3278911 11.7937743,8.65551411 25.6687538,4.07504435 C37.4075843,0.200671371 56.6246016,7.68296573 53.3279724,22.769123 C53.0415986,24.0772339 54.9687947,25.0755948 55.6098059,23.7316794 C57.4953779,19.7840323 61.3489377,16.9996129 65.8426762,18.8572802 C70.9457916,20.9664113 72.6740245,27.9890766 68.3775843,31.8243145 C67.4818335,32.6236694 68.4233708,34.3705927 69.5921757,33.9117964 C79.8058989,29.9050302 86.1435853,45.2376552 77.6364505,51.1403911 C73.3450051,54.1188206 67.2462411,54.6375685 62.147288,54.5334859 C60.5389326,54.5001794 60.5397651,56.9981633 62.147288,57.0314698 C69.9468131,57.1913407 80.9946834,55.6367621 83.7318846,46.9929052 C86.1802145,39.2658085 80.0989326,30.3721532 72.2910827,30.7651694" id="Fill-118"></path>
                <path d="M30.8800919,64.6736351 C30.830143,59.8317097 30.9600102,54.988119 30.8850868,50.1470262 C30.8775945,49.6432661 30.4621859,49.2052863 29.9485444,49.2102823 C29.5015015,49.2144456 29.0544586,49.2119476 28.6074157,49.2102823 C30.2449081,47.1277964 31.9648161,45.1144214 33.6739019,43.0885565 C35.3788253,45.1260786 37.0895761,47.1569395 38.7445506,49.2344294 C38.3915781,49.2286008 38.0402707,49.2236048 37.676476,49.2102823 C37.1728243,49.1902984 36.7366037,49.6549234 36.7399336,50.1470262 C36.7732329,54.9906169 36.6741675,59.835873 36.7324413,64.6794637 C34.7836006,64.7635625 32.8297651,64.7469093 30.8800919,64.6736351 Z M34.3373902,40.9760948 C34.0327017,40.6113891 33.3175996,40.6138871 33.0137436,40.9760948 C30.6070378,43.8521069 28.1453882,46.6731633 25.893524,49.6740746 C25.4548059,50.2586028 26.0516956,51.0895988 26.7026966,51.0837702 C27.4744076,51.0762762 28.2461185,51.0821048 29.0178294,51.0837702 C29.0661134,55.9140383 28.9370787,60.7451391 29.012002,65.5754073 C29.0178294,65.9401129 29.2009755,66.180752 29.4423953,66.3256351 C29.5797549,66.4255544 29.7387589,66.5021593 29.9485444,66.5121512 C32.5209142,66.6295565 35.1049387,66.6703569 37.676476,66.5121512 C38.1759653,66.4821754 38.6221757,66.1083105 38.6130184,65.5754073 C38.5331001,60.7526331 38.6305005,55.9281935 38.6138509,51.1045867 C39.2889939,51.1179093 39.957477,51.1195746 40.6484372,51.0837702 C41.2744637,51.0512964 41.9254648,50.2785867 41.4576098,49.6740746 C39.1657865,46.7064698 36.7382686,43.8554375 34.3373902,40.9760948 L34.3373902,40.9760948 Z" id="Fill-119"></path>
                <path d="M46.2152451,62.4970585 C46.6589581,62.4945605 47.1035036,62.4928952 47.5488815,62.4970585 C48.0600255,62.5020544 48.4770991,62.0632419 48.4854239,61.5603145 C48.5595148,56.7175565 48.4296476,51.8747984 48.4795965,47.0337056 C50.4292697,46.9604315 52.3831052,46.9429456 54.3327783,47.0270444 C54.2745046,51.8706351 54.3727375,56.7167238 54.3402707,61.5603145 C54.3361083,62.0524173 54.7714964,62.5162097 55.2768131,62.4970585 C55.6156333,62.4837359 55.9436313,62.4795726 56.2741267,62.473744 C54.5983401,64.5104335 52.9700051,66.5837601 51.2775689,68.607127 C49.5951226,66.5662742 47.8610623,64.5678871 46.2152451,62.4970585 Z M58.2487743,60.6235706 C57.5578141,60.5877661 56.887666,60.5885988 56.2133555,60.6019214 C56.2291726,55.7783145 56.1334372,50.953875 56.2133555,46.1311008 C56.2208478,45.6023609 55.7754699,45.2251653 55.2768131,45.1943569 C52.7052758,45.0369839 50.1204188,45.0769516 47.5488815,45.1943569 C47.340761,45.2035161 47.1817569,45.280121 47.0460623,45.378375 C46.802145,45.5224254 46.617334,45.7638972 46.6123391,46.1311008 C46.5374157,50.961369 46.6664505,55.7924698 46.6165015,60.6235706 C45.8456231,60.6252359 45.0747446,60.6310645 44.3022012,60.6235706 C43.6520327,60.6169093 43.0543105,61.4487379 43.4930286,62.0324335 C45.7465577,65.0308468 48.2573238,67.8144335 50.6132482,70.7304133 C50.9146067,71.1034456 51.6347038,71.085127 51.9377273,70.7304133 C54.3202911,67.940998 56.5288662,65.0108629 58.91143,62.2222802 C59.4433861,61.5994496 59.0887487,60.666869 58.2487743,60.6235706 L58.2487743,60.6235706 Z" id="Fill-120"></path>
                <path d="M28.992855,9.8453871 C30.179142,9.7204879 30.1924617,7.84533468 28.992855,7.97189919 C22.1548468,8.69464919 16.4240398,16.2910181 18.0423851,23.0355746 C18.323764,24.2087944 20.1302503,23.7116956 19.8488713,22.5384758 C18.5435393,17.0962016 23.4044025,10.435744 28.992855,9.8453871" id="Fill-121"></path>
                <path d="M29.1193922,11.8745827 C27.3079111,12.1743407 25.6870684,13.002006 24.3301226,14.2310141 C23.4352043,15.0428589 24.7621808,16.3642923 25.6546016,15.5557782 C26.7859448,14.5299395 28.1170838,13.9295907 29.6172165,13.680625 C30.8035036,13.4841169 30.3006844,11.6789073 29.1193922,11.8745827" id="Fill-122"></path>
            </g>
        </g>
    </g>
</svg>