<svg width="623px" height="488px" viewBox="0 0 623 488" xmlns="http://www.w3.org/2000/svg"><title>Group 71</title><g fill="#464643" fill-rule="evenodd" opacity="0.6"><g opacity="0.0965240036"><path d="M65.93036 328.94425c-7.76057 6.85413-19.41665 7.74196-27.4406.79133-8.1179-7.03102-8.2034-18.91484-1.24288-26.8113 6.9545-8.74688 19.5789-8.76192 28.27953-2.87482 10.6867 7.2306 9.5204 20.8438.404 28.8948zm6.44952 7.26544c-1.06444.5862-2.06987 1.4085-2.82894 2.3434-1.76605-1.7032-3.36552-3.5892-4.96178-5.4558 1.1448-.7522 2.22326-1.6034 3.23794-2.5255 1.57786 1.8283 2.97093 3.8125 4.55278 5.6378zm9.86646 7.1907c4.18293 4.7154 8.76557 9.6791 12.28003 14.9128 1.35618 2.0183 2.42436 3.6363 1.49604 5.9415-.6376 1.5815-1.9557 2.7123-3.5476 3.376-.0587.0244-.1133.0364-.171.058.1313-.2449.2486-.496.3954-.7327.2652-.4282.2608-.9847-.1709-1.3142-.3705-.2828-1.0451-.2623-1.314.1707-.3986.6455-.7541 1.3106-1.0696 1.9946-.3934-.1112-.7659-.2903-1.1215-.5228.3855-1.4749.8393-2.9283 1.3695-4.359.4175-1.1268-1.308-1.8575-1.7284-.7223-.4521 1.2176-.8348 2.4568-1.1874 3.7056-.2985-.3297-.5887-.6761-.8716-1.0281.4831-1.4505.9674-2.9007 1.4503-4.35.379-1.1363-1.346-1.8706-1.7289-.723-.3701 1.112-.7415 2.2238-1.1123 3.3363-.2752-.3473-.5541-.6939-.8325-1.0398.2644-1.5609.6278-3.0942 1.1405-4.5951.3876-1.1345-1.3375-1.8676-1.7284-.7223-.3828 1.1215-.6976 2.2627-.956 3.4165-.4582-.5597-.9171-1.1189-1.3753-1.6786.397-1.4513.8859-2.8747 1.4638-4.2643.4629-1.112-1.2642-1.8395-1.7289-.7229-.4417 1.0627-.8118 2.1485-1.1529 3.2438-.2532-.3139-.5063-.6277-.758-.9437.464-1.3818.9272-2.7631 1.39-4.145.3813-1.136-1.3436-1.8703-1.7277-.7228l-1.0426 3.1065c-.2442-.3185-.4832-.6399-.7241-.9609.0389-.0867.07-.181.0814-.2918.1906-1.793.5841-3.5325 1.2008-5.2275.4106-1.1289-1.3153-1.8604-1.7289-.723-.4862 1.337-.8527 2.707-1.0993 4.1033-.2843-.4092-.5609-.8233-.836-1.2395.4169-1.7279 1.0345-3.383 1.8492-4.9675.5501-1.0724-1.18-1.7914-1.7289-.723-.5966 1.1627-1.076 2.3664-1.4694 3.6011-.253-.3953-.5106-.8007-.7591-1.215.4207-1.2981.9432-2.5509 1.5843-3.7586.5643-1.0633-1.167-1.7824-1.7284-.7223-.3742.7042-.7085 1.4253-1.0061 2.1605-.6048-1.6712-.6111-3.36587.9448-4.88658 3.557-3.477 7.5313 1.6615 9.7604 4.17413zM63.0453 295.7927c-9.27652-4.3855-21.15355-2.72437-27.77867 5.60748-5.7436 6.51656-7.61106 16.5972-3.24407 24.35806 4.40212 7.824 13.65152 12.4322 22.54333 11.1794 2.7408-.3868 5.3857-1.2841 7.8338-2.5669 1.9068 2.2164 3.8042 4.4701 5.9376 6.4699-.7365 3.0937 2.1658 6.764 3.679 9.19254 3.3188 5.32278 7.5661 9.99494 11.4378 14.90738 1.8333 2.20607 4.3391 5.9062 7.6092 5.84 2.5297-.05144 6.8799-3.11068 7.8005-5.4704 1.3078-3.3522-1.3802-7.2914-3.2868-9.7759-3.8712-5.0473-8.0331-10.1789-12.3995-14.80306-2.2213-2.3516-4.6566-5.741-8.2357-5.3877-1.9023-2.07905-3.4912-4.42137-5.3525-6.53447 2.5393-2.79557 4.4734-6.12866 5.4903-9.77148 2.8525-10.2245-2.8276-18.89238-12.0344-23.2449z"/><path d="M69.62344 314.80422c.1619 4.57494-2.8528 8.41893-6.26804 11.10197-6.09704 4.7915-15.82045 6.1663-22.19092 1.0558-7.36477-5.9085-5.3777-17.9247 1.19843-23.6131 6.1208-4.897 14.7147-4.058 20.8087.6123 3.2632 2.5017 6.3009 6.5715 6.4519 10.8429zm-28.38803-12.9515c-7.0626 6.10927-9.5151 18.61173-2.3186 25.60828 6.8803 6.6875 18.4234 5.5543 25.5661-.05858 7.9299-6.23104 9.1968-15.74756 1.8687-23.12765-6.6154-6.66393-17.6082-8.42886-25.1161-2.42204z"/><path d="M41.85197 312.85052c-.46837 1.83656-.66385 3.8001-.40494 5.68603.14656 1.06874.43752 2.1465.89025 3.1263.1401.3021.38255.59482.48754.90982.30355.91187.63886 2.57967-.88322.54044-1.73716-2.7894-2.2433-6.0686-1.40502-9.2651.1358-.5141 1.42845-4.1521 2.04062-3.2069.10646.1648-.64225 1.8853-.72523 2.2095zm-2.23712-1.91745c-2.11264 4.29546-1.6588 9.31038.83084 13.3073.827 1.10855 2.2735 2.65738 3.8274 1.9931 1.2041-.51433 1.4195-1.95486 1.0526-3.04627-.3507-1.04215-1.1464-1.88652-1.5432-2.92208-.5531-1.44635-.6472-3.05406-.5253-4.58265.1458-1.8427 1.3468-3.66835 1.3568-5.4368.0054-1.01646-.792-2.13274-1.8357-2.25754-1.554-.18646-2.596 1.7894-3.1637 2.94494zm7.49985-4.87897c-.05746.27788-.2229.52452-.50728.59807-.72104.18574-1.12-.58438-.88728-1.17054.20078-.29517.38456-.4566.6843-.38115.27273.06868.57122.32648.712.56446.0117.02246.02058.04392.02143.05474.01005.09356-.00408.24496-.02318.33442zm-2.9839-1.56115c-.0078.01317-.01143.02634-.01923.0395-.0375.0512-.07218.10757-.1025.17108-.72584 1.53222.19243 3.4134 1.8504 3.77382 1.7341.37708 3.23195-1.0519 3.14492-2.7817-.0525-1.04063-.8614-1.88863-1.7873-2.2846-1.1983-.51395-2.4206.00674-3.0864 1.0819z"/></g><path d="M144.46885 288.31118c-1.4654-.07448-2.87115-.62913-3.12496-2.22816-.3222-2.0399 1.6016-3.44355 3.4864-2.9072.0146.00405.0289.00387.0435.00792.0862.03167.1799.05658.2821.0715 1.296.18898 2.0836 1.33673 2.2027 2.6001.1589 1.682-1.3731 2.5349-2.8899 2.45584zm.9482-7.54023l-.0116-.0012c-3.03877-.69868-6.00662.8506-6.54266 4.15078-.5153 3.1818 1.9023 5.4185 4.838 5.82335 2.8167.38983 5.9567-1.1246 6.1597-4.25048.181-2.7732-1.6816-5.3208-4.4436-5.72245zM181.292 292.1128c-1.69188-.25318-3.10395-.62012-3.19726-2.67113-.0833-1.83563 1.24673-2.99776 3.04727-2.59167 1.5.17607 1.7885.70455 1.9832 2.109.1733 1.25063-.1158 3.41133-1.8332 3.1538zm.11113-7.7471c-2.96994-.66882-5.61015 1.56208-5.806 4.5246-.10746 1.61967.475 3.35706 1.70713 4.44856 1.0276.91093 2.42622 1.0236 3.72664 1.25824 2.85135.51486 4.91086-2.5624 4.6696-5.16482-.26542-2.85863-1.24966-4.70774-4.29737-5.06658zm6.3634-14.27187c-1.5893 3.66086-3.7166 3.34517-7.53994 3.03877-.7911-.06305-1.5829-.13622-2.3743-.2035.8645-2.71392 1.7024-5.44653 2.5402-8.18502 3.0577.41515 6.1132.84346 9.166 1.28907-.6025 1.35163-1.2025 2.70435-1.7921 4.06068zm-27.33897 1.07837c.12365-3.00026.228-6.00003.33748-9.00094 2.7894.3635 5.58083.72387 8.37124 1.0858-.50368 2.8967-.99263 5.7966-1.4594 8.70052-2.41696-.25152-4.8328-.5138-7.24932-.78538zm-21.68593-33.95907c2.7611.39403 5.5182.80186 8.26946 1.22583.3229 2.67714.5926 5.35956.8361 8.04425-2.7492-.515-5.5009-1.0227-8.2556-1.5174-.0933-.5858-.19-1.1711-.2791-1.7565-.2852-1.8585-.4024-3.9288-.571-5.9961zm34.24852 5.64758c-.5511 2.695-1.0841 5.3927-1.60318 8.0935-3.39678-.6375-6.79187-1.2832-10.18643-1.9338.082-2.7392.16985-5.4787.24016-8.2183 3.36658.5824 6.73333 1.1791 10.09987 1.8017.48282.0893.9666.1694 1.44958.257zm12.05988 2.0764c-1.02752 2.6323-1.9801 5.3002-2.87992 7.992-2.9863-.529-5.9683-1.0744-8.9485-1.6296.5197-2.7066 1.0543-5.4116 1.606-8.1124 3.3223.5895 6.6487 1.1568 9.9768 1.7142.0699.0124.1641.024.2457.0359zm-23.90423 5.9739c3.297.6312 6.59526 1.2584 9.89513 1.8781-.54446 2.8707-1.06997 5.7441-1.57744 8.6211-2.8764-.3726-5.7521-.7435-8.6282-1.1187.1109-3.1263.2136-6.2535.3104-9.3805zm-11.3918-4.0682c-.2415-2.7037-.50846-5.4043-.82447-8.0999 3.55507.557 7.10497 1.1395 10.6517 1.7441-.06976 2.7263-.1579 5.4523-.2394 8.1791-3.19437-.612-6.38993-1.2208-9.58783-1.8232zm1.08946 12.1173c-.3366-3.3919-.6241-6.7887-.91835-10.1853 3.1223.5894 6.2432 1.1837 9.3622 1.7802-.0965 3.1647-.2006 6.3286-.313 9.4925-2.7108-.3544-5.4216-.7172-8.1308-1.0873zm1.42766 11.257c-.51093-3.103-.89747-6.2188-1.22988-9.3398 2.6202.3566 5.24103.7074 7.86272 1.05-.1098 3.0118-.21453 6.0232-.3384 9.0335-2.09935-.2391-4.19753-.4814-6.29296-.7259-.00096-.0068-.00052-.0109-.00148-.0177zM139.9051 246.922c2.70694.48712 5.41092.9865 8.11237 1.49397.30012 3.42827.585 6.85828.91893 10.2834-2.41074-.3346-4.8208-.6758-7.22845-1.03185-.58843-3.58415-1.21424-7.16302-1.80285-10.7455zm3.44476 22.27367c-.36188-3.207-.8195-6.40316-1.32726-9.59202 2.3691.34865 4.74032.68494 7.11167 1.01205.3271 3.1397.7109 6.2737 1.21245 9.39406-2.3361-.27232-4.66787-.54587-6.99686-.8141zm27.96835-7.54442c.5013-2.84167 1.0207-5.6806 1.5574-8.51772 2.8955.54127 5.7935 1.0736 8.695 1.58955-.8599 2.63904-1.6831 5.2945-2.4972 7.9509-2.5843-.3478-5.1695-.6865-7.7551-1.0227zm-1.7781 10.4989c.4643-2.88825.9506-5.77085 1.4511-8.6528 2.5087.32646 5.0181.65467 7.5266.99116-.8478 2.7701-1.6959 5.5352-2.5751 8.2777-2.1319-.1914-4.2672-.3991-6.4024-.616zm21.5711-9.60327c-.2524.5696-.5072 1.1389-.7614 1.70916-3.1308-.4605-6.2655-.89966-9.4016-1.32556.8085-2.63524 1.6276-5.2677 2.4854-7.8852 3.3929.59522 6.7917 1.16512 10.1989 1.70407-.8249 1.93943-1.6675 3.87115-2.5212 5.7975zm5.623-14.70553c.5367 1.42446-1.3757 4.7508-1.9082 6.06622-.1439.35828-.3007.71103-.4478 1.0673-3.4552-.54316-6.9017-1.1214-10.3417-1.72242.9158-2.7236 1.8843-5.42407 2.934-8.0842 3.476.38544 9.1428 1.02457 9.7639 2.6731zm-70.9343-22.22456c-.7135-.3388-3.0772-1.2486-3.3696-2.1225-.2235-.669.5266-1.0833.9923-1.134.2821-.0315.5946.101.8597.1749.7865.2183 1.5469.5736 2.2853.915.8413.3898 1.6699.8126 2.4835 1.259.8453.4631 1.2795.569.9295 1.5495-.5888 1.1823-3.4208-.2809-4.1806-.642zm69.9233 18.8069c-7.2958-2.3099-15.4859-2.7462-22.9918-4.1321-11.3972-2.1055-22.7753-4.0105-34.2486-5.6384-.1884-1.5126-.4529-2.978-.8999-4.3001-.8793-2.6008-3.2656-3.3749-5.5712-4.3833.1797-.8895.0079-1.6042-.9905-2.2827-1.282-.8715-2.7964-1.5548-4.2081-2.1804-1.8307-.812-6.142-2.1702-6.4325 1.1675-.2234 2.572 3.0408 3.9055 4.9254 4.7776 1.5717.7278 3.8473 1.5522 5.3665.6528 1.4649.6689 2.8169 1.0898 3.8165 2.4021 1.207 1.5853 1.0624 3.6147 1.305 5.5834.51 4.1477 1.1565 8.278 1.8313 12.4021 1.129 6.907 2.4168 13.8006 3.221 20.7556-2.0991.5077-3.8003 2.1424-3.9875 4.4972-.2944 3.6856 3.1295 4.8693 6.1313 5.2585 14.0176 1.8149 28.1114 3.0651 42.1635 4.5755 1.5983.1722 1.8619-2.3119.2611-2.4843-8.3127-.8938-16.6327-1.7264-24.9463-2.6203-4.4216-.4756-8.8412-.9703-13.2577-1.4872-1.7282-.2018-6.3729.0276-7.5052-1.704-1.1249-1.7208.5857-3.748 2.3907-3.719 11.9772 1.3744 23.9885 2.4786 35.964 3.8763 2.9273.342 7.895 1.4041 10.2582-.9941 1.0027-1.0182 1.4404-2.6743 1.9947-3.9423 1.1936-2.7312 2.4208-5.4472 3.6241-8.1749 1.8293-4.1438 4.2533-8.5785 5.1809-13.0482.5799-2.7932-.7534-4.0209-3.3943-4.8578zm-59.0655 38.4784c.588-1.0384-.9167-2.1569-1.5098-1.1098-1.3004 2.298-1.2304 4.8975.2081 7.115.6571 1.0118 2.107-.1763 1.4557-1.1791-.9336-1.4386-1.0001-3.3302-.154-4.8262m-3.6461 1.0099c.0942-.4975-.3591-.9797-.8335-1.0295-.5373-.0565-.9351.3354-1.0293.8337-.1736.927-.1421 1.9099.2349 2.7826.4779 1.1076 2.186.3386 1.7066-.7709-.2469-.5735-.1912-1.2149-.0786-1.8159" opacity="0.0965240036"/><g opacity="0.0965240036"><path d="M458.19905 418.32392c-.53953-.10313-1.04712-.24526-1.50244-.42452-1.1901-.46922-4.8197-3.00774-2.8244-4.87312 2.7069-2.52987 4.2568 3.08115 4.3259 4.60337.01.23206-.0005.46305.001.69427zm12.85195 4.22963c.06497-.08724.12638-.1799.19215-.2669.8503-1.19238 1.91217-2.14854 3.1853-2.87033 3.47644-.12392 3.76547 1.05196.86765 3.52868-1.251.62667-2.81444.2906-4.2451-.39145zm15.1606 4.48007c-1.6547 3.00915-2.93986 4.80955-5.82822 6.88516-2.34557 1.6869-4.7418 3.41143-6.95526 5.26412-1.10868.92705-2.11772 1.8898-2.8622 3.14325-1.02748 1.73203-.83214 3.6899-3.66736 3.89753-1.3206.0969-3.0123-.33497-4.6739-.8682 1.68943-6.96375 3.7609-15.05754 7.7371-21.22375 3.3451 1.33354 8.83903 1.35887 9.19762-2.966.51582-6.2002-6.14868-3.73794-8.66165-.9198-.38143.4276-.74783.87717-1.10154 1.33935-.6671-.4634-1.2463-.9522-1.6614-1.3769-.3559-.36216-.7396-.81556-1.1115-1.32457 3.2811-1.555 5.2368-4.2474 3.5575-8.0826-1.366-3.1203-5.0023-2.3966-6.6181.4739-1.1483 2.0391-.7706 4.5107.3239 6.7565-1.2418.3657-2.5937.5253-3.8817.4842.0627-5.023-1.3161-8.5765-5.6846-7.8242-2.5388.4368-3.203 3.5946-2.28 5.6809 1.0639 2.4054 3.4674 3.5103 6.0842 3.8376-.2916 3.4024-1.3317 6.7475-2.1495 10.043-.991 3.9931-1.9828 7.986-2.9738 11.9791-1.0963-.4405-2.1611-.9297-3.1388-1.4846-1.5622-.8868-1.921-.946-2.061-2.954-.0916-1.3262.367-2.587.1209-3.9404-.5929-3.26-2.9501-6.1932-3.88-9.41-1.0213-3.533-1.8423-7.6926-1.52-11.3807.51-5.831 4.0538-11.1212 8.4193-14.7452 6.353-5.2732 14.0284-6.5374 22.0011-4.7652 7.2675 1.6159 13.3755 7.56 15.4855 14.7327 1.883 6.4034.9182 13.0444-2.2171 18.7494zm-20.51604 28.34693c-.9717 1.06558-2.04662 1.30987-3.2253.73183-.93844-.2277-1.87585-.45596-2.81405-.68446-1.5926-.38853-3.1883-.77277-4.7762-1.1825-1.2499-.32207-12.0981-3.24426-9.5609-5.1538.0421-.0324.075-.0659.1084-.10097 3.0954 1.76308 7.8925 3.02855 9.3378 3.4861 1.445.45573 6.9216 2.55672 10.8843 2.84095.0163.02067.028.0425.0461.06285zm-10.32253 2.44273c-.73465.04532-1.6971-.18363-2.39287-.38503-.30398-.0877-.74413-.16568-.98107-.3844-.2219-.2054-.0706.02284-.1523-.3191-.0765-.3194-.0038-.82483.0815-1.28026 2.0667.5718 3.8611.961 4.6164 1.1388-.2455.5893-.5969 1.1949-1.1717 1.2299zm10.86742-4.19082c-.7374-.12793-1.4727-.25696-2.20985-.38568-.916-.19297-1.82373-.43567-2.72513-.68775-2.01547-.56307-3.9981-1.24497-5.99255-1.8739-1.61123-.51-3.21684-1.02702-4.80596-1.6008-.44935-.16176-6.45976-2.2022-5.19787-3.79552 2.2147 2.0241 7.1152 2.9712 9.3286 3.7411 3.7674 1.3103 8.5114 3.5522 12.646 3.4623-.3484.3794-.6957.7608-1.0433 1.1404zm-8.8545-7.26786c2.8839.8547 5.844 1.6082 8.78227 2.24792.7303.1597 1.3791.28406 1.98342.29206 1.20885 2.313-4.02325 1.12088-5.2747.79226-1.97407-.51908-3.91218-1.15864-5.84292-1.81945-1.77402-.6069-3.55318-1.2083-5.30874-1.8669-1.19014-.4466-7.32217-3.1598-4.76742-3.8738.2044.1286.4301.256.68165.3842 3.0483 1.5527 6.4762 2.8576 9.7465 3.8435zm7.40076-26.76935c.9836 1.4753 2.2257 2.7571 3.4667 3.61802-4.0747 6.23532-6.1405 14.65214-7.8065 21.54207-.8472-.29558-1.6474-.5768-2.3305-.77957-1.0839-.32703-2.2165-.68287-3.3453-1.07937.827-2.95833 4.5604-14.18182 5.1555-22.57724 1.7441-.0014 3.4658-.28827 4.8603-.7239zm.2324-6.9216c.6807-1.37487 1.7424-1.96624 3.1856-1.77228.733 1.0678.7736 2.16774.1222 3.29902-.3695 1.3881-1.3783 2.4127-2.6842 3.1192-.7991-1.5234-1.2494-3.2423-.6235-4.6461zm-6.1359-21.48165c-10.4459 2.8151-19.4061 13.3357-18.7712 24.43104.207 3.6027.758 7.21044 1.884 10.6457.5827 1.7759 1.3871 3.41582 2.1649 5.10857 1.1635 2.5325 1.1908 4.2257 1.119 6.8411-.0296 1.082.0575 1.8592.3443 2.4901-1.0231.6215-1.685 1.7304-1.3716 2.9573-2.165 1.5349-1.8502 2.9712-.4155 4.2265-3.7397 3.0552 1.3992 5.5031 6.3025 7.0362-.1452.7854-.2914 1.6393-.1712 2.3682.1893 1.1437 1.4817 1.6485 2.4645 1.9333 1.1085.3206 2.6897.6926 3.8286.4043 1.0789-.2744 1.6759-1.4641 2.0818-2.5041 2.801.9295 7.0212 2.4531 8.9875 1.0926 1.2069-.8352 1.1027-1.9781.5455-3 1.5855-.3198 2.4693-1.3086 1.9011-3.4336.9143-.7723.9173-2.0835.2308-3.4201.2645-.176.5263-.3859.7906-.6751 1.0461-1.1438 1.115-2.7214 1.8776-4.0285 1.1551-1.9812 2.8934-2.6444 4.5657-4.0025 2.475-2.0078 5.5856-3.7369 7.7496-6.0513 7.0909-7.584 9.0971-20.5641 4.3053-29.7479-5.8256-11.1612-18.3715-15.9163-30.4131-12.6713zm46.2604 15.40662c-2.9339.37947-5.9036.65397-8.7196 1.60757-1.5099.5109-.9518 2.948.574 2.4306 2.8177-.9531 5.7866-1.2279 8.7205-1.6074 1.5913-.2049 1.0086-2.6355-.5748-2.4309m-15.6155-10.8822c2.4621-1.7262 4.5739-3.7789 6.7407-5.8522 1.1622-1.1136-.5319-2.9498-1.6939-1.837-2.0001 1.9153-3.9433 3.8889-6.2187 5.4832-1.301.9126-.1425 3.1284 1.172 2.2059m-13.5883-9.6317c1.0074-2.6316 1.9161-5.2933 2.7256-7.9922.4611-1.5395-1.9254-2.2727-2.3883-.7302-.8095 2.699-1.7173 5.3609-2.7255 7.9922-.575 1.502 1.8155 2.225 2.3883.7302m-18.3357-.1596c.4623 1.5318 2.8973.9702 2.4313-.5749-.8765-2.9019-1.9762-5.845-2.1735-8.8928-.1037-1.5885-2.6018-1.6775-2.4982-.069.2147 3.2925 1.2931 6.3997 2.2405 9.5366m-12.7176 6.2817c-1.8276-2.4587-3.9492-4.611-6.3337-6.5294-1.2518-1.0079-2.578 1.1117-1.3385 2.1088 2.211 1.78 4.1438 3.838 5.8365 6.1144.96 1.2904 2.786-.4169 1.8358-1.6939"/><path d="M463.5304 395.92584c-6.0678-.07887-12.9348 4.3755-15.45778 9.86017-.49757 1.0808 1.07915 2.0966 1.58093 1.0049 2.25523-4.9021 8.3543-9.0628 13.82463-8.9916 1.2028.0151 1.26186-1.858.0522-1.8734"/><path d="M463.7045 399.3426c-1.78276-.28208-3.74965.41394-5.19774 1.43748-.97217.68842-.10402 2.35045.87904 1.65492 1.22502-.86624 2.75287-1.45878 4.2665-1.2189 1.18473.18805 1.22953-1.6868.0522-1.8735"/></g><g opacity="0.0965240036"><path d="M214.78425 471.32436c-.10655 3.41807-.02247 6.88444-.30052 10.29502-.20063 2.47467-1.21543 2.36476-3.49226 2.73696-2.3476.3847-4.71685.67945-7.0969.73274-8.74857.1965-17.59702-.20733-26.3639-.18985-10.36606.02082-20.7288-.2806-31.08904-.59535-3.24418-.09825-8.2682.34556-8.4705-3.8344-.11488-2.3531-.07825-4.73035-.15068-7.08678-.154-5.06508-.30136-10.12017.01332-15.18275.45953-7.45065.21977-14.9571.62936-22.41608 25.3782-.75522 50.77058-.6728 76.14214.24814.0283 3.5272-.13403 7.0593-.15234 10.5848-.04413 8.2525.58856 16.4493.33132 24.7076zm-72.2944-45.7714c1.05308-.0999 2.11117-.12573 3.16675-.19567 4.34723-.2898 8.68113-.4946 13.04-.5271 9.3496-.0683 18.70338.0408 28.053.0816 4.02004.0175 8.04093.0358 12.06015.0516 4.24067.0175 8.84513-.5063 13.04.0449 1.968.2589 2.05707.4205 2.41004 2.428.3246 1.846.2097 4.0201.2905 5.8977.0116.2739.0083.5487.0166.8235-25.3208-.9185-50.6607-1.0017-75.9865-.2498.1015-1.4306.2231-2.8586.3912-4.2833.3188-2.692.8225-3.8153 3.518-4.0717zm74.52962 27.273c-.13153-4.2699-.05328-8.54228.03413-12.81217.05578-2.727.06327-5.4282-.08158-8.1526-.11572-2.1733.26722-4.9435-.32134-7.0377-.59273-2.1083-2.21857-2.2099-4.16408-2.3023-5.04817-.2415-10.14795-.0408-15.20278-.0616-11.28264-.0475-22.56527-.1166-33.84706-.1341-5.94143-.0084-11.85205.139-17.78016.5337-2.1353.1415-5.70333-.2706-7.44488 1.2232-1.15965.9941-1.30117 2.5712-1.54676 3.9593-.54943 3.1074-.6252 6.3557-.75173 9.5031-.2772 6.8844-.15234 13.7755-.5769 20.655-.3455 5.5688-.12654 11.1243.03412 16.6948.0899 3.12-.9074 8.1592 1.73823 10.5048 2.72804 2.4172 8.50214 1.378 11.73716 1.4746 5.9564.1799 11.91365.3489 17.87173.4422 11.16858.1757 22.32134-.2265 33.47993.2081 4.26897.1657 8.96167-.0034 13.17653-.7269 2.5066-.4305 3.2858-1.9293 3.53722-4.3041 1.0406-9.8013.4079-19.8507.10822-29.6677z"/><path d="M143.5654 429.8645c.12655-.45964.487-1.16574 1.0381-1.15408.50783.02165.84165.25313.9915.71942.2489.7702-.19563.9484-.89908 1.0783-.32966.06078-.6077.05745-.92073-.0816-.3264-.1449-.3072-.20734-.2098-.56205zm1.11387 2.53128c1.5276-.18152 3.12847-1.0633 2.86374-2.83855-.2347-1.58205-1.3103-2.6512-2.9395-2.7203-1.5567-.03247-2.6947 1.49796-2.9345 2.91764-.2988 1.7644 1.4053 2.8319 3.0103 2.6412zm6.85216-3.20908c.1282-.5662.84247-.78687 1.3478-.76022.61353.0125 1.03643.3289.94902.9559-.0974.69527-.53695 1.17238-1.27786 1.04665-.5595-.0941-1.1614-.61117-1.019-1.24233zm1.00064 3.11915c1.73656.14405 2.9653-1.12992 3.15178-2.78692.19314-1.71778-1.12552-2.93013-2.80463-2.96594-1.51012-.0783-3.1393 1.0183-3.22254 2.6128-.0874 1.6703 1.2529 3.0051 2.8754 3.1399zm8.25906-4.13167c1.35278-.05412 1.55924 1.8685.2073 2.11496-.53447.09742-1.3503-.12656-1.39192-.7219-.0441-.64533.5445-1.36724 1.1847-1.39306zm.17815 3.99678c1.53926-.09576 2.87123-1.40803 2.8729-2.97843.00166-1.56707-1.50596-2.95345-3.05105-2.89183-1.68162.06744-2.93533 1.48047-3.04605 3.13497-.11905 1.77606 1.57838 2.83687 3.2242 2.7353zm-8.74688 29.66106c1.3869 1.73027 4.42297 2.95428 6.16868 4.38563 1.36777 1.12242 2.63314 2.3456 3.90434 3.57378.5128.49543 2.08454 1.49712 2.29932 2.21238 1.05142 3.5064-1.7707 3.2566-3.5006 2.6862l.492-.3647c.40626-.3006.61105-.8118.33633-1.2814-.23476-.4005-.87244-.6386-1.2812-.3364-.3671.2715-.7334.5429-1.0997.8136-.1332.0983-.23226.224-.31218.3581-.3913-.1973-.7801-.4088-1.1664-.6353.1373-.0982.2739-.1965.422-.2856 1.0323-.6195.0924-2.2398-.9457-1.617-.4063.2432-.7826.5321-1.1405.8427-.4645-.3164-.9241-.6403-1.3778-.9733.2614-.1382.5219-.2764.7825-.4146 1.0655-.5645.1198-2.1824-.9457-1.6178-.4954.2631-.9915.5263-1.4868.7894-.2989-.2306-.5953-.4604-.8858-.6852.1507-.1032.3038-.204.467-.2956 1.0514-.5895.1082-2.2082-.9457-1.617-.3763.2107-.7251.4647-1.0598.7344-.4254-.3205-.8875-.6694-1.3653-1.0441.2381-.1898.487-.358.775-.4937.457-.2165.5752-.8726.3355-1.2823-.2731-.4679-.8217-.5529-1.2812-.3355-.477.2257-.9041.5412-1.2912.9001-.3463-.3064-.686-.6245-1.0082-.9517.2997-.1981.6002-.3972.8999-.5953 1.0006-.6636.0632-2.2865-.9457-1.6179-.3921.2598-.7842.5196-1.1771.7794-.4354-.607-.7726-1.2373-.964-1.8809h.8899c1.2046 0 1.2071-1.8735 0-1.8735h-.9882c.1199-.577.3888-1.1591.84-1.7411.3463.368.6993.7294 1.1122 1.025.4112.2948 1.0422.0716 1.2812-.3356.2755-.4713.0766-.9867-.3364-1.2823.1507.1083-.1515-.139-.1798-.1665-.1191-.1124-.2331-.2306-.3463-.3489-.0658-.0683-.1307-.1374-.1948-.2065.3146-.2589.6268-.5196.934-.7843.3646.3489.7084.7152 1.0231 1.1108.3155.3964.9956.3298 1.3245 0 .3913-.3913.3163-.9276 0-1.3247-.2905-.3656-.6077-.7044-.9407-1.03.4462-.4014.8907-.8044 1.3336-1.2082.3538.3181.7168.6262 1.0539.9601.8574.8493 2.1827-.4747 1.3244-1.3248-.3138-.3114-.6502-.5995-.9807-.8943.5111-.4538 1.0298-.9009 1.5559-1.3398.3338.3897.6934.7494 1.0373 1.1341.8066.9001 2.1278-.4288 1.3253-1.3248-.2931-.3264-.641-.6161-.9174-.9567.2356-.179.4678-.3605.7092-.5337.3455-.2481.6801-.5096 1.0123-.7727.1723.2357.3446.4713.5169.7078.2981.408.8134.6095 1.2812.3356.4029-.2348.636-.871.3364-1.2815-.2206-.3023-.4413-.6037-.6619-.9059.4204-.3156.8583-.60614 1.3128-.8726.0258.0333.05.0666.0824.09827.2773.2706.5545.5412.8309.8118.8633.8435 2.1886-.4796 1.3253-1.3247-.159-.15483-.318-.31053-.477-.4654 1.1638-.4463 2.1628-.44463 2.9312.99.9715 1.8169-.0474 2.2407-1.2862 3.5022-3.0951 3.1533-7.0553 5.32986-10.1829 8.3874-1.1738 1.14907-1.655 2.15076-.5844 3.48635zm13.6785-17.58997c-2.60317-2.11746-6.2461-.32724-8.5654 1.2823-4.36804 3.03255-7.95354 6.83615-12.08182 10.15597-6.27192 5.4889 1.32032 11.47657 5.67087 14.7356 2.9445 2.2049 6.47838 5.23578 10.07636 6.30242 2.3801.70443 6.048-.22482 6.2195-3.21574.1698-2.9601-4.3971-5.9169-6.3834-7.658-1.2154-1.06663-2.4899-2.07082-3.8144-2.99757-.5785-.40467-1.1763-.7827-1.7607-1.1782-1.2812-.8668-1.7898-.68113-1.0039-1.92596 1.9813-3.13996 17.632-10.63142 11.6431-15.50082zm40.02824 19.00715c-3.16926 2.54878-5.89897 5.4964-9.20642 7.8695-1.44685 1.03832-2.72138 2.29314-4.32308 3.09915-1.69826.85515-3.14012 1.50046-4.1674-.4205-.42124-.78685-.45454-1.30727-.27222-1.75357.45287.36137.90074.73024 1.3711 1.06997.4104.2956 1.04393.06994 1.28118-.3364.2764-.47295.07576-.9842-.3355-1.28146-.37877-.274-.74423-.5671-1.10802-.861.11322-.1083.22893-.2173.34964-.3397.27472-.2798.56276-.5438.84913-.8086.38128.4047.75756.8135 1.17963 1.1757.38378.3297.9482.3772 1.32448 0 .33716-.3373.38544-.9942 0-1.3248-.39043-.3348-.74174-.7103-1.09388-1.085.45037-.3714.9074-.7344 1.37026-1.09.38544.4946.76755.9933 1.2046 1.4438.84248.8659 2.16612-.4597 1.32448-1.3248-.3771-.3889-.7126-.8144-1.0456-1.2415.38212-.2848.7634-.5704 1.14384-.8568.35713.333.65433.7061.974 1.0791.32966.3847.9865.338 1.32448 0 .38128-.3814.32966-.9393 0-1.3248-.2664-.3114-.52363-.6187-.805-.9093.49365-.3922.97316-.7985 1.44435-1.2149.238.1757.4595.3655.6659.5837.8316.876 2.1544-.4496 1.3245-1.3248-.1932-.2032-.4004-.3913-.6177-.567.343-.3855.5835-.7611.7043-1.1449.3871.0233.775.0474 1.163.0716.5053.0316.9365-.453.9365-.9368 0-.5329-.4296-.9051-.9366-.9368-.5478-.0333-1.0956-.0675-1.6442-.1016-.0092-.0125-.0142-.0233-.0242-.0358-.2364-.2948-.5328-.5712-.8508-.8402.2997-.1416.5994-.2831.8999-.4247.4578-.2149.5744-.8718.3355-1.2815-.2739-.4688-.8217-.5521-1.2812-.3356-.5669.2664-1.1322.5337-1.6991.8001-.2972-.1857-.5961-.3689-.8983-.5496.2547-.1232.5078-.2465.7617-.3697.4554-.2215.5769-.8693.3355-1.2823-.2714-.4646-.8242-.557-1.2812-.3356-.5128.2489-1.0256.4979-1.5392.7477-.0467.0224-.075.0657-.1149.0965-.2989-.20063-.5828-.403-.8367-.61113-.114-.09323-.2189-.19564-.3313-.2914.3521-.1957.7109-.37886 1.0772-.54956.4578-.214.5744-.87342.3363-1.28142-.2748-.4704-.8217-.5512-1.2812-.3364-.5545.259-1.0872.5546-1.61.8702-.3597-.3323-.716-.6695-1.0706-1.0076.2064-.12658.4204-.2431.636-.33308.4662-.194.8-.6203.6535-1.1524-.1216-.4405-.6818-.8493-1.1522-.6545-.557.2323-1.0448.5187-1.5243.8551-.2614-.2098-.5836-.4546-.8966-.7144.2306-.20234.4736-.3797.7525-.52875 1.0631-.5687.119-2.1857-.9457-1.6178-.3297.1766-.6352.3989-.9249.6395-.8283-3.3564 2.2535-2.8768 3.8777-2.2632 3.3549 1.2649 6.5949 4.0076 9.4145 6.1517 3.2491 2.4722 9.8324 7.0244 4.8017 11.4275zm-4.3464-13.41167c-2.94364-2.20488-6.47836-5.23494-10.07635-6.30158-2.3793-.70526-6.0472.22482-6.2187 3.21574-.1707 2.9601 4.3963 5.916 6.3826 7.6579 1.2154 1.0658 2.4907 2.0708 3.8152 2.9976.5777.4046 1.1763.7827 1.7607 1.1782 1.2803.866 1.789.6811 1.0031 1.9259-1.9813 3.1391-17.632 10.6306-11.6431 15.5008 2.6031 2.1174 6.2461.3272 8.5654-1.2832 4.3688-3.0317 7.9535-6.8362 12.0818-10.1552 6.2719-5.4898-1.3195-11.4774-5.6709-14.7365zM178.6179 460.618c-.46452 2.04335-.96485 4.07837-1.49847 6.10507-.6768 2.57292-1.2146 7.73542-4.42547 7.64217-1.76237-.05163-1.8531-.21483-1.7865-1.35058.2256.0383.45036.1074.6643.1807.4787.16402 1.02397-.1882 1.15217-.65365.14152-.5145-.174-.9883-.6535-1.1532-.34298-.1174-.68846-.1815-1.04227-.2331.03413-.3364.0766-.6736.1257-1.0108.41458.0783.8325.1341 1.25456.1432 1.20626.0275 1.20543-1.846 0-1.8734-.32967-.0066-.64185-.0491-.9582-.1149.03164-.189.0641-.3797.09242-.567.0158-.0991.03496-.1973.05078-.2956.40875.0492.8125.1166 1.21542.2174 1.16964.2923 1.6683-1.5138.49782-1.806-.4612-.1157-.92988-.1923-1.40106-.2523.09407-.5479.17732-1.0966.27888-1.6428.53612.0666 1.06058.199 1.56756.3872.47452.1765 1.02645-.1957 1.15216-.6536.14402-.5245-.17815-.9758-.65433-1.1524-.55194-.2056-1.1197-.3222-1.6966-.4046.08158-.4055.16067-.8118.2464-1.2157.42624.0975.85164.1949 1.2787.2923 1.17297.269 1.67413-1.5371.49783-1.8069-.46952-.1074-.9382-.2148-1.40773-.3214.07742-.3955.16567-.8501.26473-1.353l.8841.2323c1.16714.3073 1.66413-1.4996.49782-1.8068-.33466-.0882-.67015-.1757-1.0048-.2639.0491-.2331.10073-.4696.15317-.7094.5286.1124 1.0564.2256 1.5842.338.4945.1057 1.0131-.1466 1.153-.6537.1273-.4671-.1574-1.0466-.6544-1.1532-.5536-.1174-1.1056-.2356-1.6583-.3538.0907-.3705.1848-.7427.283-1.1133.3621.0791.7284.1324 1.0872.229 1.1663.3106 1.6633-1.4954.4978-1.8069-.3522-.0941-.7135-.1482-1.0689-.2248.0732-.2365.1481-.4704.2247-.6994.3446.0508.6718.1316.9998.2548.4737.1782 1.0264-.1973 1.1513-.6545.1448-.5254-.1782-.9733-.6535-1.1524-.2731-.1016-.547-.1707-.8292-.2215.119-.2764.2414-.5362.3654-.7827.2897.1324.5944.2299.9082.2765.5003.0741 1.0064-.1241 1.1521-.6536.1215-.4413-.1507-1.0783-.6535-1.1524-.1124-.0167-.2056-.0517-.3064-.08.3538-.3372.7251-.5229 1.113-.5121 4.4596.1183.4462 13.4109-.0416 15.5575zm.04163-17.43093c-2.7447-.07744-3.5497 2.36142-4.3081 4.65208-1.68744 5.0967-2.98778 10.33582-3.96927 15.61156-.5128 2.7603-3.96345 14.6016 2.32845 13.8614 2.4758-.2914 4.0268-2.8968 4.7993-4.9776 1.6325-4.3973 2.5216-9.2766 3.4948-13.8613.4745-2.2382.8941-4.4872 1.3245-6.7345.2914-1.5237 1.0939-3.503.8933-5.0809-.3196-2.5188-2.231-3.4089-4.5628-3.4705z"/></g><g opacity="0.0965240036"><path d="M84.273 55.51914c-1.8084 1.1774-6.2808 1.08115-8.4111 1.36793-10.75707 1.4479-21.60976 2.64018-32.31926 4.28908-11.19507 1.72304-22.29682 3.99044-33.5694 5.3174-2.18156.25698-6.4635 1.3843-7.09207-1.40725-.40253-1.78152 1.2711-3.17625 2.34592-4.41116 3.2794-3.76794 7.1882-6.9466 10.7728-10.41015.0991-.0964.1718-.2008.2333-.3078 1.9883.0493 4.1866-.3883 6.0965-.7593 7.7588-1.505 15.6316-2.4862 23.4254-3.838 3.866-.6712 7.739-1.2987 11.6332-1.788 3.899-.49 8.2346-.5956 12.1018-1.3905.026.0173.0456.0373.0731.0536 4.4584 2.6644 9.0767 5.4973 13.3788 8.3957 1.6614 1.1202 4.4446 2.8598 1.3309 4.8882zm-72.41948-17.0335c-.65123-3.7545-1.28338-7.51673-1.69754-11.30707-.38268-3.50047-.73162-6.92243-1.30307-10.39637-.3652-2.2282-.767-5.18867 1.771-6.42657 1.3736-.67064 3.7337-.54828 5.2313-.76716C22.719 8.58262 29.5836 7.5817 36.4472 6.5742c4.44812-.4595 8.92312-.99676 13.31198-1.86583 3.29277-.6528 14.9546-3.45717 16.74525.39533.6341 1.36554.5666 3.4393.77173 4.9408.45593 3.3279 1.01646 6.63436 1.62856 9.93694.48798 2.63473.99234 5.26632 1.4106 7.91338.26177 1.6533.49552 3.31055.68712 4.97288.27414 2.3873.9286 4.28645-1.02468 5.8567-2.19423 1.76388-6.60695 1.5659-9.38825 1.93998-3.0792.41342-6.1638.75865-9.2343 1.23474-6.0176.93232-11.9914 2.1158-18.0112 3.02657-2.8982.4392-5.8209.7348-8.7029 1.2651-2.6166.4812-7.0329 2.1958-9.6838 1.1945-2.864-1.0816-2.6726-6.4075-3.1036-8.8997zm74.91832 11.94584c-1.6826-1.73783-4.039-2.8504-6.12777-4.00897-2.92576-1.6228-5.582-3.6366-8.39375-5.4293 3.01794-2.7398 1.16827-9.363.64634-12.7657-1.1099-7.2392-2.39968-14.4725-3.59836-21.6976-.3449-2.0772-.66678-4.4872-2.76545-5.5965-2.3061-1.2213-6.57072-.0006-9.12478.154-7.1295.4319-14.18375 2.2785-21.3085 3.0132-7.96977 1.1705-15.94185 2.3304-23.9117 3.5001-2.17124.3186-4.23378.3756-5.39647 2.4628-1.4843 2.6639-.5597 6.2101-.05462 8.9846 1.60296 8.8096 1.95986 17.8212 3.81724 26.6287.41623 1.9747 1.43434 3.0937 2.76525 3.6929-2.98043 2.8094-6.07092 5.5056-8.8822 8.4897-2.07917 2.206-4.4924 4.3496-4.02905 7.5747.4064 2.8379 1.92466 4.1061 4.6948 4.0414 5.49223-.1303 11.1771-1.121 16.5723-2.0793 12.4989-2.2199 25.08288-3.5949 37.5847-5.7043 5.4158-.9133 10.86568-1.5245 16.30778-2.2448 3.32598-.4405 9.4986-.1081 11.65715-3.2325 1.3061-1.8921 1.0555-4.2255-.4529-5.7827z"/><path d="M61.11418 9.00432c1.5169 8.4904 2.78336 16.9933 4.1778 25.49164-7.8473.69-15.80943 2.1958-23.54005 3.6203-7.69046 1.41715-15.47815 2.51332-23.20782 3.72326-1.3695-8.77008-2.7391-17.54015-4.1095-26.3101 15.5408-2.33127 31.148-4.17156 46.6797-6.5251zM17.894 43.8354c8.02683-1.26684 16.12658-2.39173 24.11867-3.8639 8.04438-1.48287 16.33917-3.06232 24.49353-3.70888.49715-.0396.87675-.58064.79705-1.05797-1.51028-9.1312-2.8449-18.2686-4.4952-27.39106-.08953-.4936-.54018-.8768-1.05778-.7973-16.14123 2.4669-32.36674 4.3521-48.5171 6.7959-.21894.0333-.37363.1349-.4968.2573-.21574.1758-.3569.4394-.30026.8006 1.4668 9.3895 2.9334 18.7783 4.4001 28.1679.0762.4938.5504.877 1.0578.7973zm18.45634 14.32896c.1247-.7995.27968-1.60495.2955-2.36562.0669-.26586.13388-.5309.20158-.79686.0284-.00735.04877-.0119.0794-.02125 2.4004-.51225 4.8492-.87154 7.2703-1.27235 2.15164-.3562 4.39968-.86386 6.59434-.8721.01518.00037.02602-.0003.03955.0003.1514.26967.302.53944.4524.8084.2098.64318.5951 1.3273.9714 1.9824-5.0959 1.39476-10.6544 1.8497-15.9044 2.53708zM52.2121 51.4837c-.2167-.38743-.5432-.58707-.99018-.55537-5.1516.37086-10.15207 1.55964-15.25045 2.30308-.44894.0657-.69387.3986-.79874.8068-.4429 1.7356-.71986 3.2821-.82293 5.091-.01177.2094.03846.3873.12407.5359.14924.3322.46798.5783.9354.5126 6.10902-.8619 12.69476-1.3107 18.61244-3.1094.4595-.1402.705-.8222.4876-1.2322-.7699-1.4524-1.4958-2.9152-2.2972-4.3522zM36.93425 9.4176c1.1937-.16777.93462-2.02326-.26073-1.85526-1.1937.16776-.93462 2.02325.26073 1.85525"/><path d="M16.37607 18.51734c.8621 1.01397 1.76434 1.99036 2.70762 2.92987.3608.3605.8817.4899 1.3155.1549.364-.2807.5124-.9599.1539-1.3157-.9433-.9395-1.8447-1.916-2.7069-2.9308-.7787-.9164-2.2538.2394-1.4702 1.1618m6.3554 2.207c.9425.7546 2.0678-.743 1.1272-1.4962-1.1112-.8898-2.2222-1.7789-3.3341-2.6678-.9427-.7554-2.0679.743-1.1272 1.4962 1.111.889 2.2222 1.7789 3.334 2.6678"/></g><g opacity="0.0965240036"><path d="M224.42752 73.7804c-1.6067 3.2049-3.9951 6.11006-6.62406 8.84952-5.45942-5.65877-10.99293-11.24176-16.59637-16.7573.1232-.1116.2422-.2265.3662-.33724 3.7745-3.40558 8.488-8.5048 14.1796-6.93024 2.6315.72858 4.7851 3.0209 6.5624 4.98515 2.8845 3.1882 4.2573 5.9077 2.112 10.1901zm-13.89746 15.90716c-.63102-.6345-1.26204-1.27148-1.89057-1.91762.765-.88096 1.5609-1.73444 2.395-2.5521.6768.66862 1.3894 1.3181 2.147 1.9476-.8966.84847-1.7865 1.68862-2.6515 2.52212zM191.845 108.9112c-2.9678 3.0975-5.93393 6.19667-8.90923 9.28668-1.80815 1.87765-3.5289 4.21576-5.7025 5.65377-.13985-1.98257-.31135-3.96763-.60604-5.93188 9.0008-8.82954 17.59367-18.0546 26.04753-27.40788 1.1738 1.184 2.31846 2.3964 3.42317 3.6462-4.77845 4.8902-9.5211 9.8154-14.25293 14.7531zm-26.89833 18.13537c-1.96632-2.53545-5.11893-5.68375-8.155-8.13344.14486-.6628.28555-1.32726.43955-1.9884.5403-2.33394.969-5.04758 1.90306-7.35655 1.98963.1782 5.10478.219 6.84966 1.10993-.6768-.2223-.0125 1.2449.1099 2.2091.19562 1.5288.37294 3.0601.55192 4.5913.0566.488.3821.9576.93655.9368 1.7641-.0674 3.5789.045 5.3354-.1174 1.9114-.1765 1.8448-.5612 2.0563 1.3206.194 1.7137.3264 3.4348.4479 5.1559-.2156.0775-.4354.1457-.661.2015-3.2183.8069-6.5075 1.473-9.8141 2.0709zm9.52193-34.96095c4.61778-4.87107 9.32047-9.6472 14.11473-14.33093 1.3503 1.1815 2.70807 2.3589 4.06585 3.5388-4.74016 4.7586-9.60102 9.4299-14.1855 14.3401-4.08582 4.3773-7.78454 8.971-12.06683 13.1727-.72176-.2107-1.6583-.2382-2.18526-.3331-1.3736-.2482-2.7539-.4572-4.1375-.6387 4.0442-5.6813 9.636-10.7314 14.3944-15.749zm31.0524-7.52976c.91158-.76438 1.75655-1.5987 2.53326-2.49964.5536.61616 1.10803 1.224 1.6708 1.82186-.8325.816-1.6275 1.66615-2.39173 2.54628-.6019-.62283-1.20793-1.244-1.81232-1.8685zm-7.36745-7.21334c-.61604-.55705-1.2404-1.10244-1.8731-1.63784.96153-.89928 1.8806-1.84102 2.7397-2.84105.60772.56455 1.21294 1.13076 1.81316 1.70196-.9124.9076-1.8064 1.8326-2.6797 2.7769zm2.93866 2.75694c-.5153-.5021-1.0281-1.00585-1.5517-1.49712.8608-.92925 1.7407-1.84102 2.639-2.73363.5711.5579 1.1339 1.1241 1.6933 1.6937-.8741.9026-1.7965 1.7536-2.7805 2.5371zm1.337 1.31394c.974-.77604 1.8864-1.61786 2.753-2.5113.0292.03164.06.06078.0891.0916.5253.55704 1.0273 1.10992 1.5235 1.66115-.7883.92342-1.6483 1.7769-2.5782 2.55876-.5919-.6036-1.1888-1.2023-1.7873-1.8002zm-6.1062-11.0361c.4421.40468.8841.80852 1.3262 1.21403-.8832 1.02334-1.8256 1.9884-2.8154 2.90682-.5244-.41966-1.063-.81684-1.6008-1.21735 1.024-.97255 2.0562-1.93927 3.0902-2.9035zm-20.728 45.92544c-.0033 0-.0066-.00166-.0091-.00083-2.3767.1416-4.7551.1449-7.1343.2149-.0791-1.8185-.0699-4.7045-.7317-6.384 4.2856-4.2032 7.9794-8.7954 12.0694-13.1743 4.612-4.941 9.5053-9.6389 14.2729-14.4292 2.4783 2.1691 4.9275 4.3698 7.2817 6.6638-8.3589 9.2492-16.8569 18.3702-25.7486 27.1098zm32.247-23.93568c-5.2862-5.97185-11.4624-11.10104-17.4563-16.3468.4953-.47795.9915-.95507 1.4877-1.43052 6.3677 4.66873 11.7663 10.82793 17.319 16.4076-.2131.21232-.4287.42465-.6368.63615-.2389.2431-.4745.4904-.7134.7335zm6.7007-6.4981c-2.9853-2.47216-5.2621-5.35234-7.9468-8.20004-2.8254-2.9959-5.8532-5.78866-8.8925-8.56475.5544-.51292 1.1088-1.02667 1.6658-1.53626 5.6325 5.5414 11.1935 11.1535 16.6796 16.8398-.4987.4921-1.0023.9784-1.506 1.4613zm7.7221-25.90158c-4.2198-3.93516-8.2199-5.07174-13.6385-2.82855-4.7942 1.98506-8.5421 6.31906-12.3224 9.7671-5.6892 5.19082-11.1735 10.6048-16.5622 16.10535-5.2022 5.31238-10.3144 10.71718-15.3226 16.2119-2.2353 2.45303-4.7552 4.88024-6.6874 7.60138-.0741.07993-.144.16903-.2039.2806-.0791.11658-.129.22982-.1648.34306-1.3303 2.6795-1.8789 5.9552-2.5408 8.8129-1.0581 4.5738-1.938 9.20672-2.3559 13.8871-.0791.89013.8575 1.31728 1.5809 1.20404 7.3026-1.14074 14.5135-2.75694 21.7903-4.0409 2.9603-.5229 4.2498-2.5671 6.3219-4.7112 3.474-3.5921 6.9296-7.20252 10.3869-10.81128 6.4268-6.70708 12.8527-13.415 19.3843-20.0205 5.3845-5.44478 12.9976-11.35167 15.5649-18.84563 1.8948-5.5322-1.3627-9.34912-5.2304-12.95537z"/><path d="M209.2305 64.17024c-.22228-1.18405-2.02794-.68278-1.8065.49793.318 1.6978.7484 3.3623 1.29534 5.0018.37878 1.1374 2.1886.64947 1.80566-.49877-.54694-1.63868-.97734-3.30316-1.2945-5.00096m3.36318-.86117c-.37878-1.13908-2.1886-.65114-1.80565.49793.47035 1.41137.93904 2.8219 1.4094 4.23325.37877 1.13825 2.1886.65115 1.80648-.49793-.4703-1.41136-.9398-2.82272-1.4102-4.23325"/></g><g opacity="0.0965240036"><path d="M597.5716 401.78672c-3.027 5.73807-8.7847 4.158-13.8673 2.65634-8.15592-2.41167-16.54216-4.12405-24.52857-7.0873-3.2181-1.1937-6.82955-3.21643-7.3539-7.0224-.3171-2.29983.6671-5.0464 1.20815-7.25453 1.61202-6.59384 3.73074-13.05976 5.7356-19.54047 2.38256-7.1837 4.53972-14.4302 6.4543-21.75174 1.02296-3.9154 2.26992-7.72924 3.82158-11.46907 1.78687-4.30702 3.89318-11.0484 9.4441-11.4828 3.652-.2853 8.1459 1.57882 11.6767 2.5242 3.63026.9732 7.2368 2.02967 10.79408 3.24436 3.35034 1.1428 7.03628 2.247 10.04083 4.1478 4.78388 3.0255 4.8921 7.0621 3.66837 12.1639-3.97038 16.5486-8.31656 33.065-13.28704 49.3426-1.13847 3.7295-1.98324 8.0729-3.8069 11.5293zm6.43464-11.5879c1.67625-5.51978 3.26095-11.06755 4.7836-16.63167 2.9017-10.59575 5.6865-21.24203 8.26402-31.9221 1.7878-7.4108.3379-12.66822-6.8709-16.13905-8.06733-3.88306-17.1479-6.1177-25.8142-8.2039-3.89134-.93633-7.89983-1.75435-11.268.9852-3.29744 2.6819-4.8725 7.49775-6.44762 11.30007-4.41898 10.67257-6.63847 22.25443-10.27588 33.2208-2.24436 7.25556-4.7254 14.51363-6.2928 21.95525-.97933 4.6497-1.0942 8.41086 2.55193 12.0428 2.5259 2.51803 7.2641 3.50342 10.493 4.5167 5.7649 1.80956 11.6529 3.18565 17.467 4.82303 6.6257 1.86722 15.3301 4.86537 19.1975-3.14604 1.9134-3.9635 2.9372-8.6022 4.2122-12.801z"/><path d="M589.7436 327.73688c3.21683.8163 6.40908 1.71304 9.58194 2.68744 1.15148.35378 1.70162-1.4371.54775-1.79163-3.1729-.9744-6.3652-1.8712-9.582-2.6875-1.1646-.2968-1.7189 1.4936-.5478 1.7916m13.6036 3.7158l.0707-.0376c1.0655-.5667.1865-2.2216-.8793-1.6541-.0239.0127-.0478.0254-.0715.0373-1.0658.5675-.1865 2.2216.88 1.6543m3.6057 1.1616c.0236-.0119.0476-.0246.0707-.0376 1.0661-.5657.187-2.2206-.8793-1.6541-.0242.0135-.0471.0257-.071.0384-1.0656.5667-.1873 2.2213.8795 1.6533m-28.4595 66.3819c-1.0708.6722-4.2504-.5194-5.4253-.862-.8304-.2426-4.3207-1.1408-4.4043-1.8185-.3246-2.6086 5.2647-.4122 6.121-.1408.7945.2316 5.928 1.4301 3.7086 2.8213zm-3.1608-4.6129c-2.4899-.7909-7.1676-2.834-8.5715.6358-1.2957 3.2016 4.1068 4.4572 6.1677 5.0167 1.9755.537 6.7341 2.2556 7.7529-.5953 1.3118-3.673-2.8517-4.3312-5.3492-5.0573zm.4359-3.3992c-6.8033-1.6908-13.4154-3.95-20.1525-5.86 2.7202-9.7745 6.2169-19.2897 9.3831-28.9226 2.9735-9.0483 4.8889-18.4228 8.1462-27.3713 12.7621 4.0794 25.7334 7.4713 38.5738 11.2577-4.8934 19.0779-10.7697 37.9197-15.6601 57.0019-6.8031-1.9336-13.416-4.3977-20.2906-6.1059zm38.0004-51.6268l.0002-.0008c-.005-.0407-.0159-.0763-.0255-.1132-.0476-.3028-.23-.5806-.6147-.6947-13.4073-3.9763-26.9683-7.4841-40.2896-11.7788-.4033-.1303-.7259.014-.9336.2631-.0098.0092-.0191.0168-.0281.0262-.0194.0237-.0319.0503-.0476.076-.0603.0774-.1213.1519-.1603.2566-3.4603 9.2138-5.3902 18.9147-8.4621 28.262-3.2656 9.9351-6.8896 19.7414-9.6436 29.8399-.049.1774-.0364.3328.0001.478.0453.3046.2292.5829.6217.6916 7.043 1.96 13.9302 4.3616 21.0346 6.1122 7.1945 1.772 14.0922 4.4068 21.2274 6.3758.1567.0427.2997.042.4307.0176.3283-.0259.6316-.2179.7387-.6397 5.0115-19.6948 11.1178-39.1211 16.1332-58.8112.0326-.1294.0315-.2481.0181-.3611z"/><path d="M580.20696 336.08558c-2.16003.89208-4.11606 2.17044-5.81506 3.77552-.87755.8288.39273 2.2063 1.26948 1.37725 1.5925-1.50443 3.4022-2.66296 5.42486-3.49866 1.11505-.4611.22746-2.1108-.87928-1.6542m3.70008 1.8182c-1.473.9427-2.9458 1.8847-4.41832 2.8259-1.01062.6462-.13886 2.3049.87904 1.6549 1.47302-.9428 2.94555-1.884 4.41856-2.8268 1.01063-.6462.13862-2.3042-.87928-1.6541"/></g><g opacity="0.0965240036"><path d="M546.51947 178.5344c2.80855-.3408 5.5817.07547 8.37302.2951 1.1847.0937 3.6406-.38053 4.4095.54442.6456.7758.0703 5.06074.0797 6.01155.0319 3.27562.0558 6.5514.0851 9.82706.017 2.00612.0367 4.0131.0582 6.01823.0366 3.33588-.9759 3.9272-4.385 3.9543-2.0615.01706-6.3229.8407-8.81.00067.6766-.58996 1.3028-1.23757 1.8676-1.94445.807-1.0119-.6429-2.42836-1.457-1.40734-.6159.7717-1.3044 1.45824-2.0526 2.07647-.0224-.0428-.0545-.0765-.0733-.1212-.3377-.7757-.4818-1.9664-.5314-3.2101 1.1045-.9909 2.21-1.9819 3.3145-2.9729.9724-.8725-.4899-2.2743-1.4562-1.4073-.6161.5511-1.2322 1.104-1.8474 1.6569.0236-.5569.0533-1.0734.0811-1.4882-.0159-.6013-.0084-1.1994-.0071-1.7983 1.3188-1.3027 2.689-2.5477 4.1243-3.7237 1.0084-.8254-.4584-2.2244-1.4561-1.4064-.8975.7334-1.7655 1.5005-2.6171 2.2854.0254-.7641.0517-1.5282.0842-2.2924 1.2119-1.0289 2.4247-2.0577 3.6358-3.0866.9945-.8441-.4714-2.244-1.457-1.4073-.6921.5875-1.385 1.1751-2.077 1.7626.0164-.4532.0364-.9057.0456-1.3597.009-.3604.0035-.7241-.0055-1.0878 1.0599-.8128 2.1217-1.6247 3.1825-2.4375 1.0235-.7833-.0162-2.5248-1.053-1.7313-.7348.5631-1.4704 1.1271-2.2052 1.6892-.0025-.3467.0005-.6925.0188-1.035.1071-1.9083.1395-1.962 2.1304-2.2039zm7.457 29.31406c3.73168-.0156 7.936.3784 8.27574-4.1942.416-5.57174-.1056-11.41978-.1574-17.01396-.0256-2.7039 1.3828-9.0377-2.0149-10.25986-1.9344-.69478-5.0603-.2773-7.1355-.47882-2.0283-.19783-4.0007-.18142-6.0356-.08466-3.5561.16834-5.3285.3992-5.2783 4.25535.0708 5.4453-.2996 10.8965-.155 16.3422-.1694 2.5155-.4982 7.5634.946 9.6797 2.163 3.1673 8.5509 1.7662 11.5552 1.7543zm18.25688-42.57946c1.22484-1.8882 8.30785-.55026 10.0863-.38138 2.01652.19174 4.14873-.52 4.94297 1.24112.70894 1.56808.06476 5.36072.0851 7.04168.0664 5.30035.13552 10.60065.2019 15.9001.03448 2.59387.06715 5.18777.0989 7.7808.0167 1.36853.8239 5.5744.04922 6.7397-.77462 1.16803-7.23768 1.25203-10.7847 1.11762.96783-.72472 1.93564-1.45034 2.90348-2.17506 1.0336-.7745-.007-2.5151-1.053-1.73048-1.58107 1.1839-3.1639 2.36872-4.74497 3.55262-.7688-.30357-1.13938-.85004-1.31888-1.53942 1.92467-1.5123 3.8098-3.07072 5.63977-4.69573.97705-.86717-.48618-2.269-1.45702-1.40734-1.42037 1.26035-2.87844 2.47542-4.35858 3.66386-.00148-.3945-.00673-.7987-.03536-1.2008-.0297-.412-.0557-.8186-.08443-1.226 1.7621-2.0048 3.70676-3.8164 5.85524-5.4019 1.0391-.7683-.0015-2.508-1.0531-1.7314-1.7725 1.3088-3.4265 2.747-4.9558 4.3217-.0258-.7056-.0328-1.4133-.0254-2.124 1.5445-1.7272 3.2065-3.334 4.9922-4.8123 1.0047-.8299-.4603-2.2298-1.457-1.4065-1.2302 1.0165-2.397 2.0996-3.5125 3.2357-.0196-1.0695-.032-2.1392-.0299-3.2082 1.4166-1.526 2.9721-2.8868 4.7019-4.058 1.0749-.7284.0308-2.4644-1.053-1.7305-1.2903.8735-2.4977 1.8501-3.6317 2.9064.0106-.8359.0266-1.6737.0417-2.5115 1.4406-1.5921 3.0274-3.0184 4.7876-4.2549 1.0611-.7435.0188-2.4822-1.053-1.7305-1.3075.9179-2.5314 1.9344-3.6808 3.0333.008-.4162.016-.8333.0241-1.2495.0066-.4459.0123-.8918.0198-1.3368 1.2569-1.5961 2.696-3.0216 4.3481-4.213 1.0492-.7577.0077-2.4965-1.053-1.7314-1.1764.8499-2.2582 1.8-3.2575 2.8341.0057-.6521.0024-1.304 0-1.956 1.1571-1.2251 2.409-2.3402 3.7838-3.3206 1.0538-.7514.0115-2.4902-1.053-1.7305-1.0111.721-1.9671 1.5077-2.8743 2.3484-.1379-1.0908-.2906-2.4597-.0355-2.8541zm-1.86048 39.74832c1.38 3.02966 5.55053 2.26164 8.20454 2.14597 2.7557-.1193 8.5297.8111 10.8341-1.0258 2.2999-1.8332.9512-8.1783.9198-10.7001-.0747-6.0369-.1531-12.0728-.2296-18.1087-.0377-2.937-.0746-5.8757-.1088-8.8136-.0174-1.3595.3716-3.7798-.471-5.0123-1.4727-2.1509-6.7766-1.3253-8.9988-1.5378-2.3016-.221-7.9172-.9029-9.9562.6654-2.1686 1.6696-.837 7.599-.8502 9.9397-.0378 6.2945-.3312 12.5909-.1466 18.8843-.1487 2.6204.0324 5.1586.2185 7.7688.1205 1.6936-.1531 4.1767.5846 5.7938zm30.52-57.26168c.47493-2.14078 4.3187-1.66754 6.3806-1.60898 1.6989.0478 5.99516-.11995 7.44064.52302 1.6397.73054 1.1853 2.13882 1.2079 4.05208.0553 4.60983.1114 9.22054.1685 13.83034.1321 10.71508.2652 21.43105.3946 32.14708.0184 1.46487.6853 4.65016.0975 5.99593-.9515 2.1735-5.8972 1.5547-7.8108 1.5304-1.1068-.014-2.4063.1204-3.5992.0737.4057-.3853.8067-.7786 1.1801-1.2021.8608-.975-.5927-2.3869-1.457-1.4073-.6498.7363-1.3619 1.4115-2.1181 2.0371-.2102-.1287-.3975-.2848-.5628-.4702.9355-1.0816 1.9076-2.1306 2.9337-3.1265.9367-.9115-.5221-2.3161-1.4579-1.4073-.7835.7621-1.5322 1.5586-2.2644 2.3702-.1079-.6141-.1928-1.2484-.2511-1.9038 1.1666-.9947 2.3341-1.9886 3.4998-2.9833.9928-.8467-.4714-2.2476-1.457-1.4064-.7239.6169-1.4496 1.2348-2.1744 1.8526-.0072-.4114-.0062-.8212-.0026-1.231 1.7706-1.3637 3.5136-2.7639 5.2244-4.2013.9982-.8396-.4668-2.2396-1.4561-1.4073-1.2156 1.0199-2.4516 2.0141-3.6985 2.9949.0291-.6561.0611-1.2987.0955-1.9045-.0101-.3186-.0102-.6383-.0203-.9569 1.3413-1.249 2.7527-2.4075 4.2477-3.4674 1.0575-.7488.0151-2.4876-1.0521-1.7314-1.1277.7987-2.2019 1.6666-3.2505 2.5639-.0144-.7229-.036-1.4438-.045-2.1659 1.2176-.9596 2.4343-1.9201 3.6225-2.9171.9983-.8378-.4676-2.2387-1.4579-1.4073-.7179.6024-1.4597 1.1755-2.1895 1.7637-.0051-.8059-.0065-1.6136-.008-2.4196 1.3154-1.2927 2.7108-2.4842 4.21-3.5595 1.0529-.7532.0114-2.492-1.0521-1.7305-1.1062.7911-2.1499 1.6558-3.166 2.5552.0027-1.1888.0108-2.3776.017-3.5665.9492-.9162 1.9342-1.7934 2.978-2.6005.4371-.3372.6401-.8838.3395-1.3919-.2551-.4305-.9598-.673-1.3916-.3395-.6538.5049-1.2903 1.0275-1.9138 1.5679.0038-.5575.004-1.1149.0059-1.6724 1.5009-1.187 3.0728-2.2744 4.7113-3.2639 1.1146-.6741.066-2.4074-1.0521-1.7314-1.2598.7605-2.4708 1.5867-3.6494 2.4583.0031-.7997.0089-1.6013.0094-2.4019.0002-.09-.0005-.1801-.0002-.2701 1.1306-1.0473 2.2603-2.0945 3.3917-3.1409.9587-.8875-.5028-2.2912-1.457-1.4073-.6459.5975-1.291 1.1951-1.936 1.7926.0003-1.0149.0006-2.0298-.0009-3.0447.9026-.9568 1.8519-1.8649 2.8773-2.6933.4288-.3461.3305-1.0819-.025-1.4323-.4288-.4239-1.0085-.3165-1.432.025-.4972.4013-.9705.8311-1.4392 1.2634-.0054-.8789-.0109-1.7577-.0217-2.6364 1.2995-1.016 2.564-2.0709 3.778-3.1881.9615-.884-.5-2.2877-1.457-1.4073-.7833.7215-1.5915 1.4128-2.4125 2.0882-.0998-.9213-.2338-1.9429-.0711-2.6806zm-1.96772 54.39216c.21256 2.1711.49592 3.49807 2.67802 4.3029 2.17485.80224 4.9318.44613 7.2156.4756 2.7656.03548 5.9004.17618 8.4841-1.02792 3.41334-1.5923 1.90618-7.31598 1.86687-10.54825-.0807-6.6347-.1632-13.2703-.24392-19.9059-.08223-6.72293-.16628-13.44674-.2476-20.1688-.03543-2.855 1.3063-9.9612-2.0361-11.16363-2.32487-.83565-5.8788-.4368-8.39295-.61266-2.28337-.15917-5.60517-.33713-7.8473.31888-3.57148 1.04394-2.07114 6.17067-2.04122 9.12304.1319 12.66296-.27146 25.35148.14484 38.00858-.21 3.7058.058 7.50593.4196 11.19816z"/><path d="M621.00895 209.987c-13.29867.74635-26.61343 1.0355-39.9321.9969-12.6317-.03886-25.27996-.71593-37.9042-.27584-1.2921.04597-4.23863.63232-5.22514.02907-1.1876-.72403-1.1512-3.64693-1.2268-4.7758-.1879-2.82263-.3416-5.64585-.4612-8.47238-.2365-5.60537-.3281-11.21507-.3612-16.82398-.0683-11.44744-.0384-22.8867-.4695-34.3278-.0654-1.736-2.7657-1.69428-2.7002.04714.4744 12.5778.3644 25.154.4967 37.7386.0631 5.9839.2251 11.9679.5545 17.9445.1979 3.5952-.9266 9.9951 3.4951 11.2877 2.2697.6628 5.0759.0834 7.4008-.004 3.2698-.1219 6.5115-.1506 9.7838-.0708 7.1708.1747 14.3427.3134 21.516.3746 15.0354.1257 30.0678-.125 45.0809-.967 1.7315-.0968 1.6933-2.7987-.0471-2.7008"/></g><g opacity="0.0965240036"><path d="M480.87204 86.35482c-3.11848 10.83876-5.39698 21.63338-7.5148 32.6778-9.53776-6.64297-19.70736-12.385-29.57228-18.51756.07326-.09575.13903-.19484.2181-.28893 1.1505-1.36806 2.61567-2.56377 3.89187-3.8161 2.88705-2.83187 5.77243-5.66625 8.65532-8.50063 10.7773-10.5956 21.5363-21.2087 32.2903-31.8268-2.34925 10.17012-5.0823 20.24032-7.9685 30.27222zm-43.08844 35.9027c1.42854-5.2133 2.42502-10.5565 3.68457-15.80642.31884-1.32892.60355-2.58208 1.08222-3.7628 2.1977 1.36557 4.4096 2.71365 6.6282 4.05424-3.9268 5.07174-7.6963 10.27004-11.395 15.51497zm46.71807-66.294C467.50653 69.2936 450.7778 83.1191 434.59352 97.3851c-8.50464-1.9784-16.99512-3.8719-25.60798-5.25244 13.189-6.4273 26.2365-13.14356 39.55705-19.2961 12.0044-5.54385 23.7449-11.78132 35.959-16.87304zm-42.65972 44.10607c-.328.2173-.55443.5961-.60105.9966-.47368.8984-.85496 1.9534-1.2121 3.3856-1.47515 5.9135-2.53823 11.967-4.19154 17.8414-.00583-7.8304.13902-15.6591-.02914-23.4877 14.82068-13.0678 30.09922-25.7617 45.62002-38.0477-9.2472 9.1251-18.49442 18.2511-27.75995 27.3579-2.8563 2.8069-5.715 5.6129-8.5738 8.4173-1.4552 1.4263-2.4742 2.4105-3.2525 3.5363zm48.85338-49.2261c-14.48103 5.3665-28.08628 12.7763-42.08946 19.2294-14.95055 6.8894-29.56644 14.4658-44.39377 21.61-.9099.4388-.7609 2.1341.298 2.2831 9.72173 1.3714 19.26114 3.4697 28.8147 5.6879.18066 9.7529-.0974 19.5042.0641 29.2597.0225 1.2989 1.63833 1.6187 2.32763.6303 5.0615-7.26 10.16044-14.525 15.5949-21.5135 7.54477 4.5488 15.10954 9.0885 22.2772 14.1919.62687.4455 1.69244.0033 1.8348-.7469 2.21523-11.6664 4.57032-23.0356 7.85696-34.4564 3.2999-11.4658 6.3976-22.9815 8.9508-34.6388.1865-.851-.5844-1.8893-1.536-1.5371z"/><path d="M426.02562 91.46903c2.99527-1.65283 5.99138-3.3065 8.98665-4.96016 1.05642-.58203.11238-2.20073-.94487-1.61786-2.9961 1.6537-5.9922 3.3074-8.98748 4.961-1.05642.5821-.11238 2.2008.9457 1.6171m8.51546-2.5629c-1.40856.7328-2.81795 1.4655-4.2265 2.1991-1.06975.5562-.12405 2.1733.9457 1.6171 1.40855-.7327 2.8171-1.4655 4.2265-2.1982 1.06974-.557.1232-2.174-.9457-1.6178"/></g><g opacity="0.0965240036"><path d="M474.1197 296.63812c-1.8123-1.89097-3.57384-3.83024-5.38532-5.72122 4.10164-4.732 8.89673-8.6422 13.17902-13.211.8816-.94257 1.73573-1.91096 2.64896-2.8219.5178-.51707 1.65914-1.443 1.58838-1.44632 1.08056.05412 5.0157 4.14582 5.8257 4.96682.33217.3897-13.7884 15.07617-17.85674 18.23362zm-7.31585-10.53816c.01166-.52458 1.1838-1.45633 1.7324-2.05335 1.85393-2.0142 3.7112-4.0292 5.6692-5.9443 2.07454-2.0308 4.25648-3.9293 6.55496-5.7037 1.233-.9525 1.1347-.547 2.0063.4488-1.9138 1.8419-3.6046 4.1933-5.2996 5.8586-3.1234 3.0667-6.3102 5.8686-9.2522 9.0461-.5652-.6103-1.4135-1.5446-1.411-1.652zm-.5611-3.5205c-3.38653-3.26652-6.48836-5.34818-11.2485-6.15503-8.0501-1.36306-17.91417-5.02844-15.02213-14.65983 1.37526 1.3589 2.75552 2.7128 4.12578 4.0717 1.14217 1.13326 2.90953-.63198 1.7657-1.76606-5.4128-5.37067-10.64995-10.90037-16.00697-16.32016-2.33178-2.35893-5.99054-4.92686-7.6039-7.83618-1.0123-1.8252-1.23456-3.69452 1.23708-3.84856 1.5709-.09825 2.0221.32973 3.1385 1.2948.9399.811 1.7782 1.73692 2.6598 2.60955 4.3348 4.2932 8.2491 8.9669 12.7786 13.0619.6702.6061 1.8556.4046 2.0871-.5512.5778-2.4805 2.3018-3.1425 5.1747-1.9851.875.7211 2.0121.2248 2.132-.8835.5969-2.6437 2.3992-3.0243 5.4062-1.1424.646.6711 1.8573.3522 2.0879-.5513 1.3944-5.4756 7.5673 1.6878 8.9217 3.1608 2.0962 2.2806 3.827 4.8086 4.8476 7.7654 1.5476 4.488 2.4642 8.603 5.3079 12.5157-.1273.1115-.2489.2156-.3654.3089-1.8231 1.463-3.5563 3.0317-5.2263 4.6662-1.4959 1.4646-2.9328 2.9884-4.3572 4.5213-.452.4871-1.1505 1.0824-1.8398 1.7227zm27.705-5.66792c-.0541-.0941-.11903-.18568-.20478-.2731-2.03958-2.06585-4.53703-4.29238-6.96954-5.86195-.3821-.2473-.87327-.2032-1.26038 0-.2772.1465-.54777.3155-.81583.4937-1.04726-1.0717-2.0737-2.4139-3.6471-2.055-.36047.0824-.73092.2822-1.09888.5312-2.40587-3.4647-3.4115-7.1526-4.67272-11.151-1.148-3.6388-3.27582-6.7612-5.86317-9.5124-1.8939-2.0134-4.45378-5.4273-7.40243-5.8278-1.9938-.2715-3.7445.771-4.74682 2.3414-2.88288-1.7769-6.48337-.9368-7.81617 2.1416-2.61733-1.1041-5.49855-.204-6.96122 2.259-5.1464-5.0085-9.5027-11.1502-15.2702-15.3859-4.0675-2.9868-10.4118-.2806-7.9094 5.18 1.69 3.6853 5.5552 6.4389 8.3382 9.2733 1.9663 2.0034 3.9377 3.9693 5.8332 6.0384 1.4777 1.6128 3.0095 3.1807 4.557 4.7337-2.4217 6.8561.1182 13.5191 7.0245 16.5166 3.5339 1.5337 7.2734 2.0866 11.0296 2.7669 3.4507.6245 6.0305 2.8785 8.473 5.2924-.2139.3139-.3763.6261-.4578.9292-.4345 1.6103 1.2571 3.1491 2.4317 4.2998-.1249.1465-.2522.2864-.3746.4355-.4337.5246-.5086 1.2465 0 1.7661 2.3435 2.393 4.557 4.9052 6.8988 7.3007.4146.4247 1.009.4322 1.5127.1957 2.5033-1.1791 4.532-3.7845 6.3918-5.7487 2.2918-2.4222 4.547-4.7911 6.9621-7.0934 1.8007-1.7161 8.2208-6.3357 6.0188-9.5864z"/><path d="M435.71897 237.19776c1.1405-10.53317-12.87267-13.30093-19.27113-7.25664-7.14186 6.74622-3.98842 21.2412 7.33583 20.06963 1.18712-.1224 1.20044-1.99755 0-1.8735-9.73837 1.00753-12.02936-11.27922-6.01135-16.87137 5.3254-4.95017 17.03508-2.94595 16.07356 5.93188-.12986 1.19737 1.74405 1.1882 1.8731 0"/><path d="M426.898 251.6128c-4.74932 1.91678-10.67743.04995-14.1189-3.6021-5.18804-5.5039-3.24336-15.10614 1.4585-20.19537 4.59863-4.97765 11.78795-5.971 17.72854-2.74362 5.36618 2.9169 9.07905 10.8471 5.80406 16.4484-.60937 1.0434 1.00814 1.9868 1.61752.9459 3.54637-6.0676.43872-14.2426-5.05483-18.1245-6.287-4.4422-15.0621-3.9435-20.6315 1.3431-5.6284 5.3432-8.0343 15.0953-3.5889 21.9556 3.4298 5.2949 11.3767 8.1626 17.2823 5.7787 1.1047-.4454.621-2.2581-.497-1.806m58.5543 25.5611c-.6094-1.04-2.2294-.0982-1.6184.9451.517.8827 1.0331 1.7653 1.5501 2.6471.6085 1.04 2.2285.0974 1.6175-.9459-.517-.8818-1.0331-1.7644-1.5493-2.6462m2.7105-.423c-.2065-.4621-.8783-.572-1.2812-.3364-.4753.2781-.5428.8177-.3355 1.2823.388.8677.7751 1.7361 1.163 2.6038.2065.4622.8783.5721 1.2812.3364.4753-.2781.5428-.8176.3363-1.2814-.3879-.8684-.7759-1.7369-1.1638-2.6045"/></g></g></svg>