<?xml version="1.0" encoding="UTF-8"?>
<svg width="972px" height="389px" viewBox="0 0 972 389" version="1.1" xmlns="http://www.w3.org/2000/svg" xmlns:xlink="http://www.w3.org/1999/xlink">
    <!-- Generator: Sketch 43.2 (39069) - http://www.bohemiancoding.com/sketch -->
    <title>Footer</title>
    <desc>Created with Sketch.</desc>
    <defs></defs>
    <g id="Page-1" stroke="none" stroke-width="1" fill="none" fill-rule="evenodd" opacity="0.704200634">
        <g id="Footer" fill="#464643">
            <g id="Group-55" opacity="0.0965240036" transform="translate(143.139062, 344.076681) rotate(-37.000000) translate(-143.139062, -344.076681) translate(114.639062, 289.076681)">
                <path d="M31.297,50.134 C18.897,51.099 7.073,43.526 4.4,31.06 C1.695,18.449 10.204,6.989 22.59,4.446 C35.585,1.083 47.707,10.193 51.798,22.128 C56.823,36.787 45.863,49.001 31.297,50.134 Z M32.232,61.764 C30.787,61.557 29.228,61.619 27.824,61.967 C27.361,59.057 27.19,56.092 27.008,53.148 C28.65,53.254 30.3,53.217 31.94,53.066 C32.132,55.96 32.034,58.87 32.232,61.764 Z M36.499,75.792 C37.103,83.338 37.911,91.411 37.499,98.971 C37.341,101.887 37.196,104.211 34.639,105.751 C32.884,106.807 30.802,106.939 28.795,106.425 C28.721,106.406 28.66,106.378 28.589,106.357 C28.892,106.217 29.186,106.061 29.498,105.94 C30.062,105.721 30.46,105.184 30.284,104.556 C30.133,104.017 29.471,103.549 28.9,103.77 C28.051,104.101 27.229,104.482 26.432,104.91 C26.135,104.519 25.907,104.078 25.734,103.598 C27.17,102.462 28.656,101.396 30.199,100.407 C31.414,99.628 30.287,97.68 29.063,98.465 C27.749,99.306 26.486,100.218 25.245,101.161 C25.197,100.629 25.169,100.087 25.152,99.545 C26.664,98.503 28.177,97.462 29.688,96.421 C30.873,95.605 29.749,93.654 28.552,94.478 C27.393,95.277 26.233,96.075 25.073,96.874 C25.06,96.342 25.043,95.808 25.026,95.275 C26.408,93.969 27.865,92.761 29.442,91.692 C30.634,90.884 29.509,88.934 28.306,89.75 C27.128,90.549 26.001,91.416 24.919,92.336 C24.884,91.468 24.848,90.6 24.813,89.732 C26.243,88.627 27.741,87.615 29.3,86.7 C30.548,85.968 29.417,84.022 28.164,84.757 C26.972,85.457 25.832,86.231 24.713,87.035 C24.697,86.551 24.681,86.067 24.668,85.582 C26.112,84.592 27.555,83.602 28.998,82.611 C30.185,81.797 29.061,79.846 27.863,80.669 C26.781,81.411 25.699,82.153 24.617,82.895 C24.613,82.413 24.616,81.932 24.617,81.45 C24.717,81.395 24.815,81.327 24.906,81.229 C26.385,79.647 28.02,78.263 29.837,77.083 C31.047,76.297 29.92,74.348 28.701,75.14 C27.268,76.071 25.926,77.12 24.68,78.281 C24.703,77.683 24.737,77.086 24.774,76.488 C26.423,75.132 28.212,73.991 30.139,73.06 C31.442,72.429 30.302,70.489 29.003,71.117 C27.59,71.801 26.26,72.609 24.99,73.509 C25.033,72.947 25.079,72.372 25.14,71.795 C26.482,70.854 27.889,70.03 29.377,69.335 C30.687,68.723 29.546,66.782 28.241,67.393 C27.373,67.798 26.531,68.248 25.714,68.738 C26.342,66.698 27.561,65.068 30.153,64.734 C36.079,63.97 36.177,71.771 36.499,75.792 Z M52.495,16.252 C46.766,5.341 34.171,-1.65 21.792,1.553 C11.571,3.652 2.492,11.971 1.071,22.571 C-0.362,33.257 5.18,44.362 14.616,49.587 C17.525,51.197 20.711,52.248 23.987,52.787 C24.214,56.291 24.405,59.824 25.006,63.284 C22.063,65.719 22.194,71.337 21.89,74.76 C21.226,82.264 21.923,89.815 22.086,97.325 C22.25,100.766 21.979,106.126 25.164,108.426 C27.628,110.205 34.013,110.415 36.602,108.817 C40.28,106.547 40.549,100.826 40.516,97.065 C40.451,89.426 40.168,81.496 39.322,73.905 C38.891,70.044 39.005,65.033 35.316,62.785 C34.994,59.416 35.163,56.021 34.905,52.649 C39.362,51.803 43.627,50.004 47.236,47.245 C57.364,39.5 58.181,27.081 52.495,16.252 L52.495,16.252 Z" id="Fill-14"></path>
                <path d="M45.062,39.241 C41.91,43.746 36.239,45.254 31.023,45.359 C21.71,45.548 11.388,39.839 8.971,30.333 C6.177,19.343 16.77,9.254 27.191,8.551 C36.603,8.278 44.241,15.294 46.711,24.178 C48.033,28.936 48.005,35.035 45.062,39.241 Z M27.191,6.301 C15.999,7.056 4.608,17.275 6.454,29.187 C8.22,40.574 20.113,47.83 31.023,47.609 C43.135,47.364 51.23,39.152 49.535,26.777 C48.006,15.604 38.736,5.966 27.191,6.301 L27.191,6.301 Z" id="Fill-16"></path>
                <path d="M19.832,17.295 C18.055,18.718 16.448,20.46 15.333,22.456 C14.701,23.587 14.201,24.831 13.927,26.098 C13.843,26.489 13.864,26.945 13.737,27.323 C13.369,28.417 12.485,30.259 12.499,27.203 C12.849,23.272 14.734,19.761 17.849,17.301 C18.351,16.906 22.221,14.351 22.125,15.7 C22.108,15.935 20.146,17.044 19.832,17.295 Z M19.072,13.839 C13.94,16.432 10.75,21.57 10.249,27.203 C10.241,28.864 10.509,31.395 12.48,31.881 C14.007,32.258 15.255,31.032 15.692,29.72 C16.109,28.467 15.956,27.082 16.324,25.802 C16.839,24.015 17.911,22.405 19.133,21.027 C20.605,19.365 23.077,18.482 24.365,16.793 C25.105,15.822 25.147,14.175 24.236,13.301 C22.88,11.999 20.452,13.141 19.072,13.839 L19.072,13.839 Z" id="Fill-17"></path>
                <path d="M29.794,14.58 C29.538,14.805 29.201,14.922 28.875,14.787 C28.049,14.444 28.223,13.417 28.87,13.023 C29.276,12.885 29.569,12.863 29.802,13.152 C30.014,13.415 30.114,13.878 30.077,14.208 C30.072,14.238 30.065,14.265 30.058,14.276 C30,14.373 29.877,14.508 29.794,14.58 Z M28.06,10.926 C28.043,10.933 28.03,10.943 28.013,10.95 C27.94,10.972 27.866,11.001 27.791,11.04 C25.987,11.985 25.508,14.453 26.838,15.997 C28.229,17.612 30.699,17.324 31.866,15.602 C32.568,14.566 32.405,13.168 31.803,12.119 C31.025,10.76 29.476,10.376 28.06,10.926 L28.06,10.926 Z" id="Fill-18"></path>
            </g>
            <g id="Group-61" opacity="0.0965240036" transform="translate(252.514501, 236.949557) rotate(6.000000) translate(-252.514501, -236.949557) translate(203.014501, 195.949557)">
                <path d="M37.68,78.532 C35.92,78.627 34.171,78.141 33.667,76.263 C33.026,73.867 35.148,71.949 37.467,72.353 C37.485,72.356 37.502,72.354 37.52,72.357 C37.627,72.384 37.742,72.402 37.866,72.407 C39.438,72.47 40.523,73.742 40.824,75.236 C41.225,77.225 39.502,78.436 37.68,78.532 Z M37.866,69.407 L37.852,69.407 C34.134,68.954 30.783,71.177 30.557,75.186 C30.341,79.051 33.51,81.419 37.068,81.534 C40.482,81.646 44.043,79.443 43.893,75.684 C43.761,72.349 41.216,69.54 37.866,69.407 L37.866,69.407 Z" id="Fill-33"></path>
                <path d="M82.148,78.45 C80.095,78.36 78.362,78.099 77.993,75.661 C77.663,73.479 79.106,71.924 81.308,72.183 C83.122,72.205 83.533,72.8 83.942,74.453 C84.306,75.925 84.232,78.542 82.148,78.45 Z M81.308,69.183 C77.676,68.757 74.802,71.753 74.94,75.316 C75.015,77.264 75.929,79.266 77.538,80.415 C78.88,81.374 80.565,81.333 82.148,81.45 C85.619,81.707 87.693,77.773 87.078,74.695 C86.402,71.314 84.994,69.229 81.308,69.183 L81.308,69.183 Z" id="Fill-34"></path>
                <path d="M87.118,51.338 C85.679,55.91 83.098,55.8 78.492,55.914 C77.539,55.938 76.584,55.95 75.63,55.969 C76.322,52.619 76.98,49.25 77.637,45.874 C81.342,45.986 85.046,46.114 88.749,46.263 C88.199,47.953 87.652,49.644 87.118,51.338 Z M54.593,56.058 C54.364,52.459 54.112,48.863 53.866,45.265 C57.244,45.349 60.624,45.429 64.003,45.511 C63.765,49.034 63.545,52.559 63.352,56.086 C60.433,56.089 57.514,56.079 54.593,56.058 Z M24.422,18.22 C27.77,18.344 31.115,18.485 34.455,18.646 C35.177,21.803 35.836,24.973 36.464,28.149 C33.115,27.879 29.764,27.618 26.411,27.373 C26.226,26.685 26.037,25.998 25.857,25.31 C25.283,23.126 24.883,20.668 24.422,18.22 Z M66.046,20.666 C65.726,23.954 65.428,27.243 65.147,30.534 C61.009,30.199 56.872,29.854 52.735,29.503 C52.489,26.221 52.25,22.938 51.99,19.657 C56.085,19.93 60.182,20.22 64.282,20.541 C64.87,20.587 65.458,20.622 66.046,20.666 Z M80.714,21.632 C79.817,24.905 79.014,28.211 78.277,31.539 C74.643,31.282 71.012,31.005 67.382,30.716 C67.663,27.418 67.962,24.12 68.282,20.825 C72.325,21.112 76.37,21.372 80.416,21.62 C80.501,21.626 80.615,21.628 80.714,21.632 Z M52.907,31.768 C56.925,32.108 60.944,32.443 64.964,32.769 C64.674,36.266 64.407,39.764 64.162,43.264 C60.679,43.18 57.197,43.098 53.714,43.011 C53.454,39.263 53.184,35.515 52.907,31.768 Z M38.787,28.339 C38.159,25.14 37.501,21.948 36.785,18.768 C41.102,18.987 45.416,19.237 49.729,19.514 C49.988,22.779 50.225,26.046 50.47,29.313 C46.577,28.983 42.683,28.657 38.787,28.339 Z M41.61,42.675 C40.782,38.666 40.012,34.645 39.234,30.625 C43.038,30.937 46.841,31.255 50.642,31.576 C50.924,35.368 51.197,39.16 51.46,42.953 C48.177,42.87 44.893,42.777 41.61,42.675 Z M44.729,55.941 C43.729,52.299 42.876,48.626 42.087,44.94 C45.262,45.037 48.437,45.127 51.612,45.207 C51.859,48.818 52.112,52.428 52.342,56.039 C49.804,56.017 47.267,55.991 44.733,55.962 C44.731,55.954 44.731,55.949 44.729,55.941 Z M27.031,29.67 C30.326,29.912 33.619,30.169 36.91,30.436 C37.699,34.493 38.47,38.554 39.299,42.603 C36.377,42.506 33.455,42.401 30.534,42.278 C29.381,38.071 28.184,33.875 27.031,29.67 Z M33.943,55.841 C33.108,52.056 32.16,48.296 31.153,44.551 C34.027,44.67 36.902,44.774 39.776,44.867 C40.561,48.576 41.413,52.271 42.404,55.935 C39.579,55.903 36.759,55.869 33.943,55.841 Z M66.408,43.319 C66.65,39.862 66.914,36.406 67.199,32.95 C70.726,33.233 74.255,33.505 77.786,33.757 C77.09,37.017 76.44,40.292 75.801,43.567 C72.67,43.476 69.539,43.396 66.408,43.319 Z M65.602,56.082 C65.794,52.574 66.013,49.07 66.249,45.565 C69.287,45.64 72.326,45.717 75.365,45.804 C74.7,49.219 74.034,52.628 73.328,56.014 C70.757,56.053 68.18,56.073 65.602,56.082 Z M90.166,41.904 C89.936,42.616 89.703,43.328 89.471,44.041 C85.673,43.884 81.873,43.753 78.073,43.638 C78.708,40.389 79.356,37.142 80.052,33.908 C84.18,34.193 88.312,34.447 92.45,34.663 C91.708,37.083 90.944,39.496 90.166,41.904 Z M95.037,23.634 C95.857,25.268 93.99,29.481 93.519,31.119 C93.392,31.565 93.249,32.006 93.118,32.45 C88.922,32.235 84.732,31.977 80.547,31.691 C81.299,28.323 82.117,24.976 83.037,21.667 C87.238,21.691 94.088,21.743 95.037,23.634 Z M7.505,5.994 C6.61,5.679 3.672,4.889 3.213,3.882 C2.862,3.111 3.706,2.522 4.256,2.403 C4.589,2.33 4.979,2.449 5.305,2.504 C6.272,2.666 7.225,2.995 8.15,3.31 C9.204,3.67 10.247,4.071 11.275,4.502 C12.343,4.949 12.875,5.021 12.58,6.236 C12.025,7.722 8.458,6.33 7.505,5.994 Z M93.4,19.679 C84.394,17.836 74.555,18.343 65.414,17.63 C51.534,16.546 37.702,15.699 23.791,15.195 C23.376,13.412 22.876,11.695 22.176,10.172 C20.799,7.176 17.851,6.551 14.97,5.636 C15.073,4.551 14.778,3.719 13.5,3.034 C11.859,2.154 9.964,1.528 8.199,0.958 C5.91,0.218 0.589,-0.863 0.661,3.16 C0.717,6.26 4.784,7.443 7.145,8.248 C9.114,8.92 11.936,9.619 13.638,8.354 C15.472,8.969 17.14,9.302 18.499,10.744 C20.14,12.486 20.222,14.928 20.759,17.249 C21.889,22.139 23.18,26.991 24.504,31.832 C26.72,39.94 29.124,48.012 30.958,56.218 C28.514,57.088 26.687,59.254 26.759,62.09 C26.87,66.529 31.109,67.513 34.744,67.601 C51.718,68.009 68.712,67.733 85.689,67.773 C87.62,67.778 87.623,64.778 85.689,64.773 C75.646,64.749 65.602,64.799 55.558,64.775 C50.216,64.762 44.874,64.726 39.533,64.663 C37.443,64.639 31.923,65.496 30.353,63.57 C28.793,61.656 30.582,59.02 32.742,58.828 C47.223,58.966 61.711,58.777 76.193,58.943 C79.733,58.984 85.801,59.629 88.323,56.468 C89.393,55.126 89.708,53.093 90.211,51.509 C91.294,48.097 92.419,44.699 93.514,41.29 C95.179,36.111 97.518,30.51 98.065,25.055 C98.407,21.646 96.66,20.347 93.4,19.679 L93.4,19.679 Z" id="Fill-35"></path>
                <path d="M27.669,73.052 C28.241,71.738 26.303,70.591 25.726,71.916 C24.461,74.824 24.871,77.92 26.868,80.388 C27.78,81.514 29.363,79.913 28.459,78.797 C27.163,77.196 26.846,74.945 27.669,73.052" id="Fill-36"></path>
                <path d="M23.44,74.716 C23.49,74.11 22.888,73.591 22.315,73.591 C21.666,73.591 21.24,74.109 21.19,74.716 C21.099,75.845 21.26,77.015 21.82,78.01 C22.53,79.273 24.474,78.14 23.762,76.875 C23.395,76.221 23.381,75.448 23.44,74.716" id="Fill-37"></path>
            </g>
            <g id="Group-56" opacity="0.0965240036" transform="translate(588.905076, 271.216541) rotate(17.000000) translate(-588.905076, -271.216541) translate(544.405076, 218.716541)">
                <path d="M36.499,55.81 C35.843,55.881 35.21,55.896 34.624,55.85 C33.092,55.729 28.031,54.088 29.668,51.245 C31.889,47.389 35.64,53.289 36.254,55.013 C36.347,55.276 36.416,55.545 36.499,55.81 Z M52.748,56.155 C52.792,56.032 52.83,55.904 52.875,55.781 C53.433,54.113 54.317,52.642 55.526,51.366 C59.476,50.003 60.221,51.252 57.762,55.114 C56.545,56.273 54.631,56.436 52.748,56.155 Z M71.737,55.977 C70.893,60.014 70.049,62.533 67.46,65.931 C65.358,68.692 63.211,71.514 61.319,74.419 C60.371,75.873 59.55,77.333 59.135,79.034 C58.563,81.384 59.475,83.564 56.291,84.798 C54.808,85.373 52.713,85.471 50.617,85.442 C50.112,76.851 49.649,66.828 52.051,58.35 C56.362,58.707 62.682,56.807 61.575,51.714 C59.99,44.412 53.199,49.58 51.302,53.699 C51.014,54.324 50.751,54.969 50.507,55.624 C49.578,55.326 48.741,54.968 48.115,54.626 C47.579,54.335 46.979,53.949 46.373,53.495 C49.596,50.557 50.897,46.778 47.621,42.963 C44.956,39.859 41.033,41.967 40.185,45.831 C39.582,48.576 40.884,51.282 42.93,53.477 C41.632,54.333 40.135,54.991 38.641,55.396 C36.949,49.605 34.117,46.008 29.363,48.406 C26.6,49.799 26.946,53.659 28.739,55.731 C30.806,58.12 33.955,58.545 37.076,58.002 C37.936,62.012 37.916,66.219 38.134,70.291 C38.398,75.225 38.661,80.159 38.925,85.093 C37.511,84.972 36.116,84.784 34.798,84.49 C32.692,84.02 32.259,84.078 31.393,81.821 C30.822,80.33 30.906,78.721 30.148,77.253 C28.322,73.717 24.584,71.176 22.386,67.808 C19.972,64.109 17.568,59.62 16.643,55.271 C15.181,48.395 17.394,41.075 21.136,35.38 C26.582,27.093 34.955,22.946 44.736,22.182 C53.652,21.486 62.756,26.168 67.699,33.665 C72.111,40.358 73.335,48.324 71.737,55.977 Z M58.125,95.737 C57.383,97.302 56.234,97.96 54.677,97.71 C53.519,97.778 52.362,97.845 51.204,97.912 C49.238,98.025 47.27,98.144 45.302,98.231 C43.753,98.3 30.265,98.753 32.509,95.669 C32.546,95.617 32.572,95.567 32.598,95.515 C36.773,96.453 42.728,96.222 44.549,96.24 C46.369,96.256 53.398,96.746 58.05,95.681 C58.076,95.699 58.097,95.72 58.125,95.737 Z M47.125,102.167 C46.297,102.477 45.111,102.552 44.241,102.565 C43.861,102.571 43.328,102.636 42.979,102.468 C42.652,102.31 42.906,102.519 42.692,102.155 C42.492,101.815 42.398,101.209 42.336,100.656 C44.911,100.587 47.109,100.404 48.039,100.343 C47.964,101.106 47.773,101.925 47.125,102.167 Z M58.137,93.538 C57.245,93.65 56.355,93.76 55.463,93.871 C54.343,93.971 53.215,94.011 52.091,94.038 C49.578,94.099 47.061,94.012 44.549,93.99 C42.519,93.97 40.493,93.94 38.466,93.839 C37.893,93.811 30.272,93.578 31.162,91.305 C34.417,92.852 40.379,92.219 43.192,92.326 C47.98,92.508 54.217,93.417 58.935,91.862 C58.668,92.42 58.403,92.98 58.137,93.538 Z M45.413,88.3 C49.026,88.269 52.691,88.095 56.291,87.798 C57.186,87.725 57.975,87.64 58.672,87.437 C60.873,89.669 54.444,90.137 52.891,90.199 C50.441,90.296 47.99,90.242 45.54,90.161 C43.289,90.087 41.034,90.021 38.786,89.881 C37.262,89.786 29.265,88.823 31.949,87.106 C32.229,87.182 32.533,87.249 32.867,87.308 C36.914,88.021 41.31,88.316 45.413,88.3 Z M44.513,54.957 C46.161,56.306 48.038,57.342 49.766,57.895 C47.275,66.487 47.858,76.879 48.364,85.377 C47.287,85.335 46.269,85.293 45.413,85.3 C44.053,85.305 42.627,85.294 41.191,85.235 C41.102,81.547 41.449,67.346 39.184,57.495 C41.187,56.881 43.064,55.947 44.513,54.957 Z M42.349,46.926 C42.648,45.108 43.66,44.056 45.386,43.772 C46.603,44.741 47.036,45.99 46.685,47.518 C46.748,49.242 45.949,50.773 44.697,52.043 C43.244,50.574 42.123,48.758 42.349,46.926 Z M27.756,24.409 C16.745,31.31 10.147,46.539 14.773,59.059 C16.276,63.124 18.176,67.074 20.676,70.624 C21.969,72.459 23.469,74.06 24.957,75.731 C27.183,78.231 27.809,80.166 28.645,83.195 C28.991,84.448 29.364,85.31 29.915,85.934 C28.958,87.007 28.587,88.513 29.378,89.812 C27.43,92.335 28.296,93.874 30.385,94.812 C27.162,99.634 33.925,100.641 40.096,100.68 C40.205,101.633 40.337,102.665 40.731,103.46 C41.35,104.707 43.012,104.833 44.241,104.815 C45.627,104.794 47.574,104.666 48.781,103.935 C49.924,103.241 50.192,101.665 50.293,100.328 C53.837,100.412 59.22,100.68 61.001,98.427 C62.094,97.044 61.573,95.768 60.574,94.79 C62.283,93.866 62.951,92.42 61.552,90.179 C62.331,88.971 61.874,87.464 60.616,86.17 C60.858,85.875 61.085,85.542 61.287,85.117 C62.087,83.436 61.612,81.6 62.029,79.831 C62.66,77.15 64.424,75.778 65.868,73.631 C68.006,70.456 70.972,67.378 72.645,63.96 C78.127,52.76 75.873,37.148 67.143,28.283 C56.531,17.51 40.449,16.454 27.756,24.409 L27.756,24.409 Z" id="Fill-38"></path>
                <path d="M86.308,25.86 C83.071,27.326 79.756,28.684 76.856,30.768 C75.301,31.885 76.798,34.488 78.369,33.358 C81.271,31.274 84.585,29.916 87.822,28.45 C89.578,27.656 88.055,25.069 86.308,25.86" id="Fill-39"></path>
                <path d="M64.548,18.845 C66.77,15.998 68.475,12.899 70.236,9.757 C71.18,8.07 68.589,6.556 67.645,8.242 C66.02,11.144 64.481,14.093 62.427,16.723 C61.253,18.228 63.362,20.366 64.548,18.845" id="Fill-40"></path>
                <path d="M45.556,12.554 C45.789,9.178 45.898,5.802 45.88,2.418 C45.869,0.488 42.87,0.484 42.88,2.418 C42.898,5.802 42.79,9.178 42.556,12.554 C42.423,14.481 45.423,14.472 45.556,12.554" id="Fill-41"></path>
                <path d="M24.437,18.809 C25.506,20.406 28.106,18.906 27.028,17.295 C25.002,14.27 22.705,11.276 21.408,7.845 C20.731,6.057 17.83,6.832 18.514,8.643 C19.917,12.349 22.247,15.539 24.437,18.809" id="Fill-42"></path>
                <path d="M12.034,30.489 C9.071,28.307 5.878,26.58 2.465,25.214 C0.673,24.496 -0.106,27.396 1.668,28.106 C4.833,29.374 7.776,31.059 10.52,33.079 C12.076,34.224 13.574,31.622 12.034,30.489" id="Fill-43"></path>
                <path d="M34.757,28.214 C27.759,30.254 21.435,37.781 20.463,44.966 C20.271,46.382 22.439,46.995 22.632,45.565 C23.501,39.143 29.046,32.223 35.355,30.384 C36.742,29.979 36.152,27.807 34.757,28.214" id="Fill-44"></path>
                <path d="M36.157,32.077 C34.01,32.379 31.995,33.869 30.691,35.553 C29.816,36.685 31.397,38.289 32.282,37.145 C33.385,35.72 34.932,34.503 36.755,34.247 C38.182,34.047 37.575,31.878 36.157,32.077" id="Fill-45"></path>
            </g>
            <g id="Group-52" opacity="0.0965240036" transform="translate(120.198333, 48.580813) rotate(-8.000000) translate(-120.198333, -48.580813) translate(66.698333, 11.080813)">
                <path d="M102.073,70.122 C99.725,71.22 94.421,70.358 91.839,70.343 C78.801,70.267 65.692,69.871 52.677,70.042 C39.072,70.22 25.487,71.061 11.856,70.755 C9.218,70.696 3.936,71.321 3.655,67.896 C3.474,65.71 5.698,64.331 7.183,63.042 C11.714,59.109 16.895,55.982 21.738,52.462 C21.872,52.364 21.976,52.252 22.067,52.135 C24.424,52.526 27.112,52.373 29.446,52.251 C38.927,51.758 48.456,51.907 57.953,51.602 C62.664,51.45 67.376,51.351 72.09,51.42 C76.81,51.489 81.985,52.088 86.718,51.789 C86.746,51.814 86.766,51.841 86.796,51.865 C91.654,55.779 96.674,59.92 101.307,64.086 C103.096,65.696 106.116,68.23 102.073,70.122 Z M18.775,37.76 C18.628,33.186 18.505,28.606 18.646,24.029 C18.776,19.802 18.933,15.674 18.834,11.447 C18.772,8.736 18.789,5.148 22.015,4.1 C23.761,3.532 26.548,4.072 28.366,4.062 C36.699,4.013 45.032,3.97 53.365,3.919 C58.733,4.116 64.146,4.225 69.512,3.925 C73.538,3.699 87.879,2.313 89.365,7.194 C89.891,8.924 89.464,11.379 89.457,13.199 C89.443,17.233 89.557,21.259 89.733,25.289 C89.873,28.504 90.033,31.718 90.088,34.936 C90.123,36.946 90.124,38.956 90.074,40.965 C90.001,43.85 90.462,46.218 87.876,47.759 C84.971,49.49 79.755,48.517 76.384,48.497 C72.652,48.474 68.925,48.369 65.193,48.422 C57.879,48.525 50.575,48.934 43.262,49.011 C39.741,49.049 36.215,48.912 32.698,49.061 C29.505,49.196 23.965,50.497 20.979,48.863 C17.753,47.098 18.871,40.796 18.775,37.76 Z M105.896,64.489 C104.185,62.141 101.568,60.424 99.277,58.697 C96.068,56.278 93.245,53.439 90.2,50.837 C94.248,48.083 93.155,39.897 93.103,35.763 C92.993,26.968 92.668,18.15 92.45,9.357 C92.387,6.829 92.407,3.909 90.096,2.239 C87.557,0.401 82.28,1.14 79.216,0.897 C70.663,0.219 61.963,1.236 53.365,0.919 C43.689,0.979 34.012,1.026 24.336,1.085 C21.7,1.101 19.237,0.824 17.505,3.112 C15.294,6.032 15.801,10.404 15.938,13.788 C16.372,24.533 15.29,35.31 16.027,46.095 C16.192,48.513 17.216,50.014 18.699,50.949 C14.684,53.792 10.557,56.482 6.714,59.561 C3.872,61.837 0.643,63.983 0.655,67.896 C0.664,71.339 2.258,73.101 5.564,73.487 C12.119,74.25 19.047,74.022 25.625,73.784 C40.864,73.233 56.063,73.701 71.287,73.282 C77.882,73.101 84.467,73.285 91.061,73.338 C95.091,73.37 102.378,74.797 105.468,71.442 C107.338,69.41 107.43,66.593 105.896,64.489 L105.896,64.489 Z" id="Fill-61"></path>
                <path d="M82.301,10.932 C82.686,21.283 82.771,31.607 83.009,41.947 C73.559,41.456 63.836,41.916 54.402,42.318 C45.017,42.718 35.57,42.72 26.173,42.867 C26.01,32.208 25.847,21.549 25.683,10.89 C44.559,10.715 63.432,11.135 82.301,10.932 Z M25.066,45.132 C34.826,44.967 44.649,44.983 54.402,44.568 C64.219,44.149 74.35,43.657 84.158,44.251 C84.756,44.287 85.298,43.707 85.283,43.126 C85.013,32.014 84.953,20.924 84.515,9.799 C84.491,9.197 84.019,8.666 83.39,8.674 C63.777,8.91 44.161,8.44 24.541,8.647 C24.275,8.65 24.074,8.745 23.907,8.87 C23.621,9.043 23.409,9.333 23.416,9.772 C23.591,21.184 23.766,32.595 23.941,44.007 C23.949,44.607 24.449,45.142 25.066,45.132 L25.066,45.132 Z" id="Fill-62"></path>
                <path d="M44.625,65.258 C44.907,64.328 45.226,63.396 45.372,62.494 C45.496,62.189 45.62,61.885 45.745,61.58 C45.78,61.576 45.805,61.574 45.843,61.568 C48.784,61.36 51.757,61.342 54.704,61.27 C57.323,61.206 60.082,60.978 62.694,61.335 C62.712,61.338 62.725,61.339 62.741,61.342 C62.876,61.688 63.01,62.034 63.144,62.379 C63.286,63.179 63.63,64.057 63.968,64.899 C57.673,65.706 50.985,65.318 44.625,65.258 Z M64.61,59.964 C64.417,59.467 64.062,59.175 63.525,59.138 C57.335,58.718 51.188,59.296 44.999,59.328 C44.454,59.331 44.107,59.686 43.914,60.154 C43.097,62.144 42.509,63.937 42.084,66.071 C42.035,66.318 42.065,66.538 42.142,66.729 C42.264,67.149 42.602,67.495 43.169,67.495 C50.58,67.491 58.489,68.058 65.829,66.908 C66.399,66.818 66.805,66.048 66.615,65.524 C65.942,63.668 65.323,61.807 64.61,59.964 L64.61,59.964 Z" id="Fill-63"></path>
                <path d="M53.469,7.382 C54.917,7.382 54.919,5.132 53.469,5.132 C52.021,5.132 52.019,7.382 53.469,7.382" id="Fill-64"></path>
                <path d="M27.493,14.768 C28.349,16.118 29.259,17.43 30.224,18.705 C30.593,19.194 31.191,19.435 31.763,19.109 C32.243,18.836 32.533,18.053 32.166,17.57 C31.201,16.295 30.292,14.983 29.436,13.632 C28.663,12.412 26.715,13.54 27.493,14.768" id="Fill-65"></path>
                <path d="M34.684,18.455 C35.679,19.51 37.268,17.917 36.275,16.864 C35.102,15.62 33.929,14.377 32.755,13.134 C31.76,12.078 30.171,13.672 31.164,14.725 C32.337,15.968 33.51,17.212 34.684,18.455" id="Fill-66"></path>
            </g>
            <g id="Group-60" opacity="0.0965240036" transform="translate(290.000000, 14.000000)">
                <path d="M87.001888,21.3536947 C85.071888,25.2026947 82.202888,28.6916947 79.044888,31.9816947 C72.486888,25.1856947 65.839888,18.4806947 59.108888,11.8566947 C59.256888,11.7226947 59.399888,11.5846947 59.548888,11.4516947 C64.082888,7.36169465 69.744888,1.23769465 76.581888,3.12869465 C79.742888,4.00369465 82.329888,6.75669465 84.464888,9.11569465 C87.929888,12.9446947 89.578888,16.2106947 87.001888,21.3536947 Z M70.307888,40.4576947 C69.549888,39.6956947 68.791888,38.9306947 68.036888,38.1546947 C68.955888,37.0966947 69.911888,36.0716947 70.913888,35.0896947 C71.726888,35.8926947 72.582888,36.6726947 73.492888,37.4286947 C72.415888,38.4476947 71.346888,39.4566947 70.307888,40.4576947 Z M47.862888,63.5446947 C44.297888,67.2646947 40.734888,70.9866947 37.160888,74.6976947 C34.988888,76.9526947 32.921888,79.7606947 30.310888,81.4876947 C30.142888,79.1066947 29.936888,76.7226947 29.582888,74.3636947 C40.394888,63.7596947 50.716888,52.6806947 60.871888,41.4476947 C62.281888,42.8696947 63.656888,44.3256947 64.983888,45.8266947 C59.243888,51.6996947 53.546888,57.6146947 47.862888,63.5446947 Z M15.551888,85.3246947 C13.189888,82.2796947 9.40288798,78.4986947 5.75588798,75.5566947 C5.92988798,74.7606947 6.09888798,73.9626947 6.28388798,73.1686947 C6.93288798,70.3656947 7.44788798,67.1066947 8.56988798,64.3336947 C10.959888,64.5476947 14.701888,64.5966947 16.797888,65.6666947 C15.984888,65.3996947 16.782888,67.1616947 16.929888,68.3196947 C17.164888,70.1556947 17.377888,71.9946947 17.592888,73.8336947 C17.660888,74.4196947 18.051888,74.9836947 18.717888,74.9586947 C20.836888,74.8776947 23.016888,75.0126947 25.126888,74.8176947 C27.422888,74.6056947 27.342888,74.1436947 27.596888,76.4036947 C27.829888,78.4616947 27.988888,80.5286947 28.134888,82.5956947 C27.875888,82.6886947 27.611888,82.7706947 27.340888,82.8376947 C23.474888,83.8066947 19.523888,84.6066947 15.551888,85.3246947 Z M26.989888,43.3376947 C32.536888,37.4876947 38.185888,31.7516947 43.944888,26.1266947 C45.566888,27.5456947 47.197888,28.9596947 48.828888,30.3766947 C43.134888,36.0916947 37.295888,41.7016947 31.788888,47.5986947 C26.880888,52.8556947 22.437888,58.3726947 17.293888,63.4186947 C16.426888,63.1656947 15.301888,63.1326947 14.668888,63.0186947 C13.018888,62.7206947 11.360888,62.4696947 9.69888798,62.2516947 C14.556888,55.4286947 21.273888,49.3636947 26.989888,43.3376947 Z M64.290888,34.2946947 C65.385888,33.3766947 66.400888,32.3746947 67.333888,31.2926947 C67.998888,32.0326947 68.664888,32.7626947 69.340888,33.4806947 C68.340888,34.4606947 67.385888,35.4816947 66.467888,36.5386947 C65.744888,35.7906947 65.016888,35.0446947 64.290888,34.2946947 Z M55.440888,25.6316947 C54.700888,24.9626947 53.950888,24.3076947 53.190888,23.6646947 C54.345888,22.5846947 55.449888,21.4536947 56.481888,20.2526947 C57.211888,20.9306947 57.938888,21.6106947 58.659888,22.2966947 C57.563888,23.3866947 56.489888,24.4976947 55.440888,25.6316947 Z M58.970888,28.9426947 C58.351888,28.3396947 57.735888,27.7346947 57.106888,27.1446947 C58.140888,26.0286947 59.197888,24.9336947 60.276888,23.8616947 C60.962888,24.5316947 61.638888,25.2116947 62.310888,25.8956947 C61.260888,26.9796947 60.152888,28.0016947 58.970888,28.9426947 Z M60.576888,30.5206947 C61.746888,29.5886947 62.842888,28.5776947 63.883888,27.5046947 C63.918888,27.5426947 63.955888,27.5776947 63.990888,27.6146947 C64.621888,28.2836947 65.224888,28.9476947 65.820888,29.6096947 C64.873888,30.7186947 63.840888,31.7436947 62.723888,32.6826947 C62.012888,31.9576947 61.295888,31.2386947 60.576888,30.5206947 Z M53.241888,17.2666947 C53.772888,17.7526947 54.303888,18.2376947 54.834888,18.7246947 C53.773888,19.9536947 52.641888,21.1126947 51.452888,22.2156947 C50.822888,21.7116947 50.175888,21.2346947 49.529888,20.7536947 C50.759888,19.5856947 51.999888,18.4246947 53.241888,17.2666947 Z M28.342888,72.4216947 C28.338888,72.4216947 28.334888,72.4196947 28.331888,72.4206947 C25.476888,72.5906947 22.619888,72.5946947 19.761888,72.6786947 C19.666888,70.4946947 19.677888,67.0286947 18.882888,65.0116947 C24.030888,59.9636947 28.467888,54.4486947 33.380888,49.1896947 C38.920888,43.2556947 44.798888,37.6136947 50.525888,31.8606947 C53.502888,34.4656947 56.444888,37.1086947 59.272888,39.8636947 C49.231888,50.9716947 39.023888,61.9256947 28.342888,72.4216947 Z M67.078888,43.6756947 C60.728888,36.5036947 53.309888,30.3436947 46.109888,24.0436947 C46.704888,23.4696947 47.300888,22.8966947 47.896888,22.3256947 C55.545888,27.9326947 62.030888,35.3296947 68.700888,42.0306947 C68.444888,42.2856947 68.185888,42.5406947 67.935888,42.7946947 C67.648888,43.0866947 67.365888,43.3836947 67.078888,43.6756947 Z M75.127888,35.8716947 C71.541888,32.9026947 68.806888,29.4436947 65.581888,26.0236947 C62.187888,22.4256947 58.550888,19.0716947 54.899888,15.7376947 C55.565888,15.1216947 56.231888,14.5046947 56.900888,13.8926947 C63.666888,20.5476947 70.346888,27.2876947 76.936888,34.1166947 C76.337888,34.7076947 75.732888,35.2916947 75.127888,35.8716947 Z M84.403888,4.76469465 C79.334888,0.0386946506 74.529888,-1.32630535 68.020888,1.36769465 C62.261888,3.75169465 57.759888,8.95669465 53.218888,13.0976947 C46.384888,19.3316947 39.796888,25.8336947 33.323888,32.4396947 C27.074888,38.8196947 20.933888,45.3106947 14.917888,51.9096947 C12.232888,54.8556947 9.20588798,57.7706947 6.88488798,61.0386947 C6.79588798,61.1346947 6.71188798,61.2416947 6.63988798,61.3756947 C6.54488798,61.5156947 6.48488798,61.6516947 6.44188798,61.7876947 C4.84388798,65.0056947 4.18488798,68.9396947 3.38988798,72.3716947 C2.11888798,77.8646947 1.06188798,83.4286947 0.559887983,89.0496947 C0.464887983,90.1186947 1.58988798,90.6316947 2.45888798,90.4956947 C11.230888,89.1256947 19.892888,87.1846947 28.633888,85.6426947 C32.189888,85.0146947 33.738888,82.5596947 36.227888,79.9846947 C40.400888,75.6706947 44.551888,71.3346947 48.704888,67.0006947 C56.424888,58.9456947 64.143888,50.8896947 71.989888,42.9566947 C78.457888,36.4176947 87.602888,29.3236947 90.686888,20.3236947 C92.962888,13.6796947 89.049888,9.09569465 84.403888,4.76469465 L84.403888,4.76469465 Z" id="Fill-70"></path>
                <path d="M68.7468069,9.81219948 C68.4798069,8.39019948 66.3108069,8.99219948 66.5768069,10.4101995 C66.9588069,12.4491995 67.4758069,14.4481995 68.1328069,16.4171995 C68.5878069,17.7831995 70.7618069,17.1971995 70.3018069,15.8181995 C69.6448069,13.8501995 69.1278069,11.8511995 68.7468069,9.81219948" id="Fill-71"></path>
                <path d="M72.7867666,8.77796635 C72.3317666,7.40996635 70.1577666,7.99596635 70.6177666,9.37596635 C71.1827666,11.0709664 71.7457666,12.7649664 72.3107666,14.4599664 C72.7657666,15.8269664 74.9397666,15.2419664 74.4807666,13.8619664 C73.9157666,12.1669664 73.3517666,10.4719664 72.7867666,8.77796635" id="Fill-72"></path>
            </g>
            <g id="Group-62" opacity="0.0965240036" transform="translate(930.787260, 307.332418) rotate(17.000000) translate(-930.787260, -307.332418) translate(897.787260, 254.332418)">
                <path d="M62.369,93.694 C60.907,101.347 53.738,101.554 47.372,101.614 C37.156,101.708 26.921,102.686 16.706,102.087 C12.59,101.846 7.731,100.791 5.792,96.604 C4.62,94.074 4.786,90.574 4.632,87.848 C4.168,79.709 4.331,71.539 4.358,63.392 C4.572,54.305 4.505,45.225 4.133,36.144 C3.933,31.288 4.026,26.47 4.495,21.63 C5.035,16.056 5.087,7.574 11.311,5.126 C15.406,3.516 21.223,4.079 25.611,3.925 C30.123,3.768 34.637,3.715 39.15,3.861 C43.4,3.997 48.022,3.971 52.141,5.099 C58.699,6.894 60.241,11.492 60.627,17.781 C61.878,38.181 62.686,58.676 62.693,79.116 C62.695,83.799 63.25,89.084 62.369,93.694 Z M65.691,78.126 C65.678,71.198 65.55,64.27 65.345,57.345 C64.957,44.157 64.417,30.952 63.627,17.781 C63.078,8.642 59.566,3.113 50.066,1.658 C39.435,0.031 28.219,0.653 17.531,1.3 C12.732,1.591 7.84,2.059 4.933,6.388 C2.087,10.626 1.969,16.71 1.495,21.63 C0.167,35.439 1.685,49.52 1.358,63.392 C1.328,72.513 1.027,81.72 1.84,90.817 C2.348,96.501 3.537,100.861 9.001,103.752 C12.787,105.757 18.576,105.225 22.641,105.255 C29.899,105.309 37.146,104.822 44.4,104.661 C52.667,104.479 63.719,104.866 65.348,94.307 C66.154,89.083 65.701,83.396 65.691,78.126 L65.691,78.126 Z" id="Fill-80"></path>
                <path d="M27.37,11.397 C31.352,11.205 35.334,11.114 39.321,11.119 C40.768,11.121 40.771,8.871 39.321,8.869 C35.334,8.864 31.352,8.955 27.37,9.147 C25.928,9.215 25.92,11.466 27.37,11.397" id="Fill-81"></path>
                <path d="M44.302,10.888 C44.324,10.866 44.347,10.843 44.37,10.82 C45.395,9.795 43.804,8.203 42.779,9.229 C42.756,9.252 42.733,9.275 42.71,9.297 C41.685,10.323 43.276,11.914 44.302,10.888" id="Fill-82"></path>
                <path d="M48.852,10.956 C48.875,10.934 48.898,10.911 48.92,10.888 C49.946,9.864 48.355,8.272 47.329,9.297 C47.306,9.321 47.284,9.343 47.261,9.366 C46.236,10.391 47.826,11.983 48.852,10.956" id="Fill-83"></path>
                <path d="M39.473,97.188 C38.479,98.336 34.408,98.084 32.938,98.103 C31.899,98.116 27.574,98.31 27.24,97.561 C25.951,94.679 33.143,95.239 34.222,95.25 C35.216,95.237 41.534,94.811 39.473,97.188 Z M34.222,93 C31.084,92.966 24.993,92.262 24.599,96.74 C24.235,100.872 30.882,100.417 33.446,100.336 C35.904,100.259 41.974,100.562 42.143,96.93 C42.36,92.251 37.346,92.957 34.222,93 L34.222,93 Z" id="Fill-84"></path>
                <path d="M33.529,88.943 C25.12,89.39 16.731,89.117 8.321,89.289 C8.013,77.108 8.688,64.952 8.942,52.777 C9.18,41.341 8.088,29.902 8.687,18.481 C24.78,18.685 40.872,18.026 56.952,17.866 C58.031,41.495 57.898,65.198 58.982,88.831 C50.488,88.999 42.026,88.491 33.529,88.943 Z M59.05,16.307 L59.05,16.306 C59.03,16.261 59.005,16.224 58.981,16.185 C58.82,15.854 58.513,15.599 58.031,15.603 C41.233,15.744 24.423,16.477 7.612,16.222 C7.103,16.214 6.783,16.493 6.632,16.852 C6.624,16.866 6.616,16.878 6.609,16.892 C6.595,16.926 6.59,16.961 6.581,16.996 C6.539,17.106 6.495,17.213 6.487,17.347 C5.748,29.144 6.938,40.963 6.692,52.777 C6.43,65.334 5.711,77.869 6.094,90.434 C6.1,90.655 6.169,90.829 6.262,90.983 C6.421,91.317 6.73,91.572 7.219,91.559 C15.998,91.337 24.753,91.677 33.529,91.193 C42.416,90.702 51.265,91.306 60.153,91.062 C60.348,91.056 60.512,91.005 60.654,90.931 C61.022,90.786 61.303,90.459 61.278,89.937 C60.118,65.558 60.31,41.103 59.156,16.728 C59.148,16.568 59.105,16.432 59.05,16.307 L59.05,16.307 Z" id="Fill-85"></path>
                <path d="M19.347,24.334 C17.179,26.117 15.381,28.272 13.993,30.712 C13.276,31.972 15.219,33.108 15.935,31.848 C17.236,29.561 18.908,27.595 20.938,25.925 C22.057,25.004 20.458,23.421 19.347,24.334" id="Fill-86"></path>
                <path d="M24.236,25.123 C22.875,26.723 21.514,28.322 20.153,29.92 C19.219,31.017 20.803,32.616 21.744,31.512 C23.105,29.912 24.466,28.314 25.827,26.714 C26.761,25.617 25.177,24.019 24.236,25.123" id="Fill-87"></path>
            </g>
            <g id="Group-63" opacity="0.0965240036" transform="translate(883.733503, 61.435957) rotate(-1.000000) translate(-883.733503, -61.435957) translate(829.733503, 18.935957)">
                <path d="M16.7265038,41.0874216 C20.1068407,40.7370604 23.428784,41.2950431 26.77668,41.6172889 C28.1975894,41.7546219 31.1572766,41.2366496 32.061295,42.3634285 C32.820411,43.3085387 32.0396678,48.441763 32.0310169,49.583681 C32.0007387,53.5176751 31.9607283,57.4516693 31.9272061,61.3856634 C31.9055789,63.7949374 31.8871957,66.2052927 31.8709753,68.6134854 C31.8450226,72.6199307 30.6165957,73.3087582 26.5214787,73.2698292 C24.0451602,73.2471206 18.9097732,74.1468136 15.9403538,73.0859977 C16.7654328,72.3917634 17.5310369,71.6272406 18.2241898,70.7902666 C19.2147172,69.5921178 17.5029215,67.8608576 16.5037433,69.0698201 C15.7478714,69.9835708 14.9065719,70.7935107 13.994984,71.5201858 C13.9690313,71.4682805 13.9311836,71.4271887 13.9095564,71.3731206 C13.5202662,70.4344986 13.3721196,69.0016943 13.3385974,67.5072523 C14.6859741,66.340463 16.0344323,65.1736736 17.381809,64.0068843 C18.5680629,62.9795906 16.8411281,61.2656322 15.6624438,62.2864377 C14.9108974,62.9352548 14.159351,63.5862345 13.4088859,64.2372143 C13.4488963,63.5689328 13.4953948,62.9493125 13.5375679,62.4518861 C13.5310798,61.7295364 13.552707,61.0115122 13.5667647,60.2924066 C15.1779937,58.7557915 16.849779,57.289465 18.598341,55.9074846 C19.826768,54.9375031 18.0944264,53.2267888 16.8789758,54.1881194 C15.7857191,55.0499648 14.7270659,55.9529018 13.6878772,56.8774662 C13.7343758,55.9604714 13.7819557,55.0434766 13.8371052,54.1264818 C15.3142453,52.916438 16.7924669,51.7063942 18.2685257,50.4963504 C19.4807322,49.5036603 17.749472,47.7918646 16.5480791,48.7759038 C15.7046169,49.466894 14.8600734,50.1578841 14.0166112,50.8488743 C14.045808,50.3049493 14.0793302,49.7621057 14.0998761,49.2170994 C14.1182592,48.7845547 14.1193406,48.3476845 14.1160965,47.9108144 C15.4061611,46.9570533 16.6983884,46.0043736 17.9895343,45.0506125 C19.2352631,44.131455 18.0230565,42.0184741 16.7611074,42.9495266 C15.8668212,43.6102386 14.9714536,44.272032 14.0771675,44.9316627 C14.0814929,44.5153384 14.0923065,44.1000955 14.1215033,43.6891781 C14.2901957,41.3999352 14.3302061,41.3361349 16.7265038,41.0874216 Z M25.0681285,76.4436259 C29.550373,76.5031008 34.5916815,77.0643276 35.0955961,71.5807421 C35.7119723,64.8990077 35.2080577,57.8658308 35.2632072,51.1473302 C35.2891599,47.9000008 37.1134172,40.3239802 33.0583105,38.7852025 C30.7496032,37.9103808 26.9864642,38.3461696 24.4982508,38.0606901 C22.0662682,37.7806174 19.6970046,37.7589901 17.2509642,37.8325227 C12.9763412,37.9601234 10.8428144,38.2001857 10.8222686,42.8316582 C10.7930718,49.3717341 10.2340078,55.9096474 10.2934826,62.4518861 C10.0371999,65.4688854 9.53652941,71.5234299 11.2266979,74.0949082 C13.7581657,77.9434747 21.4596242,76.3949647 25.0681285,76.4436259 L25.0681285,76.4436259 Z" id="Fill-97"></path>
                <path d="M47.8881058,25.697481 C49.3987682,23.4558181 57.8777258,25.2108682 60.0101712,25.4509305 C62.4280961,25.7234337 65.0038998,24.9134937 65.9208946,27.0448578 C66.7394855,28.9426477 65.886291,33.4832857 65.8754774,35.5021881 C65.8441179,41.8681648 65.8160025,48.2341416 65.784643,54.5990369 C65.7716667,57.7144402 65.7565276,60.8298434 65.7403072,63.9441653 C65.7316563,65.5878352 66.6129661,70.6550964 65.6581237,72.0381581 C64.7032813,73.4244639 56.9391038,73.3898603 52.6817825,73.1541235 C53.8593855,72.3041731 55.0369884,71.4531414 56.2145914,70.603191 C57.4722151,69.6948472 56.2589272,67.5829476 54.9861644,68.5031865 C53.0624218,69.891655 51.1365165,71.2812049 49.212774,72.6696734 C48.2957792,72.289034 47.8621531,71.6250779 47.6610198,70.7935107 C50.0043308,69.0179147 52.3011432,67.1860879 54.5330738,65.2731589 C55.7247345,64.2523534 53.9967184,62.538395 52.8126273,63.5527123 C51.0802857,65.0363407 49.3036083,66.4648196 47.5009783,67.8608576 C47.5074665,67.3872212 47.5096292,66.9016897 47.4836765,66.418321 C47.4566424,65.9230573 47.4339339,65.4342818 47.4079812,64.9444249 C49.5663793,62.5740799 51.9399683,60.4394718 54.5536197,58.5806109 C55.8177316,57.6798366 54.6044437,55.5690184 53.3251928,56.479525 C51.1689574,58.0139774 49.1522177,59.7063085 47.2825432,61.5651694 C47.2663228,60.7173818 47.2728109,59.8674314 47.2966009,59.014237 C49.1879026,56.972626 51.2176187,55.0780802 53.3933185,53.3403318 C54.6174201,52.3649435 52.8872412,50.6531478 51.672872,51.6209666 C50.1741046,52.8158714 48.7499511,54.0918782 47.3863539,55.4327668 C47.3852726,54.1481091 47.3928421,52.8634513 47.4177134,51.5798749 C49.1511363,49.7772448 51.0478449,48.175748 53.1500121,46.8056627 C54.4562972,45.9535496 53.2386838,43.8470569 51.9215852,44.7056581 C50.3536106,45.727545 48.8829586,46.8748698 47.4988156,48.1195172 C47.5290937,47.1160135 47.56586,46.1103471 47.6015449,45.1046806 C49.365246,43.2231111 51.3008835,41.5437563 53.4408985,40.0958129 C54.730963,39.2253167 53.5155124,37.1155799 52.2124715,37.9958084 C50.6228697,39.070682 49.1316718,40.2655867 47.7280643,41.5610581 C47.7464474,41.061469 47.7648306,40.5607985 47.7832137,40.0612093 C47.8005155,39.5259353 47.8167359,38.9906612 47.8351191,38.4564685 C49.3782223,36.5662481 51.1365165,34.8847306 53.1456867,33.4886925 C54.4216936,32.6008945 53.2073243,30.4911577 51.9172597,31.3876066 C50.4866181,32.3835408 49.1673568,33.5016689 47.945418,34.7225263 C47.9659638,33.9396204 47.9756961,33.1567145 47.9865097,32.3738085 C49.4020123,30.9269465 50.9288951,29.6141733 52.6006804,28.4657671 C53.8820941,27.5855386 52.6666434,25.4758018 51.3722534,26.3657626 C50.1427451,27.2103061 48.9781185,28.1348704 47.870804,29.1253978 C47.7280643,27.8126246 47.5734295,26.1657106 47.8881058,25.697481 Z M44.8202825,73.3876976 C46.4142097,77.0545953 51.4392978,76.2197841 54.629315,76.1365192 C57.9415261,76.0510916 64.8568346,77.2892508 67.6629684,75.1319341 C70.4636954,72.9789428 68.9768229,65.3315524 68.991962,62.3026581 C69.0287283,55.0521275 69.0611692,47.8026782 69.0957727,40.5532289 C69.1119932,37.0258269 69.129295,33.4962621 69.1498408,29.9677786 C69.1574104,28.3349223 69.6753826,25.4368728 68.6891807,23.9391868 C66.9654901,21.3255354 60.5778861,22.2057639 57.9134107,21.9040639 C55.1537755,21.590469 48.4233799,20.6540097 45.9416546,22.4944875 C43.3020505,24.453915 44.777028,31.6017162 44.7121463,34.4121755 C44.534803,41.9698129 44.0503529,49.5242061 44.1401059,57.0850876 C43.9065318,60.2286063 44.0708988,63.2802092 44.2395912,66.418321 C44.3488087,68.4545252 43.9681694,71.4304328 44.8202825,73.3876976 L44.8202825,73.3876976 Z" id="Fill-98"></path>
                <path d="M82.6765952,5.26839452 C83.29189,2.70772986 87.8984911,3.35654692 90.3737282,3.47008991 C92.4131765,3.56308702 97.5766789,3.45170676 99.2992882,4.25407719 C101.253309,5.16566515 100.678024,6.8471827 100.665048,9.14507645 C100.63477,14.6816487 100.605573,20.2193023 100.577458,25.7558745 C100.511495,38.6251609 100.446613,51.4955286 100.377406,64.3658964 C100.368755,66.125272 101.103,69.9641062 100.368755,71.5677657 C99.1803384,74.1576272 93.2533946,73.3109209 90.9555008,73.2417138 C89.6265072,73.2017034 88.0628581,73.3357922 86.6311351,73.2546901 C87.1263988,72.8005182 87.6162557,72.336614 88.0736717,71.8359435 C89.1279995,70.6832118 87.4118783,68.9573584 86.3532252,70.1154969 C85.5573429,70.9859931 84.687928,71.7818754 83.7666078,72.5172014 C83.5168133,72.3582412 83.2951341,72.1668402 83.100489,71.9408355 C84.2467324,70.6615846 85.4362304,69.422344 86.6895287,68.2479851 C87.8336094,67.1731115 86.1110001,65.455909 84.9680007,66.5275386 C84.0109956,67.4261502 83.0950822,68.3669349 82.1986333,69.3261028 C82.0818462,68.5864514 81.9931745,67.8230099 81.9369437,67.0346972 C83.3589344,65.8646638 84.7820065,64.6957117 86.2029159,63.5256783 C87.4129597,62.5297441 85.6838622,60.8168671 84.4824693,61.8063131 C83.6000781,62.5319068 82.7155242,63.2585819 81.8320516,63.985257 C81.8320516,63.4910747 81.8417839,62.9990551 81.8547602,62.5070355 C84.0099142,60.9066201 86.1326274,59.2618688 88.2174928,57.5717004 C89.4340248,56.5844171 87.703846,54.8726214 86.4981276,55.8512538 C85.016662,57.050484 83.5114064,58.2183547 81.9931745,59.370005 C82.0418358,58.5827737 82.0937412,57.8117627 82.1478093,57.0850876 C82.1424024,56.7022855 82.1488906,56.3184021 82.1434838,55.9356001 C83.7806655,54.4638667 85.5000307,53.1024322 87.3177999,51.8610289 C88.603539,50.9840445 87.3880884,48.8743077 86.0904543,49.759943 C84.7192875,50.6953209 83.4108398,51.7150451 82.1326702,52.7704542 C82.1305075,51.9021207 82.1196938,51.0359499 82.1240193,50.1686978 C83.6065663,49.0419188 85.0880319,47.9140585 86.5359753,46.7418623 C87.7525073,45.7567418 86.0212471,44.0438647 84.8144474,45.0214158 C83.9396257,45.7297077 83.0366886,46.4023147 82.1478093,47.0933049 C82.1586229,46.1254861 82.1737619,45.1555046 82.188901,44.1876858 C83.7958046,42.6629657 85.4967866,41.2615209 87.3199626,40.0017344 C88.6002949,39.1193432 87.3859256,37.0096064 86.092617,37.9017299 C84.7474029,38.8284569 83.4757215,39.844937 82.2364809,40.9035901 C82.2645963,39.4761926 82.2991999,38.0487951 82.3316408,36.6213976 C83.4908606,35.5411172 84.6922535,34.5084167 85.9628536,33.5611438 C86.4948836,33.1653654 86.7500849,32.5133042 86.3997237,31.896928 C86.1023492,31.3746303 85.2610498,31.0686049 84.735508,31.4600578 C83.9396257,32.0526441 83.1642893,32.6668576 82.404092,33.3026983 C82.4203124,32.6333354 82.4322074,31.9639724 82.4462651,31.2946095 C84.2737665,29.9007342 86.1845327,28.6279714 88.173157,27.4741584 C89.5259406,26.6880084 88.3029204,24.5847597 86.9458114,25.3730725 C85.4167659,26.2597891 83.9450325,27.2265265 82.5111468,28.2484134 C82.5316927,27.2881642 82.5554826,26.3257522 82.5727844,25.3644216 C82.5749472,25.2562854 82.5760285,25.1481492 82.5781912,25.040013 C83.9580089,23.8061793 85.3367451,22.5723455 86.7176441,21.3395931 C87.8876775,20.2939163 86.1618241,18.5777951 84.9971975,19.6191465 C84.2088848,20.323113 83.4216534,21.0270795 82.6344221,21.731046 C82.6560493,20.5123513 82.6776765,19.2936566 82.697141,18.0749619 C83.8012114,16.9449389 84.9604312,15.8743907 86.209404,14.9011651 C86.7317018,14.4945731 86.6289724,13.6089378 86.209404,13.1807186 C85.7033267,12.6627463 85.004767,12.7795333 84.4889575,13.1807186 C83.8833949,13.6521923 83.3059477,14.1582696 82.7339073,14.667591 C82.7458023,13.6121819 82.7576973,12.5567728 82.7631041,11.5013637 C84.3451364,10.3086217 85.8860769,9.06829977 87.3675425,7.7522825 C88.54082,6.71093112 86.8149666,4.99481 85.6470959,6.03183593 C84.6911721,6.88178628 83.7060516,7.69497032 82.7057919,8.48868986 C82.6052253,7.38029405 82.4657296,6.15078572 82.6765952,5.26839452 Z M79.172983,70.5404721 C79.3827672,73.1519607 79.6952808,74.7512948 82.2991999,75.7634494 C84.8944681,76.7723599 88.2131674,76.4025342 90.9555008,76.4857991 C94.2763628,76.5863657 98.0384204,76.8210212 101.1668,75.4293086 C105.299765,73.5888309 103.609596,66.684336 103.630142,62.8022473 C103.672315,54.8336924 103.712326,46.8640562 103.754499,38.89442 C103.796672,30.8198917 103.836682,22.744282 103.879937,14.6708351 C103.897238,11.2418369 105.657695,2.73692663 101.668552,1.22302016 C98.8937776,0.170855159 94.6169918,0.575284459 91.6010738,0.311432189 C88.8619845,0.0724512383 84.876085,-0.210865544 82.1694365,0.529867265 C77.8580471,1.70855159 79.552541,7.89610361 79.5265883,11.4418888 C79.4195335,26.6501607 78.6690685,41.8778971 78.903724,57.0850876 C78.5739086,61.5305658 78.8161337,66.0993193 79.172983,70.5404721 L79.172983,70.5404721 Z" id="Fill-99"></path>
                <path d="M105.532257,80.4165491 C89.5443237,81.0340066 73.5466578,81.1021324 57.5511545,80.7766425 C42.3807303,80.4652103 27.2038179,79.3870927 12.0323124,79.6509449 C10.4794769,79.6790603 6.92828483,80.3213892 5.75608868,79.576331 C4.34491157,78.6820448 4.44980367,75.1730259 4.38275924,73.8159169 C4.21622952,70.4226036 4.09079156,67.0292904 4.00644534,63.6327331 C3.83991563,56.8969307 3.84748516,50.1589655 3.92534321,43.4231631 C4.08322203,29.6758109 4.35896928,15.9403538 4.0810593,2.19300166 C4.03888619,0.107054815 0.794800898,0.100566644 0.836974007,2.19300166 C1.14299939,17.3061137 0.74722098,32.405168 0.642328889,47.5193614 C0.592586248,54.7060917 0.661793401,61.8949847 0.932133842,69.078471 C1.09433811,73.3995926 -0.390371597,81.0610407 4.89316199,82.7057919 C7.6052173,83.5492541 10.9877169,82.912332 13.7819557,82.8561012 C17.7116244,82.7782432 21.6056081,82.8117654 25.5341954,82.9761324 C34.1429164,83.3362258 42.7538001,83.6530648 51.367928,83.8769067 C69.4234254,84.3429736 87.4832482,84.3570313 105.532257,83.6606344 C107.613879,83.5806136 107.624692,80.3354469 105.532257,80.4165491" id="Fill-100"></path>
            </g>
            <g id="Group-58" opacity="0.0965240036" transform="translate(569.000000, 0.000000)">
                <path d="M93.542,43.661 C89.796,56.678 87.059,69.642 84.515,82.906 C73.058,74.928 60.842,68.032 48.992,60.667 C49.08,60.552 49.159,60.433 49.254,60.32 C50.636,58.677 52.396,57.241 53.929,55.737 C57.397,52.336 60.863,48.932 64.326,45.528 C77.272,32.803 90.196,20.057 103.114,7.305 C100.292,19.519 97.009,31.613 93.542,43.661 Z M41.783,86.779 C43.499,80.518 44.696,74.101 46.209,67.796 C46.592,66.2 46.934,64.695 47.509,63.277 C50.149,64.917 52.806,66.536 55.471,68.146 C50.754,74.237 46.226,80.48 41.783,86.779 Z M97.902,7.162 C77.487,23.171 57.392,39.775 37.951,56.908 C27.735,54.532 17.536,52.258 7.19,50.6 C23.033,42.881 38.706,34.815 54.707,27.426 C69.127,20.768 83.23,13.277 97.902,7.162 Z M46.658,60.132 C46.264,60.393 45.992,60.848 45.936,61.329 C45.367,62.408 44.909,63.675 44.48,65.395 C42.708,72.497 41.431,79.767 39.445,86.822 C39.438,77.418 39.612,68.016 39.41,58.614 C57.213,42.92 75.566,27.675 94.21,12.92 C83.102,23.879 71.994,34.839 60.864,45.776 C57.433,49.147 53.999,52.517 50.565,55.885 C48.817,57.598 47.593,58.78 46.658,60.132 Z M105.342,1.013 C87.947,7.458 71.604,16.357 54.783,24.107 C36.824,32.381 19.267,41.48 1.456,50.06 C0.363,50.587 0.542,52.623 1.814,52.802 C13.492,54.449 24.951,56.969 36.427,59.633 C36.644,71.346 36.31,83.057 36.504,94.773 C36.531,96.333 38.472,96.717 39.3,95.53 C45.38,86.811 51.505,78.086 58.033,69.693 C67.096,75.156 76.183,80.608 84.793,86.737 C85.546,87.272 86.826,86.741 86.997,85.84 C89.658,71.829 92.487,58.175 96.435,44.459 C100.399,30.689 104.12,16.859 107.187,2.859 C107.411,1.837 106.485,0.59 105.342,1.013 L105.342,1.013 Z" id="Fill-102"></path>
                <path d="M27.659,49.803 C31.257,47.818 34.856,45.832 38.454,43.846 C39.723,43.147 38.589,41.203 37.319,41.903 C33.72,43.889 30.121,45.875 26.523,47.861 C25.254,48.56 26.388,50.504 27.659,49.803" id="Fill-104"></path>
                <path d="M37.888,46.725 C36.196,47.605 34.503,48.485 32.811,49.366 C31.526,50.034 32.662,51.976 33.947,51.308 C35.639,50.428 37.331,49.548 39.024,48.668 C40.309,47.999 39.172,46.057 37.888,46.725" id="Fill-105"></path>
            </g>
            <g id="Group-53" opacity="0.0965240036" transform="translate(712.000000, 142.000000)">
                <path d="M80.626,90.839 C78.449,88.568 76.333,86.239 74.157,83.968 C79.084,78.285 84.844,73.589 89.988,68.102 C91.047,66.97 92.073,65.807 93.17,64.713 C93.792,64.092 95.163,62.98 95.078,62.976 C96.376,63.041 101.103,67.955 102.076,68.941 C102.475,69.409 85.513,87.047 80.626,90.839 Z M71.838,78.183 C71.852,77.553 73.26,76.434 73.919,75.717 C76.146,73.298 78.377,70.878 80.729,68.578 C83.221,66.139 85.842,63.859 88.603,61.728 C90.084,60.584 89.966,61.071 91.013,62.267 C88.714,64.479 86.683,67.303 84.647,69.303 C80.895,72.986 77.067,76.351 73.533,80.167 C72.854,79.434 71.835,78.312 71.838,78.183 Z M71.164,73.955 C67.096,70.032 63.37,67.532 57.652,66.563 C47.982,64.926 36.133,60.524 39.607,48.957 C41.259,50.589 42.917,52.215 44.563,53.847 C45.935,55.208 48.058,53.088 46.684,51.726 C40.182,45.276 33.891,38.635 27.456,32.126 C24.655,29.293 20.26,26.209 18.322,22.715 C17.106,20.523 16.839,18.278 19.808,18.093 C21.695,17.975 22.237,18.489 23.578,19.648 C24.707,20.622 25.714,21.734 26.773,22.782 C31.98,27.938 36.682,33.551 42.123,38.469 C42.928,39.197 44.352,38.955 44.63,37.807 C45.324,34.828 47.395,34.033 50.846,35.423 C51.897,36.289 53.263,35.693 53.407,34.362 C54.124,31.187 56.289,30.73 59.901,32.99 C60.677,33.796 62.132,33.413 62.409,32.328 C64.084,25.752 71.499,34.355 73.126,36.124 C75.644,38.863 77.723,41.899 78.949,45.45 C80.808,50.84 81.909,55.782 85.325,60.481 C85.172,60.615 85.026,60.74 84.886,60.852 C82.696,62.609 80.614,64.493 78.608,66.456 C76.811,68.215 75.085,70.045 73.374,71.886 C72.831,72.471 71.992,73.186 71.164,73.955 Z M104.444,67.148 C104.379,67.035 104.301,66.925 104.198,66.82 C101.748,64.339 98.748,61.665 95.826,59.78 C95.367,59.483 94.777,59.536 94.312,59.78 C93.979,59.956 93.654,60.159 93.332,60.373 C92.074,59.086 90.841,57.474 88.951,57.905 C88.518,58.004 88.073,58.244 87.631,58.543 C84.741,54.382 83.533,49.953 82.018,45.151 C80.639,40.781 78.083,37.031 74.975,33.727 C72.7,31.309 69.625,27.209 66.083,26.728 C63.688,26.402 61.585,27.654 60.381,29.54 C56.918,27.406 52.593,28.415 50.992,32.112 C47.848,30.786 44.387,31.867 42.63,34.825 C36.448,28.81 31.215,21.434 24.287,16.347 C19.401,12.76 11.78,16.01 14.786,22.568 C16.816,26.994 21.459,30.301 24.802,33.705 C27.164,36.111 29.532,38.472 31.809,40.957 C33.584,42.894 35.424,44.777 37.283,46.642 C34.374,54.876 37.425,62.878 45.721,66.478 C49.966,68.32 54.458,68.984 58.97,69.801 C63.115,70.551 66.214,73.258 69.148,76.157 C68.891,76.534 68.696,76.909 68.598,77.273 C68.076,79.207 70.108,81.055 71.519,82.437 C71.369,82.613 71.216,82.781 71.069,82.96 C70.548,83.59 70.458,84.457 71.069,85.081 C73.884,87.955 76.543,90.972 79.356,93.849 C79.854,94.359 80.568,94.368 81.173,94.084 C84.18,92.668 86.617,89.539 88.851,87.18 C91.604,84.271 94.313,81.426 97.214,78.661 C99.377,76.6 107.089,71.052 104.444,67.148 L104.444,67.148 Z" id="Fill-107"></path>
                <path d="M34.498,19.453 C35.868,6.803 19.035,3.479 11.349,10.738 C2.77,18.84 6.558,36.248 20.161,34.841 C21.587,34.694 21.603,32.442 20.161,32.591 C8.463,33.801 5.711,19.045 12.94,12.329 C19.337,6.384 33.403,8.791 32.248,19.453 C32.092,20.891 34.343,20.88 34.498,19.453" id="Fill-110"></path>
                <path d="M23.902,36.765 C18.197,39.067 11.076,36.825 6.942,32.439 C0.71,25.829 3.046,14.297 8.694,8.185 C14.218,2.207 22.854,1.014 29.99,4.89 C36.436,8.393 40.896,17.917 36.962,24.644 C36.23,25.897 38.173,27.03 38.905,25.78 C43.165,18.493 39.432,8.675 32.833,4.013 C25.281,-1.322 14.74,-0.723 8.05,5.626 C1.289,12.043 -1.601,23.755 3.739,31.994 C7.859,38.353 17.405,41.797 24.499,38.934 C25.826,38.399 25.245,36.222 23.902,36.765" id="Fill-111"></path>
                <path d="M94.239,67.463 C93.507,66.214 91.561,67.345 92.295,68.598 C92.916,69.658 93.536,70.718 94.157,71.777 C94.888,73.026 96.834,71.894 96.1,70.641 C95.479,69.582 94.859,68.522 94.239,67.463" id="Fill-112"></path>
                <path d="M97.495,66.955 C97.247,66.4 96.44,66.268 95.956,66.551 C95.385,66.885 95.304,67.533 95.553,68.091 C96.019,69.133 96.484,70.176 96.95,71.218 C97.198,71.773 98.005,71.905 98.489,71.622 C99.06,71.288 99.141,70.64 98.893,70.083 C98.427,69.04 97.961,67.997 97.495,66.955" id="Fill-113"></path>
            </g>
            <g id="Group-64" opacity="0.0965240036" transform="translate(0.000000, 135.000000)">
                <path d="M86.838,36.948 C89.519,31.518 87.725,24.25 82.301,20.875 C77.067,17.617 71.363,18.785 67.442,22.508 C66.63,5.836 44.897,-2.892 30.036,2.001 C13.094,7.579 8.705,26.191 16.647,40.321 C8.178,38.239 -0.532,44.792 0.866,54.889 C2.683,68.028 16.292,68.655 26.837,68.373 C28.764,68.323 28.772,65.323 26.837,65.373 C19.774,65.562 10.45,66.33 5.875,59.809 C3.519,56.449 2.845,51.349 4.814,47.635 C7.801,41.997 15.274,41.456 19.968,45.116 C21.474,46.29 23.362,44.498 22.089,42.994 C11.446,30.418 14.167,10.395 30.834,4.894 C44.935,0.241 68.019,9.227 64.059,27.345 C63.715,28.916 66.03,30.115 66.8,28.501 C69.065,23.76 73.694,20.416 79.092,22.647 C85.222,25.18 87.298,33.614 82.137,38.22 C81.061,39.18 82.192,41.278 83.596,40.727 C95.865,35.915 103.478,54.329 93.259,61.418 C88.104,64.995 80.778,65.618 74.653,65.493 C72.721,65.453 72.722,68.453 74.653,68.493 C84.022,68.685 97.293,66.818 100.581,56.437 C103.522,47.157 96.217,36.476 86.838,36.948" id="Fill-118"></path>
                <path d="M37.094,77.671 C37.034,71.856 37.19,66.039 37.1,60.225 C37.091,59.62 36.592,59.094 35.975,59.1 C35.438,59.105 34.901,59.102 34.364,59.1 C36.331,56.599 38.397,54.181 40.45,51.748 C42.498,54.195 44.553,56.634 46.541,59.129 C46.117,59.122 45.695,59.116 45.258,59.1 C44.653,59.076 44.129,59.634 44.133,60.225 C44.173,66.042 44.054,71.861 44.124,77.678 C41.783,77.779 39.436,77.759 37.094,77.671 Z M41.247,49.211 C40.881,48.773 40.022,48.776 39.657,49.211 C36.766,52.665 33.809,56.053 31.104,59.657 C30.577,60.359 31.294,61.357 32.076,61.35 C33.003,61.341 33.93,61.348 34.857,61.35 C34.915,67.151 34.76,72.953 34.85,78.754 C34.857,79.192 35.077,79.481 35.367,79.655 C35.532,79.775 35.723,79.867 35.975,79.879 C39.065,80.02 42.169,80.069 45.258,79.879 C45.858,79.843 46.394,79.394 46.383,78.754 C46.287,72.962 46.404,67.168 46.384,61.375 C47.195,61.391 47.998,61.393 48.828,61.35 C49.58,61.311 50.362,60.383 49.8,59.657 C47.047,56.093 44.131,52.669 41.247,49.211 L41.247,49.211 Z" id="Fill-119"></path>
                <path d="M55.515,75.057 C56.048,75.054 56.582,75.052 57.117,75.057 C57.731,75.063 58.232,74.536 58.242,73.932 C58.331,68.116 58.175,62.3 58.235,56.486 C60.577,56.398 62.924,56.377 65.266,56.478 C65.196,62.295 65.314,68.115 65.275,73.932 C65.27,74.523 65.793,75.08 66.4,75.057 C66.807,75.041 67.201,75.036 67.598,75.029 C65.585,77.475 63.629,79.965 61.596,82.395 C59.575,79.944 57.492,77.544 55.515,75.057 Z M69.97,72.807 C69.14,72.764 68.335,72.765 67.525,72.781 C67.544,66.988 67.429,61.194 67.525,55.402 C67.534,54.767 66.999,54.314 66.4,54.277 C63.311,54.088 60.206,54.136 57.117,54.277 C56.867,54.288 56.676,54.38 56.513,54.498 C56.22,54.671 55.998,54.961 55.992,55.402 C55.902,61.203 56.057,67.005 55.997,72.807 C55.071,72.809 54.145,72.816 53.217,72.807 C52.436,72.799 51.718,73.798 52.245,74.499 C54.952,78.1 57.968,81.443 60.798,84.945 C61.16,85.393 62.025,85.371 62.389,84.945 C65.251,81.595 67.904,78.076 70.766,74.727 C71.405,73.979 70.979,72.859 69.97,72.807 L69.97,72.807 Z" id="Fill-120"></path>
                <path d="M34.827,11.824 C36.252,11.674 36.268,9.422 34.827,9.574 C26.613,10.442 19.729,19.565 21.673,27.665 C22.011,29.074 24.181,28.477 23.843,27.068 C22.275,20.532 28.114,12.533 34.827,11.824" id="Fill-121"></path>
                <path d="M34.979,14.261 C32.803,14.621 30.856,15.615 29.226,17.091 C28.151,18.066 29.745,19.653 30.817,18.682 C32.176,17.45 33.775,16.729 35.577,16.43 C37.002,16.194 36.398,14.026 34.979,14.261" id="Fill-122"></path>
            </g>
        </g>
    </g>
</svg>