<?xml version="1.0" encoding="UTF-8"?>
<svg width="202px" height="13px" viewBox="0 0 202 13" version="1.1" xmlns="http://www.w3.org/2000/svg" xmlns:xlink="http://www.w3.org/1999/xlink">
    <!-- Generator: Sketch 41.2 (35397) - http://www.bohemiancoding.com/sketch -->
    <title>Group 5</title>
    <desc>Created with Sketch.</desc>
    <defs></defs>
    <g id="Page-1" stroke="none" stroke-width="1" fill="none" fill-rule="evenodd">
        <g id="Full-Size-Copy-6" transform="translate(-14.000000, -19.000000)" fill="#FFFFFF">
            <g id="Group-5" transform="translate(14.000000, 19.000000)">
                <g id="Group">
                    <rect id="Rectangle-13" x="0" y="0" width="5" height="5"></rect>
                    <rect id="Rectangle-13" x="8" y="0" width="5" height="5"></rect>
                    <rect id="Rectangle-13" x="16" y="0" width="5" height="5"></rect>
                    <rect id="Rectangle-13" x="0" y="8" width="5" height="5"></rect>
                    <rect id="Rectangle-13" x="8" y="8" width="5" height="5"></rect>
                    <rect id="Rectangle-13" x="16" y="8" width="5" height="5"></rect>
                </g>
                <path d="M34.5406125,0.017310253 L33,0.017310253 L33,13 L36.4274301,13 L36.4274301,6.35286285 L39.8375499,9.43408788 L43.2303595,6.3355526 L43.2303595,13 L46.6577896,13 L46.6577896,0.017310253 L45.1171771,0.017310253 L39.8375499,4.82956059 L34.5406125,0.017310253 Z M49.2543276,13 L52.6644474,13 L52.6644474,0.017310253 L49.2543276,0.017310253 L49.2543276,13 Z M66.0279627,1.90412783 C64.8508655,0.727030626 63.241012,0.017310253 61.4580559,0.017310253 C57.8748336,0.017310253 54.9667111,2.92543276 54.9667111,6.50865513 C54.9667111,10.0918775 57.8748336,13 61.4580559,13 C63.2583222,13 64.885486,12.2556591 66.0625832,11.0785619 L63.6391478,8.689747 C63.10253,9.2436751 62.3408788,9.55525965 61.4580559,9.55525965 C59.6924101,9.55525965 58.4114514,8.27430093 58.4114514,6.50865513 C58.4114514,4.74300932 59.6924101,3.4620506 61.4580559,3.4620506 C62.3408788,3.4620506 63.10253,3.77363515 63.6391478,4.310253 L66.0279627,1.90412783 Z M68.6591212,0.017310253 L68.6591212,13 L72.069241,13 L72.069241,8.04926764 L76.1890812,8.04926764 L76.1890812,13 L79.5992011,13 L79.5992011,0.017310253 L76.1890812,0.017310253 L76.1890812,4.6391478 L72.069241,4.6391478 L72.069241,0.017310253 L68.6591212,0.017310253 Z M84.7576565,13 L85.5366178,11.3035952 L90.8508655,11.3035952 L91.6471372,13 L95.057257,13 L88.9467377,0.017310253 L87.4061252,0.017310253 L81.3475366,13 L84.7576565,13 Z M88.2023968,5.57390146 L89.517976,8.43009321 L86.8695073,8.43009321 L88.2023968,5.57390146 Z M96.7882823,13 L104.85486,13 L104.85486,10.2130493 L100.198402,10.2130493 L100.198402,7.82423435 L104.318242,7.82423435 L104.318242,4.95073236 L100.198402,4.95073236 L100.198402,2.83888149 L104.85486,2.83888149 L104.85486,0.017310253 L96.7882823,0.017310253 L96.7882823,13 Z M107.295606,13 L115.379494,13 L115.379494,9.57256991 L110.705726,9.57256991 L110.705726,0.017310253 L107.295606,0.017310253 L107.295606,13 Z M125.609854,13 L130.422104,13 C134.005326,13 136.913449,10.0918775 136.913449,6.50865513 C136.913449,2.92543276 134.005326,0.017310253 130.422104,0.017310253 L125.609854,0.017310253 L125.609854,13 Z M129.002663,3.49667111 L130.439414,3.49667111 C132.135819,3.49667111 133.520639,4.88149134 133.520639,6.56058589 C133.520639,8.25699068 132.135819,9.64181092 130.439414,9.64181092 L129.002663,9.64181092 L129.002663,3.49667111 Z M139.267643,13 L147.334221,13 L147.334221,10.2130493 L142.677763,10.2130493 L142.677763,7.82423435 L146.797603,7.82423435 L146.797603,4.95073236 L142.677763,4.95073236 L142.677763,2.83888149 L147.334221,2.83888149 L147.334221,0.017310253 L139.267643,0.017310253 L139.267643,13 Z M160.715047,13 L160.715047,0.017310253 L157.304927,0.017310253 L157.304927,6.14513981 L151.159787,0.017310253 L149.774967,0.017310253 L149.774967,13 L153.185087,13 L153.185087,6.85486019 L159.312916,13 L160.715047,13 Z M163.051931,3.39280959 L166.42743,3.39280959 L166.42743,13 L169.83755,13 L169.83755,3.39280959 L173.28229,3.39280959 L173.28229,0 L163.051931,0 L163.051931,3.39280959 Z M175.376831,6.52596538 C175.376831,10.1091877 178.267643,13 181.850866,13 C185.434088,13 188.34221,10.1091877 188.34221,6.52596538 C188.34221,2.94274301 185.434088,0.017310253 181.850866,0.017310253 C178.267643,0.017310253 175.376831,2.94274301 175.376831,6.52596538 Z M184.949401,6.50865513 C184.949401,8.20505992 183.564581,9.60719041 181.850866,9.60719041 C180.154461,9.60719041 178.76964,8.20505992 178.76964,6.50865513 C178.76964,4.79494008 180.154461,3.41011984 181.850866,3.41011984 C183.564581,3.41011984 184.949401,4.79494008 184.949401,6.50865513 Z M201.653795,13 L201.653795,0.017310253 L198.243675,0.017310253 L198.243675,6.14513981 L192.098535,0.017310253 L190.713715,0.017310253 L190.713715,13 L194.123835,13 L194.123835,6.85486019 L200.251664,13 L201.653795,13 Z" id="Michael-Denton"></path>
            </g>
        </g>
    </g>
</svg>