<svg width="20px" height="16px" viewBox="0 0 20 16" xmlns="http://www.w3.org/2000/svg"><title>icon-mail</title><g fill="#13B5EA"><path d="M1.9182 4.8636c.25282.17807 1.0149.70698 2.28625 1.58643 1.2714.87946 2.2454 1.5566 2.922 2.0315.07433.05207.23226.16523.47386.33964.2417.17454.4425.31558.6022.42316.1599.10754.3532.2282.5801.36174.2268.13343.4406.2338.64137.30025.20078.067.38664.10017.5576.10017h.02248c.17098 0 .3569-.0333.5577-.1002.20066-.0665.41465-.167.64125-.3003.2267-.1337.42-.25427.5799-.36177.1599-.10758.3605-.2486.6022-.42316.24157-.17457.3997-.28757.47403-.33963.6839-.4749 2.42386-1.681 5.21933-3.61818.54273-.37836.99617-.8349 1.36043-1.3693.3645-.53417.5466-1.09454.5466-1.6808 0-.4899-.1767-.9093-.5299-1.25808-.35318-.3489-.77148-.5232-1.25458-.5232H1.78432c-.57246 0-1.013.19292-1.32156.5788C.15426.9967 0 1.4791 0 2.058c0 .46757.20453.97425.6134 1.5197.40883.5455.8439.9742 1.3048 1.28587z"/><path d="M18.87 6.05468c-2.43844 1.6475-4.29 2.9279-5.5538 3.84087-.42378.3116-.76757.55484-1.0316.72914-.264.1744-.61515.3525-1.0539.5342-.4386.182-.84734.27273-1.2266.27273h-.02257c-.3792 0-.78817-.09073-1.22676-.27275-.4386-.18175-.78997-.35987-1.0539-.5343-.26388-.1743-.60778-.41753-1.03153-.72913-1.0038-.7347-2.85137-2.01518-5.54282-3.84088C.70262 5.7728.32715 5.4497 0 5.0861v8.8392c0 .49015.17465.9093.52414 1.2581.3494.34897.76957.5234 1.2603.5234H18.2011c.49062 0 .91074-.17443 1.2602-.52338.34956-.34895.52413-.76793.52413-1.25812V5.0861c-.31977.3561-.6914.67916-1.11543.96853z"/></g></svg>