<?xml version="1.0" encoding="UTF-8"?>
<svg width="10px" height="16px" viewBox="0 0 10 16" version="1.1" xmlns="http://www.w3.org/2000/svg" xmlns:xlink="http://www.w3.org/1999/xlink">
    <!-- Generator: Sketch 41.2 (35397) - http://www.bohemiancoding.com/sketch -->
    <title>Group 13 Copy 4</title>
    <desc>Created with Sketch.</desc>
    <defs></defs>
    <g id="Page-1" stroke="none" stroke-width="1" fill="none" fill-rule="evenodd">
        <g id="Mobile-Copy-7" transform="translate(-254.000000, -17.000000)" fill="#4C453F">
            <g id="Group-2">
                <g id="Group-13-Copy-4" transform="translate(261.928871, 25.529463) scale(-1, 1) rotate(45.000000) translate(-261.928871, -25.529463) translate(255.928871, 20.029463)">
                    <path d="M9.71411468,0.033142886 C9.79615714,0.0115219495 9.88217907,3.35376171e-12 9.9706821,3.35376171e-12 L10.2067467,3.35376171e-12 C10.7606529,3.35376171e-12 11.2096827,0.452698723 11.2096827,0.991157452 L11.2096827,9.54437645 C11.2096827,10.0917776 10.7559933,10.5355339 10.2067467,10.5355339 L9.9706821,10.5355339 C9.41677585,10.5355339 8.96774612,10.0828352 8.96774612,9.54437645 L8.96774612,2.25761441 L1.00317606,2.25761441 C0.449137223,2.25761441 -3.69482223e-12,1.80075245 -3.69482223e-12,1.26082017 L-3.69482223e-12,0.996794239 C-3.69482223e-12,0.446279982 0.449554981,7.95807864e-13 1.00317606,7.95807864e-13 L9.45919441,7.95807864e-13 C9.54728064,7.95807864e-13 9.63271521,0.0115483681 9.71411468,0.033142886 Z" id="Combined-Shape"></path>
                </g>
            </g>
        </g>
    </g>
</svg>