<svg width="100" height="23" viewBox="0 0 100 23" xmlns="http://www.w3.org/2000/svg"><title>Massey University</title><path d="M12.9 3.24c-.2.25-.46.44-.73.58l-.42.1c-.33.02-.66 0-.87-.2-.05-.05-.1-.1-.17-.2-.08-.15-.14-.33-.1-.5 0-.04 0-.12.02-.15 0-.03 0-.03.03-.06.18.18.35.36.62.4.1.02.18.02.3 0 .1-.04.18-.1.24-.2.07-.07.13-.16.16-.28v-.24c-.03-.12-.12-.24-.2-.33-.25-.2-.67-.4-.8-.66-.02-.07-.02-.13 0-.2.04-.05.07-.14.13-.2l.08-.1c.06-.05.1-.05.24 0 0 0 .96-.02 1.43.04-.06.1-.2.06-.26.18.05.03.1.1.16.15.12.12.2.24.3.4.12.17.18.37.18.6v-.04c.03-.24-.06-.48-.18-.7l-.27-.38c-.04-.03-.04-.1.02-.1.1-.05.18-.02.2.07.6.96.88 1.97 1 3.14v.2c.03.28 0 .64-.03.7-.58.08-.73.32-.82.3-.1-.04-.27-.45-.4-.45-.13-.02-.6.42-.67.42-.1-.03-.4-.53-.56-.53-.15-.04-.45.4-.54.4-.1 0-.56-.35-.68-.32-.1.03-.33.56-.42.53-.1-.02-.27-.2-.48-.3 0 0 .54-.25.78-.73.06-.18.12-.36.1-.54-.04-.24-.25-.48-.5-.5-.14.32-.65.74-.86.68.06-.23.03-.56-.1-.77-.34-.1-.7-.1-.97-.27-.03-.12-.06-.26 0-.38.54-.27 1.05-.63 1.55-1 .33-.38.75-.53 1.2-.68.35-.18.5-.56.8-.86.03-.03.18-.06.15.06l-.4.44s-.23.24-.23.27c-.03.1-.1.16-.1.25-.04.06-.04.15 0 .24.1.3.52.47.8.68.08.1.14.18.17.3.04.1.04.15 0 .2-.02.1-.08.2-.14.28-.06.05-.12.1-.2.14-.07.03-.16.03-.25 0-.46-.1-.52-.6-.73-.32v.03c-.06.07-.1.16-.1.2 0 .22.07.43.16.58.06.06.12.15.2.2.24.22.6.22.93.2.15-.04.3-.07.45-.13.32-.14.6-.35.8-.6zm32.4 5.42l-.7 1.94c-.3.84-.28 1.24 1.3 1.24h.22v.64h-4.4v-.64H42c.8 0 1.2-.36 1.63-1.52l2.84-7.9-.18-.47h2.44l3.32 8.4c.43 1.1.8 1.42 1.65 1.5v.63H48.3v-.64h.57c1 0 1.16-.45.83-1.26l-.78-1.92H45.3zm.33-.9h2.9l-1.5-3.88-1.4 3.87zm-36.7-.1s0-.02 0 0l-.07-.2c0-.02-.03-.02-.06-.02h-.3c-.03 0-.03 0-.03.03l.1.17c0 .03.02.03.05.03h.3zm.76.04c.02 0 .02-.03.02-.03L9.6 7.4c0-.02-.03-.02-.06-.02H9.1c-.04 0-.07.03-.04.03l.12.27c0 .03.03.03.06.03h.45zm1.04.03c.03 0 .06-.03.06-.06l-.15-.38c0-.04-.06-.07-.1-.07h-.62c-.03 0-.06.03-.06.06l.15.37c0 .03.06.06.1.06h.62zm3.43-.4c-.03 0-.03 0 0 0l.06.2c0 .02.03.02.06.02h.3c.02 0 .02 0 .02-.03l-.1-.17c0-.03-.02-.03-.05-.03h-.3zm-.8-.04c-.04 0-.07.02-.04.02l.12.26c0 .03.03.03.06.03h.46c.03 0 .06-.02.03-.02l-.13-.26c0-.03-.03-.03-.06-.03h-.44zm-1.02-.04c-.03 0-.06.03-.06.06l.14.38c0 .03.06.06.1.06h.6c.04 0 .07-.03.07-.06l-.14-.38c0-.03-.06-.06-.1-.06h-.6zm-1.4-.12c-.07 0-.1.03-.07.1l.2.5c.04.05.1.08.16.08h.87c.07 0 .1-.03.1-.1l-.2-.5c-.04-.02-.1-.08-.16-.08h-.9zM9.08 7c.1-.07-.1-.55-.24-.5-.1.07.1.55.23.5zm4.77-.1c.15.12.5-.4.42-.48-.1-.1-.55.4-.43.48zm-4.42-.63c-.03.3.27.75.42.7.1-.04-.06-.67-.33-.76-.06-.02-.1.04-.1.07zm3.67.7c.18.1.7-.6.45-.73-.15-.12-.66.57-.45.72zM10.5 6.2c0 .3.18.76.33.73.1-.03.05-.7-.18-.84-.1 0-.15.08-.15.1zm1.82.73c.2.1.53-.72.3-.8-.2-.07-.5.7-.3.8zm-.8 0c.2.03.32-.84.08-.87-.2-.03-.3.84-.1.87zm3.5-1.2c-.08-.12-.97.4-.97.4s-.03-.5-.12-.58c-.36.03-.63.2-.87.45-.1-.27-.24-.5-.3-.5-.1 0-.65.47-.65.47s-.32-.57-.5-.6c-.06 0-.36.3-.5.5-.2-.17-.54-.44-.7-.4-.08.02-.26.38-.35.65-.1-.1-.6-.48-.84-.5-.1.17-.1.65-.1.65s-.5-.48-.87-.5c-.1.1.06.77.45 1.1 0-.1-.18-.42-.15-.63.18-.1.6.18.6.18s.08-.33.26-.42c.26.03.7.33.7.33s.22-.4.4-.5c.27-.07.65.26.65.26s.27-.34.48-.34c.2.1.48.42.48.42s.4-.27.64-.33c.14.06.32.42.32.42s.5-.33.78-.3c.1.1.18.36.18.36s.54-.2.77-.18c-.04.3-.18.5-.3.75.2-.24.68-1 .53-1.17zM19 10.87c.2-.84-.12-2.4-.86-2.36-.75.04-1.6 1-1.6 1s1.66-.3 2.46 1.37zm1.73-2.66s.3-.02.5-.56c.22-.5.13-.86.13-.86s-.06.15-.24.18-.4 0-.7.03c-.3.05-.55.17-.55.17s-.15-.4.1-.78c.14-.25.5-.43.5-.43s-.2-.2-.66-.18c-.53.05-.74.05-1.3.44-.57.4-.87.54-1.17.66-.3.12-.5.12-.8.1.1.2.17.35.4.44.28.1.43.1.88.23.46.12 1.17.48 1.5 1.4.33.9.03 1.98.03 1.98s.4-.12.7-.45c.3-.33.23-.78.23-.78s.32.2.56.3c.27.12.3.63.3.63s.84-.66.57-1.7c-.16-.72-.97-.84-.97-.84zm1.5-2.32c-.66-.86-1.32.2-1.32.2s.55-.1.82.3c.36.55-.24 1.26-.24 1.26s1.5-.74.75-1.76zm-4.36-.7c.12.46-.03.9-.03.9s.7-.02 1.25-.5c.4-.38.83-.38 1.04-.36.4.1.5.45.5.45s.33-.5.03-1.04c-.2-.33-.83-.4-.83-.4s.1-.14.12-.35c0-.24.03-.54.18-.98.2-.6.62-.84.62-.84s-.2-.1-.74.03c-.36.08-.72.47-1.02.83-.3.35-.36.95-.36.95s-.03-.27-.26-.48c-.24-.2-.42-.33-.72-.47-.27-.15-.4-.48-.4-.48s-.17.33-.2.65c-.03.33-.06.5.24.96.27.48.42.63.57 1.1zm-.2 1.18s-.43-.27-.52-.75c-.06-.46-.03-.85-.06-1.15-.04-.33-.28-.75-.28-.75s.03.48-.15.78c-.17.3-.44.9-.1 1.4.37.7 1.1.48 1.1.48zm3.03-3.88s.12.33-.06.77c-.18.45-.38.57-.38.57s.23 0 .5.24.3.54.3.54.3-.63.12-1.23c-.12-.56-.48-.9-.48-.9zM18.88 15.7c-.65-.23-.98-.1-.98-.1s0-.28.18-.73c.18-.45.4-.65.4-.65s-.73-.2-1.33.47c-.6.68-.62 1.25-.5 1.64.14.4.32.6.44.83.1.2.14.54.14.54s.27-.9.93-1.16c.77-.32 1.34.18 1.34.18s.04-.77-.62-1zm-2.56 1.38c-.24-.48 0-1.04 0-1.04s-.84.27-1.5 1.43c-.4.75-.62 1.46-.95 1.88-.36.4-.6.5-.6.5l.33-.1c.27-.1.72-.1 1.28-.52.63-.47.6-1.1.6-1.1s.42.48 1.05.12c.4-.24.44-.72.44-.72s-.3.18-.65-.45zm2.98-5.76c-.03 0-.1-.03-.12-.06-.66-.27-.83-.54-1.43-.78-.6-.27-1.2-.03-1.2-.03s.36.2.54.45c.08.15.1.27.17.42.03.1.06.18.12.27.1.23.53.46.53.46s-.6.24-.87.5c-.3.25-.53.6-.48 1.1.06.5.45.82.45.82s.12-.53.72-.77c.72-.3 1.25.1 1.25.1s.12.2 0 .77c-.12.57-.27.72-.27.72s.93-.16 1.32-.97c.32-.65.27-1.25.27-1.97 0-.7.26-1 .26-1s-.56.2-1.28-.04zM6.32.8c.1 0 .06-.1-.03-.17L6.04.36C6 .3 5.85.24 5.72.24H5.4c-.1 0-.1.1 0 .18.4.38.92.38.92.38zm1.85 0C8.1.8 8.05.77 8 .7L7.62.3C7.6.24 7.6.2 7.63.2h.45c.06 0 .12.04.18.1l.36.4c.06.07.03.1 0 .1h-.45zM7.1.8C7.02.8 6.97.77 6.9.7L6.56.3c-.03-.06-.03-.1 0-.1h.33c.05 0 .1.04.16.1l.36.4c.03.07.03.1 0 .1H7.1zm2.26 0C9.3.8 9.24.77 9.18.7L8.83.3C8.8.24 8.8.2 8.83.2h.7c.07 0 .13.04.2.1l.35.4c.06.07.03.1 0 .1h-.72zm4.15 0c.07 0 .13-.03.2-.1l.35-.4c.03-.06.03-.1 0-.1h-.45c-.06 0-.12.04-.18.1l-.36.4c-.03.07-.03.1 0 .1h.45zm1.1 0c.05 0 .1-.03.16-.1l.36-.4c.03-.06.03-.1 0-.1h-.33c-.07 0-.13.04-.18.1l-.36.4c-.03.07-.03.1 0 .1h.33zm1.8 0c-.08 0-.05-.1.04-.17l.23-.27c.1-.06.2-.15.33-.15h.33c.1 0 .1.1 0 .2-.42.37-.92.4-.92.4zm-.77 0c.06 0 .12-.03.18-.1l.37-.4c.03-.06.03-.1-.03-.1h-.33c-.05 0-.1.04-.17.1l-.36.4c-.03.07-.03.1 0 .1h.36zM12.3.8c.05 0 .1-.03.17-.1l.35-.4c.03-.06.03-.1 0-.1h-.7c-.07 0-.13.04-.2.1l-.35.4c-.06.07-.03.1 0 .1h.72zM10.67.77c.03.06.1.06.12 0l.38-.44c.03-.06 0-.1-.06-.1h-.8c-.06 0-.1.07-.06.1l.42.44zm7.25 20.34c-1.55 1.1-3.9 1.78-6.57 1.78-2.62 0-4.98-.7-6.53-1.77-.03-.02-.06-.05-.06-.1v-.06l.6-1.86c.02-.06.05-.1.1-.1.04 0 .07 0 .1.04.93 1 3.17 1.68 5.8 1.68 2.62 0 4.86-.7 5.78-1.68.03-.03.06-.03.1-.03.05 0 .08.02.1.08l.6 1.86V21c.04.05 0 .08-.02.1zm-.42-2.05c-.05-.12-.14-.18-.3-.18-.05 0-.08.03-.14.03-.15.06-.4.24-.62.3-.27.06-.45.03-.45-.06-.04-.1.26-.38.58-.44.33-.06.84-.06 1.5.06.65.1.92 0 .95-.12.06-.1 0-.15-.06-.2.1 0 .15.05.2.1.13.24.22.5.2 1.05 0 .53-.04.98-.34 1.04-.3.06-.54-.15-.77-.18-.24-.03-.3.06-.3.06l-.45-1.47zm-12.32 0c.06-.12.15-.18.3-.18.06 0 .1.03.15.03.15.06.4.24.63.3.27.06.45.03.45-.06.04-.1-.26-.38-.6-.44-.32-.06-.83-.06-1.48.06-.7.1-.93 0-.96-.12-.06-.1 0-.15.06-.2-.1 0-.15.05-.2.1-.13.24-.22.5-.2 1.05 0 .53.04.98.34 1.04.3.06.54-.15.78-.18s.3.06.3.06l.44-1.47zm10.5-6.63V8.24H7.04v4.18s-.3 5.14 4.33 7.44c4.6-2.3 4.33-7.44 4.33-7.44zm-12.97-1.8c.3.34.7.46.7.46S3.12 10 3.4 9.1c.33-.92 1.05-1.28 1.5-1.4.44-.12.6-.12.86-.23.2-.1.3-.24.42-.45-.3.03-.48.03-.8-.1-.3-.1-.6-.26-1.17-.65-.57-.4-.78-.4-1.3-.45-.46-.03-.67.18-.67.18s.36.15.5.42c.25.4.1.78.1.78s-.24-.12-.57-.18c-.34-.06-.52 0-.7-.03-.18-.04-.24-.2-.24-.2s-.08.37.12.87.5.57.5.57-.8.12-.97.9c-.26 1.04.57 1.7.57 1.7s.06-.54.3-.63c.27-.1.57-.3.57-.3s0 .4.27.73zm1.95-2.08c-.75-.03-1.08 1.52-.87 2.36.8-1.67 2.48-1.37 2.48-1.37s-.9-.96-1.6-1zM1.07 6.4c.26-.43.8-.3.8-.3S1.22 5 .57 5.87c-.8 1.02.73 1.76.73 1.76s-.6-.7-.23-1.25zM2 4.1c.26-.25.5-.25.5-.25s-.2-.12-.4-.57c-.17-.44-.05-.77-.05-.77s-.36.34-.5.93c-.16.6.1 1.23.1 1.23s.07-.33.34-.57zm3.7.38c-.04.33 0 .72-.07 1.16-.06.48-.5.75-.5.75s.7.2 1.13-.46c.3-.5.06-1.1-.12-1.4-.18-.3-.15-.8-.15-.8s-.28.4-.3.74zM2.64 2.93c.15.44.18.74.18.98 0 .2.12.37.12.37s-.63.06-.84.4c-.32.5.04 1.03.04 1.03s.1-.4.5-.45c.25-.03.63-.03 1.05.36.53.5 1.22.52 1.22.52s-.18-.45-.03-.9c.1-.47.25-.62.55-1.1.3-.48.27-.66.24-.96-.04-.3-.22-.65-.22-.65s-.1.34-.38.48c-.27.15-.48.3-.72.48-.24.2-.27.48-.27.48s-.05-.6-.35-.96c-.3-.35-.65-.7-1-.83-.55-.15-.76-.03-.76-.03s.47.2.65.8zm2.98 11.73c-.6-.68-1.34-.47-1.34-.47s.26.2.4.64c.2.45.2.72.2.72s-.34-.1-1 .12c-.7.24-.66.98-.66.98s.6-.5 1.35-.17c.64.28.9 1.15.9 1.15s.04-.33.16-.54c.12-.23.3-.38.45-.82.16-.36.1-.93-.47-1.62zm-1.8-.1c-.1-.55 0-.76 0-.76s.55-.4 1.27-.1c.56.25.7.78.7.78s.4-.32.46-.83c.06-.5-.2-.84-.48-1.08-.3-.24-.86-.5-.86-.5s.4-.24.53-.48c.06-.1.1-.2.1-.28.02-.15.08-.27.17-.42.15-.24.54-.45.54-.45s-.6-.24-1.2.03-.74.5-1.43.78c-.03.03-.1.03-.12.06-.7.24-1.2 0-1.2 0s.26.27.26 1-.06 1.33.27 1.98c.38.8 1.3.96 1.3.96s-.17-.12-.3-.7zm5.1 4.76c-.37-.4-.55-1.13-.97-1.88C7.3 16.28 6.46 16 6.46 16s.25.57 0 1.05c-.32.66-.62.4-.62.4s0 .47.45.7c.65.37 1.03-.1 1.03-.1s-.06.62.6 1.1c.57.4 1 .4 1.28.5l.34.12s-.27-.06-.62-.45zm87.23 1.02c0 .46.14.7.82.7h.15v.37H93.9v-.36h.23c.57 0 .72-.25.72-.68v-1.32l-2.04-2.7c-.27-.37-.38-.46-.86-.46h-.06v-.37h3.1v.38h-.12c-.55 0-.63.23-.43.5l1.52 2 1.1-1.74c.25-.4.32-.76-.34-.76h-.1v-.37h2.24v.38c-.55.04-.72.14-1.06.67l-1.62 2.5v1.3zm-8.22 0c0 .5.15.7.83.7H89v.37h-3.42v-.36h.32c.52 0 .73-.2.73-.7V16H85.5c-.72 0-.84.12-1.02 1.12h-.38l.17-1.77h.3c.08.07.12.12.18.13.07.02.14.03.28.03h4.52c.25 0 .3 0 .45-.15h.3l.18 1.77h-.4c-.17-1-.3-1.1-1.02-1.1h-1.12v4.3zm-8.6-4.83h3.02v.38h-.16c-.5 0-.72.22-.72.7v3.77c0 .47.16.7.74.7h.14v.36h-3.02v-.36h.14c.5 0 .7-.23.7-.65v-3.8c0-.5-.18-.72-.7-.72h-.14v-.37zm-6.25 4.17h.36c.32.94.88 1.42 1.63 1.42.6 0 1.1-.4 1.1-.94 0-1.4-3.06-1.37-3.06-3.24 0-.92.8-1.55 1.93-1.55.73 0 1.3.25 1.44.25.08 0 .13-.02.22-.1h.2l.18 1.53h-.38c-.2-.77-.8-1.27-1.54-1.27-.54 0-.94.28-.94.65 0 .87 1.58 1.04 2.64 2.1.4.4.54.8.54 1.25 0 1-.9 1.77-2.02 1.77-.76 0-1.45-.3-1.62-.3-.1 0-.16.04-.2.14h-.25l-.24-1.73zm-6.54.68c0 .48.2.7.75.7h.3v.36h-3.33v-.36h.15c.58 0 .83-.14.83-.7V16.6c0-.45-.13-.72-.77-.72h-.2v-.37l1.23-.06c.54-.04 1.23-.07 1.57-.07 1.4 0 2.16.18 2.63.66.32.3.45.67.45 1.08 0 .73-.52 1.3-1.4 1.53.63.53.96 1.28 1.64 1.95.37.4.64.5 1.24.56v.37c-.2.02-.3.02-.6.02-1.17 0-1.65-.17-2.1-.62-.47-.47-1.03-1.47-1.63-2h-.74v1.45zm0-1.84h.37c1.15 0 1.8-.34 1.8-1.36 0-1-.76-1.36-1.68-1.36h-.5v2.73zm-5.26-2.47h-2.08v2.14h1.54c.52 0 .7-.18.7-.68h.4v1.87h-.4c0-.5-.1-.68-.84-.68h-1.4v1.7c0 .4.08.5.35.5h1.6c.6 0 .9-.18 1.08-.98h.36l-.1 1.5h-5.72v-.38h.4c.54 0 .73-.2.73-.68v-3.8c0-.5-.16-.68-.8-.68H57v-.37h5.22l.1 1.4h-.36c-.1-.66-.22-.87-.66-.87zm-11.76.65c-.3-.68-.45-.8-1-.8h-.05v-.37h3.28v.38h-.16c-.8 0-.92.27-.65.83l1.5 3.18 1.44-3.46c.14-.32-.07-.54-.62-.54h-.2v-.37h2.43v.38h-.06c-.56 0-.77.26-1.08 1l-1.98 4.67h-.6l-2.24-4.87zm-5.77-1.17h3.02v.38h-.18c-.5 0-.72.22-.72.7v3.77c0 .47.16.7.74.7h.15v.36h-3.03v-.36h.13c.5 0 .7-.23.7-.65v-3.8c0-.5-.18-.72-.7-.72h-.13v-.37zm-7.8 4.78c0 .57.2.76.95.76v.37h-2.3v-.36h.06c.58 0 .72-.2.72-.6V16.1c-.2-.15-.46-.22-.76-.22v-.37h1.96l3.88 4.05V16.7c0-.7-.14-.82-.9-.82h-.1v-.37h2.45v.38h-.1c-.58 0-.78.12-.78.5v5.06h-.52l-4.55-4.75v3.58zm-5.5-4.77h2.45v.38h-.06c-.76 0-.88.33-.88.8v2.35c0 2.12-1.54 2.52-2.67 2.52-1.7 0-2.78-.74-2.78-2.2v-2.82c0-.48-.13-.65-.66-.65h-.16v-.37h2.97v.38h-.16c-.4 0-.67.18-.67.65v2.82c0 1.16.86 1.56 1.72 1.56 1.25 0 1.86-.7 1.86-1.74v-2.3c0-.67-.18-.98-.77-.98h-.17v-.37zm64.3-4.88c0 .8.24 1.22 1.43 1.22h.25v.64H90.8v-.64h.42c1 0 1.26-.45 1.26-1.2v-2.3L88.9 3.63c-.46-.63-.66-.78-1.5-.78h-.1V2.2h5.4v.64h-.2c-.97 0-1.1.4-.75.84l2.65 3.5 1.92-3.02c.43-.67.56-1.32-.6-1.32h-.2V2.2h3.9v.64c-.95.07-1.23.25-1.83 1.16l-2.84 4.35v2.27zM83.4 3.12h-3.62v3.7h2.68c.9 0 1.24-.3 1.24-1.18h.66v3.3h-.66c0-.9-.22-1.2-1.5-1.2H79.8v2.97c0 .73.13.87.6.87h2.77c1.08 0 1.6-.3 1.9-1.68h.63l-.2 2.58h-9.96v-.64h.68c.96 0 1.3-.38 1.3-1.2v-6.6c0-.88-.3-1.2-1.45-1.2h-.17V2.2H85l.17 2.4h-.63c-.16-1.13-.38-1.5-1.14-1.5zM66.28 9.43h.64c.55 1.64 1.52 2.48 2.84 2.48 1.1 0 1.92-.7 1.92-1.62 0-2.46-5.32-2.38-5.32-5.65 0-1.6 1.4-2.7 3.36-2.7 1.28 0 2.27.43 2.52.43.1 0 .2-.03.36-.18h.35l.32 2.68h-.67c-.36-1.34-1.42-2.22-2.7-2.22-.92 0-1.62.5-1.62 1.14 0 1.52 2.75 1.8 4.6 3.66.68.68.95 1.4.95 2.18 0 1.72-1.56 3.08-3.53 3.08-1.32 0-2.53-.53-2.83-.53-.15 0-.27.07-.35.25h-.43l-.42-3zm-10.57 0h.66c.54 1.64 1.52 2.48 2.83 2.48 1.08 0 1.9-.7 1.9-1.62 0-2.46-5.3-2.38-5.3-5.65 0-1.6 1.4-2.7 3.36-2.7 1.27 0 2.26.43 2.5.43.13 0 .23-.03.38-.18h.34l.32 2.68h-.66c-.37-1.34-1.43-2.22-2.7-2.22-.93 0-1.63.5-1.63 1.14 0 1.52 2.76 1.8 4.62 3.66.68.68.94 1.4.94 2.18 0 1.72-1.55 3.08-3.53 3.08-1.32 0-2.53-.53-2.83-.53-.14 0-.26.07-.34.25h-.43l-.42-3zM28.05 4.3H28l-.36 5.9c-.06 1.1-.05 1.62 1.36 1.64v.64h-3.68v-.64c1.3-.02 1.33-.38 1.4-1.75l.38-6c.05-.84 0-1.2-1.12-1.26V2.2h3.5l3.23 6.94 3.1-6.94h3.56v.64c-1.2.07-1.27.07-1.2 1.26l.4 6.1c.1 1.4.14 1.54 1.47 1.64v.64H34.8v-.64h.3c.7 0 1.27 0 1.27-1.07 0-.27-.02-.53-.04-.78l-.38-5.88h-.03l-3.7 8.36h-.4L28.03 4.3z" fill="#fff" fill-rule="evenodd"/></svg>