<?xml version="1.0" encoding="UTF-8"?>
<svg width="37px" height="17px" viewBox="0 0 37 17" version="1.1" xmlns="http://www.w3.org/2000/svg" xmlns:xlink="http://www.w3.org/1999/xlink">
    <!-- Generator: Sketch 41.2 (35397) - http://www.bohemiancoding.com/sketch -->
    <title>MD</title>
    <desc>Created with Sketch.</desc>
    <defs></defs>
    <g id="Page-1" stroke="none" stroke-width="1" fill="none" fill-rule="evenodd">
        <g id="Group-3" transform="translate(-12.000000, -17.000000)" fill="#FFFFFF">
            <path d="M13.958,17 L12,17 L12,33.5 L16.356,33.5 L16.356,25.052 L20.69,28.968 L25.002,25.03 L25.002,33.5 L29.358,33.5 L29.358,17 L27.4,17 L20.69,23.116 L13.958,17 Z M33.68,33.5 L39.796,33.5 C44.35,33.5 48.046,29.804 48.046,25.25 C48.046,20.696 44.35,17 39.796,17 L33.68,17 L33.68,33.5 Z M37.992,21.422 L39.818,21.422 C41.974,21.422 43.734,23.182 43.734,25.316 C43.734,27.472 41.974,29.232 39.818,29.232 L37.992,29.232 L37.992,21.422 Z" id="MD"></path>
        </g>
    </g>
</svg>