<?xml version="1.0" encoding="UTF-8"?>
<svg width="185px" height="13px" viewBox="0 0 185 13" version="1.1" xmlns="http://www.w3.org/2000/svg" xmlns:xlink="http://www.w3.org/1999/xlink">
    <!-- Generator: Sketch 42 (36781) - http://www.bohemiancoding.com/sketch -->
    <title>Group 5</title>
    <desc>Created with Sketch.</desc>
    <defs></defs>
    <g id="Page-1" stroke="none" stroke-width="1" fill="none" fill-rule="evenodd">
        <g id="Web-Thesis" transform="translate(-118.000000, -21.000000)" fill="#FFFFFF">
            <g id="Group-5" transform="translate(118.000000, 21.000000)">
                <g id="Group-7" transform="translate(6.000000, 6.000000) rotate(-45.000000) translate(-6.000000, -6.000000) translate(2.000000, 2.000000)">
                    <rect id="Rectangle-Copy-2" x="0" y="0" width="8" height="2"></rect>
                    <rect id="Rectangle-Copy-3" x="0" y="0" width="2" height="8"></rect>
                </g>
                <path d="M24.424,0.016 L23,0.016 L23,12.016 L26.168,12.016 L26.168,5.872 L29.32,8.72 L32.456,5.856 L32.456,12.016 L35.624,12.016 L35.624,0.016 L34.2,0.016 L29.32,4.464 L24.424,0.016 Z M38.524,12.016 L41.676,12.016 L41.676,0.016 L38.524,0.016 L38.524,12.016 Z M54.528,1.76 C53.44,0.672 51.952,0.016 50.304,0.016 C46.992,0.016 44.304,2.704 44.304,6.016 C44.304,9.328 46.992,12.016 50.304,12.016 C51.968,12.016 53.472,11.328 54.56,10.24 L52.32,8.032 C51.824,8.544 51.12,8.832 50.304,8.832 C48.672,8.832 47.488,7.648 47.488,6.016 C47.488,4.384 48.672,3.2 50.304,3.2 C51.12,3.2 51.824,3.488 52.32,3.984 L54.528,1.76 Z M57.46,0.016 L57.46,12.016 L60.612,12.016 L60.612,7.44 L64.42,7.44 L64.42,12.016 L67.572,12.016 L67.572,0.016 L64.42,0.016 L64.42,4.288 L60.612,4.288 L60.612,0.016 L57.46,0.016 Z M72.84,12.016 L69.688,12.016 L75.288,0.016 L76.712,0.016 L82.36,12.016 L79.208,12.016 L78.472,10.448 L73.56,10.448 L72.84,12.016 Z M76.024,5.152 L74.792,7.792 L77.24,7.792 L76.024,5.152 Z M84.46,12.016 L91.916,12.016 L91.916,9.44 L87.612,9.44 L87.612,7.232 L91.42,7.232 L91.42,4.576 L87.612,4.576 L87.612,2.624 L91.916,2.624 L91.916,0.016 L84.46,0.016 L84.46,12.016 Z M94.672,12.016 L102.144,12.016 L102.144,8.848 L97.824,8.848 L97.824,0.016 L94.672,0.016 L94.672,12.016 Z M112.6,12.016 L112.6,0.016 L117.048,0.016 C120.36,0.016 123.048,2.704 123.048,6.016 C123.048,9.328 120.36,12.016 117.048,12.016 L112.6,12.016 Z M115.736,3.232 L115.736,8.912 L117.064,8.912 C118.632,8.912 119.912,7.632 119.912,6.064 C119.912,4.512 118.632,3.232 117.064,3.232 L115.736,3.232 Z M125.724,12.016 L133.18,12.016 L133.18,9.44 L128.876,9.44 L128.876,7.232 L132.684,7.232 L132.684,4.576 L128.876,4.576 L128.876,2.624 L133.18,2.624 L133.18,0.016 L125.724,0.016 L125.724,12.016 Z M146.048,12.016 L146.048,0.016 L142.896,0.016 L142.896,5.68 L137.216,0.016 L135.936,0.016 L135.936,12.016 L139.088,12.016 L139.088,6.336 L144.752,12.016 L146.048,12.016 Z M148.708,3.136 L151.828,3.136 L151.828,12.016 L154.98,12.016 L154.98,3.136 L158.164,3.136 L158.164,0 L148.708,0 L148.708,3.136 Z M159.96,6.032 C159.96,2.72 162.632,0.016 165.944,0.016 C169.256,0.016 171.944,2.72 171.944,6.032 C171.944,9.344 169.256,12.016 165.944,12.016 C162.632,12.016 159.96,9.344 159.96,6.032 Z M168.808,6.016 C168.808,4.432 167.528,3.152 165.944,3.152 C164.376,3.152 163.096,4.432 163.096,6.016 C163.096,7.584 164.376,8.88 165.944,8.88 C167.528,8.88 168.808,7.584 168.808,6.016 Z M184.748,12.016 L184.748,0.016 L181.596,0.016 L181.596,5.68 L175.916,0.016 L174.636,0.016 L174.636,12.016 L177.788,12.016 L177.788,6.336 L183.452,12.016 L184.748,12.016 Z" id="MICHAEL-DENTON-Copy"></path>
            </g>
        </g>
    </g>
</svg>