<?xml version="1.0" encoding="UTF-8"?>
<svg width="457px" height="60px" viewBox="0 0 457 60" version="1.1" xmlns="http://www.w3.org/2000/svg" xmlns:xlink="http://www.w3.org/1999/xlink">
    <!-- Generator: Sketch 41.2 (35397) - http://www.bohemiancoding.com/sketch -->
    <title>Group 23 Copy</title>
    <desc>Created with Sketch.</desc>
    <defs></defs>
    <g id="Page-1" stroke="none" stroke-width="1" fill="none" fill-rule="evenodd">
        <g id="Adelle-Copy-4" transform="translate(-272.000000, -149.000000)" fill="#FFFFFF">
            <g id="Group-5" transform="translate(272.000000, 149.000000)">
                <g id="Group-23-Copy">
                    <path d="M0,0.990443239 C0,0.443436543 0.445908904,0 1.00770484,0 L242.725628,0 C243.282169,0 243.733333,0.448046873 243.733333,0.990443239 L243.733333,58.9545253 C243.733333,59.501532 243.287424,59.9449686 242.725628,59.9449686 L1.00770484,59.9449686 C0.451164824,59.9449686 0,59.4969217 0,58.9545253 L0,0.990443239 Z M23.0574135,13.2310535 L19.210509,13.2310535 L19.210509,45.6013365 L27.7687908,45.6013365 L27.7687908,29.0277516 L36.2838489,36.7102987 L44.7556834,28.9845912 L44.7556834,45.6013365 L53.3139652,45.6013365 L53.3139652,13.2310535 L49.4670608,13.2310535 L36.2838489,25.2296384 L23.0574135,13.2310535 Z M59.797512,45.6013365 L68.3125701,45.6013365 L68.3125701,13.2310535 L59.797512,13.2310535 L59.797512,45.6013365 Z M101.681224,17.9355346 C98.7420164,15.0006289 94.7222174,13.2310535 90.2701819,13.2310535 C81.3228874,13.2310535 74.0613149,20.4819969 74.0613149,29.416195 C74.0613149,38.3503931 81.3228874,45.6013365 90.2701819,45.6013365 C94.7654411,45.6013365 98.8284637,43.7454403 101.767672,40.8105346 L95.7163612,34.8544025 C94.3764282,36.2355346 92.4745878,37.0124214 90.2701819,37.0124214 C85.8613701,37.0124214 82.6628204,33.8185535 82.6628204,29.416195 C82.6628204,25.0138365 85.8613701,21.8199686 90.2701819,21.8199686 C92.4745878,21.8199686 94.3764282,22.5968553 95.7163612,23.934827 L101.681224,17.9355346 Z M108.251218,13.2310535 L108.251218,45.6013365 L116.766277,45.6013365 L116.766277,33.2574686 L127.053504,33.2574686 L127.053504,45.6013365 L135.568562,45.6013365 L135.568562,13.2310535 L127.053504,13.2310535 L127.053504,24.7548742 L116.766277,24.7548742 L116.766277,13.2310535 L108.251218,13.2310535 Z M148.449209,45.6013365 L150.394273,41.3716195 L163.663932,41.3716195 L165.652219,45.6013365 L174.167278,45.6013365 L158.909331,13.2310535 L155.062426,13.2310535 L139.93415,45.6013365 L148.449209,45.6013365 Z M157.050714,27.0855346 L160.335711,34.2069969 L153.722493,34.2069969 L157.050714,27.0855346 Z M178.489642,45.6013365 L198.631861,45.6013365 L198.631861,38.6525157 L187.0047,38.6525157 L187.0047,32.6963836 L197.291928,32.6963836 L197.291928,25.531761 L187.0047,25.531761 L187.0047,20.266195 L198.631861,20.266195 L198.631861,13.2310535 L178.489642,13.2310535 L178.489642,45.6013365 Z M204.726395,45.6013365 L224.911837,45.6013365 L224.911837,37.0555818 L213.241453,37.0555818 L213.241453,13.2310535 L204.726395,13.2310535 L204.726395,45.6013365 Z" id="Combined-Shape-Copy"></path>
                    <path d="M231.038889,0.990443239 C231.038889,0.443436543 231.484578,0 232.045261,0 L455.755998,0 C456.311802,0 456.76237,0.448046873 456.76237,0.990443239 L456.76237,58.9545253 C456.76237,59.501532 456.316681,59.9449686 455.755998,59.9449686 L232.045261,59.9449686 C231.489457,59.9449686 231.038889,59.4969217 231.038889,58.9545253 L231.038889,0.990443239 Z M250.969792,45.6013365 L262.985965,45.6013365 C271.93326,45.6013365 279.194832,38.3503931 279.194832,29.416195 C279.194832,20.4819969 271.93326,13.2310535 262.985965,13.2310535 L250.969792,13.2310535 L250.969792,45.6013365 Z M259.441626,21.9062893 L263.029189,21.9062893 C267.265106,21.9062893 270.722998,25.3591195 270.722998,29.5456761 C270.722998,33.7753931 267.265106,37.2282233 263.029189,37.2282233 L259.441626,37.2282233 L259.441626,21.9062893 Z M285.073248,45.6013365 L305.215467,45.6013365 L305.215467,38.6525157 L293.588306,38.6525157 L293.588306,32.6963836 L303.875534,32.6963836 L303.875534,25.531761 L293.588306,25.531761 L293.588306,20.266195 L305.215467,20.266195 L305.215467,13.2310535 L285.073248,13.2310535 L285.073248,45.6013365 Z M338.627345,45.6013365 L338.627345,13.2310535 L330.112287,13.2310535 L330.112287,28.509827 L314.767893,13.2310535 L311.310001,13.2310535 L311.310001,45.6013365 L319.825059,45.6013365 L319.825059,30.2794025 L335.126229,45.6013365 L338.627345,45.6013365 Z M344.462537,21.647327 L352.891148,21.647327 L352.891148,45.6013365 L361.406206,45.6013365 L361.406206,21.647327 L370.007711,21.647327 L370.007711,13.1878931 L344.462537,13.1878931 L344.462537,21.647327 Z M371.875933,29.4593553 C371.875933,38.3935535 379.094282,45.6013365 388.041577,45.6013365 C396.988871,45.6013365 404.250444,38.3935535 404.250444,29.4593553 C404.250444,20.5251572 396.988871,13.2310535 388.041577,13.2310535 C379.094282,13.2310535 371.875933,20.5251572 371.875933,29.4593553 Z M395.778609,29.416195 C395.778609,33.6459119 392.320717,37.1419025 388.041577,37.1419025 C383.805659,37.1419025 380.347768,33.6459119 380.347768,29.416195 C380.347768,25.1433176 383.805659,21.6904874 388.041577,21.6904874 C392.320717,21.6904874 395.778609,25.1433176 395.778609,29.416195 Z M436.528901,45.6013365 L436.528901,13.2310535 L428.013843,13.2310535 L428.013843,28.509827 L412.669449,13.2310535 L409.211558,13.2310535 L409.211558,45.6013365 L417.726616,45.6013365 L417.726616,30.2794025 L433.027786,45.6013365 L436.528901,45.6013365 Z" id="Combined-Shape-Copy"></path>
                </g>
            </g>
        </g>
    </g>
</svg>