<?xml version="1.0" encoding="UTF-8"?>
<svg width="212px" height="114px" viewBox="0 0 212 114" version="1.1" xmlns="http://www.w3.org/2000/svg" xmlns:xlink="http://www.w3.org/1999/xlink">
    <!-- Generator: Sketch 41.2 (35397) - http://www.bohemiancoding.com/sketch -->
    <title>Group 4</title>
    <desc>Created with Sketch.</desc>
    <defs></defs>
    <g id="Page-1" stroke="none" stroke-width="1" fill="none" fill-rule="evenodd">
        <g id="Mobile-Copy-33" transform="translate(-54.000000, -94.000000)" fill="#FFFFFF">
            <g id="Group" transform="translate(39.000000, 94.000000)">
                <g id="Group-4" transform="translate(15.000000, 0.000000)">
                    <g id="Group-6">
                        <path d="M0,0 L212,0 L212,51.4438806 L0,51.4438806 L0,0 Z M18.3778093,12.547288 L15.0532544,12.547288 L15.0532544,40.6275094 L22.4494552,40.6275094 L22.4494552,26.250436 L29.8083013,32.9148086 L37.129793,26.2129957 L37.129793,40.6275094 L44.5259937,40.6275094 L44.5259937,12.547288 L41.2014388,12.547288 L29.8083013,22.95569 L18.3778093,12.547288 Z M50.9073959,40.6275094 L58.266242,40.6275094 L58.266242,12.547288 L50.9073959,12.547288 L50.9073959,40.6275094 Z M87.8821737,16.6282801 C85.3420644,14.0823401 81.8680913,12.547288 78.0205728,12.547288 C70.2881811,12.547288 64.0126168,18.8372576 64.0126168,26.5873987 C64.0126168,34.3375398 70.2881811,40.6275094 78.0205728,40.6275094 C81.9054459,40.6275094 85.4167735,39.0175767 87.9568828,36.4716366 L82.727246,31.3048759 C81.5692549,32.5029653 79.9256548,33.1768907 78.0205728,33.1768907 C74.2104088,33.1768907 71.4461721,30.4063088 71.4461721,26.5873987 C71.4461721,22.7684886 74.2104088,19.9979067 78.0205728,19.9979067 C79.9256548,19.9979067 81.5692549,20.671832 82.727246,21.8324812 L87.8821737,16.6282801 Z M94.338285,12.547288 L94.338285,40.6275094 L101.697131,40.6275094 L101.697131,29.919585 L110.587514,29.919585 L110.587514,40.6275094 L117.94636,40.6275094 L117.94636,12.547288 L110.587514,12.547288 L110.587514,22.5438468 L101.697131,22.5438468 L101.697131,12.547288 L94.338285,12.547288 Z M129.856235,40.6275094 L131.53719,36.9583605 L143.005037,36.9583605 L144.723346,40.6275094 L152.082192,40.6275094 L138.896036,12.547288 L135.571481,12.547288 L122.497389,40.6275094 L129.856235,40.6275094 Z M137.289791,24.5656227 L140.128736,30.7432715 L134.41349,30.7432715 L137.289791,24.5656227 Z M156.595867,40.6275094 L174.003087,40.6275094 L174.003087,34.5996219 L163.954713,34.5996219 L163.954713,29.4328611 L172.845096,29.4328611 L172.845096,23.2177721 L163.954713,23.2177721 L163.954713,18.6500561 L174.003087,18.6500561 L174.003087,12.547288 L156.595867,12.547288 L156.595867,40.6275094 Z M180.048298,40.6275094 L197.492872,40.6275094 L197.492872,33.2143309 L187.407144,33.2143309 L187.407144,12.547288 L180.048298,12.547288 L180.048298,40.6275094 Z" id="Combined-Shape"></path>
                        <g id="Group-5" transform="translate(6.556701, 62.485494)">
                            <path d="M0,0 L199.455621,0 L199.455621,51.4438806 L0,51.4438806 L0,0 Z M12.8891641,40.3102501 L23.2737288,40.3102501 C31.0061205,40.3102501 37.2816847,34.0202804 37.2816847,26.2701393 C37.2816847,18.5199982 31.0061205,12.2300286 23.2737288,12.2300286 L12.8891641,12.2300286 L12.8891641,40.3102501 Z M20.2106558,19.7555279 L23.3110833,19.7555279 C26.9718291,19.7555279 29.9601931,22.7507516 29.9601931,26.3824602 C29.9601931,30.0516091 26.9718291,33.0468328 23.3110833,33.0468328 L20.2106558,33.0468328 L20.2106558,19.7555279 Z M43.1401232,40.3102501 L60.5473431,40.3102501 L60.5473431,34.2823625 L50.4989693,34.2823625 L50.4989693,29.1156018 L59.389352,29.1156018 L59.389352,22.9005128 L50.4989693,22.9005128 L50.4989693,18.3327967 L60.5473431,18.3327967 L60.5473431,12.2300286 L43.1401232,12.2300286 L43.1401232,40.3102501 Z M90.2006293,40.3102501 L90.2006293,12.2300286 L82.8417831,12.2300286 L82.8417831,25.4838931 L69.5809182,12.2300286 L66.5925543,12.2300286 L66.5925543,40.3102501 L73.9514004,40.3102501 L73.9514004,27.0189452 L87.1749108,40.3102501 L90.2006293,40.3102501 Z M96.0217132,19.5308862 L103.30585,19.5308862 L103.30585,40.3102501 L110.664696,40.3102501 L110.664696,19.5308862 L118.098252,19.5308862 L118.098252,12.1925883 L96.0217132,12.1925883 L96.0217132,19.5308862 Z M121.90219,26.3075796 C121.90219,34.0577207 128.1404,40.3102501 135.872791,40.3102501 C143.605183,40.3102501 149.880747,34.0577207 149.880747,26.3075796 C149.880747,18.5574385 143.605183,12.2300286 135.872791,12.2300286 C128.1404,12.2300286 121.90219,18.5574385 121.90219,26.3075796 Z M142.559256,26.2701393 C142.559256,29.9392883 139.570892,32.9719522 135.872791,32.9719522 C132.212046,32.9719522 129.223682,29.9392883 129.223682,26.2701393 C129.223682,22.5635501 132.212046,19.5683265 135.872791,19.5683265 C139.570892,19.5683265 142.559256,22.5635501 142.559256,26.2701393 Z M179.384615,40.3102501 L179.384615,12.2300286 L172.025769,12.2300286 L172.025769,25.4838931 L158.764904,12.2300286 L155.77654,12.2300286 L155.77654,40.3102501 L163.135387,40.3102501 L163.135387,27.0189452 L176.358897,40.3102501 L179.384615,40.3102501 Z" id="Combined-Shape"></path>
                        </g>
                    </g>
                </g>
            </g>
        </g>
    </g>
</svg>