<?xml version="1.0" encoding="UTF-8"?>
<svg width="223px" height="125px" viewBox="0 0 223 125" version="1.1" xmlns="http://www.w3.org/2000/svg" xmlns:xlink="http://www.w3.org/1999/xlink">
    <!-- Generator: Sketch 42 (36781) - http://www.bohemiancoding.com/sketch -->
    <title>Group 2</title>
    <desc>Created with Sketch.</desc>
    <defs></defs>
    <g id="Page-1" stroke="none" stroke-width="1" fill="none" fill-rule="evenodd">
        <g id="Mobile-Copy-34" transform="translate(-49.000000, -88.000000)" fill="#FFFFFF">
            <g id="Group-2" transform="translate(49.000000, 88.000000)">
                <path d="M41,0 L181,0 L181,58 L41,58 L41,0 Z M0,68.0066986 C0,67.4507143 0.456932193,67 0.994229317,67 L222.005771,67 C222.554868,67 223,67.4500399 223,68.0066986 L223,123.993301 C223,124.549286 222.543068,125 222.005771,125 L0.994229317,125 C0.445131627,125 0,124.54996 0,123.993301 L0,68.0066986 Z M54.6,44.024 C54.504,44.648 54.936,45.08 55.512,45.08 L61.176,45.08 C61.656,45.08 62.04,44.696 62.088,44.312 L64.2,29.48 L72.408,45.032 C72.552,45.32 72.936,45.56 73.224,45.56 L74.088,45.56 C74.328,45.56 74.76,45.32 74.904,45.032 L82.968,29.48 L85.224,44.312 C85.272,44.696 85.704,45.08 86.136,45.08 L91.8,45.08 C92.376,45.08 92.808,44.648 92.712,44.024 L87.288,11.768 C87.24,11.336 86.808,11 86.424,11 L85.656,11 C85.416,11 84.984,11.192 84.84,11.48 L73.704,32.216 L62.472,11.48 C62.328,11.192 61.896,11 61.656,11 L60.888,11 C60.504,11 60.072,11.336 60.024,11.768 L54.6,44.024 Z M98.52,44.168 C98.52,44.648 98.952,45.08 99.432,45.08 L105.192,45.08 C105.672,45.08 106.104,44.648 106.104,44.168 L106.104,12.392 C106.104,11.912 105.672,11.48 105.192,11.48 L99.432,11.48 C98.952,11.48 98.52,11.912 98.52,12.392 L98.52,44.168 Z M113.688,43.928 C113.688,44.552 114.168,45.08 114.84,45.08 L120.456,45.08 C121.08,45.08 121.608,44.552 121.608,43.928 L121.608,29.816 L132.696,44.696 C132.792,44.84 133.224,45.032 133.56,45.032 L140.184,45.032 C141.096,45.032 141.624,43.976 141.096,43.256 L128.856,27.512 L140.088,13.256 C140.616,12.536 140.136,11.48 139.224,11.48 L133.176,11.48 C132.888,11.48 132.456,11.72 132.264,11.96 L121.608,25.448 L121.608,12.632 C121.608,12.008 121.08,11.48 120.456,11.48 L114.84,11.48 C114.168,11.48 113.688,12.008 113.688,12.632 L113.688,43.928 Z M145.512,44.168 C145.512,44.648 145.896,45.08 146.424,45.08 L166.296,45.08 C166.824,45.08 167.208,44.648 167.208,44.168 L167.208,38.936 C167.208,38.456 166.824,38.024 166.296,38.024 L153,38.024 L153,31.544 L163.944,31.544 C164.424,31.544 164.856,31.16 164.856,30.632 L164.856,25.4 C164.856,24.92 164.424,24.488 163.944,24.488 L153,24.488 L153,18.536 L166.296,18.536 C166.824,18.536 167.208,18.104 167.208,17.624 L167.208,12.392 C167.208,11.912 166.824,11.48 166.296,11.48 L146.424,11.48 C145.896,11.48 145.512,11.912 145.512,12.392 L145.512,44.168 Z M15,112.168 C15,112.648 15.384,113.08 15.864,113.08 L27.576,113.08 C36.84,113.08 44.424,105.544 44.424,96.232 C44.424,87.016 36.84,79.48 27.576,79.48 L15.864,79.48 C15.384,79.48 15,79.912 15,80.392 L15,112.168 Z M22.488,105.976 L22.488,86.536 L27.528,86.536 C32.952,86.536 36.456,90.808 36.456,96.232 C36.456,101.704 32.952,105.976 27.528,105.976 L22.488,105.976 Z M50.136,112.168 C50.136,112.648 50.52,113.08 51.048,113.08 L70.92,113.08 C71.448,113.08 71.832,112.648 71.832,112.168 L71.832,106.936 C71.832,106.456 71.448,106.024 70.92,106.024 L57.624,106.024 L57.624,99.544 L68.568,99.544 C69.048,99.544 69.48,99.16 69.48,98.632 L69.48,93.4 C69.48,92.92 69.048,92.488 68.568,92.488 L57.624,92.488 L57.624,86.536 L70.92,86.536 C71.448,86.536 71.832,86.104 71.832,85.624 L71.832,80.392 C71.832,79.912 71.448,79.48 70.92,79.48 L51.048,79.48 C50.52,79.48 50.136,79.912 50.136,80.392 L50.136,112.168 Z M77.88,112.168 C77.88,112.648 78.312,113.08 78.792,113.08 L84.504,113.08 C85.032,113.08 85.416,112.648 85.416,112.168 L85.416,94.264 L85.464,94.264 L104.136,113.032 C104.52,113.416 104.856,113.56 105.336,113.56 L105.816,113.56 C106.296,113.56 106.728,113.272 106.728,112.696 L106.728,80.392 C106.728,79.912 106.296,79.48 105.816,79.48 L100.056,79.48 C99.528,79.48 99.144,79.912 99.144,80.392 L99.144,97.432 L99.096,97.432 L80.664,79.72 C80.28,79.336 79.944,79 79.464,79 L78.744,79 C78.264,79 77.832,79.384 77.832,79.864 L77.88,112.168 Z M119.544,112.168 C119.544,112.648 119.976,113.08 120.456,113.08 L126.216,113.08 C126.696,113.08 127.128,112.648 127.128,112.168 L127.128,86.536 L133.992,86.536 C134.52,86.536 134.904,86.104 134.904,85.624 L134.904,80.392 C134.904,79.912 134.52,79.48 133.992,79.48 L112.68,79.48 C112.152,79.48 111.768,79.912 111.768,80.392 L111.768,85.624 C111.768,86.104 112.152,86.536 112.68,86.536 L119.544,86.536 L119.544,112.168 Z M138.024,96.328 C138.024,105.928 145.656,113.56 155.256,113.56 C164.856,113.56 172.536,105.928 172.536,96.328 C172.536,86.728 164.856,79 155.256,79 C145.656,79 138.024,86.728 138.024,96.328 Z M145.704,96.328 C145.704,91.048 150.024,86.68 155.256,86.68 C160.536,86.68 164.856,91.048 164.856,96.328 C164.856,101.56 160.536,105.88 155.256,105.88 C150.024,105.88 145.704,101.56 145.704,96.328 Z M178.2,112.168 C178.2,112.648 178.632,113.08 179.112,113.08 L184.824,113.08 C185.352,113.08 185.736,112.648 185.736,112.168 L185.736,94.264 L185.784,94.264 L204.456,113.032 C204.84,113.416 205.176,113.56 205.656,113.56 L206.136,113.56 C206.616,113.56 207.048,113.272 207.048,112.696 L207.048,80.392 C207.048,79.912 206.616,79.48 206.136,79.48 L200.376,79.48 C199.848,79.48 199.464,79.912 199.464,80.392 L199.464,97.432 L199.416,97.432 L180.984,79.72 C180.6,79.336 180.264,79 179.784,79 L179.064,79 C178.584,79 178.152,79.384 178.152,79.864 L178.2,112.168 Z" id="Combined-Shape"></path>
            </g>
        </g>
    </g>
</svg>