<?xml version="1.0" encoding="UTF-8"?>
<svg width="500px" height="82px" viewBox="0 0 500 82" version="1.1" xmlns="http://www.w3.org/2000/svg" xmlns:xlink="http://www.w3.org/1999/xlink">
    <!-- Generator: Sketch 42 (36781) - http://www.bohemiancoding.com/sketch -->
    <title>Group 3</title>
    <desc>Created with Sketch.</desc>
    <defs></defs>
    <g id="Page-1" stroke="none" stroke-width="1" fill="none" fill-rule="evenodd">
        <g id="Adelle-Copy-5" transform="translate(-250.000000, -141.000000)" fill="#FFFFFF">
            <g id="Group-5" transform="translate(250.000000, 141.000000)">
                <g id="Group-3">
                    <path d="M0,1.00719922 C0,0.450938449 0.445492231,0 1.00579365,0 L498.994206,0 C499.549691,0 500,0.441182375 500,1.00719922 L500,80.9928008 C500,81.5490616 499.554508,82 498.994206,82 L1.00579365,82 C0.450309153,82 0,81.5588176 0,80.9928008 L0,1.00719922 Z M20.5108646,63.4133333 C20.3742525,64.3016667 20.9890066,64.9166667 21.8086788,64.9166667 L29.8687881,64.9166667 C30.5518482,64.9166667 31.0982963,64.37 31.1666023,63.8233333 L34.1720667,42.7083333 L34.3086788,42.7083333 L45.8523946,64.8483333 C46.0573127,65.2583333 46.6037607,65.6 47.0135968,65.6 L48.243105,65.6 C48.5846351,65.6 49.1993892,65.2583333 49.4043072,64.8483333 L60.879717,42.7083333 L61.016329,42.7083333 L64.0900995,63.8233333 C64.1584055,64.37 64.7731596,64.9166667 65.3879137,64.9166667 L73.448023,64.9166667 C74.2676952,64.9166667 74.8824493,64.3016667 74.7458372,63.4133333 L67.027258,17.4933333 C66.958952,16.8783333 66.3441979,16.4 65.7977498,16.4 L64.7048536,16.4 C64.3633236,16.4 63.7485695,16.6733333 63.5436514,17.0833333 L47.6966569,46.6033333 L47.5600449,46.6033333 L31.7130504,17.0833333 C31.5081323,16.6733333 30.8933782,16.4 30.5518482,16.4 L29.458952,16.4 C28.9125039,16.4 28.2977498,16.8783333 28.2294438,17.4933333 L20.5108646,63.4133333 Z M83.0108646,63.6183333 C83.0108646,64.3016667 83.6256187,64.9166667 84.3086788,64.9166667 L92.5054001,64.9166667 C93.1884602,64.9166667 93.8032143,64.3016667 93.8032143,63.6183333 L93.8032143,18.3816667 C93.8032143,17.6983333 93.1884602,17.0833333 92.5054001,17.0833333 L84.3086788,17.0833333 C83.6256187,17.0833333 83.0108646,17.6983333 83.0108646,18.3816667 L83.0108646,63.6183333 Z M104.595564,63.2766667 C104.595564,64.165 105.278624,64.9166667 106.234908,64.9166667 L114.226712,64.9166667 C115.11469,64.9166667 115.866056,64.165 115.866056,63.2766667 L115.866056,43.1866667 L131.644744,64.37 C131.781356,64.575 132.39611,64.8483333 132.874253,64.8483333 L142.300482,64.8483333 C143.598296,64.8483333 144.349662,63.345 143.598296,62.32 L126.180263,39.9066667 L142.16387,19.6116667 C142.915236,18.5866667 142.232176,17.0833333 140.934362,17.0833333 L132.327804,17.0833333 C131.917968,17.0833333 131.303214,17.425 131.02999,17.7666667 L115.866056,36.9683333 L115.866056,18.7233333 C115.866056,17.835 115.11469,17.0833333 114.226712,17.0833333 L106.234908,17.0833333 C105.278624,17.0833333 104.595564,17.835 104.595564,18.7233333 L104.595564,63.2766667 Z M149.882449,63.6183333 C149.882449,64.3016667 150.428897,64.9166667 151.180263,64.9166667 L179.458952,64.9166667 C180.210318,64.9166667 180.756766,64.3016667 180.756766,63.6183333 L180.756766,56.17 C180.756766,55.4866667 180.210318,54.8716667 179.458952,54.8716667 L160.538187,54.8716667 L160.538187,45.6466667 L176.111957,45.6466667 C176.795018,45.6466667 177.409772,45.1 177.409772,44.3483333 L177.409772,36.9 C177.409772,36.2166667 176.795018,35.6016667 176.111957,35.6016667 L160.538187,35.6016667 L160.538187,27.1283333 L179.458952,27.1283333 C180.210318,27.1283333 180.756766,26.5133333 180.756766,25.83 L180.756766,18.3816667 C180.756766,17.6983333 180.210318,17.0833333 179.458952,17.0833333 L151.180263,17.0833333 C150.428897,17.0833333 149.882449,17.6983333 149.882449,18.3816667 L149.882449,63.6183333 Z M207.122886,63.6183333 C207.122886,64.3016667 207.669335,64.9166667 208.352395,64.9166667 L225.019061,64.9166667 C238.202121,64.9166667 248.994471,54.1883333 248.994471,40.9316667 C248.994471,27.8116667 238.202121,17.0833333 225.019061,17.0833333 L208.352395,17.0833333 C207.669335,17.0833333 207.122886,17.6983333 207.122886,18.3816667 L207.122886,63.6183333 Z M217.778624,54.8033333 L217.778624,27.1283333 L224.950755,27.1283333 C232.669335,27.1283333 237.655673,33.21 237.655673,40.9316667 C237.655673,48.7216667 232.669335,54.8033333 224.950755,54.8033333 L217.778624,54.8033333 Z M255.756766,63.6183333 C255.756766,64.3016667 256.303214,64.9166667 257.05458,64.9166667 L285.333269,64.9166667 C286.084635,64.9166667 286.631083,64.3016667 286.631083,63.6183333 L286.631083,56.17 C286.631083,55.4866667 286.084635,54.8716667 285.333269,54.8716667 L266.412504,54.8716667 L266.412504,45.6466667 L281.986274,45.6466667 C282.669335,45.6466667 283.284089,45.1 283.284089,44.3483333 L283.284089,36.9 C283.284089,36.2166667 282.669335,35.6016667 281.986274,35.6016667 L266.412504,35.6016667 L266.412504,27.1283333 L285.333269,27.1283333 C286.084635,27.1283333 286.631083,26.5133333 286.631083,25.83 L286.631083,18.3816667 C286.631083,17.6983333 286.084635,17.0833333 285.333269,17.0833333 L257.05458,17.0833333 C256.303214,17.0833333 255.756766,17.6983333 255.756766,18.3816667 L255.756766,63.6183333 Z M296.603761,63.6183333 C296.603761,64.3016667 297.218515,64.9166667 297.901575,64.9166667 L306.02999,64.9166667 C306.781356,64.9166667 307.327804,64.3016667 307.327804,63.6183333 L307.327804,38.13 L307.39611,38.13 L333.967149,64.8483333 C334.513597,65.395 334.991739,65.6 335.674799,65.6 L336.357859,65.6 C337.040919,65.6 337.655673,65.19 337.655673,64.37 L337.655673,18.3816667 C337.655673,17.6983333 337.040919,17.0833333 336.357859,17.0833333 L328.161138,17.0833333 C327.409772,17.0833333 326.863324,17.6983333 326.863324,18.3816667 L326.863324,42.64 L326.795018,42.64 L300.565509,17.425 C300.019061,16.8783333 299.540919,16.4 298.857859,16.4 L297.833269,16.4 C297.150209,16.4 296.535455,16.9466667 296.535455,17.63 L296.603761,63.6183333 Z M355.893378,63.6183333 C355.893378,64.3016667 356.508132,64.9166667 357.191192,64.9166667 L365.387914,64.9166667 C366.070974,64.9166667 366.685728,64.3016667 366.685728,63.6183333 L366.685728,27.1283333 L376.453488,27.1283333 C377.204854,27.1283333 377.751302,26.5133333 377.751302,25.83 L377.751302,18.3816667 C377.751302,17.6983333 377.204854,17.0833333 376.453488,17.0833333 L346.125619,17.0833333 C345.374253,17.0833333 344.827804,17.6983333 344.827804,18.3816667 L344.827804,25.83 C344.827804,26.5133333 345.374253,27.1283333 346.125619,27.1283333 L355.893378,27.1283333 L355.893378,63.6183333 Z M380.825072,41.0683333 C380.825072,54.735 391.685728,65.6 405.34693,65.6 C419.008132,65.6 429.937094,54.735 429.937094,41.0683333 C429.937094,27.4016667 419.008132,16.4 405.34693,16.4 C391.685728,16.4 380.825072,27.4016667 380.825072,41.0683333 Z M391.754034,41.0683333 C391.754034,33.5516667 397.901575,27.3333333 405.34693,27.3333333 C412.860591,27.3333333 419.008132,33.5516667 419.008132,41.0683333 C419.008132,48.5166667 412.860591,54.6666667 405.34693,54.6666667 C397.901575,54.6666667 391.754034,48.5166667 391.754034,41.0683333 Z M437.997203,63.6183333 C437.997203,64.3016667 438.611957,64.9166667 439.295018,64.9166667 L447.423433,64.9166667 C448.174799,64.9166667 448.721247,64.3016667 448.721247,63.6183333 L448.721247,38.13 L448.789553,38.13 L475.360591,64.8483333 C475.907039,65.395 476.385182,65.6 477.068242,65.6 L477.751302,65.6 C478.434362,65.6 479.049116,65.19 479.049116,64.37 L479.049116,18.3816667 C479.049116,17.6983333 478.434362,17.0833333 477.751302,17.0833333 L469.55458,17.0833333 C468.803214,17.0833333 468.256766,17.6983333 468.256766,18.3816667 L468.256766,42.64 L468.18846,42.64 L441.958952,17.425 C441.412504,16.8783333 440.934362,16.4 440.251302,16.4 L439.226712,16.4 C438.543651,16.4 437.928897,16.9466667 437.928897,17.63 L437.997203,63.6183333 Z" id="Combined-Shape"></path>
                </g>
            </g>
        </g>
    </g>
</svg>