<?xml version="1.0" encoding="UTF-8"?>
<svg width="155px" height="14px" viewBox="0 0 155 14" version="1.1" xmlns="http://www.w3.org/2000/svg" xmlns:xlink="http://www.w3.org/1999/xlink">
    <!-- Generator: Sketch 42 (36781) - http://www.bohemiancoding.com/sketch -->
    <title>Group</title>
    <desc>Created with Sketch.</desc>
    <defs></defs>
    <g id="Page-1" stroke="none" stroke-width="1" fill="none" fill-rule="evenodd">
        <g id="Group" fill="#FFFFFF">
            <g id="Group-7" transform="translate(6.000000, 7.000000) rotate(-45.000000) translate(-6.000000, -7.000000) translate(2.000000, 3.000000)" fill-rule="nonzero">
                <rect id="Rectangle-Copy-2" x="0" y="0" width="8" height="2"></rect>
                <rect id="Rectangle-Copy-3" x="0" y="0" width="2" height="8"></rect>
            </g>
            <path d="M22.0053021,13.072 C21.9673021,13.319 22.1383021,13.49 22.3663021,13.49 L24.6083021,13.49 C24.7983021,13.49 24.9503021,13.338 24.9693021,13.186 L25.8053021,7.315 L25.8433021,7.315 L29.0543021,13.471 C29.1113021,13.585 29.2633021,13.68 29.3773021,13.68 L29.7193021,13.68 C29.8143021,13.68 29.9853021,13.585 30.0423021,13.471 L33.2343021,7.315 L33.2723021,7.315 L34.1273021,13.186 C34.1463021,13.338 34.3173021,13.49 34.4883021,13.49 L36.7303021,13.49 C36.9583021,13.49 37.1293021,13.319 37.0913021,13.072 L34.9443021,0.304 C34.9253021,0.133 34.7543021,0 34.6023021,0 L34.2983021,0 C34.2033021,0 34.0323021,0.076 33.9753021,0.19 L29.5673021,8.398 L29.5293021,8.398 L25.1213021,0.19 C25.0643021,0.076 24.8933021,0 24.7983021,0 L24.4943021,0 C24.3423021,0 24.1713021,0.133 24.1523021,0.304 L22.0053021,13.072 Z M40.0233021,13.129 C40.0233021,13.319 40.1943021,13.49 40.3843021,13.49 L42.6643021,13.49 C42.8543021,13.49 43.0253021,13.319 43.0253021,13.129 L43.0253021,0.551 C43.0253021,0.361 42.8543021,0.19 42.6643021,0.19 L40.3843021,0.19 C40.1943021,0.19 40.0233021,0.361 40.0233021,0.551 L40.0233021,13.129 Z M46.7933021,13.034 C46.7933021,13.281 46.9833021,13.49 47.2493021,13.49 L49.4723021,13.49 C49.7193021,13.49 49.9283021,13.281 49.9283021,13.034 L49.9283021,7.372 L54.3173021,13.338 C54.3553021,13.395 54.5263021,13.471 54.6593021,13.471 L57.2813021,13.471 C57.6423021,13.471 57.8513021,13.053 57.6423021,12.768 L52.7973021,6.46 L57.2433021,0.893 C57.4523021,0.608 57.2623021,0.19 56.9013021,0.19 L54.5073021,0.19 C54.3933021,0.19 54.2223021,0.285 54.1463021,0.38 L49.9283021,5.643 L49.9283021,0.646 C49.9283021,0.399 49.7193021,0.19 49.4723021,0.19 L47.2493021,0.19 C46.9833021,0.19 46.7933021,0.399 46.7933021,0.646 L46.7933021,13.034 Z M60.0803021,13.129 C60.0803021,13.319 60.2323021,13.49 60.4413021,13.49 L68.3073021,13.49 C68.5163021,13.49 68.6683021,13.319 68.6683021,13.129 L68.6683021,11.058 C68.6683021,10.868 68.5163021,10.697 68.3073021,10.697 L63.0443021,10.697 L63.0443021,8.132 L67.3763021,8.132 C67.5663021,8.132 67.7373021,7.98 67.7373021,7.771 L67.7373021,5.7 C67.7373021,5.51 67.5663021,5.339 67.3763021,5.339 L63.0443021,5.339 L63.0443021,2.983 L68.3073021,2.983 C68.5163021,2.983 68.6683021,2.812 68.6683021,2.622 L68.6683021,0.551 C68.6683021,0.361 68.5163021,0.19 68.3073021,0.19 L60.4413021,0.19 C60.2323021,0.19 60.0803021,0.361 60.0803021,0.551 L60.0803021,13.129 Z M76.4133021,13.129 L76.4133021,0.551 C76.4133021,0.361 76.5653021,0.19 76.7553021,0.19 L81.3913021,0.19 C85.0583021,0.19 88.0603021,3.173 88.0603021,6.821 C88.0603021,10.507 85.0583021,13.49 81.3913021,13.49 L76.7553021,13.49 C76.5653021,13.49 76.4133021,13.319 76.4133021,13.129 Z M79.3773021,10.678 L81.2013021,10.678 C83.3483021,10.678 84.9063021,8.987 84.9063021,6.821 C84.9063021,4.674 83.3483021,2.983 81.2013021,2.983 L79.3773021,2.983 L79.3773021,10.678 Z M90.8783021,13.129 C90.8783021,13.319 91.0303021,13.49 91.2393021,13.49 L99.1053021,13.49 C99.3143021,13.49 99.4663021,13.319 99.4663021,13.129 L99.4663021,11.058 C99.4663021,10.868 99.3143021,10.697 99.1053021,10.697 L93.8423021,10.697 L93.8423021,8.132 L98.1743021,8.132 C98.3643021,8.132 98.5353021,7.98 98.5353021,7.771 L98.5353021,5.7 C98.5353021,5.51 98.3643021,5.339 98.1743021,5.339 L93.8423021,5.339 L93.8423021,2.983 L99.1053021,2.983 C99.3143021,2.983 99.4663021,2.812 99.4663021,2.622 L99.4663021,0.551 C99.4663021,0.361 99.3143021,0.19 99.1053021,0.19 L91.2393021,0.19 C91.0303021,0.19 90.8783021,0.361 90.8783021,0.551 L90.8783021,13.129 Z M102.512302,13.129 C102.512302,13.319 102.683302,13.49 102.873302,13.49 L105.134302,13.49 C105.343302,13.49 105.495302,13.319 105.495302,13.129 L105.495302,6.042 L105.514302,6.042 L113.019302,13.585 C113.057302,13.623 113.209302,13.68 113.266302,13.68 L113.570302,13.68 C113.760302,13.68 113.931302,13.528 113.931302,13.338 L113.931302,0.551 C113.931302,0.361 113.760302,0.19 113.570302,0.19 L111.290302,0.19 C111.081302,0.19 110.929302,0.361 110.929302,0.551 L110.929302,7.296 L110.910302,7.296 L103.329302,0 L102.854302,0 C102.664302,0 102.493302,0.152 102.493302,0.342 L102.512302,13.129 Z M119.409302,13.129 C119.409302,13.319 119.580302,13.49 119.770302,13.49 L122.050302,13.49 C122.240302,13.49 122.411302,13.319 122.411302,13.129 L122.411302,2.983 L125.128302,2.983 C125.337302,2.983 125.489302,2.812 125.489302,2.622 L125.489302,0.551 C125.489302,0.361 125.337302,0.19 125.128302,0.19 L116.692302,0.19 C116.483302,0.19 116.331302,0.361 116.331302,0.551 L116.331302,2.622 C116.331302,2.812 116.483302,2.983 116.692302,2.983 L119.409302,2.983 L119.409302,13.129 Z M126.844302,6.859 C126.844302,3.059 129.865302,0 133.665302,0 C137.465302,0 140.505302,3.059 140.505302,6.859 C140.505302,10.659 137.465302,13.68 133.665302,13.68 C129.865302,13.68 126.844302,10.659 126.844302,6.859 Z M129.884302,6.859 C129.884302,8.93 131.594302,10.64 133.665302,10.64 C135.755302,10.64 137.465302,8.93 137.465302,6.859 C137.465302,4.769 135.755302,3.04 133.665302,3.04 C131.594302,3.04 129.884302,4.769 129.884302,6.859 Z M143.304302,13.129 C143.304302,13.319 143.475302,13.49 143.665302,13.49 L145.926302,13.49 C146.135302,13.49 146.287302,13.319 146.287302,13.129 L146.287302,6.042 L146.306302,6.042 L153.811302,13.585 C153.849302,13.623 154.001302,13.68 154.058302,13.68 L154.362302,13.68 C154.552302,13.68 154.723302,13.528 154.723302,13.338 L154.723302,0.551 C154.723302,0.361 154.552302,0.19 154.362302,0.19 L152.082302,0.19 C151.873302,0.19 151.721302,0.361 151.721302,0.551 L151.721302,7.296 L151.702302,7.296 L144.121302,0 L143.646302,0 C143.456302,0 143.285302,0.152 143.285302,0.342 L143.304302,13.129 Z" id="MIKE-DENTON"></path>
        </g>
    </g>
</svg>