<svg width="98" height="26" viewBox="0 0 98 26" xmlns="http://www.w3.org/2000/svg"><title>Mitsubishi Electric</title><g fill="#fff" fill-rule="evenodd"><path d="M10.58 25.25H.65L5.6 16.9h9.93M20.48 25.25h9.9l-4.94-8.36h-9.9M20.48 8.53L15.53.17l-4.95 8.36 4.95 8.36M35.44 21.22h4.5v-1.6h-4.5V17.7h5.07v-1.6h-6.96v9.17h7.1v-1.6h-5.2M35.32 7.75l2 6.8h1.83l2-6.8v6.8h1.77V5.4H40.2l-1.97 6.43-1.96-6.43h-2.73v9.16h1.78M76.73 14.56h1.9V5.4h-1.9M78.27 25.25h1.9V16.1h-1.9M95.5 14.56h1.9V5.4h-1.9M43.66 14.56h1.9V5.4h-1.9M92.85 8.97h-3.77V5.4H87.2v9.16h1.88v-4h3.77v4h1.84V5.4h-1.85M48.38 14.56h1.93V6.98h2.3V5.4h-6.54v1.58h2.32M65.66 25.25h1.93v-7.57h2.3v-1.6h-6.53v1.6h2.3M64.38 14.82c2.4 0 3.74-1.07 3.74-3.12V5.4h-1.9v6.47c0 .8-.68 1.44-1.84 1.44-1.46 0-1.87-.76-1.87-1.43V5.4h-1.83v6.3c0 2.2 1.4 3.12 3.7 3.12M50.04 21.22h4.48v-1.6h-4.48V17.7h5.05v-1.6h-6.96v9.17h7.1v-1.6h-5.2M73.05 6.85c.5 0 1.1.47 1.1 1.1 0 .54-.42 1.14-1.22 1.14h-2.26V6.84h2.38zm-.15 6.32h-2.23v-2.65h2.2c.8 0 1.45.44 1.45 1.33 0 .75-.6 1.32-1.42 1.32zm-2.17 1.4h2.73c1.78 0 2.82-1.04 2.82-2.5 0-1.15-.86-2.15-1.8-2.38.82-.2 1.48-1.04 1.48-2.05 0-1.35-1-2.25-2.9-2.25H68.8v9.16h1.93zM72.27 20.16v-2.5h2.3c.76 0 1.27.53 1.27 1.25 0 .52-.45 1.26-1.22 1.26h-2.35zm3.77.7c.8-.24 1.67-.95 1.67-2.22 0-1.63-1.12-2.56-3.05-2.56h-4.3v9.16h1.92v-3.6h1.6c1 0 1.52.48 1.67 1.13.18.72.15 1.8.33 2.47h1.93c-.18-.7-.3-1.66-.36-2.4-.06-1.25-.74-1.75-1.4-2zM43.15 16.1h-1.9v9.15h6.33v-1.6h-4.43M55.8 10.7c1.5.25 2.37.52 2.37 1.4 0 .6-.6 1.18-1.87 1.18s-1.93-.7-1.93-1.53h-1.8c0 1.6 1.06 3.05 3.82 3.05 2.6 0 3.76-1.36 3.76-2.9 0-1.45-.98-2.37-2.7-2.7-1.7-.32-2.82-.4-2.82-1.42 0-.7.65-1.13 1.7-1.13 1.06 0 1.68.52 1.68 1.4h1.84c0-1.44-1.12-2.93-3.62-2.93-1.72 0-3.5.97-3.5 2.78 0 1.52 1.13 2.46 3.06 2.8M82.3 10.7c1.55.25 2.4.52 2.4 1.4 0 .6-.6 1.18-1.86 1.18-1.27 0-1.93-.7-1.93-1.53h-1.8c0 1.6 1.04 3.05 3.83 3.05 2.6 0 3.77-1.36 3.77-2.9 0-1.45-.98-2.37-2.73-2.7-1.66-.32-2.82-.4-2.82-1.42 0-.7.68-1.13 1.7-1.13 1.1 0 1.7.52 1.7 1.4h1.85c0-1.44-1.12-2.93-3.62-2.93-1.72 0-3.53.97-3.53 2.78 0 1.52 1.16 2.46 3.06 2.8"/><path d="M59.5 23.83c-1.5 0-2.4-1.46-2.4-3.2 0-1.74.87-3.2 2.4-3.2 1.2 0 1.8.7 2.03 1.56h2c-.34-1.8-1.77-3.13-4.05-3.13-2.88 0-4.36 2.14-4.36 4.78 0 2.65 1.54 4.8 4.36 4.8 2.26 0 3.77-1.28 4.04-3.24h-2c-.23.93-.85 1.63-2 1.63M85.04 23.83c-1.54 0-2.44-1.46-2.44-3.2 0-1.74.87-3.2 2.44-3.2 1.16 0 1.75.7 2.02 1.56h1.96c-.33-1.8-1.75-3.13-4.04-3.13-2.88 0-4.33 2.14-4.33 4.78 0 2.65 1.5 4.8 4.33 4.8 2.26 0 3.77-1.28 4.07-3.24h-2c-.26.93-.88 1.63-2 1.63"/></g></svg>