<?xml version="1.0" encoding="UTF-8"?>
<svg width="60px" height="60px" viewBox="0 0 60 60" version="1.1" xmlns="http://www.w3.org/2000/svg" xmlns:xlink="http://www.w3.org/1999/xlink">
    <!-- Generator: Sketch 43.2 (39069) - http://www.bohemiancoding.com/sketch -->
    <title>sketch copy</title>
    <desc>Created with Sketch.</desc>
    <defs></defs>
    <g id="Page-1" stroke="none" stroke-width="1" fill="none" fill-rule="evenodd">
        <g id="Adelle-Copy-38" transform="translate(-50.000000, -1361.000000)" fill-rule="nonzero" fill="#000000">
            <g id="sketch-copy" transform="translate(50.000000, 1361.000000)">
                <path d="M60,37 L60,37 L60,1 C60,0.4 59.6,0 59,0 L1,0 C0.4,0 0,0.4 0,1 L0,48 C0,48.6 0.4,49 1,49 L11,49 L11,47 L2,47 L2,2 L58,2 L58,36 L48,36 C47.4,36 47,36.4 47,37 L47,47 L25,47 L25,49 L48,49 C48.3,49 48.5,48.9 48.7,48.7 L59.7,37.7 C59.8,37.6 59.8,37.5 59.9,37.4 L59.9,37.3 C60,37.2 60,37.1 60,37 Z M49,38 L56.6,38 L52.8,41.8 L49,45.6 L49,38 Z" id="Shape"></path>
                <path d="M18.9,9.7 C18.8,9.3 18.4,9 18,9 C17.6,9 17.2,9.3 17.1,9.7 L14.2,18.4 C14.1,18.6 14,18.8 14,19 L14,52 L14,59 C14,59.6 14.4,60 15,60 L21,60 C21.6,60 22,59.6 22,59 L22,52 L22,19 C22,18.8 21.9,18.5 21.8,18.4 L18.9,9.7 Z M16,20 L17,20 L17,51 L16,51 L16,20 Z M19,20 L20,20 L20,51 L19,51 L19,20 Z M18,13.2 L19.6,18 L16.4,18 L18,13.2 Z M20,58 L16,58 L16,53 L17,53 L19,53 L20,53 L20,58 Z" id="Shape"></path>
                <path d="M35,6 C30,6 26,10 26,15 L26,17 L28,17 L28,15 C28,11.1 31.1,8 35,8 C38.9,8 42,11.1 42,15 L42,17 L44,17 L44,15 C44,10 40,6 35,6 Z" id="Shape"></path>
                <path d="M54,16 L54,14 L52,14 L52,16 C52,19.9 48.9,23 45,23 C41.1,23 38,19.9 38,16 L38,14 L36,14 L36,16 C36,21 40,25 45,25 C50,25 54,21 54,16 Z" id="Shape"></path>
                <path d="M25,33 L25,43 C25,43.6 25.4,44 26,44 L36,44 C36.6,44 37,43.6 37,43 L37,33 C37,32.4 36.6,32 36,32 L26,32 C25.4,32 25,32.4 25,33 Z M27,34 L35,34 L35,42 L27,42 L27,34 Z" id="Shape"></path>
                <path d="M39,35 L39,37 L41,37 C41.6,37 42,36.6 42,36 L42,28 C42,27.4 41.6,27 41,27 L33,27 C32.4,27 32,27.4 32,28 L32,30 L34,30 L34,29 L40,29 L40,35 L39,35 Z" id="Shape"></path>
                <rect id="Rectangle-path" x="6" y="5" width="2" height="2"></rect>
                <rect id="Rectangle-path" x="10" y="5" width="2" height="2"></rect>
                <rect id="Rectangle-path" x="14" y="5" width="2" height="2"></rect>
                <rect id="Rectangle-path" x="10" y="9" width="2" height="2"></rect>
                <rect id="Rectangle-path" x="6" y="9" width="2" height="2"></rect>
                <rect id="Rectangle-path" x="6" y="13" width="2" height="2"></rect>
                <rect id="Rectangle-path" x="6" y="17" width="2" height="2"></rect>
                <rect id="Rectangle-path" x="6" y="21" width="2" height="2"></rect>
                <rect id="Rectangle-path" x="6" y="25" width="2" height="2"></rect>
                <rect id="Rectangle-path" x="6" y="29" width="2" height="2"></rect>
                <rect id="Rectangle-path" x="6" y="33" width="2" height="2"></rect>
                <rect id="Rectangle-path" x="6" y="37" width="2" height="2"></rect>
                <rect id="Rectangle-path" x="6" y="41" width="2" height="2"></rect>
            </g>
        </g>
    </g>
</svg>