<?xml version="1.0" encoding="UTF-8"?>
<svg width="60px" height="54px" viewBox="0 0 60 54" version="1.1" xmlns="http://www.w3.org/2000/svg" xmlns:xlink="http://www.w3.org/1999/xlink">
    <!-- Generator: Sketch 43.2 (39069) - http://www.bohemiancoding.com/sketch -->
    <title>coding copy</title>
    <desc>Created with Sketch.</desc>
    <defs></defs>
    <g id="Page-1" stroke="none" stroke-width="1" fill="none" fill-rule="evenodd">
        <g id="Adelle-Copy-38" transform="translate(-50.000000, -1521.000000)" fill-rule="nonzero" fill="#000000">
            <g id="coding-copy" transform="translate(50.000000, 1521.000000)">
                <path d="M21.3591064,23.6902041 C21.0884681,23.2396265 20.5008511,23.0918816 20.0466383,23.3604051 L8.89314894,29.9486628 C8.60323404,30.1198291 8.42553191,30.4297515 8.42553191,30.7643614 C8.42553191,31.0989714 8.60323404,31.4088938 8.89302128,31.5800601 L20.0465106,38.1683178 C20.2000851,38.2590916 20.3688511,38.302263 20.5355745,38.302263 C20.8618723,38.302263 21.18,38.1366672 21.3589787,37.8385188 C21.629617,37.3879411 21.4806383,36.8051907 21.0264255,36.5369204 L11.2539574,30.7643614 L21.0264255,24.9918025 C21.480766,24.7235322 21.6297447,24.1407818 21.3591064,23.6902041 L21.3591064,23.6902041 Z" id="Shape"></path>
                <path d="M38.6410213,37.8385188 C38.8201277,38.1367938 39.1381277,38.302263 39.4644255,38.302263 C39.6311489,38.302263 39.7999149,38.2590916 39.9534894,38.1683178 L51.1069787,31.5800601 C51.3968936,31.4087672 51.5744681,31.0989714 51.5744681,30.7643614 C51.5744681,30.4297515 51.396766,30.1198291 51.1069787,29.9486628 L39.9534894,23.3604051 C39.4992766,23.0920082 38.9114043,23.2396265 38.6410213,23.6902041 C38.370383,24.1407818 38.5193617,24.7235322 38.9735745,24.9918025 L48.7460426,30.7643614 L38.9735745,36.5369204 C38.519234,36.8051907 38.3702553,37.3879411 38.6410213,37.8385188 L38.6410213,37.8385188 Z" id="Shape"></path>
                <path d="M33.666383,23.6467796 L24.7438723,36.8232948 C24.4491064,37.2585536 24.5659149,37.8485203 25.0049362,38.1409717 C25.1688511,38.2501029 25.3543404,38.302263 25.5379149,38.302263 C25.8462128,38.302263 26.1488936,38.1547713 26.333617,37.8819433 L35.2561277,24.7054281 C35.5508936,24.2701693 35.4340851,23.6802026 34.9950638,23.3877512 C34.5557872,23.0954265 33.9610213,23.2115208 33.666383,23.6467796 L33.666383,23.6467796 Z" id="Shape"></path>
                <path d="M59.0425532,0.0633011552 L0.957446809,0.0633011552 C0.428553191,0.0633011552 0,0.488431714 0,1.01281848 L0,52.9197658 C0,53.4441526 0.428553191,53.8692831 0.957446809,53.8692831 L59.0425532,53.8692831 C59.5714468,53.8692831 60,53.4441526 60,52.9197658 L60,42.7915809 C60,42.2671942 59.5714468,41.8420636 59.0425532,41.8420636 C58.5136596,41.8420636 58.0851064,42.2671942 58.0851064,42.7915809 L58.0851064,51.9702485 L1.91489362,51.9702485 L1.91489362,9.55847444 L58.0851064,9.55847444 L58.0851064,38.9935116 C58.0851064,39.5178984 58.5136596,39.943029 59.0425532,39.943029 C59.5714468,39.943029 60,39.5178984 60,38.9935116 L60,1.01281848 C60,0.488431714 59.5714468,0.0633011552 59.0425532,0.0633011552 Z M1.91489362,1.96233581 L37.3404255,1.96233581 L37.3404255,7.65943978 L1.91489362,7.65943978 L1.91489362,1.96233581 Z M39.2553191,7.65943978 L39.2553191,1.96233581 L58.0851064,1.96233581 L58.0851064,7.65943978 L39.2553191,7.65943978 Z" id="Shape"></path>
                <path d="M48.7021277,3.79806931 C48.1390213,3.79806931 47.6808511,4.25244501 47.6808511,4.8108878 C47.6808511,5.36933059 48.1390213,5.82370628 48.7021277,5.82370628 C49.265234,5.82370628 49.7234043,5.36933059 49.7234043,4.8108878 C49.7234043,4.25244501 49.265234,3.79806931 48.7021277,3.79806931 Z" id="Shape"></path>
                <path d="M43.4680851,3.79806931 C42.9049787,3.79806931 42.4468085,4.25244501 42.4468085,4.8108878 C42.4468085,5.36933059 42.9049787,5.82370628 43.4680851,5.82370628 C44.0311915,5.82370628 44.4893617,5.36933059 44.4893617,4.8108878 C44.4893617,4.25244501 44.0311915,3.79806931 43.4680851,3.79806931 Z" id="Shape"></path>
                <path d="M53.9361702,3.79806931 C53.3730638,3.79806931 52.9148936,4.25244501 52.9148936,4.8108878 C52.9148936,5.36933059 53.3730638,5.82370628 53.9361702,5.82370628 C54.4992766,5.82370628 54.9574468,5.36933059 54.9574468,4.8108878 C54.9574468,4.25244501 54.4992766,3.79806931 53.9361702,3.79806931 Z" id="Shape"></path>
            </g>
        </g>
    </g>
</svg>