<?xml version="1.0" encoding="UTF-8"?>
<svg width="60px" height="60px" viewBox="0 0 60 60" version="1.1" xmlns="http://www.w3.org/2000/svg" xmlns:xlink="http://www.w3.org/1999/xlink">
    <!-- Generator: Sketch 43.2 (39069) - http://www.bohemiancoding.com/sketch -->
    <title>interview copy</title>
    <desc>Created with Sketch.</desc>
    <defs></defs>
    <g id="Page-1" stroke="none" stroke-width="1" fill="none" fill-rule="evenodd">
        <g id="Adelle-Copy-38" transform="translate(-50.000000, -1200.000000)" fill-rule="nonzero" fill="#000000">
            <g id="interview-copy" transform="translate(50.000000, 1200.000000)">
                <path d="M12.8571429,25.7142857 C16.4025,25.7142857 19.2857143,22.8310714 19.2857143,19.2857143 C19.2857143,15.7403571 16.4025,12.8571429 12.8571429,12.8571429 C9.31178571,12.8571429 6.42857143,15.7403571 6.42857143,19.2857143 C6.42857143,22.8310714 9.31178571,25.7142857 12.8571429,25.7142857 Z M12.8571429,15 C15.2207143,15 17.1428571,16.9221429 17.1428571,19.2857143 C17.1428571,21.6492857 15.2207143,23.5714286 12.8571429,23.5714286 C10.4935714,23.5714286 8.57142857,21.6492857 8.57142857,19.2857143 C8.57142857,16.9221429 10.4935714,15 12.8571429,15 Z" id="Shape"></path>
                <path d="M47.1428571,25.7142857 C50.6882143,25.7142857 53.5714286,22.8310714 53.5714286,19.2857143 C53.5714286,15.7403571 50.6882143,12.8571429 47.1428571,12.8571429 C43.5975,12.8571429 40.7142857,15.7403571 40.7142857,19.2857143 C40.7142857,22.8310714 43.5975,25.7142857 47.1428571,25.7142857 Z M47.1428571,15 C49.5064286,15 51.4285714,16.9221429 51.4285714,19.2857143 C51.4285714,21.6492857 49.5064286,23.5714286 47.1428571,23.5714286 C44.7792857,23.5714286 42.8571429,21.6492857 42.8571429,19.2857143 C42.8571429,16.9221429 44.7792857,15 47.1428571,15 Z" id="Shape"></path>
                <path d="M57.8571429,27.8571429 L57.8571429,41.7857143 C57.8571429,43.5578571 56.415,45 54.6428571,45 L54.6428571,33.2142857 C54.6428571,30.2603571 52.2396429,27.8571429 49.2857143,27.8571429 L43.9285714,27.8571429 C43.3371429,27.8571429 42.8571429,28.3371429 42.8571429,28.9285714 L42.8571429,33.2142857 L42.8571429,34.2857143 L42.8571429,35.3571429 L34.2857143,35.3571429 C33.6942857,35.3571429 33.2142857,35.8371429 33.2142857,36.4285714 L33.2142857,39.6428571 L26.7857143,39.6428571 L26.7857143,36.4285714 C26.7857143,35.8371429 26.3057143,35.3571429 25.7142857,35.3571429 L17.1428571,35.3571429 L17.1428571,34.2857143 L17.1428571,33.2142857 L17.1428571,28.9285714 C17.1428571,28.3371429 16.6628571,27.8571429 16.0714286,27.8571429 L10.7142857,27.8571429 C7.76035714,27.8571429 5.35714286,30.2603571 5.35714286,33.2142857 L5.35714286,45 C3.585,45 2.14285714,43.5578571 2.14285714,41.7857143 L2.14285714,27.8571429 L0,27.8571429 L0,41.7857143 C0,43.9767857 1.32535714,45.8592857 3.21428571,46.6885714 L3.21428571,60 L5.35714286,60 L5.35714286,47.1428571 L6.42857143,47.1428571 L7.5,47.1428571 L16.0714286,47.1428571 L16.0714286,58.9285714 C16.0714286,59.52 16.5514286,60 17.1428571,60 L20.3571429,60 L21.4285714,60 L22.5,60 L22.5,58.9285714 L22.5,42.8571429 L22.5,41.7857143 L25.7142857,41.7857143 L34.2857143,41.7857143 L37.5,41.7857143 L37.5,42.8571429 L37.5,58.9285714 L37.5,60 L38.5714286,60 L39.6428571,60 L42.8571429,60 C43.4485714,60 43.9285714,59.52 43.9285714,58.9285714 L43.9285714,47.1428571 L52.5,47.1428571 L53.5714286,47.1428571 L54.6428571,47.1428571 L54.6428571,60 L56.7857143,60 L56.7857143,46.6885714 C58.6746429,45.8592857 60,43.9767857 60,41.7857143 L60,27.8571429 L57.8571429,27.8571429 Z M21.4285714,39.6428571 L19.2857143,39.6428571 L12.8571429,39.6428571 L12.8571429,33.2142857 L10.7142857,33.2142857 L10.7142857,40.7142857 C10.7142857,41.3057143 11.1942857,41.7857143 11.7857143,41.7857143 L19.2857143,41.7857143 C19.8760714,41.7857143 20.3571429,42.2667857 20.3571429,42.8571429 L20.3571429,57.8571429 L18.2142857,57.8571429 L18.2142857,46.0714286 C18.2142857,45.48 17.7342857,45 17.1428571,45 L7.5,45 L7.5,33.2142857 C7.5,31.4421429 8.94214286,30 10.7142857,30 L15,30 L15,33.2142857 L15,34.2857143 L15,36.4285714 C15,37.02 15.48,37.5 16.0714286,37.5 L24.6428571,37.5 L24.6428571,39.6428571 L21.4285714,39.6428571 Z M42.8571429,45 C42.2657143,45 41.7857143,45.48 41.7857143,46.0714286 L41.7857143,57.8571429 L39.6428571,57.8571429 L39.6428571,42.8571429 C39.6428571,42.2667857 40.1239286,41.7857143 40.7142857,41.7857143 L48.2142857,41.7857143 C48.8057143,41.7857143 49.2857143,41.3057143 49.2857143,40.7142857 L49.2857143,33.2142857 L47.1428571,33.2142857 L47.1428571,39.6428571 L40.7142857,39.6428571 L38.5714286,39.6428571 L35.3571429,39.6428571 L35.3571429,37.5 L43.9285714,37.5 C44.52,37.5 45,37.02 45,36.4285714 L45,34.2857143 L45,33.2142857 L45,30 L49.2857143,30 C51.0578571,30 52.5,31.4421429 52.5,33.2142857 L52.5,45 L42.8571429,45 Z" id="Shape"></path>
                <path d="M20.3571429,10.7142857 L20.3571429,13.9285714 C20.3571429,14.3903571 20.6517857,14.7985714 21.09,14.9453571 C21.2014286,14.9817857 21.3160714,15 21.4285714,15 C21.7596429,15 22.0789286,14.8457143 22.2857143,14.5714286 L25.1785714,10.7142857 L33.2142857,10.7142857 C34.9864286,10.7142857 36.4285714,9.27214286 36.4285714,7.5 L36.4285714,3.21428571 C36.4285714,1.44214286 34.9864286,0 33.2142857,0 L20.3571429,0 C18.585,0 17.1428571,1.44214286 17.1428571,3.21428571 L17.1428571,7.5 C17.1428571,9.27214286 18.585,10.7142857 20.3571429,10.7142857 Z M19.2857143,3.21428571 C19.2857143,2.62392857 19.7667857,2.14285714 20.3571429,2.14285714 L33.2142857,2.14285714 C33.8046429,2.14285714 34.2857143,2.62392857 34.2857143,3.21428571 L34.2857143,7.5 C34.2857143,8.09035714 33.8046429,8.57142857 33.2142857,8.57142857 L24.6428571,8.57142857 C24.3053571,8.57142857 23.9882143,8.73 23.7857143,9 L22.5,10.7142857 L22.5,9.64285714 C22.5,9.05142857 22.02,8.57142857 21.4285714,8.57142857 L20.3571429,8.57142857 C19.7667857,8.57142857 19.2857143,8.09035714 19.2857143,7.5 L19.2857143,3.21428571 Z" id="Shape"></path>
                <rect id="Rectangle-path" x="21.4285714" y="4.28571429" width="10.7142857" height="2.14285714"></rect>
                <rect id="Rectangle-path" x="28.9285714" y="26.7857143" width="6.42857143" height="2.14285714"></rect>
                <path d="M27.8571429,22.5 C26.085,22.5 24.6428571,23.9421429 24.6428571,25.7142857 L24.6428571,30 C24.6428571,31.7721429 26.085,33.2142857 27.8571429,33.2142857 L36.4285714,33.2142857 C38.2007143,33.2142857 39.6428571,31.7721429 39.6428571,30 L39.6428571,29.2532143 L41.6057143,26.3089286 C41.8253571,25.98 41.8457143,25.5578571 41.6592857,25.2096429 C41.4728571,24.8603571 41.1096429,24.6428571 40.7142857,24.6428571 L39.4596429,24.6428571 C39.0171429,23.3957143 37.8257143,22.5 36.4285714,22.5 L27.8571429,22.5 Z M37.5,25.7142857 C37.5,26.3057143 37.98,26.7857143 38.5714286,26.7857143 L38.7117857,26.7857143 L37.68,28.3339286 C37.5632143,28.5096429 37.5,28.7175 37.5,28.9285714 L37.5,30 C37.5,30.5903571 37.0189286,31.0714286 36.4285714,31.0714286 L27.8571429,31.0714286 C27.2667857,31.0714286 26.7857143,30.5903571 26.7857143,30 L26.7857143,25.7142857 C26.7857143,25.1239286 27.2667857,24.6428571 27.8571429,24.6428571 L36.4285714,24.6428571 C37.0189286,24.6428571 37.5,25.1239286 37.5,25.7142857 Z" id="Shape"></path>
                <rect id="Rectangle-path" x="24.6428571" y="17.1428571" width="2.14285714" height="2.14285714"></rect>
                <rect id="Rectangle-path" x="28.9285714" y="17.1428571" width="2.14285714" height="2.14285714"></rect>
                <rect id="Rectangle-path" x="33.2142857" y="17.1428571" width="2.14285714" height="2.14285714"></rect>
            </g>
        </g>
    </g>
</svg>