<svg width="62" height="19" viewBox="0 0 82 19" xmlns="http://www.w3.org/2000/svg"><title>xero</title><path d="M10.6 9.05l6.77-6.9c.23-.24.35-.55.35-.87 0-.68-.54-1.24-1.2-1.24-.34 0-.64.13-.87.37L8.87 7.3 2.07.4C1.84.17 1.54.04 1.2.04.55.04 0 .6 0 1.28c0 .33.13.64.36.87l6.78 6.9L.37 15.9c-.24.24-.37.56-.37.9 0 .67.54 1.22 1.2 1.22.34 0 .64-.12.87-.36l6.8-6.9 6.76 6.88c.24.25.55.38.88.38.68 0 1.22-.55 1.22-1.23 0-.32-.12-.63-.35-.86l-6.77-6.9zm40.28 0c0 1.23 1 2.24 2.22 2.24 1.2 0 2.2-1.02 2.2-2.26 0-1.23-1-2.24-2.2-2.24-1.22 0-2.2 1-2.2 2.24h-.02zm-4.18 0c0-3.58 2.87-6.5 6.4-6.5 3.5 0 6.38 2.92 6.38 6.5 0 3.57-2.87 6.5-6.4 6.5-3.5 0-6.38-2.92-6.38-6.5zm6.4 9.04c4.9 0 8.9-4.07 8.9-9.05 0-5-4-9.05-8.9-9.05-4.92 0-8.9 4.06-8.9 9.05 0 4.98 3.98 9.04 8.9 9.04zM43.55.14h-.38c-1.12 0-2.2.36-3.1 1.07-.13-.55-.62-.97-1.2-.97-.66 0-1.2.55-1.2 1.23v15.24c0 .67.55 1.22 1.22 1.22.66 0 1.2-.55 1.2-1.23V7.35c0-3.12.3-4.38 2.93-4.7.24-.04.5-.04.5-.04.73-.03 1.24-.53 1.24-1.2 0-.7-.55-1.24-1.22-1.24zm-23.32 7.4v-.1c.7-2.83 3.23-4.92 6.24-4.92 3.04 0 5.58 2.14 6.26 5.02h-12.5zm14.98-.23c-.52-2.5-1.88-4.58-3.94-5.9-3.02-1.95-7-1.85-9.92.26C18.98 3.4 17.6 6.2 17.6 9.1c0 .73.1 1.47.27 2.2.9 3.58 3.93 6.3 7.56 6.75 1.07.13 2.12.07 3.2-.22.93-.23 1.83-.6 2.66-1.15.85-.56 1.57-1.3 2.27-2.2l.04-.04c.5-.6.4-1.5-.13-1.9-.45-.35-1.2-.5-1.8.28-.12.2-.26.38-.4.57-.5.52-1.07 1.03-1.77 1.43-.9.48-1.9.75-3 .76-3.52-.05-5.4-2.56-6.1-4.34-.1-.34-.2-.68-.26-1.04v-.2H32.8c1.74-.03 2.68-1.28 2.42-2.7z" fill="#fff" fill-rule="evenodd"/></svg>