<?xml version="1.0" encoding="UTF-8"?>
<svg width="667px" height="286px" viewBox="0 0 667 286" version="1.1" xmlns="http://www.w3.org/2000/svg" xmlns:xlink="http://www.w3.org/1999/xlink">
    <!-- Generator: Sketch 55.2 (78181) - https://sketchapp.com -->
    <title>Rectangle</title>
    <desc>Created with Sketch.</desc>
    <defs>
        <filter x="-0.9%" y="-3.3%" width="101.8%" height="106.6%" filterUnits="objectBoundingBox" id="filter-1">
            <feOffset dx="0" dy="0" in="SourceAlpha" result="shadowOffsetOuter1"></feOffset>
            <feGaussianBlur stdDeviation="2.5" in="shadowOffsetOuter1" result="shadowBlurOuter1"></feGaussianBlur>
            <feColorMatrix values="0 0 0 0 1   0 0 0 0 1   0 0 0 0 1  0 0 0 1 0" type="matrix" in="shadowBlurOuter1" result="shadowMatrixOuter1"></feColorMatrix>
            <feMerge>
                <feMergeNode in="shadowMatrixOuter1"></feMergeNode>
                <feMergeNode in="SourceGraphic"></feMergeNode>
            </feMerge>
        </filter>
        <path d="M1150.27112,285.218783 L1150.98298,285.794454 L1150.31021,285.794454 L1168.08535,300.186227 L1168.77963,300.186227 L1169.49149,300.761898 L1168.79636,300.761898 L1186.5715,315.153672 L1187.28813,315.153672 L1188,315.729343 L1187.28251,315.729343 L1187.41589,315.837338 L1185.78706,315.837338 L1185.65405,315.729343 L1144.94249,315.729343 L1145.06635,315.837338 L1143.43753,315.837338 L1143.31403,315.729343 L1102.60247,315.729343 L1102.71682,315.837338 L1101.08799,315.837338 L1100.97401,315.729343 L1060.26245,315.729343 L1060.36728,315.837338 L1058.73845,315.837338 L1058.63399,315.729343 L1017.92244,315.729343 L1018.01774,315.837338 L1016.38891,315.837338 L1016.29397,315.729343 L975.582419,315.729343 L975.668202,315.837338 L974.039374,315.837338 L973.953956,315.729343 L933.242401,315.729343 L933.318664,315.837338 L931.689836,315.837338 L931.613938,315.729343 L890.902383,315.729343 L890.969126,315.837338 L889.340298,315.837338 L889.273921,315.729343 L848.562365,315.729343 L848.619588,315.837338 L846.99076,315.837338 L846.933903,315.729343 L806.222347,315.729343 L806.27005,315.837338 L804.641222,315.837338 L804.593885,315.729343 L763.882329,315.729343 L763.920512,315.837338 L762.291684,315.837338 L762.253867,315.729343 L721.542311,315.729343 L721.570974,315.837338 L719.942146,315.837338 L719.913849,315.729343 L679.202293,315.729343 L679.221436,315.837338 L677.592608,315.837338 L677.573831,315.729343 L636.862276,315.729343 L636.871898,315.837338 L635.24307,315.837338 L635.233813,315.729343 L594.522258,315.729343 L594.52236,315.837338 L592.893532,315.837338 L592.893795,315.729343 L552.18224,315.729343 L552.172822,315.837338 L550.543994,315.837338 L550.553778,315.729343 L509.842222,315.729343 L509.823284,315.837338 L508.194456,315.837338 L508.21376,315.729343 L467.502204,315.729343 L467.473746,315.837338 L465.844918,315.837338 L465.873742,315.729343 L425.162186,315.729343 L425.124208,315.837338 L423.49538,315.837338 L423.533724,315.729343 L382.822168,315.729343 L382.77467,315.837338 L381.145842,315.837338 L381.193706,315.729343 L340.48215,315.729343 L340.425132,315.837338 L338.796304,315.837338 L338.853688,315.729343 L298.142133,315.729343 L298.075594,315.837338 L296.446766,315.837338 L296.51367,315.729343 L255.802115,315.729343 L255.726056,315.837338 L254.097228,315.837338 L254.173652,315.729343 L213.462097,315.729343 L213.376518,315.837338 L211.74769,315.837338 L211.833635,315.729343 L171.122079,315.729343 L171.02698,315.837338 L169.398152,315.837338 L169.493617,315.729343 L128.782061,315.729343 L128.677442,315.837338 L127.048614,315.837338 L127.153599,315.729343 L86.4420431,315.729343 L86.3279043,315.837338 L84.699076,315.837338 L84.8135809,315.729343 L44.1020253,315.729343 L43.9783664,315.837338 L42.349538,315.837338 L42.473563,315.729343 L1.76200739,315.729343 L1.62882838,315.837338 L0,315.837338 L389.390534,0.945333181 L389.63779,0.945333181 L389.771173,0.837337988 L798.609466,0.837337988 L799.321332,1.41300893 L799.073378,1.41300893 L816.848521,15.8047825 L817.117974,15.8047825 L817.82984,16.3804534 L817.559527,16.3804534 L835.33467,30.7722269 L835.626482,30.7722269 L836.338348,31.3478979 L836.045676,31.3478979 L853.820819,45.7396714 L854.13499,45.7396714 L854.846856,46.3153423 L854.531825,46.3153423 L872.306968,60.7071159 L872.643498,60.7071159 L873.355364,61.2827868 L873.017974,61.2827868 L890.793117,75.6745603 L891.152006,75.6745603 L891.863872,76.2502313 L891.504123,76.2502313 L909.279266,90.6420048 L909.660514,90.6420048 L910.37238,91.2176757 L909.990272,91.2176757 L927.765415,105.609449 L928.169022,105.609449 L928.880888,106.18512 L928.476421,106.18512 L946.251564,120.576894 L946.67753,120.576894 L947.389396,121.152565 L946.96257,121.152565 L964.737713,135.544338 L965.186038,135.544338 L965.897904,136.120009 L965.448719,136.120009 L983.223862,150.511783 L983.694546,150.511783 L984.406412,151.087454 L983.934868,151.087454 L1001.71001,165.479227 L1002.20305,165.479227 L1002.91492,166.054898 L1002.42102,166.054898 L1020.19616,180.446672 L1020.71156,180.446672 L1021.42343,181.022343 L1020.90717,181.022343 L1038.68231,195.414116 L1039.22007,195.414116 L1039.93194,195.989787 L1039.39332,195.989787 L1057.16846,210.381561 L1057.72858,210.381561 L1058.44044,210.957232 L1057.87946,210.957232 L1075.65461,225.349005 L1076.23709,225.349005 L1076.94895,225.924676 L1076.36561,225.924676 L1094.14076,240.31645 L1094.74559,240.31645 L1095.45746,240.89212 L1094.85176,240.89212 L1112.62691,255.283894 L1113.2541,255.283894 L1113.96597,255.859565 L1113.33791,255.859565 L1131.11306,270.251338 L1131.76261,270.251338 L1132.47448,270.827009 L1131.82406,270.827009 L1149.5992,285.218783 L1150.27112,285.218783 Z M1110.60904,285.794454 L1127.11551,300.186227 L1166.50959,300.186227 L1148.78324,285.794454 L1110.60904,285.794454 Z M1130.34784,270.827009 L1093.44232,270.827009 L1109.94878,285.218783 L1148.07419,285.218783 L1130.34784,270.827009 Z M1070.90788,285.794454 L1086.14566,300.186227 L1125.53974,300.186227 L1109.08207,285.794454 L1070.90788,285.794454 Z M1091.9661,270.827009 L1055.06058,270.827009 L1070.29836,285.218783 L1108.42377,285.218783 L1091.9661,270.827009 Z M1031.20671,285.794454 L1045.17582,300.186227 L1084.5699,300.186227 L1069.38091,285.794454 L1031.20671,285.794454 Z M1053.58436,270.827009 L1016.67884,270.827009 L1030.64794,285.218783 L1068.77335,285.218783 L1053.58436,270.827009 Z M991.505541,285.794454 L1004.20597,300.186227 L1043.60005,300.186227 L1029.67974,285.794454 L991.505541,285.794454 Z M1029.12293,285.218783 L1015.20261,270.827009 L978.297094,270.827009 L990.997524,285.218783 L1029.12293,285.218783 Z M951.804374,285.794454 L963.236126,300.186227 L1002.63021,300.186227 L989.978573,285.794454 L951.804374,285.794454 Z M976.820873,270.827009 L939.915352,270.827009 L951.347104,285.218783 L989.472508,285.218783 L976.820873,270.827009 Z M912.103207,285.794454 L922.266281,300.186227 L961.660363,300.186227 L950.277406,285.794454 L912.103207,285.794454 Z M938.439131,270.827009 L901.53361,270.827009 L911.696684,285.218783 L949.822088,285.218783 L938.439131,270.827009 Z M910.576239,285.794454 L872.40204,285.794454 L881.296435,300.186227 L920.690518,300.186227 L910.576239,285.794454 Z M910.171668,285.218783 L900.057389,270.827009 L863.151868,270.827009 L872.046264,285.218783 L910.171668,285.218783 Z M832.700872,285.794454 L840.32659,300.186227 L879.720672,300.186227 L870.875072,285.794454 L832.700872,285.794454 Z M861.675647,270.827009 L824.770126,270.827009 L832.395844,285.218783 L870.521248,285.218783 L861.675647,270.827009 Z M792.999705,285.794454 L799.356745,300.186227 L838.750827,300.186227 L831.173905,285.794454 L792.999705,285.794454 Z M823.293905,270.827009 L786.388384,270.827009 L792.745424,285.218783 L830.870828,285.218783 L823.293905,270.827009 Z M753.298538,285.794454 L758.386899,300.186227 L797.780981,300.186227 L791.472737,285.794454 L753.298538,285.794454 Z M791.220408,285.218783 L784.912164,270.827009 L748.006643,270.827009 L753.095004,285.218783 L791.220408,285.218783 Z M751.77157,285.794454 L713.597371,285.794454 L717.417054,300.186227 L756.811136,300.186227 L751.77157,285.794454 Z M751.569988,285.218783 L746.530422,270.827009 L709.624901,270.827009 L713.444584,285.218783 L751.569988,285.218783 Z M712.070403,285.794454 L673.896204,285.794454 L676.447208,300.186227 L715.841291,300.186227 L712.070403,285.794454 Z M708.14868,270.827009 L671.243159,270.827009 L673.794164,285.218783 L711.919568,285.218783 L708.14868,270.827009 Z M672.369236,285.794454 L634.195037,285.794454 L635.477363,300.186227 L674.871445,300.186227 L672.369236,285.794454 Z M669.766938,270.827009 L632.861417,270.827009 L634.143744,285.218783 L672.269147,285.218783 L669.766938,270.827009 Z M594.493869,285.794454 L594.507518,300.186227 L633.9016,300.186227 L632.668069,285.794454 L594.493869,285.794454 Z M631.385196,270.827009 L594.479675,270.827009 L594.493324,285.218783 L632.618727,285.218783 L631.385196,270.827009 Z M554.792702,285.794454 L553.537672,300.186227 L592.931754,300.186227 L592.966902,285.794454 L554.792702,285.794454 Z M593.003455,270.827009 L556.097934,270.827009 L554.842904,285.218783 L592.968307,285.218783 L593.003455,270.827009 Z M515.091535,285.794454 L512.567827,300.186227 L551.961909,300.186227 L553.265734,285.794454 L515.091535,285.794454 Z M553.317887,285.218783 L554.621713,270.827009 L517.716192,270.827009 L515.192483,285.218783 L553.317887,285.218783 Z M475.390368,285.794454 L471.597981,300.186227 L510.992064,300.186227 L513.564567,285.794454 L475.390368,285.794454 Z M513.667467,285.218783 L516.239971,270.827009 L479.33445,270.827009 L475.542063,285.218783 L513.667467,285.218783 Z M435.689201,285.794454 L430.628136,300.186227 L470.022218,300.186227 L473.8634,285.794454 L435.689201,285.794454 Z M477.858229,270.827009 L440.952708,270.827009 L435.891643,285.218783 L474.017047,285.218783 L477.858229,270.827009 Z M395.988034,285.794454 L389.658291,300.186227 L429.052373,300.186227 L434.162233,285.794454 L395.988034,285.794454 Z M439.476487,270.827009 L402.570966,270.827009 L396.241223,285.218783 L434.366627,285.218783 L439.476487,270.827009 Z M394.461066,285.794454 L356.286866,285.794454 L348.688445,300.186227 L388.082527,300.186227 L394.461066,285.794454 Z M401.094745,270.827009 L364.189224,270.827009 L356.590803,285.218783 L394.716207,285.218783 L401.094745,270.827009 Z M316.585699,285.794454 L307.7186,300.186227 L347.112682,300.186227 L354.759898,285.794454 L316.585699,285.794454 Z M355.065787,285.218783 L362.713004,270.827009 L325.807483,270.827009 L316.940383,285.218783 L355.065787,285.218783 Z M276.884532,285.794454 L266.748754,300.186227 L306.142837,300.186227 L315.058731,285.794454 L276.884532,285.794454 Z M324.331262,270.827009 L287.425741,270.827009 L277.289963,285.218783 L315.415367,285.218783 L324.331262,270.827009 Z M237.183365,285.794454 L225.778909,300.186227 L265.172991,300.186227 L275.357564,285.794454 L237.183365,285.794454 Z M285.94952,270.827009 L249.043999,270.827009 L237.639543,285.218783 L275.764947,285.218783 L285.94952,270.827009 Z M197.482198,285.794454 L184.809064,300.186227 L224.203146,300.186227 L235.656397,285.794454 L197.482198,285.794454 Z M247.567778,270.827009 L210.662257,270.827009 L197.989123,285.218783 L236.114527,285.218783 L247.567778,270.827009 Z M195.95523,285.794454 L157.781031,285.794454 L143.839218,300.186227 L183.2333,300.186227 L195.95523,285.794454 Z M196.464107,285.218783 L209.186036,270.827009 L172.280515,270.827009 L158.338703,285.218783 L196.464107,285.218783 Z M156.254063,285.794454 L118.079863,285.794454 L102.869373,300.186227 L142.263455,300.186227 L156.254063,285.794454 Z M170.804295,270.827009 L133.898774,270.827009 L118.688283,285.218783 L156.813687,285.218783 L170.804295,270.827009 Z M78.3786963,285.794454 L61.8995275,300.186227 L101.29361,300.186227 L116.552895,285.794454 L78.3786963,285.794454 Z M132.422553,270.827009 L95.5170318,270.827009 L79.037863,285.218783 L117.163267,285.218783 L132.422553,270.827009 Z M76.8517283,285.794454 L38.6775291,285.794454 L20.9296821,300.186227 L60.3237642,300.186227 L76.8517283,285.794454 Z M94.040811,270.827009 L57.13529,270.827009 L39.387443,285.218783 L77.5128469,285.218783 L94.040811,270.827009 Z M1127.77577,300.761898 L1144.28223,315.153672 L1184.94499,315.153672 L1167.21864,300.761898 L1127.77577,300.761898 Z M1126.19805,300.761898 L1086.75517,300.761898 L1101.99296,315.153672 L1142.65572,315.153672 L1126.19805,300.761898 Z M1045.73458,300.761898 L1059.70369,315.153672 L1100.36645,315.153672 L1085.17746,300.761898 L1045.73458,300.761898 Z M1044.15687,300.761898 L1004.71399,300.761898 L1017.41442,315.153672 L1058.07718,315.153672 L1044.15687,300.761898 Z M963.693396,300.761898 L975.125148,315.153672 L1015.78791,315.153672 L1003.13627,300.761898 L963.693396,300.761898 Z M922.672804,300.761898 L932.835878,315.153672 L973.498638,315.153672 L962.115681,300.761898 L922.672804,300.761898 Z M881.652211,300.761898 L890.546607,315.153672 L931.209367,315.153672 L921.095089,300.761898 L881.652211,300.761898 Z M880.074496,300.761898 L840.631619,300.761898 L848.257336,315.153672 L888.920097,315.153672 L880.074496,300.761898 Z M799.611026,300.761898 L805.968065,315.153672 L846.630826,315.153672 L839.053904,300.761898 L799.611026,300.761898 Z M758.590434,300.761898 L763.678795,315.153672 L804.341555,315.153672 L798.033311,300.761898 L758.590434,300.761898 Z M757.012719,300.761898 L717.569841,300.761898 L721.389524,315.153672 L762.052284,315.153672 L757.012719,300.761898 Z M715.992126,300.761898 L676.549249,300.761898 L679.100253,315.153672 L719.763014,315.153672 L715.992126,300.761898 Z M635.528656,300.761898 L636.810982,315.153672 L677.473743,315.153672 L674.971534,300.761898 L635.528656,300.761898 Z M633.950941,300.761898 L594.508064,300.761898 L594.521712,315.153672 L635.184472,315.153672 L633.950941,300.761898 Z M553.487471,300.761898 L552.232441,315.153672 L592.895201,315.153672 L592.930348,300.761898 L553.487471,300.761898 Z M512.466879,300.761898 L509.94317,315.153672 L550.605931,315.153672 L551.909756,300.761898 L512.466879,300.761898 Z M471.446286,300.761898 L467.6539,315.153672 L508.31666,315.153672 L510.889163,300.761898 L471.446286,300.761898 Z M430.425693,300.761898 L425.364629,315.153672 L466.027389,315.153672 L469.868571,300.761898 L430.425693,300.761898 Z M389.405101,300.761898 L383.075358,315.153672 L423.738118,315.153672 L428.847978,300.761898 L389.405101,300.761898 Z M387.827386,300.761898 L348.384508,300.761898 L340.786087,315.153672 L381.448848,315.153672 L387.827386,300.761898 Z M307.363916,300.761898 L298.496817,315.153672 L339.159577,315.153672 L346.806793,300.761898 L307.363916,300.761898 Z M266.343323,300.761898 L256.207546,315.153672 L296.870306,315.153672 L305.786201,300.761898 L266.343323,300.761898 Z M225.322731,300.761898 L213.918275,315.153672 L254.581035,315.153672 L264.765608,300.761898 L225.322731,300.761898 Z M223.745016,300.761898 L184.302138,300.761898 L171.629004,315.153672 L212.291765,315.153672 L223.745016,300.761898 Z M182.724423,300.761898 L143.281546,300.761898 L129.339734,315.153672 L170.002494,315.153672 L182.724423,300.761898 Z M141.703831,300.761898 L102.260953,300.761898 L87.0504628,315.153672 L127.713223,315.153672 L141.703831,300.761898 Z M61.2403608,300.761898 L44.761192,315.153672 L85.4239524,315.153672 L100.683238,300.761898 L61.2403608,300.761898 Z M59.6626457,300.761898 L20.2197683,300.761898 L2.47192127,315.153672 L43.1346816,315.153672 L59.6626457,300.761898 Z M76.3029647,255.283894 L111.891012,255.283894 L128.418976,240.89212 L94.0508117,240.89212 L76.3029647,255.283894 Z M75.5930508,255.859565 L57.8452039,270.251338 L94.7019295,270.251338 L111.229894,255.859565 L75.5930508,255.859565 Z M148.902581,255.283894 L164.161867,240.89212 L129.793703,240.89212 L113.314534,255.283894 L148.902581,255.283894 Z M96.1761985,270.251338 L133.032924,270.251338 L148.29221,255.859565 L112.655367,255.859565 L96.1761985,270.251338 Z M150.326103,255.283894 L185.914151,255.283894 L199.904758,240.89212 L165.536594,240.89212 L150.326103,255.283894 Z M134.507193,270.251338 L171.363919,270.251338 L185.354527,255.859565 L149.717684,255.859565 L134.507193,270.251338 Z M222.92572,255.283894 L235.64765,240.89212 L201.279485,240.89212 L187.337673,255.283894 L222.92572,255.283894 Z M172.838188,270.251338 L209.694914,270.251338 L222.416843,255.859565 L186.78,255.859565 L172.838188,270.251338 Z M224.349242,255.283894 L259.937289,255.283894 L271.390541,240.89212 L237.022376,240.89212 L224.349242,255.283894 Z M211.169183,270.251338 L248.025908,270.251338 L259.479159,255.859565 L223.842317,255.859565 L211.169183,270.251338 Z M296.948859,255.283894 L307.133432,240.89212 L272.765267,240.89212 L261.360811,255.283894 L296.948859,255.283894 Z M249.500177,270.251338 L286.356903,270.251338 L296.541476,255.859565 L260.904633,255.859565 L249.500177,270.251338 Z M333.960428,255.283894 L342.876323,240.89212 L308.508158,240.89212 L298.372381,255.283894 L333.960428,255.283894 Z M287.831172,270.251338 L324.687898,270.251338 L333.603792,255.859565 L297.96695,255.859565 L287.831172,270.251338 Z M370.971997,255.283894 L378.619214,240.89212 L344.251049,240.89212 L335.38395,255.283894 L370.971997,255.283894 Z M326.162167,270.251338 L363.018892,270.251338 L370.666109,255.859565 L335.029266,255.859565 L326.162167,270.251338 Z M407.983567,255.283894 L414.362105,240.89212 L379.993941,240.89212 L372.395519,255.283894 L407.983567,255.283894 Z M364.493161,270.251338 L401.349887,270.251338 L407.728425,255.859565 L372.091583,255.859565 L364.493161,270.251338 Z M409.407089,255.283894 L444.995136,255.283894 L450.104996,240.89212 L415.736832,240.89212 L409.407089,255.283894 Z M402.824156,270.251338 L439.680882,270.251338 L444.790742,255.859565 L409.153899,255.859565 L402.824156,270.251338 Z M482.006705,255.283894 L485.847887,240.89212 L451.479723,240.89212 L446.418658,255.283894 L482.006705,255.283894 Z M441.155151,270.251338 L478.011876,270.251338 L481.853058,255.859565 L446.216215,255.859565 L441.155151,270.251338 Z M519.018275,255.283894 L521.590778,240.89212 L487.222614,240.89212 L483.430227,255.283894 L519.018275,255.283894 Z M479.486145,270.251338 L516.342871,270.251338 L518.915375,255.859565 L483.278532,255.859565 L479.486145,270.251338 Z M556.029844,255.283894 L557.333669,240.89212 L522.965505,240.89212 L520.441797,255.283894 L556.029844,255.283894 Z M517.81714,270.251338 L554.673866,270.251338 L555.977691,255.859565 L520.340848,255.859565 L517.81714,270.251338 Z M593.041413,255.283894 L593.076561,240.89212 L558.708396,240.89212 L557.453366,255.283894 L593.041413,255.283894 Z M556.148135,270.251338 L593.00486,270.251338 L593.040008,255.859565 L557.403165,255.859565 L556.148135,270.251338 Z M630.052983,255.283894 L628.819452,240.89212 L594.451287,240.89212 L594.464935,255.283894 L630.052983,255.283894 Z M594.479129,270.251338 L631.335855,270.251338 L630.102324,255.859565 L594.465481,255.859565 L594.479129,270.251338 Z M667.064552,255.283894 L664.562343,240.89212 L630.194178,240.89212 L631.476505,255.283894 L667.064552,255.283894 Z M632.810124,270.251338 L669.66685,270.251338 L667.16464,255.859565 L631.527798,255.859565 L632.810124,270.251338 Z M704.076121,255.283894 L700.305234,240.89212 L665.937069,240.89212 L668.488074,255.283894 L704.076121,255.283894 Z M671.141119,270.251338 L707.997844,270.251338 L704.226957,255.859565 L668.590114,255.859565 L671.141119,270.251338 Z M741.087691,255.283894 L736.048125,240.89212 L701.67996,240.89212 L705.499643,255.283894 L741.087691,255.283894 Z M709.472113,270.251338 L746.328839,270.251338 L741.289273,255.859565 L705.652431,255.859565 L709.472113,270.251338 Z M778.09926,255.283894 L771.791016,240.89212 L737.422852,240.89212 L742.511213,255.283894 L778.09926,255.283894 Z M747.803108,270.251338 L784.659834,270.251338 L778.35159,255.859565 L742.714747,255.859565 L747.803108,270.251338 Z M815.110829,255.283894 L807.533907,240.89212 L773.165743,240.89212 L779.522782,255.283894 L815.110829,255.283894 Z M786.134103,270.251338 L822.990829,270.251338 L815.413906,255.859565 L779.777064,255.859565 L786.134103,270.251338 Z M852.122399,255.283894 L843.276798,240.89212 L808.908634,240.89212 L816.534351,255.283894 L852.122399,255.283894 Z M824.465098,270.251338 L861.321823,270.251338 L852.476223,255.859565 L816.83938,255.859565 L824.465098,270.251338 Z M889.133968,255.283894 L879.019689,240.89212 L844.651525,240.89212 L853.545921,255.283894 L889.133968,255.283894 Z M862.796092,270.251338 L899.652818,270.251338 L889.538539,255.859565 L853.901696,255.859565 L862.796092,270.251338 Z M926.145537,255.283894 L914.762581,240.89212 L880.394416,240.89212 L890.55749,255.283894 L926.145537,255.283894 Z M901.127087,270.251338 L937.983813,270.251338 L926.600856,255.859565 L890.964013,255.859565 L901.127087,270.251338 Z M963.157107,255.283894 L950.505472,240.89212 L916.137307,240.89212 L927.569059,255.283894 L963.157107,255.283894 Z M939.458082,270.251338 L976.314807,270.251338 L963.663172,255.859565 L928.026329,255.859565 L939.458082,270.251338 Z M1000.16868,255.283894 L986.248363,240.89212 L951.880198,240.89212 L964.580629,255.283894 L1000.16868,255.283894 Z M977.789076,270.251338 L1014.6458,270.251338 L1000.72549,255.859565 L965.088646,255.859565 L977.789076,270.251338 Z M1037.18025,255.283894 L1021.99125,240.89212 L987.623089,240.89212 L1001.5922,255.283894 L1037.18025,255.283894 Z M1016.12007,270.251338 L1052.9768,270.251338 L1037.78781,255.859565 L1002.15096,255.859565 L1016.12007,270.251338 Z M1074.19181,255.283894 L1057.73414,240.89212 L1023.36598,240.89212 L1038.60377,255.283894 L1074.19181,255.283894 Z M1054.45107,270.251338 L1091.30779,270.251338 L1074.85012,255.859565 L1039.21328,255.859565 L1054.45107,270.251338 Z M1111.20338,255.283894 L1093.47704,240.89212 L1059.10887,240.89212 L1075.61534,255.283894 L1111.20338,255.283894 Z M1092.78206,270.251338 L1129.63879,270.251338 L1111.91244,255.859565 L1076.2756,255.859565 L1092.78206,270.251338 Z M94.7607256,240.31645 L129.080095,240.31645 L145.608059,225.924676 L112.508573,225.924676 L94.7607256,240.31645 Z M164.772239,240.31645 L180.031525,225.924676 L146.932038,225.924676 L130.45287,240.31645 L164.772239,240.31645 Z M166.145014,240.31645 L200.464383,240.31645 L214.45499,225.924676 L181.355504,225.924676 L166.145014,240.31645 Z M236.156527,240.31645 L248.878456,225.924676 L215.77897,225.924676 L201.837158,240.31645 L236.156527,240.31645 Z M237.529301,240.31645 L271.848671,240.31645 L283.301922,225.924676 L250.202436,225.924676 L237.529301,240.31645 Z M273.221445,240.31645 L307.540815,240.31645 L317.725388,225.924676 L284.625901,225.924676 L273.221445,240.31645 Z M343.232959,240.31645 L352.148853,225.924676 L319.049367,225.924676 L308.913589,240.31645 L343.232959,240.31645 Z M378.925103,240.31645 L386.572319,225.924676 L353.472833,225.924676 L344.605733,240.31645 L378.925103,240.31645 Z M414.617247,240.31645 L420.995785,225.924676 L387.896299,225.924676 L380.297877,240.31645 L414.617247,240.31645 Z M450.309391,240.31645 L455.419251,225.924676 L422.319764,225.924676 L415.990021,240.31645 L450.309391,240.31645 Z M451.682165,240.31645 L486.001535,240.31645 L489.842716,225.924676 L456.74323,225.924676 L451.682165,240.31645 Z M521.693679,240.31645 L524.266182,225.924676 L491.166696,225.924676 L487.374309,240.31645 L521.693679,240.31645 Z M557.385822,240.31645 L558.689648,225.924676 L525.590162,225.924676 L523.066453,240.31645 L557.385822,240.31645 Z M593.077966,240.31645 L593.113114,225.924676 L560.013627,225.924676 L558.758597,240.31645 L593.077966,240.31645 Z M628.77011,240.31645 L627.536579,225.924676 L594.437093,225.924676 L594.450741,240.31645 L628.77011,240.31645 Z M664.462254,240.31645 L661.960045,225.924676 L628.860559,225.924676 L630.142885,240.31645 L664.462254,240.31645 Z M700.154398,240.31645 L696.383511,225.924676 L663.284025,225.924676 L665.835029,240.31645 L700.154398,240.31645 Z M735.846542,240.31645 L730.806977,225.924676 L697.70749,225.924676 L701.527173,240.31645 L735.846542,240.31645 Z M771.538686,240.31645 L765.230442,225.924676 L732.130956,225.924676 L737.219317,240.31645 L771.538686,240.31645 Z M807.23083,240.31645 L799.653908,225.924676 L766.554422,225.924676 L772.911461,240.31645 L807.23083,240.31645 Z M808.603605,240.31645 L842.922974,240.31645 L834.077374,225.924676 L800.977888,225.924676 L808.603605,240.31645 Z M844.295749,240.31645 L878.615118,240.31645 L868.50084,225.924676 L835.401353,225.924676 L844.295749,240.31645 Z M879.987893,240.31645 L914.307262,240.31645 L902.924305,225.924676 L869.824819,225.924676 L879.987893,240.31645 Z M915.680037,240.31645 L949.999406,240.31645 L937.347771,225.924676 L904.248285,225.924676 L915.680037,240.31645 Z M951.372181,240.31645 L985.69155,240.31645 L971.771237,225.924676 L938.671751,225.924676 L951.372181,240.31645 Z M1021.38369,240.31645 L1006.1947,225.924676 L973.095216,225.924676 L987.064325,240.31645 L1021.38369,240.31645 Z M1057.07584,240.31645 L1040.61817,225.924676 L1007.51868,225.924676 L1022.75647,240.31645 L1057.07584,240.31645 Z M1092.76798,240.31645 L1075.04163,225.924676 L1041.94215,225.924676 L1058.44861,240.31645 L1092.76798,240.31645 Z M1056.60623,210.957232 L1024.77542,210.957232 L1041.28189,225.349005 L1074.33258,225.349005 L1056.60623,210.957232 Z M1023.50219,210.957232 L991.671384,210.957232 L1006.90917,225.349005 L1039.95986,225.349005 L1023.50219,210.957232 Z M990.398151,210.957232 L958.567343,210.957232 L972.536452,225.349005 L1005.58714,225.349005 L990.398151,210.957232 Z M971.214424,225.349005 L957.294111,210.957232 L925.463303,210.957232 L938.163733,225.349005 L971.214424,225.349005 Z M936.841706,225.349005 L924.190071,210.957232 L892.359263,210.957232 L903.791015,225.349005 L936.841706,225.349005 Z M902.468987,225.349005 L891.08603,210.957232 L859.255222,210.957232 L869.418296,225.349005 L902.468987,225.349005 Z M857.98199,210.957232 L826.151182,210.957232 L835.045577,225.349005 L868.096268,225.349005 L857.98199,210.957232 Z M824.877949,210.957232 L793.047141,210.957232 L800.672859,225.349005 L833.72355,225.349005 L824.877949,210.957232 Z M799.350831,225.349005 L791.773909,210.957232 L759.943101,210.957232 L766.30014,225.349005 L799.350831,225.349005 Z M764.978113,225.349005 L758.669869,210.957232 L726.839061,210.957232 L731.927422,225.349005 L764.978113,225.349005 Z M725.565828,210.957232 L693.73502,210.957232 L697.554703,225.349005 L730.605394,225.349005 L725.565828,210.957232 Z M696.232675,225.349005 L692.461788,210.957232 L660.63098,210.957232 L663.181984,225.349005 L696.232675,225.349005 Z M659.357747,210.957232 L627.526939,210.957232 L628.809266,225.349005 L661.859957,225.349005 L659.357747,210.957232 Z M627.487238,225.349005 L626.253707,210.957232 L594.422899,210.957232 L594.436547,225.349005 L627.487238,225.349005 Z M593.149667,210.957232 L561.318859,210.957232 L560.063829,225.349005 L593.114519,225.349005 L593.149667,210.957232 Z M560.045626,210.957232 L528.214818,210.957232 L525.69111,225.349005 L558.741801,225.349005 L560.045626,210.957232 Z M524.369082,225.349005 L526.941586,210.957232 L495.110778,210.957232 L491.318391,225.349005 L524.369082,225.349005 Z M493.837545,210.957232 L462.006737,210.957232 L456.945673,225.349005 L489.996364,225.349005 L493.837545,210.957232 Z M455.623645,225.349005 L460.733505,210.957232 L428.902697,210.957232 L422.572954,225.349005 L455.623645,225.349005 Z M421.250926,225.349005 L427.629465,210.957232 L395.798657,210.957232 L388.200235,225.349005 L421.250926,225.349005 Z M386.878208,225.349005 L394.525424,210.957232 L362.694616,210.957232 L353.827517,225.349005 L386.878208,225.349005 Z M352.505489,225.349005 L361.421384,210.957232 L329.590576,210.957232 L319.454798,225.349005 L352.505489,225.349005 Z M328.317343,210.957232 L296.486535,210.957232 L285.08208,225.349005 L318.132771,225.349005 L328.317343,210.957232 Z M283.760052,225.349005 L295.213303,210.957232 L263.382495,210.957232 L250.709361,225.349005 L283.760052,225.349005 Z M249.387333,225.349005 L262.109263,210.957232 L230.278455,210.957232 L216.336642,225.349005 L249.387333,225.349005 Z M215.014615,225.349005 L229.005222,210.957232 L197.174414,210.957232 L181.963924,225.349005 L215.014615,225.349005 Z M180.641896,225.349005 L195.901182,210.957232 L164.070374,210.957232 L147.591205,225.349005 L180.641896,225.349005 Z M146.269177,225.349005 L162.797142,210.957232 L130.966333,210.957232 L113.218486,225.349005 L146.269177,225.349005 Z M1000.59097,165.479227 L982.864624,151.087454 L956.108529,151.087454 L972.614994,165.479227 L1000.59097,165.479227 Z M1001.30003,166.054898 L973.275253,166.054898 L989.781718,180.446672 L1019.02637,180.446672 L1001.30003,166.054898 Z M955.038285,151.087454 L928.28219,151.087454 L943.519977,165.479227 L971.495955,165.479227 L955.038285,151.087454 Z M944.129489,166.054898 L959.367275,180.446672 L988.611932,180.446672 L972.154262,166.054898 L944.129489,166.054898 Z M927.211946,151.087454 L900.455851,151.087454 L914.42496,165.479227 L942.400938,165.479227 L927.211946,151.087454 Z M914.983724,166.054898 L928.952833,180.446672 L958.197489,180.446672 L943.008498,166.054898 L914.983724,166.054898 Z M899.385607,151.087454 L872.629512,151.087454 L885.329943,165.479227 L913.305921,165.479227 L899.385607,151.087454 Z M885.83796,166.054898 L898.53839,180.446672 L927.783047,180.446672 L913.862733,166.054898 L885.83796,166.054898 Z M884.210904,165.479227 L871.559268,151.087454 L844.803173,151.087454 L856.234926,165.479227 L884.210904,165.479227 Z M856.692196,166.054898 L868.123948,180.446672 L897.368604,180.446672 L884.716969,166.054898 L856.692196,166.054898 Z M843.73293,151.087454 L816.976834,151.087454 L827.139908,165.479227 L855.115886,165.479227 L843.73293,151.087454 Z M827.546431,166.054898 L837.709505,180.446672 L866.954162,180.446672 L855.571205,166.054898 L827.546431,166.054898 Z M826.020869,165.479227 L815.906591,151.087454 L789.150495,151.087454 L798.044891,165.479227 L826.020869,165.479227 Z M826.42544,166.054898 L798.400667,166.054898 L807.295063,180.446672 L836.539719,180.446672 L826.42544,166.054898 Z M788.080252,151.087454 L761.324156,151.087454 L768.949874,165.479227 L796.925852,165.479227 L788.080252,151.087454 Z M769.254903,166.054898 L776.88062,180.446672 L806.125276,180.446672 L797.279676,166.054898 L769.254903,166.054898 Z M760.253913,151.087454 L733.497817,151.087454 L739.854857,165.479227 L767.830835,165.479227 L760.253913,151.087454 Z M740.109138,166.054898 L746.466178,180.446672 L775.710834,180.446672 L768.133912,166.054898 L740.109138,166.054898 Z M732.427574,151.087454 L705.671478,151.087454 L710.75984,165.479227 L738.735818,165.479227 L732.427574,151.087454 Z M710.963374,166.054898 L716.051735,180.446672 L745.296391,180.446672 L738.988147,166.054898 L710.963374,166.054898 Z M704.601235,151.087454 L677.845139,151.087454 L681.664822,165.479227 L709.6408,165.479227 L704.601235,151.087454 Z M681.81761,166.054898 L685.637292,180.446672 L714.881949,180.446672 L709.842383,166.054898 L681.81761,166.054898 Z M676.774896,151.087454 L650.0188,151.087454 L652.569805,165.479227 L680.545783,165.479227 L676.774896,151.087454 Z M680.696619,166.054898 L652.671845,166.054898 L655.22285,180.446672 L684.467506,180.446672 L680.696619,166.054898 Z M648.948557,151.087454 L622.192462,151.087454 L623.474788,165.479227 L651.450766,165.479227 L648.948557,151.087454 Z M651.550854,166.054898 L623.526081,166.054898 L624.808407,180.446672 L654.053064,180.446672 L651.550854,166.054898 Z M621.122218,151.087454 L594.366123,151.087454 L594.379771,165.479227 L622.355749,165.479227 L621.122218,151.087454 Z M594.380317,166.054898 L594.393965,180.446672 L623.638621,180.446672 L622.40509,166.054898 L594.380317,166.054898 Z M593.295879,151.087454 L566.539784,151.087454 L565.284754,165.479227 L593.260732,165.479227 L593.295879,151.087454 Z M565.234552,166.054898 L563.979522,180.446672 L593.224179,180.446672 L593.259326,166.054898 L565.234552,166.054898 Z M564.165714,165.479227 L565.46954,151.087454 L538.713445,151.087454 L536.189736,165.479227 L564.165714,165.479227 Z M536.088788,166.054898 L533.56508,180.446672 L562.809736,180.446672 L564.113561,166.054898 L536.088788,166.054898 Z M535.070697,165.479227 L537.643201,151.087454 L510.887106,151.087454 L507.094719,165.479227 L535.070697,165.479227 Z M506.943024,166.054898 L503.150637,180.446672 L532.395293,180.446672 L534.967797,166.054898 L506.943024,166.054898 Z M509.816862,151.087454 L483.060767,151.087454 L477.999702,165.479227 L505.97568,165.479227 L509.816862,151.087454 Z M477.797259,166.054898 L472.736195,180.446672 L501.980851,180.446672 L505.822033,166.054898 L477.797259,166.054898 Z M481.990523,151.087454 L455.234428,151.087454 L448.904685,165.479227 L476.880663,165.479227 L481.990523,151.087454 Z M448.651495,166.054898 L442.321752,180.446672 L471.566408,180.446672 L476.676268,166.054898 L448.651495,166.054898 Z M447.785646,165.479227 L454.164184,151.087454 L427.408089,151.087454 L419.809668,165.479227 L447.785646,165.479227 Z M447.530504,166.054898 L419.505731,166.054898 L411.907309,180.446672 L441.151966,180.446672 L447.530504,166.054898 Z M418.690628,165.479227 L426.337845,151.087454 L399.58175,151.087454 L390.71465,165.479227 L418.690628,165.479227 Z M390.359966,166.054898 L381.492867,180.446672 L410.737523,180.446672 L418.38474,166.054898 L390.359966,166.054898 Z M398.511506,151.087454 L371.755411,151.087454 L361.619633,165.479227 L389.595611,165.479227 L398.511506,151.087454 Z M361.214202,166.054898 L351.078424,180.446672 L380.323081,180.446672 L389.238975,166.054898 L361.214202,166.054898 Z M370.685167,151.087454 L343.929072,151.087454 L332.524616,165.479227 L360.500594,165.479227 L370.685167,151.087454 Z M332.068438,166.054898 L320.663982,180.446672 L349.908638,180.446672 L360.093211,166.054898 L332.068438,166.054898 Z M331.405577,165.479227 L342.858828,151.087454 L316.102733,151.087454 L303.429599,165.479227 L331.405577,165.479227 Z M330.947447,166.054898 L302.922673,166.054898 L290.249539,180.446672 L319.494196,180.446672 L330.947447,166.054898 Z M302.31056,165.479227 L315.032489,151.087454 L288.276394,151.087454 L274.334581,165.479227 L302.31056,165.479227 Z M301.801682,166.054898 L273.776909,166.054898 L259.835097,180.446672 L289.079753,180.446672 L301.801682,166.054898 Z M273.215542,165.479227 L287.20615,151.087454 L260.450055,151.087454 L245.239564,165.479227 L273.215542,165.479227 Z M244.631145,166.054898 L229.420654,180.446672 L258.66531,180.446672 L272.655918,166.054898 L244.631145,166.054898 Z M259.379811,151.087454 L232.623716,151.087454 L216.144547,165.479227 L244.120525,165.479227 L259.379811,151.087454 Z M215.48538,166.054898 L199.006212,180.446672 L228.250868,180.446672 L243.510154,166.054898 L215.48538,166.054898 Z M215.025508,165.479227 L231.553472,151.087454 L204.797377,151.087454 L187.04953,165.479227 L215.025508,165.479227 Z M214.364389,166.054898 L186.339616,166.054898 L168.591769,180.446672 L197.836425,180.446672 L214.364389,166.054898 Z M964.429222,136.120009 L938.941806,136.120009 L955.448271,150.511783 L982.15557,150.511783 L964.429222,136.120009 Z M937.922309,136.120009 L912.434892,136.120009 L927.672679,150.511783 L954.379979,150.511783 L937.922309,136.120009 Z M911.415395,136.120009 L885.927978,136.120009 L899.897087,150.511783 L926.604387,150.511783 L911.415395,136.120009 Z M884.908482,136.120009 L859.421065,136.120009 L872.121495,150.511783 L898.828795,150.511783 L884.908482,136.120009 Z M858.401568,136.120009 L832.914151,136.120009 L844.345903,150.511783 L871.053203,150.511783 L858.401568,136.120009 Z M831.894654,136.120009 L806.407237,136.120009 L816.570311,150.511783 L843.277611,150.511783 L831.894654,136.120009 Z M815.502019,150.511783 L805.387741,136.120009 L779.900324,136.120009 L788.79472,150.511783 L815.502019,150.511783 Z M787.726428,150.511783 L778.880827,136.120009 L753.39341,136.120009 L761.019128,150.511783 L787.726428,150.511783 Z M759.950836,150.511783 L752.373913,136.120009 L726.886497,136.120009 L733.243536,150.511783 L759.950836,150.511783 Z M725.867,136.120009 L700.379583,136.120009 L705.467944,150.511783 L732.175244,150.511783 L725.867,136.120009 Z M704.399652,150.511783 L699.360086,136.120009 L673.872669,136.120009 L677.692352,150.511783 L704.399652,150.511783 Z M676.62406,150.511783 L672.853173,136.120009 L647.365756,136.120009 L649.91676,150.511783 L676.62406,150.511783 Z M646.346259,136.120009 L620.858842,136.120009 L622.141168,150.511783 L648.848468,150.511783 L646.346259,136.120009 Z M619.839345,136.120009 L594.351928,136.120009 L594.365577,150.511783 L621.072876,150.511783 L619.839345,136.120009 Z M593.332432,136.120009 L567.845015,136.120009 L566.589985,150.511783 L593.297285,150.511783 L593.332432,136.120009 Z M566.825518,136.120009 L541.338101,136.120009 L538.814393,150.511783 L565.521693,150.511783 L566.825518,136.120009 Z M540.318605,136.120009 L514.831188,136.120009 L511.038801,150.511783 L537.746101,150.511783 L540.318605,136.120009 Z M509.970509,150.511783 L513.811691,136.120009 L488.324274,136.120009 L483.263209,150.511783 L509.970509,150.511783 Z M487.304777,136.120009 L461.81736,136.120009 L455.487617,150.511783 L482.194917,150.511783 L487.304777,136.120009 Z M454.419325,150.511783 L460.797864,136.120009 L435.310447,136.120009 L427.712026,150.511783 L454.419325,150.511783 Z M426.643734,150.511783 L434.29095,136.120009 L408.803533,136.120009 L399.936434,150.511783 L426.643734,150.511783 Z M398.868142,150.511783 L407.784036,136.120009 L382.296619,136.120009 L372.160842,150.511783 L398.868142,150.511783 Z M381.277123,136.120009 L355.789706,136.120009 L344.38525,150.511783 L371.09255,150.511783 L381.277123,136.120009 Z M343.316958,150.511783 L354.770209,136.120009 L329.282792,136.120009 L316.609658,150.511783 L343.316958,150.511783 Z M328.263296,136.120009 L302.775879,136.120009 L288.834066,150.511783 L315.541366,150.511783 L328.263296,136.120009 Z M287.765774,150.511783 L301.756382,136.120009 L276.268965,136.120009 L261.058474,150.511783 L287.765774,150.511783 Z M259.990182,150.511783 L275.249468,136.120009 L249.762051,136.120009 L233.282883,150.511783 L259.990182,150.511783 Z M232.214591,150.511783 L248.742555,136.120009 L223.255138,136.120009 L205.507291,150.511783 L232.214591,150.511783 Z M1019.73543,181.022343 L990.441977,181.022343 L1006.94844,195.414116 L1037.46178,195.414116 L1019.73543,181.022343 Z M1007.6087,195.989787 L1024.11517,210.381561 L1055.89718,210.381561 L1038.17083,195.989787 L1007.6087,195.989787 Z M1005.72791,195.414116 L989.270239,181.022343 L959.976787,181.022343 L975.214574,195.414116 L1005.72791,195.414116 Z M1006.38622,195.989787 L975.824085,195.989787 L991.061872,210.381561 L1022.84388,210.381561 L1006.38622,195.989787 Z M958.805049,181.022343 L929.511597,181.022343 L943.480706,195.414116 L973.99404,195.414116 L958.805049,181.022343 Z M944.03947,195.989787 L958.008579,210.381561 L989.790592,210.381561 L974.6016,195.989787 L944.03947,195.989787 Z M928.339859,181.022343 L899.046408,181.022343 L911.746838,195.414116 L942.260173,195.414116 L928.339859,181.022343 Z M912.254855,195.989787 L924.955286,210.381561 L956.737298,210.381561 L942.816985,195.989787 L912.254855,195.989787 Z M910.526305,195.414116 L897.87467,181.022343 L868.581218,181.022343 L880.01297,195.414116 L910.526305,195.414116 Z M911.03237,195.989787 L880.47024,195.989787 L891.901992,210.381561 L923.684005,210.381561 L911.03237,195.989787 Z M867.40948,181.022343 L838.116028,181.022343 L848.279102,195.414116 L878.792437,195.414116 L867.40948,181.022343 Z M848.685625,195.989787 L858.848699,210.381561 L890.630712,210.381561 L879.247755,195.989787 L848.685625,195.989787 Z M836.94429,181.022343 L807.650839,181.022343 L816.545234,195.414116 L847.058569,195.414116 L836.94429,181.022343 Z M816.90101,195.989787 L825.795406,210.381561 L857.577419,210.381561 L847.46314,195.989787 L816.90101,195.989787 Z M806.4791,181.022343 L777.185649,181.022343 L784.811366,195.414116 L815.324701,195.414116 L806.4791,181.022343 Z M785.116395,195.989787 L792.742113,210.381561 L824.524125,210.381561 L815.678525,195.989787 L785.116395,195.989787 Z M776.013911,181.022343 L746.720459,181.022343 L753.077498,195.414116 L783.590833,195.414116 L776.013911,181.022343 Z M753.33178,195.989787 L759.688819,210.381561 L791.470832,210.381561 L783.89391,195.989787 L753.33178,195.989787 Z M745.548721,181.022343 L716.255269,181.022343 L721.343631,195.414116 L751.856965,195.414116 L745.548721,181.022343 Z M721.547165,195.989787 L726.635526,210.381561 L758.417539,210.381561 L752.109295,195.989787 L721.547165,195.989787 Z M715.083531,181.022343 L685.79008,181.022343 L689.609763,195.414116 L720.123097,195.414116 L715.083531,181.022343 Z M689.76255,195.989787 L693.582233,210.381561 L725.364246,210.381561 L720.32468,195.989787 L689.76255,195.989787 Z M684.618342,181.022343 L655.32489,181.022343 L657.875895,195.414116 L688.389229,195.414116 L684.618342,181.022343 Z M688.540065,195.989787 L657.977935,195.989787 L660.52894,210.381561 L692.310952,210.381561 L688.540065,195.989787 Z M654.153152,181.022343 L624.8597,181.022343 L626.142027,195.414116 L656.655361,195.414116 L654.153152,181.022343 Z M626.19332,195.989787 L627.475646,210.381561 L659.257659,210.381561 L656.75545,195.989787 L626.19332,195.989787 Z M623.687962,181.022343 L594.394511,181.022343 L594.408159,195.414116 L624.921493,195.414116 L623.687962,181.022343 Z M594.408705,195.989787 L594.422353,210.381561 L626.204366,210.381561 L624.970835,195.989787 L594.408705,195.989787 Z M593.222773,181.022343 L563.929321,181.022343 L562.674291,195.414116 L593.187626,195.414116 L593.222773,181.022343 Z M562.62409,195.989787 L561.36906,210.381561 L593.151073,210.381561 L593.18622,195.989787 L562.62409,195.989787 Z M562.757583,181.022343 L533.464131,181.022343 L530.940423,195.414116 L561.453758,195.414116 L562.757583,181.022343 Z M530.839475,195.989787 L528.315766,210.381561 L560.097779,210.381561 L561.401605,195.989787 L530.839475,195.989787 Z M529.71989,195.414116 L532.292393,181.022343 L502.998942,181.022343 L499.206555,195.414116 L529.71989,195.414116 Z M499.05486,195.989787 L495.262473,210.381561 L527.044486,210.381561 L529.61699,195.989787 L499.05486,195.989787 Z M501.827204,181.022343 L472.533752,181.022343 L467.472687,195.414116 L497.986022,195.414116 L501.827204,181.022343 Z M497.832375,195.989787 L467.270245,195.989787 L462.20918,210.381561 L493.991193,210.381561 L497.832375,195.989787 Z M466.252154,195.414116 L471.362014,181.022343 L442.068562,181.022343 L435.738819,195.414116 L466.252154,195.414116 Z M435.48563,195.989787 L429.155887,210.381561 L460.937899,210.381561 L466.047759,195.989787 L435.48563,195.989787 Z M440.896824,181.022343 L411.603373,181.022343 L404.004951,195.414116 L434.518286,195.414116 L440.896824,181.022343 Z M403.701015,195.989787 L396.102593,210.381561 L427.884606,210.381561 L434.263144,195.989787 L403.701015,195.989787 Z M410.431635,181.022343 L381.138183,181.022343 L372.271084,195.414116 L402.784418,195.414116 L410.431635,181.022343 Z M371.9164,195.989787 L363.0493,210.381561 L394.831313,210.381561 L402.478529,195.989787 L371.9164,195.989787 Z M371.05055,195.414116 L379.966445,181.022343 L350.672993,181.022343 L340.537216,195.414116 L371.05055,195.414116 Z M340.131785,195.989787 L329.996007,210.381561 L361.77802,210.381561 L370.693914,195.989787 L340.131785,195.989787 Z M349.501255,181.022343 L320.207804,181.022343 L308.803348,195.414116 L339.316682,195.414116 L349.501255,181.022343 Z M308.347169,195.989787 L296.942714,210.381561 L328.724726,210.381561 L338.909299,195.989787 L308.347169,195.989787 Z M307.582814,195.414116 L319.036066,181.022343 L289.742614,181.022343 L277.06948,195.414116 L307.582814,195.414116 Z M307.124684,195.989787 L276.562554,195.989787 L263.88942,210.381561 L295.671433,210.381561 L307.124684,195.989787 Z M288.570876,181.022343 L259.277424,181.022343 L245.335612,195.414116 L275.848946,195.414116 L288.570876,181.022343 Z M275.340069,195.989787 L244.777939,195.989787 L230.836127,210.381561 L262.61814,210.381561 L275.340069,195.989787 Z M244.115079,195.414116 L258.105686,181.022343 L228.812235,181.022343 L213.601744,195.414116 L244.115079,195.414116 Z M212.993324,195.989787 L197.782834,210.381561 L229.564847,210.381561 L243.555454,195.989787 L212.993324,195.989787 Z M227.640496,181.022343 L198.347045,181.022343 L181.867876,195.414116 L212.381211,195.414116 L227.640496,181.022343 Z M181.208709,195.989787 L164.729541,210.381561 L196.511553,210.381561 L211.770839,195.989787 L181.208709,195.989787 Z M197.175307,181.022343 L167.881855,181.022343 L150.134008,195.414116 L180.647343,195.414116 L197.175307,181.022343 Z M179.986224,195.989787 L149.424094,195.989787 L131.676247,210.381561 L163.45826,210.381561 L179.986224,195.989787 Z M784.441292,1.41300893 L800.947757,15.8047825 L816.236953,15.8047825 L798.510605,1.41300893 L784.441292,1.41300893 Z M801.608016,16.3804534 L818.114481,30.7722269 L834.672355,30.7722269 L816.946007,16.3804534 L801.608016,16.3804534 Z M818.77474,31.3478979 L835.281205,45.7396714 L853.107757,45.7396714 L835.381409,31.3478979 L818.77474,31.3478979 Z M835.941463,46.3153423 L852.447928,60.7071159 L871.543159,60.7071159 L853.816811,46.3153423 L835.941463,46.3153423 Z M853.108187,61.2827868 L869.614652,75.6745603 L889.978561,75.6745603 L872.252213,61.2827868 L853.108187,61.2827868 Z M870.274911,76.2502313 L886.781376,90.6420048 L908.413963,90.6420048 L890.687615,76.2502313 L870.274911,76.2502313 Z M909.123017,91.2176757 L887.441634,91.2176757 L903.948099,105.609449 L926.849365,105.609449 L909.123017,91.2176757 Z M904.608358,106.18512 L921.114823,120.576894 L945.284767,120.576894 L927.558419,106.18512 L904.608358,106.18512 Z M921.775082,121.152565 L938.281547,135.544338 L963.720169,135.544338 L945.993821,121.152565 L921.775082,121.152565 Z M769.246434,1.41300893 L755.177121,1.41300893 L769.14623,15.8047825 L784.435426,15.8047825 L769.246434,1.41300893 Z M800.336189,15.8047825 L783.87852,1.41300893 L769.809207,1.41300893 L785.046994,15.8047825 L800.336189,15.8047825 Z M769.704994,16.3804534 L783.674103,30.7722269 L800.231977,30.7722269 L785.042985,16.3804534 L769.704994,16.3804534 Z M800.894292,30.7722269 L817.452166,30.7722269 L800.994496,16.3804534 L785.656505,16.3804534 L800.894292,30.7722269 Z M784.232867,31.3478979 L798.201976,45.7396714 L816.028528,45.7396714 L800.839537,31.3478979 L784.232867,31.3478979 Z M816.74159,45.7396714 L834.568143,45.7396714 L818.110473,31.3478979 L801.503803,31.3478979 L816.74159,45.7396714 Z M798.76074,46.3153423 L812.729849,60.7071159 L831.825079,60.7071159 L816.636088,46.3153423 L798.76074,46.3153423 Z M817.351102,46.3153423 L832.588889,60.7071159 L851.684119,60.7071159 L835.226449,46.3153423 L817.351102,46.3153423 Z M832.432639,61.2827868 L813.288613,61.2827868 L827.257722,75.6745603 L847.621631,75.6745603 L832.432639,61.2827868 Z M833.1984,61.2827868 L848.436187,75.6745603 L868.800096,75.6745603 L852.342426,61.2827868 L833.1984,61.2827868 Z M827.816486,76.2502313 L841.785595,90.6420048 L863.418182,90.6420048 L848.22919,76.2502313 L827.816486,76.2502313 Z M864.283485,90.6420048 L885.916072,90.6420048 L869.458403,76.2502313 L849.045698,76.2502313 L864.283485,90.6420048 Z M842.344359,91.2176757 L856.313468,105.609449 L879.214733,105.609449 L864.025742,91.2176757 L842.344359,91.2176757 Z M880.130784,105.609449 L903.032049,105.609449 L886.574379,91.2176757 L864.892997,91.2176757 L880.130784,105.609449 Z M856.872232,106.18512 L870.841341,120.576894 L895.011284,120.576894 L879.822293,106.18512 L856.872232,106.18512 Z M895.978082,120.576894 L920.148025,120.576894 L903.690356,106.18512 L880.740295,106.18512 L895.978082,120.576894 Z M871.400105,121.152565 L885.369214,135.544338 L910.807836,135.544338 L895.618844,121.152565 L871.400105,121.152565 Z M911.82538,135.544338 L937.264002,135.544338 L920.806332,121.152565 L896.587594,121.152565 L911.82538,135.544338 Z M768.534662,15.8047825 L754.614349,1.41300893 L740.545036,1.41300893 L753.245466,15.8047825 L768.534662,15.8047825 Z M753.753483,16.3804534 L766.453914,30.7722269 L783.011788,30.7722269 L769.091475,16.3804534 L753.753483,16.3804534 Z M766.961931,31.3478979 L779.662362,45.7396714 L797.488914,45.7396714 L783.5686,31.3478979 L766.961931,31.3478979 Z M798.045726,46.3153423 L780.170379,46.3153423 L792.870809,60.7071159 L811.96604,60.7071159 L798.045726,46.3153423 Z M793.378826,61.2827868 L806.079257,75.6745603 L826.443166,75.6745603 L812.522852,61.2827868 L793.378826,61.2827868 Z M826.999978,76.2502313 L806.587274,76.2502313 L819.287704,90.6420048 L840.920291,90.6420048 L826.999978,76.2502313 Z M819.795722,91.2176757 L832.496152,105.609449 L855.397417,105.609449 L841.477104,91.2176757 L819.795722,91.2176757 Z M833.004169,106.18512 L845.7046,120.576894 L869.874543,120.576894 L855.95423,106.18512 L833.004169,106.18512 Z M870.431356,121.152565 L846.212617,121.152565 L858.913047,135.544338 L884.351669,135.544338 L870.431356,121.152565 Z M725.91295,1.41300893 L737.344703,15.8047825 L752.633898,15.8047825 L739.982263,1.41300893 L725.91295,1.41300893 Z M753.139964,16.3804534 L737.801973,16.3804534 L749.233725,30.7722269 L765.791599,30.7722269 L753.139964,16.3804534 Z M749.690995,31.3478979 L761.122747,45.7396714 L778.949299,45.7396714 L766.297664,31.3478979 L749.690995,31.3478979 Z M761.580017,46.3153423 L773.011769,60.7071159 L792.107,60.7071159 L779.455365,46.3153423 L761.580017,46.3153423 Z M792.613065,61.2827868 L773.46904,61.2827868 L784.900792,75.6745603 L805.2647,75.6745603 L792.613065,61.2827868 Z M785.358062,76.2502313 L796.789814,90.6420048 L818.422401,90.6420048 L805.770766,76.2502313 L785.358062,76.2502313 Z M818.928466,91.2176757 L797.247084,91.2176757 L808.678836,105.609449 L831.580102,105.609449 L818.928466,91.2176757 Z M832.086167,106.18512 L809.136106,106.18512 L820.567859,120.576894 L844.737802,120.576894 L832.086167,106.18512 Z M821.025129,121.152565 L832.456881,135.544338 L857.895503,135.544338 L845.243867,121.152565 L821.025129,121.152565 Z M705.543175,15.8047825 L720.832371,15.8047825 L710.718092,1.41300893 L696.64878,1.41300893 L705.543175,15.8047825 Z M682.016694,1.41300893 L689.642412,15.8047825 L704.931607,15.8047825 L696.086007,1.41300893 L682.016694,1.41300893 Z M714.793347,30.7722269 L731.351221,30.7722269 L721.236942,16.3804534 L705.898951,16.3804534 L714.793347,30.7722269 Z M689.94744,16.3804534 L697.573158,30.7722269 L714.131032,30.7722269 L705.285431,16.3804534 L689.94744,16.3804534 Z M724.043518,45.7396714 L741.870071,45.7396714 L731.755792,31.3478979 L715.149123,31.3478979 L724.043518,45.7396714 Z M697.878187,31.3478979 L705.503904,45.7396714 L723.330456,45.7396714 L714.484856,31.3478979 L697.878187,31.3478979 Z M733.29369,60.7071159 L752.388921,60.7071159 L742.274642,46.3153423 L724.399294,46.3153423 L733.29369,60.7071159 Z M723.68428,46.3153423 L705.808933,46.3153423 L713.43465,60.7071159 L732.529881,60.7071159 L723.68428,46.3153423 Z M742.543862,75.6745603 L762.90777,75.6745603 L752.793492,61.2827868 L733.649466,61.2827868 L742.543862,75.6745603 Z M713.739679,61.2827868 L721.365397,75.6745603 L741.729305,75.6745603 L732.883705,61.2827868 L713.739679,61.2827868 Z M751.794033,90.6420048 L773.42662,90.6420048 L763.312341,76.2502313 L742.899637,76.2502313 L751.794033,90.6420048 Z M721.670425,76.2502313 L729.296143,90.6420048 L750.92873,90.6420048 L742.083129,76.2502313 L721.670425,76.2502313 Z M761.044205,105.609449 L783.94547,105.609449 L773.831191,91.2176757 L752.149809,91.2176757 L761.044205,105.609449 Z M729.601171,91.2176757 L737.226889,105.609449 L760.128154,105.609449 L751.282554,91.2176757 L729.601171,91.2176757 Z M770.294376,120.576894 L794.46432,120.576894 L784.350041,106.18512 L761.399981,106.18512 L770.294376,120.576894 Z M760.481978,106.18512 L737.531918,106.18512 L745.157635,120.576894 L769.327579,120.576894 L760.481978,106.18512 Z M779.544548,135.544338 L804.98317,135.544338 L794.868891,121.152565 L770.650152,121.152565 L779.544548,135.544338 Z M745.462664,121.152565 L753.088381,135.544338 L778.527003,135.544338 L769.681403,121.152565 L745.462664,121.152565 Z M711.280865,1.41300893 L721.443939,15.8047825 L736.733135,15.8047825 L725.350178,1.41300893 L711.280865,1.41300893 Z M820.056379,121.152565 L795.83764,121.152565 L806.000714,135.544338 L831.439336,135.544338 L820.056379,121.152565 Z M808.218104,106.18512 L785.268044,106.18512 L795.431118,120.576894 L819.601061,120.576894 L808.218104,106.18512 Z M807.762786,105.609449 L796.379829,91.2176757 L774.698447,91.2176757 L784.861521,105.609449 L807.762786,105.609449 Z M795.924511,90.6420048 L784.541554,76.2502313 L764.12885,76.2502313 L774.291924,90.6420048 L795.924511,90.6420048 Z M772.703279,61.2827868 L753.559253,61.2827868 L763.722327,75.6745603 L784.086235,75.6745603 L772.703279,61.2827868 Z M760.865003,46.3153423 L742.989656,46.3153423 L753.15273,60.7071159 L772.24796,60.7071159 L760.865003,46.3153423 Z M760.409685,45.7396714 L749.026728,31.3478979 L732.420059,31.3478979 L742.583133,45.7396714 L760.409685,45.7396714 Z M748.57141,30.7722269 L737.188453,16.3804534 L721.850462,16.3804534 L732.013536,30.7722269 L748.57141,30.7722269 Z M652.752523,1.41300893 L657.840884,15.8047825 L673.13008,15.8047825 L666.821836,1.41300893 L652.752523,1.41300893 Z M638.120438,1.41300893 L641.940121,15.8047825 L657.229316,15.8047825 L652.189751,1.41300893 L638.120438,1.41300893 Z M725.61467,135.544338 L719.306426,121.152565 L695.087687,121.152565 L700.176048,135.544338 L725.61467,135.544338 Z M694.118938,121.152565 L669.900199,121.152565 L673.719882,135.544338 L699.158504,135.544338 L694.118938,121.152565 Z M719.054096,120.576894 L712.745852,106.18512 L689.795792,106.18512 L694.884153,120.576894 L719.054096,120.576894 Z M688.877789,106.18512 L665.927729,106.18512 L669.747412,120.576894 L693.917355,120.576894 L688.877789,106.18512 Z M689.592257,105.609449 L712.493523,105.609449 L706.185279,91.2176757 L684.503896,91.2176757 L689.592257,105.609449 Z M688.676207,105.609449 L683.636641,91.2176757 L661.955259,91.2176757 L665.774942,105.609449 L688.676207,105.609449 Z M684.300362,90.6420048 L705.932949,90.6420048 L699.624705,76.2502313 L679.212001,76.2502313 L684.300362,90.6420048 Z M678.395493,76.2502313 L657.982789,76.2502313 L661.802471,90.6420048 L683.435058,90.6420048 L678.395493,76.2502313 Z M699.372375,75.6745603 L693.064131,61.2827868 L673.920105,61.2827868 L679.008466,75.6745603 L699.372375,75.6745603 Z M673.154344,61.2827868 L654.010318,61.2827868 L657.830001,75.6745603 L678.19391,75.6745603 L673.154344,61.2827868 Z M692.811801,60.7071159 L686.503557,46.3153423 L668.62821,46.3153423 L673.716571,60.7071159 L692.811801,60.7071159 Z M667.913196,46.3153423 L650.037848,46.3153423 L653.857531,60.7071159 L672.952762,60.7071159 L667.913196,46.3153423 Z M668.424675,45.7396714 L686.251228,45.7396714 L679.942984,31.3478979 L663.336314,31.3478979 L668.424675,45.7396714 Z M667.711613,45.7396714 L662.672047,31.3478979 L646.065378,31.3478979 L649.885061,45.7396714 L667.711613,45.7396714 Z M663.13278,30.7722269 L679.690654,30.7722269 L673.38241,16.3804534 L658.044419,16.3804534 L663.13278,30.7722269 Z M662.470465,30.7722269 L657.430899,16.3804534 L642.092908,16.3804534 L645.912591,30.7722269 L662.470465,30.7722269 Z M667.384609,1.41300893 L673.741648,15.8047825 L689.030844,15.8047825 L681.453922,1.41300893 L667.384609,1.41300893 Z M744.493914,121.152565 L720.275176,121.152565 L726.632215,135.544338 L752.070837,135.544338 L744.493914,121.152565 Z M736.613915,106.18512 L713.663855,106.18512 L720.020894,120.576894 L744.190837,120.576894 L736.613915,106.18512 Z M736.310838,105.609449 L728.733916,91.2176757 L707.052534,91.2176757 L713.409573,105.609449 L736.310838,105.609449 Z M720.853917,76.2502313 L700.441213,76.2502313 L706.798252,90.6420048 L728.430839,90.6420048 L720.853917,76.2502313 Z M720.55084,75.6745603 L712.973918,61.2827868 L693.829892,61.2827868 L700.186931,75.6745603 L720.55084,75.6745603 Z M705.093919,46.3153423 L687.218571,46.3153423 L693.575611,60.7071159 L712.670841,60.7071159 L705.093919,46.3153423 Z M697.21392,31.3478979 L680.60725,31.3478979 L686.96429,45.7396714 L704.790842,45.7396714 L697.21392,31.3478979 Z M689.333921,16.3804534 L673.99593,16.3804534 L680.352969,30.7722269 L696.910843,30.7722269 L689.333921,16.3804534 Z M623.488352,1.41300893 L626.039357,15.8047825 L641.328553,15.8047825 L637.557665,1.41300893 L623.488352,1.41300893 Z M626.141397,16.3804534 L628.692402,30.7722269 L645.250276,30.7722269 L641.479388,16.3804534 L626.141397,16.3804534 Z M645.401111,31.3478979 L628.794442,31.3478979 L631.345447,45.7396714 L649.171999,45.7396714 L645.401111,31.3478979 Z M649.322834,46.3153423 L631.447487,46.3153423 L633.998491,60.7071159 L653.093722,60.7071159 L649.322834,46.3153423 Z M653.244557,61.2827868 L634.100532,61.2827868 L636.651536,75.6745603 L657.015445,75.6745603 L653.244557,61.2827868 Z M657.16628,76.2502313 L636.753576,76.2502313 L639.304581,90.6420048 L660.937168,90.6420048 L657.16628,76.2502313 Z M639.406621,91.2176757 L641.957626,105.609449 L664.858891,105.609449 L661.088004,91.2176757 L639.406621,91.2176757 Z M665.009727,106.18512 L642.059666,106.18512 L644.610671,120.576894 L668.780614,120.576894 L665.009727,106.18512 Z M644.712711,121.152565 L647.263715,135.544338 L672.702337,135.544338 L668.93145,121.152565 L644.712711,121.152565 Z M594.224182,1.41300893 L594.23783,15.8047825 L609.527026,15.8047825 L608.293494,1.41300893 L594.224182,1.41300893 Z M579.592096,1.41300893 L578.337066,15.8047825 L593.626262,15.8047825 L593.661409,1.41300893 L579.592096,1.41300893 Z M594.252024,30.7722269 L610.809898,30.7722269 L609.576367,16.3804534 L594.238376,16.3804534 L594.252024,30.7722269 Z M593.624856,16.3804534 L578.286865,16.3804534 L577.031835,30.7722269 L593.589709,30.7722269 L593.624856,16.3804534 Z M594.266218,45.7396714 L612.09277,45.7396714 L610.859239,31.3478979 L594.25257,31.3478979 L594.266218,45.7396714 Z M576.981634,31.3478979 L575.726604,45.7396714 L593.553156,45.7396714 L593.588303,31.3478979 L576.981634,31.3478979 Z M594.266764,46.3153423 L594.280412,60.7071159 L613.375642,60.7071159 L612.142111,46.3153423 L594.266764,46.3153423 Z M593.55175,46.3153423 L575.676402,46.3153423 L574.421372,60.7071159 L593.516603,60.7071159 L593.55175,46.3153423 Z M594.294606,75.6745603 L614.658515,75.6745603 L613.424984,61.2827868 L594.280958,61.2827868 L594.294606,75.6745603 Z M574.371171,61.2827868 L573.116141,75.6745603 L593.48005,75.6745603 L593.515197,61.2827868 L574.371171,61.2827868 Z M594.295152,76.2502313 L594.3088,90.6420048 L615.941387,90.6420048 L614.707856,76.2502313 L594.295152,76.2502313 Z M593.478644,76.2502313 L573.06594,76.2502313 L571.81091,90.6420048 L593.443497,90.6420048 L593.478644,76.2502313 Z M594.322994,105.609449 L617.224259,105.609449 L615.990728,91.2176757 L594.309346,91.2176757 L594.322994,105.609449 Z M571.760709,91.2176757 L570.505679,105.609449 L593.406944,105.609449 L593.442091,91.2176757 L571.760709,91.2176757 Z M594.32354,106.18512 L594.337188,120.576894 L618.507132,120.576894 L617.273601,106.18512 L594.32354,106.18512 Z M593.405538,106.18512 L570.455477,106.18512 L569.200447,120.576894 L593.370391,120.576894 L593.405538,106.18512 Z M594.351383,135.544338 L619.790004,135.544338 L618.556473,121.152565 L594.337734,121.152565 L594.351383,135.544338 Z M569.150246,121.152565 L567.895216,135.544338 L593.333838,135.544338 L593.368985,121.152565 L569.150246,121.152565 Z M608.856267,1.41300893 L610.138593,15.8047825 L625.427789,15.8047825 L622.92558,1.41300893 L608.856267,1.41300893 Z M610.189886,16.3804534 L611.472213,30.7722269 L628.030087,30.7722269 L625.527878,16.3804534 L610.189886,16.3804534 Z M611.523506,31.3478979 L612.805832,45.7396714 L630.632385,45.7396714 L628.130175,31.3478979 L611.523506,31.3478979 Z M612.857125,46.3153423 L614.139452,60.7071159 L633.234682,60.7071159 L630.732473,46.3153423 L612.857125,46.3153423 Z M614.190745,61.2827868 L615.473071,75.6745603 L635.83698,75.6745603 L633.334771,61.2827868 L614.190745,61.2827868 Z M615.524364,76.2502313 L616.806691,90.6420048 L638.439278,90.6420048 L635.937068,76.2502313 L615.524364,76.2502313 Z M618.14031,105.609449 L641.041575,105.609449 L638.539366,91.2176757 L616.857984,91.2176757 L618.14031,105.609449 Z M618.191603,106.18512 L619.47393,120.576894 L643.643873,120.576894 L641.141664,106.18512 L618.191603,106.18512 Z M620.807549,135.544338 L646.246171,135.544338 L643.743961,121.152565 L619.525223,121.152565 L620.807549,135.544338 Z M564.960011,1.41300893 L562.436302,15.8047825 L577.725498,15.8047825 L579.029324,1.41300893 L564.960011,1.41300893 Z M550.327925,1.41300893 L546.535539,15.8047825 L561.824735,15.8047825 L564.397238,1.41300893 L550.327925,1.41300893 Z M562.335354,16.3804534 L559.811646,30.7722269 L576.36952,30.7722269 L577.673345,16.3804534 L562.335354,16.3804534 Z M546.383843,16.3804534 L542.591457,30.7722269 L559.149331,30.7722269 L561.721834,16.3804534 L546.383843,16.3804534 Z M559.710697,31.3478979 L557.186989,45.7396714 L575.013541,45.7396714 L576.317367,31.3478979 L559.710697,31.3478979 Z M559.046431,31.3478979 L542.439761,31.3478979 L538.647375,45.7396714 L556.473927,45.7396714 L559.046431,31.3478979 Z M557.086041,46.3153423 L554.562333,60.7071159 L573.657563,60.7071159 L574.961388,46.3153423 L557.086041,46.3153423 Z M538.495679,46.3153423 L534.703293,60.7071159 L553.798523,60.7071159 L556.371027,46.3153423 L538.495679,46.3153423 Z M551.937676,75.6745603 L572.301585,75.6745603 L573.60541,61.2827868 L554.461384,61.2827868 L551.937676,75.6745603 Z M553.695623,61.2827868 L534.551597,61.2827868 L530.759211,75.6745603 L551.12312,75.6745603 L553.695623,61.2827868 Z M551.836728,76.2502313 L549.313019,90.6420048 L570.945606,90.6420048 L572.249432,76.2502313 L551.836728,76.2502313 Z M530.607515,76.2502313 L526.815129,90.6420048 L548.447716,90.6420048 L551.020219,76.2502313 L530.607515,76.2502313 Z M549.212071,91.2176757 L546.688363,105.609449 L569.589628,105.609449 L570.893453,91.2176757 L549.212071,91.2176757 Z M526.663433,91.2176757 L522.871047,105.609449 L545.772312,105.609449 L548.344816,91.2176757 L526.663433,91.2176757 Z M544.063706,120.576894 L568.23365,120.576894 L569.537475,106.18512 L546.587414,106.18512 L544.063706,120.576894 Z M545.669412,106.18512 L522.719351,106.18512 L518.926965,120.576894 L543.096908,120.576894 L545.669412,106.18512 Z M543.962758,121.152565 L541.43905,135.544338 L566.877671,135.544338 L568.181497,121.152565 L543.962758,121.152565 Z M542.994008,121.152565 L518.77527,121.152565 L514.982883,135.544338 L540.421505,135.544338 L542.994008,121.152565 Z M549.765153,1.41300893 L535.69584,1.41300893 L530.634775,15.8047825 L545.923971,15.8047825 L549.765153,1.41300893 Z M530.432332,16.3804534 L525.371268,30.7722269 L541.929142,30.7722269 L545.770324,16.3804534 L530.432332,16.3804534 Z M525.168825,31.3478979 L520.10776,45.7396714 L537.934313,45.7396714 L541.775495,31.3478979 L525.168825,31.3478979 Z M519.905318,46.3153423 L514.844253,60.7071159 L533.939484,60.7071159 L537.780665,46.3153423 L519.905318,46.3153423 Z M533.785836,61.2827868 L514.641811,61.2827868 L509.580746,75.6745603 L529.944655,75.6745603 L533.785836,61.2827868 Z M529.791007,76.2502313 L509.378303,76.2502313 L504.317238,90.6420048 L525.949825,90.6420048 L529.791007,76.2502313 Z M525.796178,91.2176757 L504.114796,91.2176757 L499.053731,105.609449 L521.954996,105.609449 L525.796178,91.2176757 Z M521.801349,106.18512 L498.851289,106.18512 L493.790224,120.576894 L517.960167,120.576894 L521.801349,106.18512 Z M517.80652,121.152565 L493.587781,121.152565 L488.526717,135.544338 L513.965338,135.544338 L517.80652,121.152565 Z M432.708469,1.41300893 L418.639156,1.41300893 L403.428666,15.8047825 L418.717862,15.8047825 L432.708469,1.41300893 Z M433.271242,1.41300893 L419.329429,15.8047825 L434.618625,15.8047825 L447.340555,1.41300893 L433.271242,1.41300893 Z M402.820246,16.3804534 L387.609756,30.7722269 L404.16763,30.7722269 L418.158237,16.3804534 L402.820246,16.3804534 Z M418.771757,16.3804534 L404.829945,30.7722269 L421.387819,30.7722269 L434.109748,16.3804534 L418.771757,16.3804534 Z M387.001336,31.3478979 L371.790846,45.7396714 L389.617398,45.7396714 L403.608005,31.3478979 L387.001336,31.3478979 Z M404.272272,31.3478979 L390.33046,45.7396714 L408.157012,45.7396714 L420.878942,31.3478979 L404.272272,31.3478979 Z M371.182426,46.3153423 L355.971935,60.7071159 L375.067166,60.7071159 L389.057773,46.3153423 L371.182426,46.3153423 Z M389.772787,46.3153423 L375.830975,60.7071159 L394.926206,60.7071159 L407.648135,46.3153423 L389.772787,46.3153423 Z M374.507542,61.2827868 L355.363516,61.2827868 L340.153025,75.6745603 L360.516934,75.6745603 L374.507542,61.2827868 Z M375.273303,61.2827868 L361.33149,75.6745603 L381.695399,75.6745603 L394.417328,61.2827868 L375.273303,61.2827868 Z M359.95731,76.2502313 L339.544606,76.2502313 L324.334115,90.6420048 L345.966702,90.6420048 L359.95731,76.2502313 Z M360.773818,76.2502313 L346.832005,90.6420048 L368.464592,90.6420048 L381.186522,76.2502313 L360.773818,76.2502313 Z M345.407078,91.2176757 L323.725695,91.2176757 L308.515205,105.609449 L331.41647,105.609449 L345.407078,91.2176757 Z M346.274333,91.2176757 L332.332521,105.609449 L355.233786,105.609449 L367.955715,91.2176757 L346.274333,91.2176757 Z M330.856846,106.18512 L307.906785,106.18512 L292.696295,120.576894 L316.866238,120.576894 L330.856846,106.18512 Z M317.833036,120.576894 L342.002979,120.576894 L354.724909,106.18512 L331.774848,106.18512 L317.833036,120.576894 Z M292.087875,121.152565 L276.877385,135.544338 L302.316006,135.544338 L316.306614,121.152565 L292.087875,121.152565 Z M303.333551,135.544338 L328.772173,135.544338 L341.494102,121.152565 L317.275363,121.152565 L303.333551,135.544338 Z M408.140672,135.544338 L417.056567,121.152565 L392.837828,121.152565 L382.702051,135.544338 L408.140672,135.544338 Z M409.158217,135.544338 L434.596839,135.544338 L442.244055,121.152565 L418.025316,121.152565 L409.158217,135.544338 Z M426.329097,106.18512 L403.379037,106.18512 L393.243259,120.576894 L417.413203,120.576894 L426.329097,106.18512 Z M442.549944,120.576894 L450.19716,106.18512 L427.2471,106.18512 L418.38,120.576894 L442.549944,120.576894 Z M435.601628,91.2176757 L413.920246,91.2176757 L403.784468,105.609449 L426.685733,105.609449 L435.601628,91.2176757 Z M450.503049,105.609449 L458.150265,91.2176757 L436.468883,91.2176757 L427.601784,105.609449 L450.503049,105.609449 Z M435.958264,90.6420048 L444.874158,76.2502313 L424.461454,76.2502313 L414.325677,90.6420048 L435.958264,90.6420048 Z M458.456154,90.6420048 L466.103371,76.2502313 L445.690667,76.2502313 L436.823567,90.6420048 L458.456154,90.6420048 Z M445.230794,75.6745603 L454.146689,61.2827868 L435.002663,61.2827868 L424.866886,75.6745603 L445.230794,75.6745603 Z M466.409259,75.6745603 L474.056476,61.2827868 L454.91245,61.2827868 L446.045351,75.6745603 L466.409259,75.6745603 Z M463.419219,46.3153423 L445.543872,46.3153423 L435.408094,60.7071159 L454.503325,60.7071159 L463.419219,46.3153423 Z M474.362364,60.7071159 L482.009581,46.3153423 L464.134233,46.3153423 L455.267134,60.7071159 L474.362364,60.7071159 Z M463.775855,45.7396714 L472.69175,31.3478979 L456.085081,31.3478979 L445.949303,45.7396714 L463.775855,45.7396714 Z M482.31547,45.7396714 L489.962686,31.3478979 L473.356017,31.3478979 L464.488917,45.7396714 L482.31547,45.7396714 Z M473.048386,30.7722269 L481.96428,16.3804534 L466.626289,16.3804534 L456.490512,30.7722269 L473.048386,30.7722269 Z M473.710701,30.7722269 L490.268575,30.7722269 L497.915791,16.3804534 L482.5778,16.3804534 L473.710701,30.7722269 Z M482.320916,15.8047825 L491.236811,1.41300893 L477.167498,1.41300893 L467.03172,15.8047825 L482.320916,15.8047825 Z M498.22168,15.8047825 L505.868896,1.41300893 L491.799584,1.41300893 L482.932484,15.8047825 L498.22168,15.8047825 Z M418.076384,1.41300893 L404.007071,1.41300893 L387.527902,15.8047825 L402.817098,15.8047825 L418.076384,1.41300893 Z M386.868735,16.3804534 L370.389567,30.7722269 L386.947441,30.7722269 L402.206727,16.3804534 L386.868735,16.3804534 Z M369.7304,31.3478979 L353.251231,45.7396714 L371.077783,45.7396714 L386.337069,31.3478979 L369.7304,31.3478979 Z M352.592064,46.3153423 L336.112896,60.7071159 L355.208126,60.7071159 L370.467412,46.3153423 L352.592064,46.3153423 Z M354.597755,61.2827868 L335.453729,61.2827868 L318.97456,75.6745603 L339.338469,75.6745603 L354.597755,61.2827868 Z M338.728097,76.2502313 L318.315393,76.2502313 L301.836225,90.6420048 L323.468812,90.6420048 L338.728097,76.2502313 Z M301.177058,91.2176757 L284.697889,105.609449 L307.599154,105.609449 L322.85844,91.2176757 L301.177058,91.2176757 Z M284.038722,106.18512 L267.559554,120.576894 L291.729497,120.576894 L306.988783,106.18512 L284.038722,106.18512 Z M266.900387,121.152565 L250.421218,135.544338 L275.85984,135.544338 L291.119126,121.152565 L266.900387,121.152565 Z M381.684506,135.544338 L391.869079,121.152565 L367.65034,121.152565 L356.245884,135.544338 L381.684506,135.544338 Z M402.461035,106.18512 L379.510974,106.18512 L368.106518,120.576894 L392.276462,120.576894 L402.461035,106.18512 Z M413.05299,91.2176757 L391.371608,91.2176757 L379.967152,105.609449 L402.868417,105.609449 L413.05299,91.2176757 Z M413.460373,90.6420048 L423.644946,76.2502313 L403.232242,76.2502313 L391.827786,90.6420048 L413.460373,90.6420048 Z M424.052329,75.6745603 L434.236902,61.2827868 L415.092876,61.2827868 L403.68842,75.6745603 L424.052329,75.6745603 Z M444.828858,46.3153423 L426.95351,46.3153423 L415.549055,60.7071159 L434.644285,60.7071159 L444.828858,46.3153423 Z M445.236241,45.7396714 L455.420814,31.3478979 L438.814144,31.3478979 L427.409689,45.7396714 L445.236241,45.7396714 Z M455.828197,30.7722269 L466.01277,16.3804534 L450.674779,16.3804534 L439.270323,30.7722269 L455.828197,30.7722269 Z M466.420153,15.8047825 L476.604726,1.41300893 L462.535413,1.41300893 L451.130957,15.8047825 L466.420153,15.8047825 Z M403.444298,1.41300893 L389.374985,1.41300893 L371.627139,15.8047825 L386.916334,15.8047825 L403.444298,1.41300893 Z M370.917225,16.3804534 L353.169378,30.7722269 L369.727252,30.7722269 L386.255216,16.3804534 L370.917225,16.3804534 Z M352.459464,31.3478979 L334.711617,45.7396714 L352.538169,45.7396714 L369.066133,31.3478979 L352.459464,31.3478979 Z M334.001703,46.3153423 L316.253856,60.7071159 L335.349086,60.7071159 L351.877051,46.3153423 L334.001703,46.3153423 Z M334.687968,61.2827868 L315.543942,61.2827868 L297.796095,75.6745603 L318.160004,75.6745603 L334.687968,61.2827868 Z M297.086181,76.2502313 L279.338334,90.6420048 L300.970921,90.6420048 L317.498885,76.2502313 L297.086181,76.2502313 Z M300.309803,91.2176757 L278.62842,91.2176757 L260.880573,105.609449 L283.781839,105.609449 L300.309803,91.2176757 Z M283.12072,106.18512 L260.170659,106.18512 L242.422812,120.576894 L266.592756,120.576894 L283.12072,106.18512 Z M265.931637,121.152565 L241.712899,121.152565 L223.965052,135.544338 L249.403673,135.544338 L265.931637,121.152565 Z M487.509172,135.544338 L492.619032,121.152565 L468.400293,121.152565 L462.07055,135.544338 L487.509172,135.544338 Z M497.933286,106.18512 L474.983226,106.18512 L468.653483,120.576894 L492.823426,120.576894 L497.933286,106.18512 Z M503.247541,91.2176757 L481.566158,91.2176757 L475.236415,105.609449 L498.137681,105.609449 L503.247541,91.2176757 Z M503.451935,90.6420048 L508.561795,76.2502313 L488.149091,76.2502313 L481.819348,90.6420048 L503.451935,90.6420048 Z M508.766189,75.6745603 L513.876049,61.2827868 L494.732024,61.2827868 L488.402281,75.6745603 L508.766189,75.6745603 Z M519.190304,46.3153423 L501.314956,46.3153423 L494.985213,60.7071159 L514.080444,60.7071159 L519.190304,46.3153423 Z M519.394698,45.7396714 L524.504558,31.3478979 L507.897889,31.3478979 L501.568146,45.7396714 L519.394698,45.7396714 Z M524.708953,30.7722269 L529.818813,16.3804534 L514.480822,16.3804534 L508.151079,30.7722269 L524.708953,30.7722269 Z M530.023207,15.8047825 L535.133067,1.41300893 L521.063754,1.41300893 L514.734011,15.8047825 L530.023207,15.8047825 Z M366.68159,121.152565 L342.462852,121.152565 L329.789718,135.544338 L355.228339,135.544338 L366.68159,121.152565 Z M378.592972,106.18512 L355.642911,106.18512 L342.969777,120.576894 L367.13972,120.576894 L378.592972,106.18512 Z M390.504353,91.2176757 L368.822971,91.2176757 L356.149836,105.609449 L379.051102,105.609449 L390.504353,91.2176757 Z M402.415734,76.2502313 L382.00303,76.2502313 L369.329896,90.6420048 L390.962483,90.6420048 L402.415734,76.2502313 Z M414.327115,61.2827868 L395.183089,61.2827868 L382.509955,75.6745603 L402.873864,75.6745603 L414.327115,61.2827868 Z M426.238496,46.3153423 L408.363149,46.3153423 L395.690015,60.7071159 L414.785245,60.7071159 L426.238496,46.3153423 Z M438.149878,31.3478979 L421.543208,31.3478979 L408.870074,45.7396714 L426.696627,45.7396714 L438.149878,31.3478979 Z M438.608008,30.7722269 L450.061259,16.3804534 L434.723268,16.3804534 L422.050134,30.7722269 L438.608008,30.7722269 Z M450.519389,15.8047825 L461.97264,1.41300893 L447.903327,1.41300893 L435.230193,15.8047825 L450.519389,15.8047825 Z M435.614384,135.544338 L461.053005,135.544338 L467.431543,121.152565 L443.212805,121.152565 L435.614384,135.544338 Z M467.686685,120.576894 L474.065223,106.18512 L451.115163,106.18512 L443.516742,120.576894 L467.686685,120.576894 Z M451.4191,105.609449 L474.320365,105.609449 L480.698903,91.2176757 L459.017521,91.2176757 L451.4191,105.609449 Z M459.321458,90.6420048 L480.954045,90.6420048 L487.332583,76.2502313 L466.919879,76.2502313 L459.321458,90.6420048 Z M467.223816,75.6745603 L487.587724,75.6745603 L493.966263,61.2827868 L474.822237,61.2827868 L467.223816,75.6745603 Z M494.221404,60.7071159 L500.599942,46.3153423 L482.724595,46.3153423 L475.126174,60.7071159 L494.221404,60.7071159 Z M483.028532,45.7396714 L500.855084,45.7396714 L507.233622,31.3478979 L490.626953,31.3478979 L483.028532,45.7396714 Z M490.93089,30.7722269 L507.488764,30.7722269 L513.867302,16.3804534 L498.529311,16.3804534 L490.93089,30.7722269 Z M498.833248,15.8047825 L514.122444,15.8047825 L520.500982,1.41300893 L506.431669,1.41300893 L498.833248,15.8047825 Z" id="path-2"></path>
        <linearGradient x1="50%" y1="21.1808488%" x2="50%" y2="100%" id="linearGradient-4">
            <stop stop-color="#17EA30" stop-opacity="0" offset="0%"></stop>
            <stop stop-color="#17EA30" offset="100%"></stop>
        </linearGradient>
    </defs>
    <g id="Page-1" stroke="none" stroke-width="1" fill="none" fill-rule="evenodd">
        <g id="Start-screen-2-Copy-2" transform="translate(0.000000, -89.000000)">
            <g id="Rectangle" filter="url(#filter-1)" transform="translate(-260.500000, 91.162662)">
                <mask id="mask-3" fill="#17EA30">
                    <use xlink:href="#path-2"></use>
                </mask>
                <g id="Mask" fill-rule="nonzero"></g>
                <rect fill="url(#linearGradient-4)" mask="url(#mask-3)" x="260.5" y="-91" width="667" height="375"></rect>
            </g>
        </g>
    </g>
</svg>