<?xml version="1.0" encoding="UTF-8"?>
<svg width="49px" height="50px" viewBox="0 0 49 50" version="1.1" xmlns="http://www.w3.org/2000/svg" xmlns:xlink="http://www.w3.org/1999/xlink">
    <!-- Generator: Sketch 43.2 (39069) - http://www.bohemiancoding.com/sketch -->
    <title>Group Copy</title>
    <desc>Created with Sketch.</desc>
    <defs></defs>
    <g id="Page-1" stroke="none" stroke-width="1" fill="none" fill-rule="evenodd">
        <g id="Adelle-Copy-12" transform="translate(-136.000000, -2679.000000)">
            <g id="Group-Copy" transform="translate(136.000000, 2679.000000)">
                <path d="M18.9103555,41.8231457 C18.1207392,40.9736131 17.7259311,39.3398964 16.8047121,37.7061798 C15.3570823,35.1575819 13.5146443,34.5694439 13.5146443,34.5694439 C13.5146443,34.5694439 14.0410552,35.8110685 13.5146443,36.8566472 C12.7908294,38.2943178 12.1328158,37.7061798 12.1328158,37.7061798 C12.1328158,37.7061798 12.1328158,38.7517584 13.1198362,39.2745478 C14.567466,40.0587318 15.4228836,39.0131531 15.4228836,39.0131531 C15.4228836,39.0131531 15.2912809,40.3854751 16.7389108,41.4310537 C17.9891365,42.345935 18.9761569,42.345935 19.5683691,42.541981 C19.9631772,42.6726784 20.292184,42.8033757 20.292184,42.8033757 C20.292184,42.8033757 19.6999718,42.6726784 18.9103555,41.8231457 L18.9103555,41.8231457 Z" id="Logo-path" fill="#EDA72F"></path>
                <path d="M7.72412496,31.4327079 C7.46091954,30.1910833 7.72412496,29.7336427 7.72412496,29.7336427 C7.72412496,29.7336427 8.90854938,28.88411 10.4877819,29.5375967 C11.7380077,30.060386 12.0670145,31.236662 12.0670145,31.236662 C12.0670145,31.236662 12.9224321,30.5178266 13.0540348,29.4068993 C13.1856375,28.295972 12.5934253,27.5771367 12.0012131,27.0543474 C11.3431996,26.5315581 10.0929738,25.9434201 10.0929738,25.9434201 C10.0929738,25.9434201 11.0141928,25.4206308 11.2773982,24.8978414 C11.4090009,24.7017954 11.4748023,24.5057494 11.4748023,24.3097034 C11.5406036,23.9829601 11.6722063,23.7215655 11.8696104,23.3948221 C12.1986172,22.8720328 13.0540348,22.4145922 13.0540348,22.4145922 C13.0540348,22.4145922 11.7380077,21.8918028 10.4219806,22.4799408 C9.10595344,23.0680788 8.77694666,23.5908681 7.26351547,24.1790061 C7.19771412,24.2443548 7.0661114,24.2443548 7.00031005,24.3097034 L7.00031005,24.3097034 C5.4210775,24.8324928 4.30245444,24.3097034 4.30245444,24.3097034 C4.30245444,24.3097034 4.89466665,24.8978414 4.89466665,26.5315581 C4.89466665,28.099926 4.76306394,29.4068993 5.48687886,30.84457 C6.34229649,32.6089839 8.38213853,32.9357272 8.38213853,32.9357272 C8.38213853,32.9357272 7.98733039,32.6743326 7.72412496,31.4327079 L7.72412496,31.4327079 Z" id="Logo-path" fill="#EDA72F"></path>
                <path d="M11.6722063,31.6287539 C10.3561792,30.1257346 8.71114531,30.5831753 8.71114531,30.5831753 C8.71114531,30.5831753 9.30335751,31.040616 9.63236429,32.0208459 C10.0271724,33.0010759 10.0271724,33.5892139 10.0271724,33.5892139 C10.0271724,33.5892139 9.30335751,33.3931679 7.85572768,33.8506086 C6.34229649,34.3733979 6.40809784,36.0071145 6.40809784,36.0071145 C6.40809784,36.0071145 7.72412496,34.8961872 9.36915887,35.6150225 C10.8167887,36.2685092 11.4090009,38.1636205 11.4090009,38.1636205 C11.4090009,38.1636205 11.4748023,37.4447851 11.7380077,36.9873445 C12.0012131,36.4645552 12.3960213,36.1378118 12.725028,35.1575819 C13.0540348,34.3733979 12.9224321,33.1317732 11.6722063,31.6287539 L11.6722063,31.6287539 Z" id="Logo-path" fill="#EDA72F"></path>
                <path d="M5.09207072,5.94672853 C5.4210775,6.92695851 5.48687886,7.58044516 5.48687886,8.10323448 C5.48687886,8.49532647 5.75008428,8.88741846 5.75008428,8.88741846 C5.75008428,8.88741846 4.3682558,9.01811579 3.90764631,9.73695111 C3.18383139,10.8478784 3.97344766,12.0241544 3.97344766,12.0241544 C3.97344766,12.0241544 4.17085173,11.1746217 5.09207072,11.0439244 C5.61848157,10.9785757 6.4738992,10.9785757 7.39511818,11.8281084 C8.57954259,12.873687 10.0929738,12.9390357 10.0929738,12.9390357 C10.0929738,12.9390357 9.69816565,11.9588057 10.0271724,10.9785757 C10.2903779,9.93299711 10.6193846,9.60625378 11.2773982,8.56067514 C11.9354118,7.51509649 11.8696104,7.1230045 11.803809,6.46951785 C11.7380077,5.8160312 11.3431996,5.03184722 11.3431996,5.03184722 C11.3431996,5.03184722 11.1457955,5.75068254 10.4877819,6.07742586 C9.89556972,6.40416919 9.43496022,6.73091251 8.90854938,7.1230045 C8.38213853,7.58044516 8.31633717,8.16858315 8.31633717,8.16858315 C8.31633717,8.16858315 8.18473446,6.86160984 7.5267209,6.07742586 C6.86870733,5.29324188 6.07909106,4.5090579 5.28947479,4.24766324 C4.10505038,3.92091991 3.64444088,4.18231457 3.64444088,4.18231457 C3.64444088,4.18231457 4.69726258,4.63975523 5.09207072,5.94672853 L5.09207072,5.94672853 Z" id="Logo-path" fill="#EDA72F"></path>
                <path d="M11.803809,9.34485912 C11.7380077,10.0636944 11.803809,10.9132271 11.6722063,11.8934571 C11.5406036,12.9390357 10.5535833,13.5271737 10.5535833,13.5271737 C10.5535833,13.5271737 12.1328158,13.9846143 13.0540348,12.5469437 C13.7120484,11.4360164 13.1856375,10.1290431 12.7908294,9.47555645 C12.3960213,8.8220698 12.4618226,7.71114249 12.4618226,7.71114249 C12.4618226,7.71114249 11.8696104,8.6260238 11.803809,9.34485912 L11.803809,9.34485912 Z" id="Logo-path" fill="#EDA72F"></path>
                <path d="M3.64444088,8.49532647 C4.23665309,7.97253715 4.76306394,7.97253715 4.76306394,7.97253715 C4.76306394,7.97253715 4.30245444,7.71114249 3.90764631,6.73091251 C3.51283817,5.75068254 3.7760436,5.03184722 3.7760436,5.03184722 C3.7760436,5.03184722 2.98642732,5.75068254 2.65742054,7.05765584 C2.32841376,8.36462914 2.92062597,9.73695111 2.92062597,9.73695111 C2.92062597,9.73695111 3.05222868,9.01811579 3.64444088,8.49532647 L3.64444088,8.49532647 Z" id="Logo-path" fill="#EDA72F"></path>
                <path d="M1.60459884,13.5271737 C2.19681105,12.6122924 3.38123546,12.873687 3.38123546,12.873687 C3.38123546,12.873687 1.93360562,10.5211351 0.485975787,12.4162464 C-1.22485947,14.638101 2.13100969,16.2718176 2.13100969,16.2718176 C2.13100969,16.2718176 0.814982568,14.7034497 1.60459884,13.5271737 L1.60459884,13.5271737 Z" id="Logo-path" fill="#EDA72F"></path>
                <path d="M9.50076158,18.2322776 C7.85572768,18.1669289 7.13191276,21.5650595 7.59252225,23.3948221 C9.36915887,19.7352969 13.0540348,20.3887835 13.0540348,20.3887835 C13.0540348,20.3887835 11.0799941,18.2976262 9.50076158,18.2322776 L9.50076158,18.2322776 Z" id="Logo-path" fill="#EDA72F"></path>
                <path d="M5.22367343,22.8066841 C5.88168699,23.5255195 6.73710462,23.7869141 6.73710462,23.7869141 C6.73710462,23.7869141 6.14489242,21.4343622 6.80290598,19.4739022 C7.5267209,17.4480936 9.10595344,16.6639096 10.0929738,16.402515 C11.0799941,16.1411203 11.4090009,16.1411203 12.0012131,15.8797256 C12.4618226,15.6836796 12.6592267,15.3569363 12.9224321,14.8994957 C12.2644185,14.9648443 11.8696104,14.9648443 11.1457955,14.7034497 C10.4877819,14.442055 9.82976836,14.1153117 8.57954259,13.265779 C7.32931683,12.4162464 6.86870733,12.4162464 5.68428292,12.2855491 C4.69726258,12.2202004 4.23665309,12.677641 4.23665309,12.677641 C4.23665309,12.677641 5.02626936,13.0043844 5.35527614,13.5925224 C5.88168699,14.442055 5.55268021,15.2915877 5.55268021,15.2915877 C5.55268021,15.2915877 5.02626936,15.030193 4.30245444,14.8994957 C3.57863953,14.7687983 3.18383139,14.8994957 2.78902325,14.834147 C2.39421512,14.7687983 2.2626124,14.442055 2.2626124,14.442055 C2.2626124,14.442055 2.06520834,15.226239 2.52581783,16.3371663 C2.98642732,17.4480936 3.64444088,17.5787909 3.64444088,17.5787909 C3.64444088,17.5787909 1.86780427,17.8401856 1.47299613,19.5392509 C0.880783924,21.8264542 2.7232219,23.2641248 2.7232219,23.2641248 C2.7232219,23.2641248 2.85482461,22.0878488 3.38123546,21.8918028 C3.97344766,21.6304082 4.63146123,21.2383162 4.63146123,21.2383162 C4.63146123,21.2383162 4.63146123,22.0878488 5.22367343,22.8066841 L5.22367343,22.8066841 Z" id="Logo-path" fill="#EDA72F"></path>
                <path d="M33.8472634,17.5787909 L14.7648701,17.5787909 L14.7648701,26.7276041 C14.7648701,26.7276041 14.1068565,37.9675745 24.3060667,42.9994217 C34.4394756,37.9675745 33.8472634,26.7276041 33.8472634,26.7276041 L33.8472634,17.5787909 Z" id="Logo-path" fill="#00498C"></path>
                <polygon id="Logo-path" fill="#FFFFFF" points="30.9520037 30.9752673 26.8065182 30.648524 28.3857508 34.4387465 25.2272857 31.7594513 24.2402654 35.7457198 23.253245 31.7594513 20.0947799 34.4387465 21.6740125 30.648524 17.528527 30.9752673 21.0159989 28.8187613 17.528527 26.6622554 21.6740125 26.9889987 20.0947799 23.1987761 23.253245 25.8780714 24.2402654 21.8918028 25.2272857 25.8780714 28.3857508 23.1987761 26.8065182 26.9889987 30.9520037 26.6622554 27.4645318 28.8187613"></polygon>
                <path d="M10.685186,41.2350077 C10.8167887,40.9736131 11.0141928,40.8429157 11.3431996,40.8429157 C11.4748023,40.8429157 11.5406036,40.9082644 11.6722063,40.9082644 C12.0012131,41.0389617 12.527624,41.4310537 13.0540348,41.5617511 C13.646247,41.6924484 14.0410552,41.6270997 14.0410552,41.4310537 C14.1068565,41.2350077 13.448843,40.5815211 12.725028,40.4508237 C12.0012131,40.3201264 10.8825901,40.3201264 9.43496022,40.5815211 C7.92152903,40.8429157 7.39511818,40.5815211 7.32931683,40.3201264 C7.19771412,40.1240804 7.32931683,39.9933831 7.46091954,39.8626858 C7.26351547,39.8626858 7.13191276,39.9933831 7.00031005,40.1240804 C6.73710462,40.6468697 6.53970055,41.2350077 6.60550191,42.4112837 C6.60550191,43.5875597 6.67130327,44.5677896 7.32931683,44.698487 C7.98733039,44.8291843 8.51374124,44.3717437 9.04015209,44.306395 C9.56656294,44.2410463 9.69816565,44.4370923 9.69816565,44.4370923 L10.685186,41.2350077 L10.685186,41.2350077 Z" id="Logo-path" fill="#00498C"></path>
                <path d="M37.8611461,41.2350077 C37.7295434,40.9736131 37.5321393,40.8429157 37.2031325,40.8429157 C37.0715298,40.8429157 37.0057285,40.9082644 36.8741257,40.9082644 C36.545119,41.0389617 36.0187081,41.4310537 35.4922973,41.5617511 C34.9000851,41.6924484 34.5052769,41.6270997 34.5052769,41.4310537 C34.4394756,41.2350077 35.0974891,40.5815211 35.821304,40.4508237 C36.545119,40.3201264 37.663742,40.3201264 39.1113719,40.5815211 C40.5590017,40.8429157 41.1512139,40.5815211 41.2170152,40.3201264 C41.348618,40.1240804 41.2170152,39.9933831 41.0854125,39.8626858 C41.2828166,39.8626858 41.4144193,39.9933831 41.546022,40.1240804 C41.8092275,40.6468697 42.0066315,41.2350077 41.9408302,42.4112837 C41.9408302,43.5875597 41.8750288,44.5677896 41.2170152,44.698487 C40.5590017,44.8291843 40.0325908,44.3717437 39.50618,44.306395 C38.9797691,44.2410463 38.8481664,44.4370923 38.8481664,44.4370923 L37.8611461,41.2350077 L37.8611461,41.2350077 Z" id="Logo-path" fill="#00498C"></path>
                <path d="M38.7823651,45.7440656 C35.3606945,48.0966176 30.1623874,49.5996369 24.3060667,49.5996369 C18.5155474,49.5996369 13.3172402,48.0966176 9.89556972,45.7440656 C9.82976836,45.678717 9.76396701,45.6133683 9.76396701,45.482671 L9.76396701,45.3519736 L11.0799941,41.3003564 C11.1457955,41.1696591 11.2115968,41.1043104 11.3431996,41.1043104 C11.4090009,41.1043104 11.4748023,41.1043104 11.5406036,41.1696591 C13.5804457,43.326165 18.5155474,44.8291843 24.3060667,44.8291843 C30.0965861,44.8291843 35.0316878,43.326165 37.0715298,41.1696591 C37.1373312,41.1043104 37.2031325,41.1043104 37.2689339,41.1043104 C37.4005366,41.1043104 37.4663379,41.1696591 37.5321393,41.3003564 L38.8481664,45.3519736 L38.8481664,45.482671 C38.9139678,45.6133683 38.8481664,45.678717 38.7823651,45.7440656 L38.7823651,45.7440656 Z" id="Logo-path" fill="#00498C"></path>
                <path d="M22.7926355,1.24162464 C22.8584369,1.37232197 22.9900396,1.37232197 23.0558409,1.24162464 L23.9112586,0.261394661 C23.9770599,0.13069733 23.9112586,0.0653486652 23.7796559,0.0653486652 L22.0030193,0.0653486652 C21.8714165,0.0653486652 21.8056152,0.196045996 21.8714165,0.261394661 L22.7926355,1.24162464 L22.7926355,1.24162464 Z" id="Logo-path" fill="#00498C"></path>
                <path d="M26.3459088,1.3069733 C26.4775115,1.3069733 26.6091142,1.24162464 26.7407169,1.11092731 L27.5303332,0.196045996 C27.5961345,0.0653486652 27.5961345,0 27.5303332,0 L25.9511006,0 C25.8194979,0 25.6878952,0.0653486652 25.5562925,0.196045996 L24.7666762,1.11092731 C24.6350735,1.24162464 24.7008749,1.3069733 24.7666762,1.3069733 L26.3459088,1.3069733 L26.3459088,1.3069733 Z" id="Logo-path" fill="#00498C"></path>
                <path d="M33.7156606,1.3069733 C33.8472634,1.3069733 33.9788661,1.24162464 34.1104688,1.11092731 L34.9000851,0.196045996 C34.9658864,0.0653486652 34.9658864,0 34.8342837,0 L34.1104688,0 C33.9788661,0 33.8472634,0.0653486652 33.7156606,0.196045996 L32.9260444,1.11092731 C32.860243,1.24162464 32.860243,1.3069733 32.9260444,1.3069733 L33.7156606,1.3069733 L33.7156606,1.3069733 Z" id="Logo-path" fill="#00498C"></path>
                <path d="M35.4264959,1.3069733 C35.2290918,1.3069733 35.2948932,1.11092731 35.4922973,0.914881312 L36.0187081,0.326743326 C36.2161122,0.196045996 36.4793176,0 36.742523,0 L37.4663379,0 C37.663742,0 37.663742,0.196045996 37.4663379,0.392091991 C36.545119,1.24162464 35.4264959,1.3069733 35.4264959,1.3069733 L35.4264959,1.3069733 L35.4264959,1.3069733 Z" id="Logo-path" fill="#00498C"></path>
                <path d="M31.4126132,1.3069733 C31.5442159,1.3069733 31.6758186,1.24162464 31.8074213,1.11092731 L32.5970376,0.196045996 C32.6628389,0.0653486652 32.6628389,0 32.5970376,0 L31.8732227,0 C31.74162,0 31.6100172,0.0653486652 31.4784145,0.196045996 L30.6887983,1.11092731 C30.6229969,1.24162464 30.6229969,1.3069733 30.6887983,1.3069733 L31.4126132,1.3069733 L31.4126132,1.3069733 Z" id="Logo-path" fill="#00498C"></path>
                <path d="M29.0437644,1.3069733 C29.1753671,1.3069733 29.3069698,1.24162464 29.4385725,1.11092731 L30.2281888,0.196045996 C30.2939901,0.0653486652 30.2939901,0 30.2281888,0 L29.2411684,0 C29.1095657,0 28.977963,0.0653486652 28.8463603,0.196045996 L28.056744,1.11092731 C27.9909427,1.24162464 27.9909427,1.3069733 28.056744,1.3069733 L29.0437644,1.3069733 L29.0437644,1.3069733 Z" id="Logo-path" fill="#00498C"></path>
                <path d="M19.8973759,1.3069733 C19.7657731,1.3069733 19.6341704,1.24162464 19.5025677,1.11092731 L18.7129514,0.196045996 C18.6471501,0.0653486652 18.6471501,0 18.7129514,0 L20.292184,0 C20.4237867,0 20.5553894,0.0653486652 20.6869921,0.196045996 L21.4766084,1.11092731 C21.6082111,1.24162464 21.5424098,1.3069733 21.4766084,1.3069733 L19.8973759,1.3069733 L19.8973759,1.3069733 Z" id="Logo-path" fill="#00498C"></path>
                <path d="M14.8964728,1.3069733 C14.7648701,1.3069733 14.6332674,1.24162464 14.5016646,1.11092731 L13.7120484,0.196045996 C13.646247,0.0653486652 13.646247,0 13.7120484,0 L14.4358633,0 C14.567466,0 14.6990687,0.0653486652 14.8306714,0.196045996 L15.6202877,1.11092731 C15.6860891,1.24162464 15.6860891,1.3069733 15.6202877,1.3069733 L14.8964728,1.3069733 L14.8964728,1.3069733 Z" id="Logo-path" fill="#00498C"></path>
                <path d="M17.2653216,1.3069733 C17.1337189,1.3069733 17.0021162,1.24162464 16.8705135,1.11092731 L16.0808972,0.196045996 C16.0150958,0.0653486652 16.0150958,0 16.0808972,0 L17.0679175,0 C17.1995203,0 17.331123,0.0653486652 17.4627257,0.196045996 L18.2523419,1.11092731 C18.3839447,1.24162464 18.3181433,1.3069733 18.2523419,1.3069733 L17.2653216,1.3069733 L17.2653216,1.3069733 Z" id="Logo-path" fill="#00498C"></path>
                <path d="M13.1856375,1.3069733 C13.3830416,1.3069733 13.3172402,1.11092731 13.1198362,0.914881312 L12.5934253,0.326743326 C12.4618226,0.196045996 12.1328158,0.0653486652 11.8696104,0.0653486652 L11.1457955,0.0653486652 C10.9483914,0.0653486652 10.9483914,0.261394661 11.1457955,0.457440656 C12.0670145,1.3069733 13.1856375,1.3069733 13.1856375,1.3069733 L13.1856375,1.3069733 Z" id="Logo-path" fill="#00498C"></path>
                <path d="M30.1623874,9.08346446 C29.899182,6.53486652 29.3069698,4.3130119 27.9909427,2.22185462 C27.9251413,2.02580862 27.7277372,1.96045996 27.5303332,2.09115729 C27.3987305,2.09115729 27.3987305,2.22185462 27.4645318,2.28720328 C27.4645318,2.28720328 27.9251413,2.87534127 28.056744,3.13673593 C28.3199494,3.59417658 28.5173535,4.11696591 28.4515522,4.63975523 C28.4515522,4.83580122 28.4515522,5.03184722 28.3857508,5.22789321 C28.1225454,6.46951785 27.135525,7.44974783 25.9511006,7.97253715 C25.6220938,8.10323448 25.2930871,8.16858315 24.9640803,8.23393181 C24.2402654,8.29928048 23.4506491,8.29928048 22.9242382,7.84183982 C22.7268342,7.71114249 22.5952315,7.51509649 22.4636287,7.38439916 C22.2662247,7.05765584 22.134622,6.60021518 22.134622,6.14277453 C22.134622,6.0120772 22.2004233,5.8160312 22.332026,5.68533387 L22.332026,5.6199852 C22.7926355,5.03184722 22.9242382,6.14277453 23.9770599,6.33882052 C24.174464,6.40416919 24.3718681,6.40416919 24.5034708,6.33882052 C24.7008749,6.27347186 24.8324776,6.14277453 24.9640803,6.0120772 C25.095683,5.8160312 25.2272857,5.6199852 25.2930871,5.42393921 C25.3588884,5.29324188 25.3588884,5.16254455 25.2930871,4.96649855 C25.2272857,4.70510389 25.095683,4.5090579 24.8982789,4.3130119 C24.3060667,3.85557125 23.3848477,3.46347925 23.1216423,2.8099926 C23.0558409,2.61394661 23.0558409,2.41790061 23.1216423,2.28720328 C23.1874437,2.09115729 23.3190464,1.96045996 23.3848477,1.76441396 C23.3848477,1.69906529 23.9112586,1.17627597 23.9112586,1.17627597 L24.7666762,0.196045996 C24.8324776,-0.0653486652 24.5034708,3.28502763e-12 24.4376694,0.0653486652 C23.7796559,0.718835317 23.4506491,1.56836796 22.6610328,1.96045996 C21.6740125,2.28720328 20.7527935,2.61394661 20.0289786,3.46347925 C18.9103555,4.24766324 17.7917325,5.03184722 16.607308,5.6199852 C16.4757053,5.88137987 16.5415067,6.20812319 16.607308,6.46951785 C17.1995203,6.86160984 17.9891365,6.86160984 18.7129514,7.05765584 C19.0419582,7.51509649 19.1077596,8.23393181 18.9761569,8.75672113 C19.4367664,8.88741846 20.5553894,7.97253715 20.8843962,7.25370183 C21.410807,7.3190505 21.8714165,7.84183982 21.9372179,8.36462914 C22.0030193,8.75672113 21.8714165,9.14881312 21.7398138,9.54090512 C21.213403,10.5864838 20.0289786,11.1746217 20.0289786,11.1746217 C20.4895881,11.3706677 20.8843962,11.7627597 21.0818003,11.8281084 C21.2792043,11.8934571 21.8056152,10.7171811 22.0030193,10.6518324 C22.2662247,10.5864838 23.3190464,11.3706677 23.5164504,11.3706677 C23.7138545,11.3706677 24.3718681,10.3904378 24.7008749,10.4557864 C25.0298816,10.4557864 25.6878952,11.5667137 25.9511006,11.6320624 C26.0827033,11.6320624 27.135525,10.6518324 27.4645318,10.7171811 C27.7277372,10.7171811 28.1225454,11.6320624 28.3199494,11.6974111 C28.5173535,11.7627597 28.8463603,11.2399704 30.0965861,11.0439244 C30.1623874,10.9132271 30.2281888,10.1290431 30.1623874,9.54090512 L30.1623874,9.08346446 Z" id="Logo-path" fill="#00498C"></path>
                <path d="M23.7477841,1.76441396 C23.8793868,1.63371663 23.9451882,1.63371663 24.274195,1.76441396 C24.274195,1.76441396 26.3798384,1.69906529 27.43266,1.82976262 C27.3010573,2.02580862 26.9720506,1.96045996 26.8404478,2.22185462 C26.9720506,2.28720328 27.1036533,2.41790061 27.235256,2.54859794 C27.4984614,2.8099926 27.6958655,3.07138726 27.8932695,3.39813059 C28.156475,3.79022258 28.2880777,4.24766324 28.2880777,4.77045256 C28.2880777,4.96649855 28.2880777,5.09719588 28.2222763,5.29324188 C27.9590709,6.46951785 26.9720506,7.38439916 25.9192289,7.90718849 C25.6560234,7.97253715 25.3270167,8.03788582 24.9980099,8.10323448 C24.274195,8.16858315 23.55038,8.10323448 23.0897705,7.71114249 C22.9581678,7.58044516 22.8265651,7.44974783 22.6949624,7.25370183 C22.4975583,6.92695851 22.3659556,6.53486652 22.431757,6.14277453 C22.431757,6.07742586 22.431757,5.88137987 22.4975583,5.8160312 C22.4975583,5.75068254 22.4975583,5.75068254 22.5633597,5.68533387 C22.9581678,6.07742586 23.352976,6.46951785 23.9451882,6.53486652 C24.1425922,6.60021518 24.3399963,6.60021518 24.6032017,6.53486652 C24.8006058,6.46951785 24.9980099,6.33882052 25.1296126,6.14277453 C25.2612153,5.94672853 25.392818,5.75068254 25.4586194,5.48928787 L25.4586194,4.96649855 C25.392818,4.70510389 25.1954139,4.44370923 24.9980099,4.24766324 C24.471599,3.79022258 23.55038,3.39813059 23.2871746,2.8099926 C23.2213733,2.67929527 23.2213733,2.54859794 23.2871746,2.41790061 C23.352976,2.28720328 23.4187773,2.09115729 23.55038,1.96045996 C23.6161814,1.89511129 23.6819827,1.82976262 23.7477841,1.76441396 Z M25.9192289,7.38439916 C26.0508316,7.25370183 26.0508316,7.1230045 26.0508316,6.99230717 C25.9850302,6.86160984 25.9850302,6.73091251 25.8534275,6.66556385 L25.7218248,6.66556385 C25.5902221,6.66556385 25.5244207,6.79626118 25.5902221,6.86160984 C25.7876261,6.99230717 25.9192289,7.18835317 25.9192289,7.38439916 Z M26.2482356,6.40416919 C26.4456397,6.40416919 26.7088451,6.53486652 26.9062492,6.73091251 C26.9062492,6.53486652 26.8404478,6.33882052 26.7088451,6.20812319 C26.5772424,6.14277453 26.4456397,6.0120772 26.314037,6.0120772 C26.314037,6.0120772 26.2482356,6.0120772 26.2482356,6.07742586 C26.1824343,6.20812319 26.1824343,6.33882052 26.2482356,6.40416919 Z M26.6430438,5.68533387 C26.8404478,5.55463654 27.235256,5.55463654 27.4984614,5.68533387 C27.43266,5.48928787 27.235256,5.35859054 27.0378519,5.22789321 C26.8404478,5.16254455 26.6430438,5.16254455 26.5114411,5.22789321 C26.4456397,5.22789321 26.4456397,5.29324188 26.4456397,5.35859054 C26.4456397,5.55463654 26.5114411,5.68533387 26.6430438,5.68533387 Z M27.7616668,4.77045256 C27.6300641,4.5090579 27.3668587,4.37836057 27.1036533,4.18231457 C26.8404478,4.11696591 26.5772424,4.11696591 26.3798384,4.24766324 C26.314037,4.3130119 26.314037,4.37836057 26.314037,4.44370923 C26.314037,4.63975523 26.4456397,4.83580122 26.6430438,4.83580122 C26.9062492,4.63975523 27.43266,4.63975523 27.7616668,4.77045256 Z M27.5642628,3.79022258 C27.3668587,3.46347925 26.9720506,3.33278192 26.5772424,3.20208459 C26.2482356,3.20208459 25.9192289,3.20208459 25.6560234,3.39813059 C25.5902221,3.39813059 25.5902221,3.52882792 25.6560234,3.59417658 C25.7876261,3.79022258 25.9850302,3.92091991 26.2482356,3.92091991 C26.5772424,3.59417658 27.1036533,3.59417658 27.5642628,3.79022258 Z M24.274195,2.54859794 C24.2083936,2.54859794 24.2083936,2.67929527 24.274195,2.8099926 C24.5374004,3.0060386 24.8006058,3.13673593 25.1296126,3.07138726 C25.5902221,2.67929527 26.314037,2.61394661 26.9720506,2.74464394 C26.6430438,2.41790061 26.0508316,2.28720328 25.5244207,2.22185462 C25.0638112,2.22185462 24.6032017,2.28720328 24.274195,2.54859794 Z M24.1425922,7.71114249 C24.2083936,7.71114249 24.3399963,7.64579383 24.3399963,7.64579383 C24.3399963,7.64579383 24.3399963,7.54229793 24.274195,7.44974783 C24.2083936,7.35719773 24.1425922,7.38439916 24.1425922,7.44974783 C24.2083936,7.51509649 24.2083936,7.64579383 24.1425922,7.71114249 Z M24.9980099,7.71114249 C25.1296126,7.64579383 25.1954139,7.51509649 25.2612153,7.44974783 C25.2612153,7.3190505 25.2612153,7.25370183 25.1954139,7.18835317 L25.0638112,7.18835317 C24.9322085,7.18835317 24.8664072,7.25370183 24.8664072,7.3190505 C24.9980099,7.38439916 25.0638112,7.58044516 24.9980099,7.71114249 Z M23.6161814,7.44974783 L23.6161814,7.3190505 L23.55038,7.3190505 C23.55038,7.38439916 23.55038,7.44974783 23.4845787,7.44974783 L23.6161814,7.44974783 Z" id="Combined-Shape" fill="#00498C"></path>
                <polygon id="Logo-path" fill="#EDA72F" points="23.7138545 30.7792213 21.0159989 33.3931679 22.7268342 30.060386 18.9761569 30.5831753 22.332026 28.88411 18.9761569 27.119696 22.6610328 27.707834 21.0159989 24.3750521 23.7138545 26.9889987 24.3718681 23.3294735 24.9640803 26.9889987 27.6619359 24.3750521 25.9511006 27.707834 29.7017779 27.1850447 26.3459088 28.88411 29.7017779 30.648524 26.3459088 28.88411 29.7017779 30.648524 26.016902 30.060386 27.6619359 33.3931679 24.9640803 30.7792213 24.3060667 34.4387465"></polygon>
                <path d="M41.8092275,24.3097034 L41.8092275,24.3097034 C41.7434261,24.3097034 41.6118234,24.2443548 41.546022,24.1790061 C40.0983922,23.5908681 39.7035841,23.0027301 38.3875569,22.4799408 C37.0715298,21.8918028 35.7555027,22.4145922 35.7555027,22.4145922 C35.7555027,22.4145922 36.545119,22.8720328 36.9399271,23.3948221 C37.1373312,23.7215655 37.2031325,23.9829601 37.3347352,24.3097034 C37.4005366,24.5057494 37.4663379,24.7017954 37.5979407,24.8978414 C37.8611461,25.4206308 38.7823651,25.9434201 38.7823651,25.9434201 C38.7823651,25.9434201 37.4663379,26.4662094 36.8741257,27.0543474 C36.2161122,27.5771367 35.6897013,28.3613207 35.821304,29.4068993 C35.9529068,30.5178266 36.8083244,31.236662 36.8083244,31.236662 C36.8083244,31.236662 37.0715298,30.060386 38.3875569,29.5375967 C39.9667895,28.88411 41.1512139,29.7336427 41.1512139,29.7336427 C41.1512139,29.7336427 41.4144193,30.1910833 41.1512139,31.4327079 C40.8880085,32.6743326 40.5590017,33.0010759 40.5590017,33.0010759 C40.5590017,33.0010759 42.5988437,32.6743326 43.4542614,30.9099186 C44.1780763,29.472248 44.0464736,28.1652747 44.0464736,26.5969067 C44.0464736,25.0285388 44.6386858,24.3750521 44.6386858,24.3750521 C44.6386858,24.3750521 43.38846,24.8324928 41.8092275,24.3097034 L41.8092275,24.3097034 Z" id="Logo-path" fill="#EDA72F"></path>
                <path d="M35.2290918,36.9219958 C34.702681,35.8764172 35.2290918,34.6347925 35.2290918,34.6347925 C35.2290918,34.6347925 33.3866539,35.2229305 31.939024,37.7715285 C31.017805,39.4052451 30.5571956,40.9736131 29.8333806,41.8884944 C29.0437644,42.738027 28.5173535,42.9994217 28.5173535,42.9994217 C28.5173535,42.9994217 28.8463603,42.8687244 29.2411684,42.738027 C29.8333806,42.541981 30.820401,42.541981 32.0706267,41.6270997 C33.4524552,40.5815211 33.3866539,39.2091991 33.3866539,39.2091991 C33.3866539,39.2091991 34.3078729,40.2547777 35.6897013,39.4705938 C36.6109203,38.9478044 36.6767217,37.9022258 36.6767217,37.9022258 C36.6767217,37.9022258 36.0187081,38.2943178 35.2290918,36.9219958 L35.2290918,36.9219958 Z" id="Logo-path" fill="#EDA72F"></path>
                <path d="M40.8880085,33.9159572 C39.4403786,33.3931679 38.7165637,33.6545626 38.7165637,33.6545626 C38.7165637,33.6545626 38.7165637,33.0664246 39.1113719,32.0861946 C39.50618,31.1059646 40.0325908,30.648524 40.0325908,30.648524 C40.0325908,30.648524 38.3875569,30.1910833 37.0715298,31.6941026 C35.7555027,33.1971219 35.6897013,34.4387465 35.9529068,35.2882792 C36.2819135,36.2031605 36.6767217,36.5952525 36.9399271,37.1180418 C37.2031325,37.5754825 37.2689339,38.2943178 37.2689339,38.2943178 C37.2689339,38.2943178 37.8611461,36.3338578 39.3087759,35.7457198 C41.0196112,35.0268845 42.2698369,36.1378118 42.2698369,36.1378118 C42.2698369,36.1378118 42.3356383,34.4387465 40.8880085,33.9159572 L40.8880085,33.9159572 Z" id="Logo-path" fill="#EDA72F"></path>
                <path d="M44.9018912,4.96649855 C44.9018912,4.96649855 45.1650966,5.68533387 44.7702885,6.66556385 C44.3754803,7.64579383 43.9148709,7.90718849 43.9148709,7.90718849 C43.9148709,7.90718849 44.4412817,7.90718849 45.0334939,8.42997781 C45.6257061,8.95276713 45.6915075,9.60625378 45.6915075,9.60625378 C45.6915075,9.60625378 46.349521,8.23393181 45.9547129,6.92695851 C45.6915075,5.68533387 44.9018912,4.96649855 44.9018912,4.96649855 L44.9018912,4.96649855 Z" id="Logo-path" fill="#EDA72F"></path>
                <path d="M38.1901529,13.461825 C38.1901529,13.461825 37.2689339,12.873687 37.0715298,11.8281084 C36.9399271,10.7825298 37.0057285,9.93299711 36.9399271,9.27951045 C36.8741257,8.56067514 36.3477149,7.64579383 36.3477149,7.64579383 C36.3477149,7.64579383 36.4135162,8.69137247 36.0187081,9.34485912 C35.6239,9.99834577 35.0316878,11.3053191 35.7555027,12.4162464 C36.6109203,13.9192657 38.1901529,13.461825 38.1901529,13.461825 L38.1901529,13.461825 Z" id="Logo-path" fill="#EDA72F"></path>
                <path d="M38.6507624,10.8478784 C38.9139678,11.8934571 38.584961,12.873687 38.584961,12.873687 C38.584961,12.873687 40.1641935,12.8083384 41.348618,11.7627597 C42.2698369,10.9132271 43.1910559,10.9132271 43.6516654,10.9785757 C44.5728844,11.1746217 44.7702885,11.9588057 44.7702885,11.9588057 C44.7702885,11.9588057 45.4941034,10.8478784 44.8360898,9.67160245 C44.3754803,8.95276713 42.9936519,8.8220698 42.9936519,8.8220698 C42.9936519,8.8220698 43.1910559,8.49532647 43.2568573,8.03788582 C43.2568573,7.51509649 43.3226586,6.86160984 43.6516654,5.88137987 C44.1122749,4.57440656 45.0334939,4.05161724 45.0334939,4.05161724 C45.0334939,4.05161724 44.5728844,3.85557125 43.38846,4.11696591 C42.5988437,4.3130119 41.8092275,5.16254455 41.1512139,5.94672853 C40.4932003,6.73091251 40.3615976,8.03788582 40.3615976,8.03788582 C40.3615976,8.03788582 40.2957963,7.44974783 39.7693854,6.99230717 C39.2429746,6.53486652 38.8481664,6.27347186 38.1901529,5.94672853 C37.5979407,5.6199852 37.3347352,4.90114989 37.3347352,4.90114989 C37.3347352,4.90114989 36.9399271,5.6199852 36.8741257,6.33882052 C36.8083244,7.05765584 36.742523,7.44974783 37.4005366,8.42997781 C37.9927488,9.47555645 38.3217556,9.80229978 38.6507624,10.8478784 L38.6507624,10.8478784 Z" id="Logo-path" fill="#EDA72F"></path>
                <path d="M48.2577604,12.4162464 C46.8101305,10.5211351 45.3625007,12.873687 45.3625007,12.873687 C45.3625007,12.873687 46.5469251,12.6122924 47.1391373,13.5271737 C47.9287536,14.7034497 46.6127265,16.2718176 46.6127265,16.2718176 C46.6127265,16.2718176 49.9027943,14.638101 48.2577604,12.4162464 L48.2577604,12.4162464 Z" id="Logo-path" fill="#EDA72F"></path>
                <path d="M44.9676925,17.5134423 C44.9676925,17.5134423 45.6257061,17.4480936 46.0863156,16.2718176 C46.5469251,15.1608903 46.349521,14.3767063 46.349521,14.3767063 C46.349521,14.3767063 46.2179183,14.7034497 45.8231102,14.7687983 C45.428302,14.834147 44.9676925,14.7687983 44.309679,14.834147 C43.5858641,14.9648443 43.0594532,15.226239 43.0594532,15.226239 C43.0594532,15.226239 42.7304464,14.3767063 43.2568573,13.5271737 C43.5858641,13.0043844 44.3754803,12.6122924 44.3754803,12.6122924 C44.3754803,12.6122924 43.9148709,12.1548517 42.9278505,12.2202004 C41.7434261,12.3508977 41.2828166,12.3508977 40.0325908,13.2004304 C38.7823651,14.049963 38.1243515,14.3767063 37.4663379,14.638101 C36.8083244,14.8994957 36.3477149,14.8994957 35.6897013,14.834147 C35.9529068,15.2915877 36.0845095,15.618331 36.6109203,15.814377 C37.2031325,16.0757716 37.5321393,16.0757716 38.5191596,16.3371663 C39.50618,16.598561 41.0854125,17.3827449 41.8092275,19.4085536 C42.5330424,21.3690135 41.8750288,23.7215655 41.8750288,23.7215655 C41.8750288,23.7215655 42.7304464,23.4601708 43.38846,22.7413355 C44.0464736,22.0225002 43.9148709,21.0422702 43.9148709,21.0422702 C43.9148709,21.0422702 44.6386858,21.4997108 45.1650966,21.6957568 C45.7573088,21.9571515 45.8231102,23.0680788 45.8231102,23.0680788 C45.8231102,23.0680788 47.6655482,21.6304082 47.0733359,19.3432049 C46.7443292,17.7748369 44.9676925,17.5134423 44.9676925,17.5134423 L44.9676925,17.5134423 Z" id="Logo-path" fill="#EDA72F"></path>
                <path d="M41.1512139,23.3294735 C41.6118234,21.4997108 40.8880085,18.1015803 39.2429746,18.1669289 C37.5979407,18.2322776 35.6897013,20.3234349 35.6897013,20.3234349 C35.6897013,20.3234349 39.3745773,19.6699482 41.1512139,23.3294735 L41.1512139,23.3294735 Z" id="Logo-path" fill="#EDA72F"></path>
                <path d="M32.3996335,12.0895031 C32.2022295,11.8281084 30.2281888,12.9390357 30.2281888,12.9390357 C30.2281888,12.9390357 30.1623874,11.8934571 29.9649833,11.6974111 C29.1753671,11.7627597 28.5831549,12.1548517 28.056744,12.677641 L28.056744,12.677641 C27.8593399,12.0895031 27.5303332,11.5667137 27.3987305,11.5667137 C27.135525,11.5667137 25.9511006,12.6122924 25.9511006,12.6122924 C25.9511006,12.6122924 25.2272857,11.3706677 24.8324776,11.3053191 C24.7008749,11.3053191 24.0428613,11.9588057 23.7138545,12.4162464 C23.3190464,12.0241544 22.5294301,11.4360164 22.2004233,11.5013651 C22.0030193,11.5667137 21.6082111,12.3508977 21.410807,12.9390357 C21.213403,12.7429897 20.0947799,11.8934571 19.5683691,11.8281084 C19.3051636,12.2202004 19.3051636,13.265779 19.3051636,13.265779 C19.3051636,13.265779 18.1865406,12.2202004 17.3969243,12.1548517 C17.1995203,12.4162464 17.528527,13.853917 18.3839447,14.5727523 C18.3839447,14.3767063 17.9891365,13.657871 18.0549379,13.2004304 C18.449746,13.0043844 19.370965,13.5925224 19.370965,13.5925224 C19.370965,13.5925224 19.5683691,12.873687 19.9631772,12.677641 C20.5553894,12.7429897 21.5424098,13.3964764 21.5424098,13.3964764 C21.5424098,13.3964764 22.0030193,12.5469437 22.3978274,12.2855491 C22.9900396,12.1548517 23.8454572,12.873687 23.8454572,12.873687 C23.8454572,12.873687 24.4376694,12.1548517 24.8982789,12.1548517 C25.3588884,12.3508977 25.9511006,13.069733 25.9511006,13.069733 C25.9511006,13.069733 26.8065182,12.481595 27.3329291,12.3508977 C27.6619359,12.481595 28.056744,13.265779 28.056744,13.265779 C28.056744,13.265779 29.1753671,12.5469437 29.7675793,12.6122924 C29.9649833,12.8083384 30.1623874,13.3964764 30.1623874,13.3964764 C30.1623874,13.3964764 31.3468118,12.9390357 31.8732227,13.0043844 C31.8074213,13.657871 31.4784145,14.1153117 31.2152091,14.638101 C31.6758186,14.1153117 32.7286403,12.481595 32.3996335,12.0895031 L32.3996335,12.0895031 Z" id="Logo-path" fill="#EDA72F"></path>
                <path d="M24.6350735,14.7034497 C25.095683,14.7687983 25.3588884,12.873687 24.8324776,12.8083384 C24.3718681,12.7429897 24.174464,14.638101 24.6350735,14.7034497 L24.6350735,14.7034497 Z" id="Logo-path" fill="#EDA72F"></path>
                <path d="M26.4117101,14.7034497 C26.8723196,14.8994957 27.5961345,13.1350817 27.0697237,12.9390357 C26.6091142,12.8083384 25.9511006,14.5074037 26.4117101,14.7034497 L26.4117101,14.7034497 Z" id="Logo-path" fill="#EDA72F"></path>
                <path d="M22.3978274,13.1350817 C22.3978274,13.7885684 22.7926355,14.7687983 23.1216423,14.7034497 C23.3848477,14.638101 23.253245,13.2004304 22.7268342,12.873687 C22.5294301,12.873687 22.3978274,13.069733 22.3978274,13.1350817 L22.3978274,13.1350817 Z" id="Logo-path" fill="#EDA72F"></path>
                <path d="M28.1883467,14.7687983 C28.5831549,15.030193 29.7017779,13.461825 29.1753671,13.2004304 C28.8463603,12.9390357 27.7277372,14.442055 28.1883467,14.7687983 L28.1883467,14.7687983 Z" id="Logo-path" fill="#EDA72F"></path>
                <path d="M20.0947799,13.265779 C20.0289786,13.9192657 20.6869921,14.8994957 21.0159989,14.7687983 C21.213403,14.7034497 20.8843962,13.3311277 20.292184,13.1350817 C20.1605813,13.069733 20.0947799,13.2004304 20.0947799,13.265779 L20.0947799,13.265779 Z" id="Logo-path" fill="#EDA72F"></path>
                <path d="M29.8333806,14.638101 C30.1623874,14.8994957 30.9520037,13.7885684 30.7545996,13.5925224 C30.5571956,13.3964764 29.5701752,14.442055 29.8333806,14.638101 L29.8333806,14.638101 Z" id="Logo-path" fill="#EDA72F"></path>
                <path d="M19.3051636,14.834147 C19.5683691,14.7034497 19.1077596,13.657871 18.7787528,13.7885684 C18.5813487,13.9192657 19.0419582,14.9648443 19.3051636,14.834147 L19.3051636,14.834147 Z" id="Logo-path" fill="#EDA72F"></path>
                <path d="M23.3848477,15.1608903 C23.253245,15.1608903 23.1874437,15.226239 23.253245,15.3569363 L23.7138545,16.4678636 C23.7796559,16.598561 23.9112586,16.6639096 24.0428613,16.6639096 L25.9511006,16.6639096 C26.0827033,16.6639096 26.1485047,16.598561 26.1485047,16.4678636 L25.6878952,15.3569363 C25.6220938,15.2915877 25.4904911,15.1608903 25.3588884,15.1608903 L23.3848477,15.1608903 L23.3848477,15.1608903 Z" id="Logo-path" fill="#00498C"></path>
                <path d="M26.4775115,15.422285 C26.4117101,15.422285 26.3459088,15.4876336 26.3459088,15.5529823 L26.6749155,16.402515 C26.6749155,16.4678636 26.8065182,16.5332123 26.8723196,16.5332123 L28.2541481,16.5332123 C28.3199494,16.5332123 28.3857508,16.4678636 28.3857508,16.402515 L28.056744,15.5529823 C28.056744,15.4876336 27.9251413,15.422285 27.8593399,15.422285 L26.4775115,15.422285 L26.4775115,15.422285 Z" id="Logo-path" fill="#00498C"></path>
                <path d="M28.7147576,15.4876336 C28.6489562,15.4876336 28.5831549,15.5529823 28.6489562,15.5529823 L28.9121616,16.1411203 C28.9121616,16.206469 28.977963,16.206469 29.0437644,16.206469 L30.0307847,16.206469 C30.0965861,16.206469 30.1623874,16.1411203 30.0965861,16.1411203 L29.8333806,15.5529823 C29.8333806,15.4876336 29.7675793,15.4876336 29.7017779,15.4876336 L28.7147576,15.4876336 L28.7147576,15.4876336 Z" id="Logo-path" fill="#00498C"></path>
                <path d="M30.4913942,15.5529823 C30.4255928,15.5529823 30.4255928,15.5529823 30.4913942,15.5529823 L30.6229969,16.010423 C30.6229969,16.0757716 30.6887983,16.0757716 30.7545996,16.0757716 L31.4126132,16.0757716 C31.4784145,16.0757716 31.4784145,16.0757716 31.4784145,16.010423 L31.2810105,15.618331 C31.2810105,15.5529823 31.2152091,15.5529823 31.1494078,15.5529823 L30.4913942,15.5529823 L30.4913942,15.5529823 Z" id="Logo-path" fill="#00498C"></path>
                <path d="M22.9242382,16.4678636 C22.9900396,16.4678636 23.0558409,16.402515 23.0558409,16.3371663 L22.7268342,15.4876336 C22.7268342,15.422285 22.5952315,15.3569363 22.5294301,15.3569363 L21.1476016,15.3569363 C21.0818003,15.3569363 21.0159989,15.422285 21.0159989,15.4876336 L21.3450057,16.3371663 C21.3450057,16.402515 21.4766084,16.4678636 21.5424098,16.4678636 L22.9242382,16.4678636 L22.9242382,16.4678636 Z" id="Logo-path" fill="#00498C"></path>
                <path d="M20.6211908,16.402515 C20.6869921,16.402515 20.6869921,16.3371663 20.6869921,16.3371663 L20.4237867,15.7490283 C20.4237867,15.6836796 20.3579853,15.6836796 20.292184,15.6836796 L19.3051636,15.6836796 C19.2393623,15.6836796 19.1735609,15.7490283 19.2393623,15.7490283 L19.5025677,16.3371663 C19.5025677,16.402515 19.5683691,16.402515 19.6341704,16.402515 L20.6211908,16.402515 L20.6211908,16.402515 Z" id="Logo-path" fill="#00498C"></path>
                <path d="M18.9103555,16.3371663 C18.9761569,16.3371663 18.9761569,16.2718176 18.9103555,16.3371663 L18.7787528,15.8797256 C18.7787528,15.814377 18.7129514,15.814377 18.6471501,15.814377 L17.9891365,15.814377 C17.9233352,15.814377 17.9233352,15.814377 17.9233352,15.8797256 L18.1207392,16.2718176 C18.1207392,16.3371663 18.1865406,16.3371663 18.2523419,16.3371663 L18.9103555,16.3371663 L18.9103555,16.3371663 Z" id="Logo-path" fill="#00498C"></path>
            </g>
        </g>
    </g>
</svg>