<?xml version="1.0" encoding="UTF-8"?>
<svg width="50px" height="50px" viewBox="0 0 50 50" version="1.1" xmlns="http://www.w3.org/2000/svg" xmlns:xlink="http://www.w3.org/1999/xlink">
    <!-- Generator: Sketch 43.2 (39069) - http://www.bohemiancoding.com/sketch -->
    <title>imac</title>
    <desc>Created with Sketch.</desc>
    <defs></defs>
    <g id="Page-1" stroke="none" stroke-width="1" fill="none" fill-rule="evenodd">
        <g id="Adelle-Copy-12" transform="translate(-571.000000, -2883.000000)" fill-rule="nonzero">
            <g id="imac" transform="translate(571.000000, 2883.000000)">
                <path d="M46.9844828,34.4827586 L3.01551724,34.4827586 C1.35,34.4827586 0,33.1327586 0,31.4672414 L0,3.01551724 C0,1.35 1.35,0 3.01551724,0 L46.9836207,0 C48.65,0 50,1.35 50,3.01551724 L50,31.4663793 C50,33.1327586 48.65,34.4827586 46.9844828,34.4827586 Z" id="Shape" fill="#E7ECED"></path>
                <path d="M39.6551724,50 L10.3448276,50 L10.3448276,50 C10.3448276,43.8103448 15.362069,38.7931034 21.5517241,38.7931034 L28.4482759,38.7931034 C34.637931,38.7931034 39.6551724,43.8103448 39.6551724,50 L39.6551724,50 Z" id="Shape" fill="#E7ECED"></path>
                <rect id="Rectangle-path" fill="#AFB6BB" x="23.2758621" y="34.4827586" width="3.44827586" height="4.31034483"></rect>
                <path d="M46.5517241,31.8965517 L3.44827586,31.8965517 C2.97241379,31.8965517 2.5862069,31.5103448 2.5862069,31.0344828 L2.5862069,3.44827586 C2.5862069,2.97241379 2.97241379,2.5862069 3.44827586,2.5862069 L46.5517241,2.5862069 C47.0275862,2.5862069 47.4137931,2.97241379 47.4137931,3.44827586 L47.4137931,31.0344828 C47.4137931,31.5103448 47.0275862,31.8965517 46.5517241,31.8965517 Z" id="Shape" fill="#38454F"></path>
                <g id="Group" transform="translate(4.310345, 4.310345)" fill="#546A79">
                    <path d="M0.862068966,5.17241379 C1.08275862,5.17241379 1.30344828,5.08793103 1.47155172,4.91982759 L4.91982759,1.47155172 C5.25689655,1.13448276 5.25689655,0.589655172 4.91982759,0.252586207 C4.58275862,-0.0844827586 4.03793103,-0.0844827586 3.70086207,0.252586207 L0.252586207,3.70086207 C-0.0844827586,4.03793103 -0.0844827586,4.58275862 0.252586207,4.91982759 C0.420689655,5.08793103 0.64137931,5.17241379 0.862068966,5.17241379 Z" id="Shape"></path>
                    <path d="M0.862068966,9.48275862 C1.08275862,9.48275862 1.30344828,9.39827586 1.47155172,9.23017241 L3.19568966,7.50603448 C3.53275862,7.16896552 3.53275862,6.62413793 3.19568966,6.28706897 C2.85862069,5.95 2.3137931,5.95 1.97672414,6.28706897 L0.252586207,8.0112069 C-0.0844827586,8.34827586 -0.0844827586,8.89310345 0.252586207,9.23017241 C0.420689655,9.39827586 0.64137931,9.48275862 0.862068966,9.48275862 Z" id="Shape"></path>
                    <path d="M3.69827586,4.56034483 C3.54310345,4.72413793 3.44827586,4.94827586 3.44827586,5.17241379 C3.44827586,5.39655172 3.54310345,5.62068966 3.69827586,5.78448276 C3.86206897,5.93965517 4.0862069,6.03448276 4.31034483,6.03448276 C4.53448276,6.03448276 4.75862069,5.93965517 4.92241379,5.78448276 C5.07758621,5.62068966 5.17241379,5.39655172 5.17241379,5.17241379 C5.17241379,4.94827586 5.07758621,4.72413793 4.92241379,4.56034483 C4.60344828,4.24137931 4.01724138,4.24137931 3.69827586,4.56034483 Z" id="Shape"></path>
                    <path d="M5.425,4.05775862 C5.59310345,4.22586207 5.8137931,4.31034483 6.03448276,4.31034483 C6.25517241,4.31034483 6.47586207,4.22586207 6.64396552,4.05775862 L9.23017241,1.47155172 C9.56724138,1.13448276 9.56724138,0.589655172 9.23017241,0.252586207 C8.89310345,-0.0844827586 8.34827586,-0.0844827586 8.0112069,0.252586207 L5.425,2.8387931 C5.08793103,3.17586207 5.08793103,3.72068966 5.425,4.05775862 Z" id="Shape"></path>
                    <path d="M8.0112069,4.56293103 L0.252586207,12.3215517 C-0.0844827586,12.6586207 -0.0844827586,13.2034483 0.252586207,13.5405172 C0.420689655,13.7086207 0.64137931,13.7931034 0.862068966,13.7931034 C1.08275862,13.7931034 1.30344828,13.7086207 1.47155172,13.5405172 L9.23017241,5.78189655 C9.56724138,5.44482759 9.56724138,4.9 9.23017241,4.56293103 C8.89310345,4.22586207 8.34827586,4.22586207 8.0112069,4.56293103 Z" id="Shape"></path>
                    <path d="M9.73275862,2.8362069 C9.57758621,3 9.48275862,3.21551724 9.48275862,3.44827586 C9.48275862,3.68103448 9.57758621,3.89655172 9.73275862,4.06034483 C9.89655172,4.21551724 10.1206897,4.31034483 10.3448276,4.31034483 C10.5689655,4.31034483 10.7931034,4.21551724 10.9568966,4.06034483 C11.112069,3.89655172 11.2068966,3.67241379 11.2068966,3.44827586 C11.2068966,3.22413793 11.112069,3 10.9568966,2.8362069 C10.637931,2.51724138 10.0517241,2.52586207 9.73275862,2.8362069 Z" id="Shape"></path>
                    <path d="M13.5405172,0.252586207 C13.2034483,-0.0844827586 12.6586207,-0.0844827586 12.3215517,0.252586207 L11.4594828,1.11465517 C11.1224138,1.45172414 11.1224138,1.99655172 11.4594828,2.33362069 C11.6275862,2.50172414 11.8482759,2.5862069 12.0689655,2.5862069 C12.2896552,2.5862069 12.5103448,2.50172414 12.6784483,2.33362069 L13.5405172,1.47155172 C13.8775862,1.13448276 13.8775862,0.589655172 13.5405172,0.252586207 Z" id="Shape"></path>
                </g>
            </g>
        </g>
    </g>
</svg>