<?xml version="1.0" encoding="UTF-8"?>
<svg width="51px" height="51px" viewBox="0 0 51 51" version="1.1" xmlns="http://www.w3.org/2000/svg" xmlns:xlink="http://www.w3.org/1999/xlink">
    <!-- Generator: Sketch 42 (36781) - http://www.bohemiancoding.com/sketch -->
    <title>xero logo copy 4</title>
    <desc>Created with Sketch.</desc>
    <defs></defs>
    <g id="Page-1" stroke="none" stroke-width="1" fill="none" fill-rule="evenodd">
        <g id="Adelle-Copy-6" transform="translate(-401.000000, -983.000000)">
            <g id="xero-logo-copy-4" transform="translate(401.000000, 983.000000)">
                <path d="M25.4110392,50.939516 C39.4444234,50.939516 50.8209469,39.5967726 50.8209469,25.6064131 C50.8209469,11.6138013 39.4455549,0.273310244 25.4110392,0.273310244 C11.3765235,0.273310244 0,11.6138013 0,25.6064131 C0,39.5967726 11.3765235,50.939516 25.4110392,50.939516" id="Shape" fill="#13B5EA"></path>
                <path d="M12.1640767,25.5388432 L16.5001458,21.2031043 C16.6438516,21.058955 16.7241911,20.8652545 16.7241911,20.6602923 C16.7241911,20.2323492 16.3756762,19.8854901 15.9468217,19.8854901 C15.7374865,19.8854901 15.5417297,19.9665741 15.3946292,20.1163541 L11.0608233,24.4329482 L6.71004419,20.108471 C6.56294373,19.9643217 6.3683185,19.8854901 6.16124631,19.8854901 C5.73126034,19.8854901 5.38387694,20.2323492 5.38387694,20.6591661 C5.38387694,20.8675068 5.46761105,21.0645859 5.6169746,21.2109874 L9.95304363,25.5320862 L5.61923768,29.8565634 C5.46761105,30.0074696 5.38387694,30.2034225 5.38387694,30.4117632 C5.38387694,30.8397062 5.73239189,31.1865654 6.16124631,31.1865654 C6.3683185,31.1865654 6.56294373,31.1077337 6.71004419,30.9613322 L11.0551656,26.6346026 L15.3833138,30.9444397 C15.5372035,31.1021029 15.7340918,31.1865654 15.9468217,31.1865654 C16.3745446,31.1865654 16.7230596,30.8397062 16.7230596,30.4117632 C16.7230596,30.2056748 16.6438516,30.0119743 16.4967511,29.8655727 L12.1629452,25.5343385 L12.1640767,25.5388432 Z M37.9417356,25.537717 C37.9417356,26.3147715 38.5753991,26.9454244 39.3561631,26.9454244 C40.1324009,26.9454244 40.7660644,26.3147715 40.7660644,25.537717 C40.7660644,24.7606625 40.1324009,24.1300096 39.3550315,24.1300096 C38.5776622,24.1300096 37.9451302,24.7606625 37.9451302,25.537717 L37.9417356,25.537717 Z M35.2656387,25.537717 C35.2656387,23.2910159 37.0987368,21.4609963 39.3550315,21.4609963 C41.6068002,21.4609963 43.4432929,23.2910159 43.4432929,25.537717 C43.4432929,27.784418 41.6079317,29.6144377 39.3550315,29.6144377 C37.0998683,29.6144377 35.2656387,27.7866704 35.2656387,25.537717 L35.2656387,25.537717 Z M33.6565859,25.537717 C33.6565859,28.6684583 36.2138709,31.218098 39.3550315,31.218098 C42.4961922,31.218098 45.0534772,28.6707106 45.0534772,25.5388432 C45.0534772,22.4081018 42.4961922,19.8584621 39.3550315,19.8584621 C36.2127394,19.8584621 33.6565859,22.4069757 33.6565859,25.5388432 L33.6565859,25.537717 Z M33.2526254,19.9553124 L33.0150016,19.9553124 C32.2964724,19.9553124 31.6039687,20.1805456 31.0257507,20.6253811 C30.9465428,20.2807744 30.6342372,20.0172515 30.2630914,20.0172515 C29.8365001,20.0172515 29.4936428,20.3607322 29.4936428,20.787549 L29.4959059,30.3543287 C29.4959059,30.7788933 29.8466839,31.1246262 30.2710122,31.1246262 C30.6987351,31.1246262 31.04725,30.7788933 31.0483816,30.3520764 L31.0483816,24.4689855 C31.0483816,22.5094568 31.2294283,21.7166359 32.9131628,21.5071691 C33.0715787,21.4880243 33.2390469,21.4914028 33.24131,21.4914028 C33.7007161,21.4745103 34.0288632,21.1580576 34.0288632,20.7312407 C34.0288632,20.3032977 33.6780852,19.9564386 33.2480993,19.9564386 L33.2526254,19.9553124 Z M18.3321123,24.6041254 C18.3321123,24.5816021 18.3343754,24.5590788 18.3355069,24.5388078 C18.7858607,22.7594656 20.4017027,21.44523 22.3241926,21.44523 C24.2704448,21.44523 25.8998654,22.7898721 26.3298513,24.6007469 L18.3309808,24.6007469 L18.3321123,24.6041254 Z M27.9196679,24.4577239 C27.5847314,22.877713 26.7168387,21.5792437 25.3963292,20.7458809 C23.4636554,19.5228647 20.9131597,19.5904346 19.0483784,20.9148058 C17.5253228,21.9925466 16.6461147,23.7583748 16.6461147,25.5771328 C16.6461147,26.03323 16.7026918,26.4938319 16.815846,26.9476767 C17.3906693,29.2000086 19.3346585,30.9072762 21.6520566,31.1899439 C22.3400342,31.2732801 23.009907,31.2349905 23.7001477,31.0548039 C24.2976019,30.9084024 24.8735567,30.6696552 25.40425,30.3295531 C25.9553109,29.9770631 26.4158485,29.5108304 26.8639392,28.9533783 C26.8707284,28.9421166 26.8797807,28.9342335 26.8888331,28.9229718 C27.1988756,28.5400754 27.141167,27.9927587 26.8017043,27.7337406 C26.5142927,27.5141382 26.0322558,27.4251711 25.6543207,27.9094225 C25.5728497,28.0265437 25.4811948,28.1459173 25.3827507,28.2641647 C25.0806289,28.5963837 24.7060885,28.917341 24.2579979,29.1673498 C23.6854376,29.4714146 23.0359325,29.643718 22.3456919,29.6482227 C20.0848709,29.6223209 18.876384,28.049067 18.4452665,26.9274058 C18.3705847,26.7168127 18.3128761,26.4994627 18.2721406,26.2742295 L18.2608252,26.1559821 L26.3739815,26.1559821 C27.4851557,26.1312064 28.0826099,25.3485211 27.9174048,24.4554715 L27.9196679,24.4577239 Z" id="Shape" fill="#FFFFFF"></path>
            </g>
        </g>
    </g>
</svg>