<?xml version="1.0" encoding="UTF-8"?>
<svg width="136px" height="32px" viewBox="0 0 136 32" version="1.1" xmlns="http://www.w3.org/2000/svg" xmlns:xlink="http://www.w3.org/1999/xlink">
    <!-- Generator: Sketch 43.2 (39069) - http://www.bohemiancoding.com/sketch -->
    <title>logo-massey</title>
    <desc>Created with Sketch.</desc>
    <defs></defs>
    <g id="Page-1" stroke="none" stroke-width="1" fill="none" fill-rule="evenodd">
        <g id="Adelle-Copy-49" transform="translate(-129.000000, -1307.000000)" fill-rule="nonzero">
            <g id="Group-12" transform="translate(129.000000, 1307.000000)">
                <g id="logo-massey">
                    <g id="Massey-Logo-Copy-3" transform="translate(33.803560, 2.370370)" fill="#004895">
                        <path d="M3.94299426,3.27566534 L3.89612532,3.27566534 L3.40219882,11.370824 C3.30966271,12.8728436 3.3324963,13.6008385 5.25171922,13.622642 L5.25171922,14.509318 L0.241549915,14.509318 L0.241549915,13.622642 C2.00093775,13.6008385 2.04780669,13.1017804 2.15957108,11.2121429 L2.65590112,2.97889535 C2.72440187,1.82088672 2.65590112,1.32061729 1.14287566,1.25157285 L1.14287566,0.367319397 L5.90427906,0.367319397 L10.3039504,9.91604537 L14.5233567,0.367319397 L19.3736909,0.367319397 L19.3736909,1.25157285 C17.7476992,1.34242081 17.6359348,1.34242081 17.7476992,2.97889535 L18.2896964,11.370824 C18.4038644,13.282265 18.4699615,13.4869758 20.2750166,13.622642 L20.2750166,14.509318 L13.1701662,14.509318 L13.1701662,13.622642 L13.5523284,13.622642 C14.4993212,13.622642 15.2912861,13.622642 15.2912861,12.1460599 C15.2912861,11.7802455 15.2684526,11.4180649 15.245619,11.0776879 L14.7264553,3.00433278 L14.6807882,3.00433278 L9.62735522,14.509318 L9.08535801,14.509318 L3.94299426,3.27566534 Z M27.4543764,9.25467224 L26.5073836,11.9159117 C26.0987826,13.0775543 26.1252215,13.622642 28.2884032,13.622642 L28.5828363,13.622642 L28.5828363,14.5081068 L22.6040422,14.5081068 L22.6040422,13.622642 L22.9429408,13.622642 C24.0245316,13.622642 24.5893624,13.1235839 25.1529914,11.5295051 L29.0106656,0.683470289 L28.7643032,0.0245197709 L32.101612,0.0245197709 L36.6166529,11.5755347 C37.2031156,13.0775543 37.6982439,13.5317941 38.8735726,13.622642 L38.8735726,14.5081068 L31.5367812,14.5081068 L31.5367812,13.622642 L32.328746,13.622642 C33.7035682,13.622642 33.9090704,13.0097211 33.4572058,11.8941082 L32.396045,9.25467224 L27.4543764,9.25467224 Z M27.9062411,8.00581566 L31.8768814,8.00581566 L29.8014287,2.68454796 L27.9062411,8.00581566 Z M41.6508577,10.3242555 L42.5305516,10.3242555 C43.273244,12.5772849 44.6036007,13.7352935 46.387024,13.7352935 C47.8784177,13.7352935 49.0056756,12.779573 49.0056756,11.5077016 C49.0056756,8.11846712 41.7614203,8.2323299 41.7614203,3.73111643 C41.7614203,1.54713153 43.6590114,0.025731077 46.3413568,0.025731077 C48.0791128,0.025731077 49.4323031,0.613214535 49.7724034,0.613214535 C49.9274315,0.613214535 50.064433,0.569607515 50.2675317,0.366108091 L50.7422298,0.366108091 L51.171261,4.04726732 L50.2675317,4.04726732 C49.7724034,2.20608205 48.3278787,1.00083249 46.5889209,1.00083249 C45.3270649,1.00083249 44.3788702,1.68279782 44.3788702,2.5718965 C44.3788702,4.66139951 48.1247799,5.05022878 50.6508956,7.59639419 C51.5786601,8.52909989 51.9403922,9.50662391 51.9403922,10.5980107 C51.9403922,12.9624802 49.8180706,14.8266803 47.1309181,14.8266803 C45.3270649,14.8266803 43.681845,14.0986853 43.273244,14.0986853 C43.0725488,14.0986853 42.911512,14.2137594 42.8009493,14.4644998 L42.2144867,14.4644998 L41.6508577,10.3242555 Z M56.0480341,10.3242555 L56.9229209,10.3242555 C57.6704204,12.5772849 58.9995753,13.7352935 60.7854021,13.7352935 C62.2755939,13.7352935 63.402852,12.779573 63.402852,11.5077016 C63.402852,8.11846712 56.1585966,8.2323299 56.1585966,3.73111643 C56.1585966,1.54713153 58.0561878,0.025731077 60.7385332,0.025731077 C62.4762892,0.025731077 63.8294795,0.613214535 64.1683781,0.613214535 C64.3246078,0.613214535 64.4616094,0.569607515 64.6635063,0.366108091 L65.1394062,0.366108091 L65.5684374,4.04726732 L64.6635063,4.04726732 C64.1683781,2.20608205 62.7262569,1.00083249 60.9885008,1.00083249 C59.7266449,1.00083249 58.7772484,1.68279782 58.7772484,2.5718965 C58.7772484,4.66139951 62.5207546,5.05022878 65.048072,7.59639419 C65.9746348,8.52909989 66.3327616,9.50662391 66.3327616,10.5980107 C66.3327616,12.9624802 64.215247,14.8266803 61.5280945,14.8266803 C59.7266449,14.8266803 58.0754161,14.0986853 57.6704204,14.0986853 C57.4697252,14.0986853 57.3086884,14.2137594 57.1981257,14.4644998 L56.6116631,14.4644998 L56.0480341,10.3242555 Z M79.3767475,1.61496468 L74.4398861,1.61496468 L74.4398861,6.73152164 L78.0920579,6.73152164 C79.3322822,6.73152164 79.7865503,6.30029666 79.7865503,5.09383579 L80.687876,5.09383579 L80.687876,9.62048668 L79.7865503,9.62048668 C79.7865503,8.39222231 79.4921173,7.98401215 77.7543613,7.98401215 L74.4398861,7.98401215 L74.4398861,12.0745928 C74.4398861,13.0533281 74.6177477,13.2580389 75.2727111,13.2580389 L79.0390509,13.2580389 C80.5064091,13.2580389 81.2058379,12.8486175 81.634869,10.9383877 L82.4905275,10.9383877 L82.2213316,14.5081068 L68.6377519,14.5081068 L68.6377519,13.6214308 L69.5655166,13.6214308 C70.871838,13.6214308 71.3249044,13.0993577 71.3249044,11.9849562 L71.3249044,2.9110622 C71.3249044,1.68279782 70.9187069,1.24915023 69.3588125,1.24915023 L69.1328801,1.24915023 L69.1328801,0.364896785 L81.5687718,0.364896785 L81.7947041,3.66207199 L80.936642,3.66207199 C80.7107097,2.11402279 80.4174784,1.61496468 79.3767475,1.61496468 Z M94.8555149,11.9401378 C94.8555149,13.0315246 95.1968168,13.6214308 96.8192032,13.6214308 L97.1581017,13.6214308 L97.1581017,14.5081068 L89.4643852,14.5081068 L89.4643852,13.6214308 L90.0280142,13.6214308 C91.3836082,13.6214308 91.7441384,13.0085099 91.7441384,11.9849562 L91.7441384,8.82223596 L86.8926024,2.31994483 C86.2400427,1.45507227 85.9708467,1.25157285 84.8423869,1.25157285 L84.6837534,1.25157285 L84.6837534,0.364896785 L92.0361679,0.364896785 L92.0361679,1.25157285 L91.766972,1.25157285 C90.4594488,1.25157285 90.2803854,1.79787189 90.7514783,2.41079278 L94.3603865,7.20998754 L96.9790383,3.0697433 C97.5667027,2.13946022 97.7445643,1.25157285 96.1666433,1.25157285 L95.8962456,1.25157285 L95.8962456,0.364896785 L101.221278,0.364896785 L101.221278,1.25157285 C99.9137548,1.34242081 99.5267857,1.59316117 98.7179961,2.84201775 L94.8555149,8.82223596 L94.8555149,11.9401378 Z M7.24545175,18.6689433 L10.5971817,18.6689433 L10.5971817,19.1789031 L10.5070491,19.1789031 C9.47112543,19.1789031 9.31729917,19.6355655 9.31729917,20.2630221 L9.31729917,23.5105337 C9.31729917,26.4188796 7.21901287,26.96639 5.67834675,26.96639 C3.34932104,26.96639 1.87355038,25.9488929 1.87355038,23.9538718 L1.87355038,20.0655791 C1.87355038,19.4126852 1.69208346,19.1789031 0.966215811,19.1789031 L0.748695857,19.1789031 L0.748695857,18.6689433 L4.79985459,18.6689433 L4.79985459,19.1789031 L4.57993111,19.1789031 C4.0343286,19.1789031 3.6593771,19.4272209 3.6593771,20.0655791 L3.6593771,23.9538718 C3.6593771,25.5467393 4.82509172,26.0930383 6.002824,26.0930383 C7.69971992,26.0930383 8.5397555,25.126416 8.5397555,23.6910183 L8.5397555,20.5222415 C8.5397555,19.5968037 8.28017369,19.1789031 7.47739291,19.1789031 L7.24545175,19.1789031 L7.24545175,18.6689433 Z M14.7673154,25.2196866 C14.7673154,26.0155148 15.0148796,26.2759455 16.0496015,26.2759455 L16.0496015,26.7834828 L12.917795,26.7834828 L12.917795,26.2759455 L12.9935064,26.2759455 C13.7842695,26.2759455 13.9777541,25.9876546 13.9777541,25.4534687 L13.9777541,19.467194 C13.6929352,19.2721736 13.3456243,19.1801144 12.9430321,19.1801144 L12.9430321,18.6701545 L15.607351,18.6701545 L20.8903216,24.2276269 L20.8903216,20.2884595 C20.8903216,19.3484859 20.696837,19.1801144 19.6585098,19.1801144 L19.5299207,19.1801144 L19.5299207,18.6701545 L22.8696329,18.6701545 L22.8696329,19.1801144 L22.739842,19.1801144 C21.9394648,19.1801144 21.6774794,19.3484859 21.6774794,19.8439102 L21.6774794,26.8246673 L20.966033,26.8246673 L14.7673154,20.2884595 L14.7673154,25.2196866 Z M25.3717132,18.6689433 L29.4877674,18.6689433 L29.4877674,19.1789031 L29.2654403,19.1789031 C28.5660115,19.1789031 28.2835961,19.479307 28.2835961,20.1576384 L28.2835961,25.3226476 C28.2835961,25.9634286 28.5023179,26.2759455 29.2918792,26.2759455 L29.4877674,26.2759455 L29.4877674,26.7834828 L25.3717132,26.7834828 L25.3717132,26.2759455 L25.5531801,26.2759455 C26.2369859,26.2759455 26.4965677,25.9488929 26.4965677,25.3747337 L26.4965677,20.1576384 C26.4965677,19.479307 26.2634247,19.1789031 25.5399606,19.1789031 L25.3717132,19.1789031 L25.3717132,18.6689433 Z M33.2408877,20.2763464 C32.8142602,19.3363729 32.6327933,19.1789031 31.8961096,19.1789031 L31.8047754,19.1789031 L31.8047754,18.6689433 L36.295781,18.6689433 L36.295781,19.1789031 L36.0746558,19.1789031 C34.9882578,19.1789031 34.8212121,19.5459289 35.1829443,20.3138969 L37.2139315,24.670965 L39.1968482,19.9214337 C39.3747098,19.479307 39.0790749,19.1789031 38.3387861,19.1789031 L38.0792042,19.1789031 L38.0792042,18.6689433 L41.3684423,18.6689433 L41.3684423,19.1789031 L41.2759061,19.1789031 C40.5151873,19.1789031 40.2291666,19.5313932 39.802539,20.5622146 L37.1117813,26.96639 L36.295781,26.96639 L33.2408877,20.2763464 Z M49.267661,19.388459 L46.4326911,19.388459 L46.4326911,22.3234537 L48.5285739,22.3234537 C49.2412221,22.3234537 49.4996022,22.075136 49.4996022,21.3846916 L50.0199675,21.3846916 L50.0199675,23.9805205 L49.4996022,23.9805205 C49.4996022,23.274329 49.3277494,23.0417582 48.3350893,23.0417582 L46.4326911,23.0417582 L46.4326911,25.3904808 C46.4326911,25.9501042 46.5360431,26.0688122 46.9085911,26.0688122 L49.0729747,26.0688122 C49.9106067,26.0688122 50.3144007,25.8326075 50.5595612,24.7351642 L51.0498824,24.7351642 L50.8984597,26.7834828 L43.1049965,26.7834828 L43.1049965,26.2771569 L43.6349761,26.2771569 C44.3860808,26.2771569 44.6456627,25.9767529 44.6456627,25.335972 L44.6456627,20.132201 C44.6456627,19.4260096 44.4125197,19.1801144 43.5208081,19.1801144 L43.3910172,19.1801144 L43.3910172,18.6701545 L50.5211047,18.6701545 L50.6508956,20.5610034 L50.1593725,20.5610034 C50.02838,19.6755386 49.8613342,19.388459 49.267661,19.388459 Z M56.4253891,25.323859 C56.4253891,25.9876546 56.7114098,26.2759455 57.4504969,26.2759455 L57.8362643,26.2759455 L57.8362643,26.7834828 L53.3080039,26.7834828 L53.3080039,26.2759455 L53.5123043,26.2759455 C54.3018656,26.2759455 54.6431677,26.0809253 54.6431677,25.323859 L54.6431677,20.1697515 C54.6431677,19.5459289 54.4701132,19.1801144 53.6036387,19.1801144 L53.3344427,19.1801144 L53.3344427,18.6701545 C53.9797919,18.6313927 54.4701132,18.6059553 55.0036979,18.5671935 C55.727162,18.5138961 56.658532,18.4751342 57.1248178,18.4751342 C59.0284178,18.4751342 60.0643415,18.7222407 60.7084889,19.376346 C61.1399235,19.8063597 61.3298029,20.3005726 61.3298029,20.8626185 C61.3298029,21.8546783 60.62076,22.637182 59.4177905,22.961812 C60.268642,23.6801166 60.7217085,24.7109381 61.6434642,25.6375872 C62.172242,26.1717732 62.533974,26.3280316 63.3487725,26.4055553 L63.3487725,26.9143039 C63.0663571,26.9288395 62.9389697,26.9288395 62.5507987,26.9288395 C60.9452372,26.9288395 60.2818614,26.6926348 59.6761706,26.0809253 C59.0284178,25.4280313 58.2761112,24.0580441 57.4504969,23.3397395 L56.4253891,23.3397395 L56.4253891,25.323859 Z M56.4253891,22.7922292 L56.9313333,22.7922292 C58.4996401,22.7922292 59.4009658,22.3113407 59.4009658,20.9147047 C59.4009658,19.5313932 58.3530244,19.0359689 57.0995807,19.0359689 L56.4253891,19.0359689 L56.4253891,22.7922292 Z M65.3340927,24.3838854 L65.8376332,24.3838854 C66.2642608,25.676349 67.0309886,26.3401447 68.0500875,26.3401447 C68.9045443,26.3401447 69.5534988,25.7926344 69.5534988,25.0622168 C69.5534988,23.1180705 65.4001898,23.1834811 65.4001898,20.6009765 C65.4001898,19.3484859 66.4841843,18.473923 68.0236487,18.473923 C69.0223176,18.473923 69.7962559,18.8130887 69.9909422,18.8130887 C70.0822766,18.8130887 70.157988,18.7864399 70.2769629,18.6689433 L70.5521677,18.6689433 L70.7949248,20.7838837 L70.2769629,20.7838837 C69.9909422,19.7264135 69.1653279,19.0359689 68.1702643,19.0359689 C67.4419931,19.0359689 66.9023994,19.4272209 66.9023994,19.9347582 C66.9023994,21.1351624 69.0499582,21.3580428 70.49929,22.818878 C71.0280678,23.3542752 71.23357,23.9126873 71.23357,24.5389326 C71.23357,25.8968068 70.018583,26.96639 68.4779168,26.96639 C67.4419931,26.96639 66.4950002,26.5497007 66.2642608,26.5497007 C66.1488912,26.5497007 66.0575568,26.6139 65.9950648,26.7580454 L65.6585699,26.7580454 L65.3340927,24.3838854 Z M73.8522218,18.6689433 L77.9646707,18.6689433 L77.9646707,19.1789031 L77.7447471,19.1789031 C77.0489236,19.1789031 76.7629029,19.479307 76.7629029,20.1576384 L76.7629029,25.3226476 C76.7629029,25.9634286 76.9828265,26.2759455 77.7723878,26.2759455 L77.9646707,26.2759455 L77.9646707,26.7834828 L73.8522218,26.7834828 L73.8522218,26.2759455 L74.0312851,26.2759455 C74.7174945,26.2759455 74.9746726,25.9488929 74.9746726,25.3747337 L74.9746726,20.1576384 C74.9746726,19.479307 74.7439333,19.1789031 74.0204692,19.1789031 L73.8522218,19.1789031 L73.8522218,18.6689433 Z M85.5670527,25.2972102 C85.5670527,25.9767529 85.7713532,26.2771569 86.6919073,26.2771569 L87.0031651,26.2771569 L87.0031651,26.784694 L82.3427101,26.784694 L82.3427101,26.2771569 L82.7861624,26.2771569 C83.4988106,26.2771569 83.7788224,25.988866 83.7788224,25.2972102 L83.7788224,19.3496973 L82.2501741,19.3496973 C81.2563121,19.3496973 81.1000823,19.5059558 80.8549218,20.8880561 L80.326144,20.8880561 L80.5604887,18.4484856 L80.9702914,18.4484856 C81.0784505,18.5405448 81.1409425,18.6071666 81.2178556,18.6313927 C81.30919,18.6580415 81.4113402,18.6701545 81.5928071,18.6701545 L87.7542698,18.6701545 C88.1051859,18.6701545 88.1688797,18.6447172 88.3755837,18.4484856 L88.7889917,18.4484856 L89.0221347,20.8880561 L88.4933569,20.8880561 C88.2457927,19.5180689 88.089563,19.3496973 87.0957011,19.3496973 L85.5670527,19.3496973 L85.5670527,25.2972102 Z M96.7615183,25.3105345 C96.7615183,25.9367799 96.9562047,26.2771569 97.8887764,26.2771569 L98.0822609,26.2771569 L98.0822609,26.7834828 L93.670572,26.7834828 L93.670572,26.2771569 L93.9950492,26.2771569 C94.7689875,26.2771569 94.9792969,25.9234554 94.9792969,25.3371833 L94.9792969,23.5226468 L92.1972048,19.7930353 C91.8186479,19.2963998 91.6624183,19.1801144 91.0146655,19.1801144 L90.9281381,19.1801144 L90.9281381,18.6701545 L95.1463426,18.6701545 L95.1463426,19.1801144 L94.9901128,19.1801144 C94.2390081,19.1801144 94.1368578,19.4926313 94.4072555,19.8439102 L96.4815064,22.5959976 L97.9801107,20.223049 C98.3154039,19.6888629 98.4175542,19.1801144 97.5174301,19.1801144 L97.3587968,19.1801144 L97.3587968,18.6701545 L100.41369,18.6701545 L100.41369,19.1801144 C99.6613837,19.2322005 99.4402584,19.3751347 98.9763761,20.0934392 L96.7615183,23.5226468 L96.7615183,25.3105345 Z" id="Massey-Logo"></path>
                    </g>
                    <g id="Group">
                        <path d="M11.6866958,26.2801439 C11.1987089,25.7463285 10.9547155,24.7197604 10.3853975,23.6931923 C9.49075488,22.091746 8.35211885,21.7221815 8.35211885,21.7221815 C8.35211885,21.7221815 8.67744343,22.5023732 8.35211885,23.1593768 C7.90479755,24.0627567 7.49814182,23.6931923 7.49814182,23.6931923 C7.49814182,23.6931923 7.49814182,24.3501959 8.10812541,24.6786976 C9.002768,25.1714503 9.53142045,24.5144467 9.53142045,24.5144467 C9.53142045,24.5144467 9.4500893,25.376764 10.3447319,26.0337676 C11.1173778,26.6086457 11.7273614,26.6086457 12.0933515,26.731834 C12.3373449,26.8139593 12.5406728,26.8960847 12.5406728,26.8960847 C12.5406728,26.8960847 12.1746827,26.8139593 11.6866958,26.2801439 L11.6866958,26.2801439 Z" id="Logo-path" fill="#EDA72F"></path>
                        <path d="M4.77354847,19.7511707 C4.61088619,18.9709788 4.77354847,18.6835398 4.77354847,18.6835398 C4.77354847,18.6835398 5.50552878,18.1497244 6.48150251,18.5603516 C7.2541484,18.8888535 7.45747625,19.6279825 7.45747625,19.6279825 C7.45747625,19.6279825 7.9861287,19.1762925 8.06745984,18.4782263 C8.14879099,17.7801599 7.78280083,17.3284699 7.41681068,16.9999681 C7.01015496,16.6714663 6.23750908,16.3019017 6.23750908,16.3019017 C6.23750908,16.3019017 6.8068271,15.9733999 6.96948939,15.6448981 C7.05082053,15.52171 7.09148611,15.3985218 7.09148611,15.2753337 C7.13215168,15.07002 7.21348282,14.9057691 7.33547954,14.7004555 C7.53880739,14.3719537 8.06745984,14.0845146 8.06745984,14.0845146 C8.06745984,14.0845146 7.2541484,13.7560128 6.44083694,14.1255774 C5.6275255,14.4951419 5.42419763,14.8236437 4.48888947,15.1932082 C4.4482239,15.2342709 4.36689275,15.2342709 4.32622718,15.2753337 L4.32622718,15.2753337 C3.35025343,15.6038355 2.65893871,15.2753337 2.65893871,15.2753337 C2.65893871,15.2753337 3.02492886,15.6448981 3.02492886,16.6714663 C3.02492886,17.6569717 2.94359772,18.4782263 3.39091901,19.3816062 C3.91957145,20.4902997 5.1802042,20.6956134 5.1802042,20.6956134 C5.1802042,20.6956134 4.93621076,20.5313625 4.77354847,19.7511707 L4.77354847,19.7511707 Z" id="Logo-path" fill="#EDA72F"></path>
                        <path d="M7.21348282,19.8743589 C6.40017137,18.9299162 5.38353206,19.2173553 5.38353206,19.2173553 C5.38353206,19.2173553 5.74952222,19.5047943 5.95285008,20.1207352 C6.1968435,20.736676 6.1968435,21.1062406 6.1968435,21.1062406 C6.1968435,21.1062406 5.74952222,20.9830524 4.85487961,21.2704915 C3.91957145,21.5989933 3.96023702,22.6255614 3.96023702,22.6255614 C3.96023702,22.6255614 4.77354847,21.9274951 5.79018779,22.3791851 C6.68483038,22.7898123 7.05082053,23.9806313 7.05082053,23.9806313 C7.05082053,23.9806313 7.09148611,23.5289414 7.2541484,23.2415023 C7.41681068,22.9130005 7.66080411,22.7076869 7.86413198,22.091746 C8.06745984,21.5989933 7.9861287,20.8188015 7.21348282,19.8743589 L7.21348282,19.8743589 Z" id="Logo-path" fill="#EDA72F"></path>
                        <path d="M3.14692558,3.73670796 C3.35025343,4.35264884 3.39091901,4.76327609 3.39091901,5.09177788 C3.39091901,5.33815424 3.5535813,5.58453058 3.5535813,5.58453058 C3.5535813,5.58453058 2.69960428,5.66665604 2.41494527,6.118346 C1.96762398,6.81641233 2.45561084,7.55554138 2.45561084,7.55554138 C2.45561084,7.55554138 2.57760756,7.02172595 3.14692558,6.93960051 C3.47225015,6.89853778 4.0009026,6.89853778 4.57022062,7.43235321 C5.30220092,8.0893568 6.23750908,8.13041953 6.23750908,8.13041953 C6.23750908,8.13041953 5.99351565,7.51447865 6.1968435,6.89853778 C6.3595058,6.24153419 6.56283366,6.03622056 6.96948939,5.37921696 C7.37614512,4.72221336 7.33547954,4.47583701 7.29481397,4.06520977 C7.2541484,3.65458252 7.01015496,3.16182982 7.01015496,3.16182982 C7.01015496,3.16182982 6.88815824,3.61351979 6.48150251,3.81883341 C6.11551236,4.02414703 5.83085336,4.22946066 5.50552878,4.47583701 C5.1802042,4.76327609 5.13953862,5.1328406 5.13953862,5.1328406 C5.13953862,5.1328406 5.05820748,4.31158611 4.65155176,3.81883341 C4.24489603,3.32608071 3.75690916,2.83332801 3.2689223,2.66907712 C2.53694199,2.4637635 2.25228298,2.62801439 2.25228298,2.62801439 C2.25228298,2.62801439 2.90293214,2.91545346 3.14692558,3.73670796 L3.14692558,3.73670796 Z" id="Logo-path" fill="#EDA72F"></path>
                        <path d="M7.29481397,5.87196966 C7.2541484,6.32365963 7.29481397,6.85747506 7.21348282,7.47341593 C7.13215168,8.13041953 6.52216809,8.49998405 6.52216809,8.49998405 C6.52216809,8.49998405 7.49814182,8.78742312 8.06745984,7.88404318 C8.47411557,7.18597685 8.14879099,6.36472236 7.90479755,5.95409511 C7.66080411,5.54346786 7.70146969,4.84540154 7.70146969,4.84540154 C7.70146969,4.84540154 7.33547954,5.42027968 7.29481397,5.87196966 L7.29481397,5.87196966 Z" id="Logo-path" fill="#EDA72F"></path>
                        <path d="M2.25228298,5.33815424 C2.61827313,5.00965243 2.94359772,5.00965243 2.94359772,5.00965243 C2.94359772,5.00965243 2.65893871,4.84540154 2.41494527,4.22946066 C2.17095183,3.61351979 2.33361412,3.16182982 2.33361412,3.16182982 C2.33361412,3.16182982 1.84562726,3.61351979 1.6422994,4.43477428 C1.43897154,5.25602879 1.80496169,6.118346 1.80496169,6.118346 C1.80496169,6.118346 1.88629284,5.66665604 2.25228298,5.33815424 L2.25228298,5.33815424 Z" id="Logo-path" fill="#EDA72F"></path>
                        <path d="M0.991650237,8.49998405 C1.35764039,7.9251059 2.08962069,8.0893568 2.08962069,8.0893568 C2.08962069,8.0893568 1.1949781,6.6110987 0.300335505,7.80191772 C-0.756969378,9.19805037 1.31697482,10.2246185 1.31697482,10.2246185 C1.31697482,10.2246185 0.503663368,9.2391131 0.991650237,8.49998405 L0.991650237,8.49998405 Z" id="Logo-path" fill="#EDA72F"></path>
                        <path d="M5.87151893,11.4565002 C4.85487961,11.4154375 4.40755833,13.5506993 4.69221733,14.7004555 C5.79018779,12.4009429 8.06745984,12.8115701 8.06745984,12.8115701 C8.06745984,12.8115701 6.84749267,11.497563 5.87151893,11.4565002 L5.87151893,11.4565002 Z" id="Logo-path" fill="#EDA72F"></path>
                        <path d="M3.22825673,14.330891 C3.63491244,14.782581 4.16356489,14.9468319 4.16356489,14.9468319 C4.16356489,14.9468319 3.79757473,13.4685737 4.20423046,12.236692 C4.65155176,10.9637475 5.6275255,10.4709948 6.23750908,10.3067439 C6.84749267,10.142493 7.05082053,10.142493 7.41681068,9.97824215 C7.70146969,9.85505397 7.8234664,9.64974035 7.9861287,9.36230127 C7.57947297,9.40336399 7.33547954,9.40336399 6.88815824,9.2391131 C6.48150251,9.0748622 6.07484679,8.86954857 5.30220092,8.33573316 C4.52955504,7.80191772 4.24489603,7.80191772 3.51291572,7.71979227 C2.90293214,7.67872955 2.61827313,7.96616863 2.61827313,7.96616863 C2.61827313,7.96616863 3.10626001,8.17148225 3.30958787,8.54104678 C3.63491244,9.0748622 3.43158458,9.60867762 3.43158458,9.60867762 C3.43158458,9.60867762 3.10626001,9.44442673 2.65893871,9.36230127 C2.21161741,9.28017582 1.96762398,9.36230127 1.72363054,9.32123854 C1.47963711,9.28017582 1.39830596,9.0748622 1.39830596,9.0748622 C1.39830596,9.0748622 1.27630924,9.5676149 1.56096825,10.2656812 C1.84562726,10.9637475 2.25228298,11.045873 2.25228298,11.045873 C2.25228298,11.045873 1.15431253,11.2101239 0.910319092,12.2777548 C0.544328941,13.7149502 1.68296497,14.6183301 1.68296497,14.6183301 C1.68296497,14.6183301 1.76429612,13.8792011 2.08962069,13.7560128 C2.45561084,13.5917619 2.86226657,13.3453856 2.86226657,13.3453856 C2.86226657,13.3453856 2.86226657,13.8792011 3.22825673,14.330891 L3.22825673,14.330891 Z" id="Logo-path" fill="#EDA72F"></path>
                        <path d="M20.9177808,11.045873 L9.12476472,11.045873 L9.12476472,16.7946545 C9.12476472,16.7946545 8.71810901,23.8574432 15.0212727,27.019273 C21.2837709,23.8574432 20.9177808,16.7946545 20.9177808,16.7946545 L20.9177808,11.045873 Z" id="Logo-path" fill="#004895"></path>
                        <polygon id="Logo-path" fill="#FFFFFF" points="19.1284956 19.4637316 16.5665645 19.258418 17.5425383 21.6400561 15.5905907 19.9564843 14.9806072 22.4613105 14.3706235 19.9564843 12.4186761 21.6400561 13.3946499 19.258418 10.8327188 19.4637316 12.9879941 18.1086617 10.8327188 16.7535917 13.3946499 16.9589054 12.4186761 14.5772673 14.3706235 16.2608391 14.9806072 13.7560128 15.5905907 16.2608391 17.5425383 14.5772673 16.5665645 16.9589054 19.1284956 16.7535917 16.9732202 18.1086617"></polygon>
                        <path d="M6.60349923,25.9105794 C6.68483038,25.7463285 6.8068271,25.664203 7.01015496,25.664203 C7.09148611,25.664203 7.13215168,25.7052658 7.21348282,25.7052658 C7.41681068,25.7873912 7.74213526,26.0337676 8.06745984,26.115893 C8.43345,26.1980185 8.67744343,26.1569557 8.67744343,26.0337676 C8.71810901,25.9105794 8.31145328,25.4999521 7.86413198,25.4178267 C7.41681068,25.3357012 6.72549595,25.3357012 5.83085336,25.4999521 C4.89554519,25.664203 4.57022062,25.4999521 4.52955504,25.3357012 C4.4482239,25.2125131 4.52955504,25.1303877 4.61088619,25.0482622 C4.48888947,25.0482622 4.40755833,25.1303877 4.32622718,25.2125131 C4.16356489,25.5410149 4.04156817,25.9105794 4.08223374,26.6497084 C4.08223374,27.3888375 4.12289932,28.0047783 4.52955504,28.0869038 C4.93621076,28.1690292 5.26153534,27.8815902 5.58685992,27.8405275 C5.91218451,27.7994648 5.99351565,27.9226529 5.99351565,27.9226529 L6.60349923,25.9105794 L6.60349923,25.9105794 Z" id="Logo-path" fill="#004895"></path>
                        <path d="M23.3983806,25.9105794 C23.3170495,25.7463285 23.1950528,25.664203 22.9917249,25.664203 C22.9103938,25.664203 22.8697282,25.7052658 22.7883971,25.7052658 C22.5850692,25.7873912 22.2597447,26.0337676 21.93442,26.115893 C21.5684299,26.1980185 21.3244365,26.1569557 21.3244365,26.0337676 C21.2837709,25.9105794 21.6904266,25.4999521 22.1377479,25.4178267 C22.5850692,25.3357012 23.2763839,25.3357012 24.1710265,25.4999521 C25.0656692,25.664203 25.4316593,25.4999521 25.4723249,25.3357012 C25.553656,25.2125131 25.4723249,25.1303877 25.3909937,25.0482622 C25.5129904,25.0482622 25.5943216,25.1303877 25.6756527,25.2125131 C25.838315,25.5410149 25.9603117,25.9105794 25.9196461,26.6497084 C25.9196461,27.3888375 25.8789806,28.0047783 25.4723249,28.0869038 C25.0656692,28.1690292 24.7403445,27.8815902 24.4150199,27.8405275 C24.0896954,27.7994648 24.0083643,27.9226529 24.0083643,27.9226529 L23.3983806,25.9105794 L23.3983806,25.9105794 Z" id="Logo-path" fill="#004895"></path>
                        <path d="M23.9676987,28.7439074 C21.8530889,30.2221656 18.6405087,31.1666082 15.0212727,31.1666082 C11.4427024,31.1666082 8.23012213,30.2221656 6.11551236,28.7439074 C6.07484679,28.7028447 6.03418123,28.6617819 6.03418123,28.5796565 L6.03418123,28.497531 L6.84749267,25.9516421 C6.88815824,25.8695167 6.92882381,25.8284539 7.01015496,25.8284539 C7.05082053,25.8284539 7.09148611,25.8284539 7.13215168,25.8695167 C8.39278442,27.2245865 11.4427024,28.1690292 15.0212727,28.1690292 C18.5998431,28.1690292 21.649761,27.2245865 22.9103938,25.8695167 C22.9510593,25.8284539 22.9917249,25.8284539 23.0323905,25.8284539 C23.1137216,25.8284539 23.1543872,25.8695167 23.1950528,25.9516421 L24.0083643,28.497531 L24.0083643,28.5796565 C24.0490298,28.6617819 24.0083643,28.7028447 23.9676987,28.7439074 L23.9676987,28.7439074 Z" id="Logo-path" fill="#004895"></path>
                        <path d="M14.0859645,0.780191772 C14.1266301,0.862317222 14.2079613,0.862317222 14.2486268,0.780191772 L14.7772793,0.164250899 C14.8179449,0.0821254497 14.7772793,0.0410627249 14.6959482,0.0410627249 L13.5979777,0.0410627249 C13.5166466,0.0410627249 13.475981,0.123188174 13.5166466,0.164250899 L14.0859645,0.780191772 L14.0859645,0.780191772 Z" id="Logo-path" fill="#004895"></path>
                        <path d="M16.2819055,0.821254497 C16.3632366,0.821254497 16.4445678,0.780191772 16.5258989,0.698066323 L17.0138858,0.123188174 C17.0545513,0.0410627249 17.0545513,0 17.0138858,0 L16.037912,0 C15.956581,0 15.8752497,0.0410627249 15.7939186,0.123188174 L15.3059317,0.698066323 C15.2246006,0.780191772 15.2652662,0.821254497 15.3059317,0.821254497 L16.2819055,0.821254497 L16.2819055,0.821254497 Z" id="Logo-path" fill="#004895"></path>
                        <path d="M20.8364496,0.821254497 C20.9177808,0.821254497 20.9991119,0.780191772 21.080443,0.698066323 L21.5684299,0.123188174 C21.6090954,0.0410627249 21.6090954,0 21.5277643,0 L21.080443,0 C20.9991119,0 20.9177808,0.0410627249 20.8364496,0.123188174 L20.3484627,0.698066323 C20.3077971,0.780191772 20.3077971,0.821254497 20.3484627,0.821254497 L20.8364496,0.821254497 L20.8364496,0.821254497 Z" id="Logo-path" fill="#004895"></path>
                        <path d="M21.8937544,0.821254497 C21.7717577,0.821254497 21.8124233,0.698066323 21.93442,0.574878149 L22.2597447,0.205313625 C22.3817414,0.123188174 22.5444036,0 22.7070659,0 L23.1543872,0 C23.2763839,0 23.2763839,0.123188174 23.1543872,0.24637635 C22.5850692,0.780191772 21.8937544,0.821254497 21.8937544,0.821254497 L21.8937544,0.821254497 L21.8937544,0.821254497 Z" id="Logo-path" fill="#004895"></path>
                        <path d="M19.4131546,0.821254497 C19.4944857,0.821254497 19.5758169,0.780191772 19.657148,0.698066323 L20.1451348,0.123188174 C20.1858004,0.0410627249 20.1858004,0 20.1451348,0 L19.6978136,0 C19.6164824,0 19.5351513,0.0410627249 19.4538201,0.123188174 L18.9658332,0.698066323 C18.9251676,0.780191772 18.9251676,0.821254497 18.9658332,0.821254497 L19.4131546,0.821254497 L19.4131546,0.821254497 Z" id="Logo-path" fill="#004895"></path>
                        <path d="M17.949194,0.821254497 C18.0305251,0.821254497 18.1118562,0.780191772 18.1931874,0.698066323 L18.6811742,0.123188174 C18.7218398,0.0410627249 18.7218398,0 18.6811742,0 L18.0711907,0 C17.9898595,0 17.9085284,0.0410627249 17.8271973,0.123188174 L17.3392103,0.698066323 C17.2985448,0.780191772 17.2985448,0.821254497 17.3392103,0.821254497 L17.949194,0.821254497 L17.949194,0.821254497 Z" id="Logo-path" fill="#004895"></path>
                        <path d="M12.2966794,0.821254497 C12.2153482,0.821254497 12.1340171,0.780191772 12.052686,0.698066323 L11.5646991,0.123188174 C11.5240335,0.0410627249 11.5240335,0 11.5646991,0 L12.5406728,0 C12.6220039,0 12.7033351,0.0410627249 12.7846662,0.123188174 L13.2726532,0.698066323 C13.3539843,0.780191772 13.3133187,0.821254497 13.2726532,0.821254497 L12.2966794,0.821254497 L12.2966794,0.821254497 Z" id="Logo-path" fill="#004895"></path>
                        <path d="M9.20609587,0.821254497 C9.12476472,0.821254497 9.04343358,0.780191772 8.96210243,0.698066323 L8.47411557,0.123188174 C8.43345,0.0410627249 8.43345,0 8.47411557,0 L8.92143686,0 C9.002768,0 9.08409915,0.0410627249 9.16543029,0.123188174 L9.65341717,0.698066323 C9.69408274,0.780191772 9.69408274,0.821254497 9.65341717,0.821254497 L9.20609587,0.821254497 L9.20609587,0.821254497 Z" id="Logo-path" fill="#004895"></path>
                        <path d="M10.6700565,0.821254497 C10.5887253,0.821254497 10.5073942,0.780191772 10.426063,0.698066323 L9.93807618,0.123188174 C9.89741061,0.0410627249 9.89741061,0 9.93807618,0 L10.5480598,0 C10.6293909,0 10.710722,0.0410627249 10.7920532,0.123188174 L11.2800401,0.698066323 C11.3613712,0.780191772 11.3207056,0.821254497 11.2800401,0.821254497 L10.6700565,0.821254497 L10.6700565,0.821254497 Z" id="Logo-path" fill="#004895"></path>
                        <path d="M8.14879099,0.821254497 C8.27078771,0.821254497 8.23012213,0.698066323 8.10812541,0.574878149 L7.78280083,0.205313625 C7.70146969,0.123188174 7.49814182,0.0410627249 7.33547954,0.0410627249 L6.88815824,0.0410627249 C6.76616152,0.0410627249 6.76616152,0.164250899 6.88815824,0.287439074 C7.45747625,0.821254497 8.14879099,0.821254497 8.14879099,0.821254497 L8.14879099,0.821254497 Z" id="Logo-path" fill="#004895"></path>
                        <path d="M18.6405087,5.99515783 L18.6405087,5.70771876 C18.4778464,4.10627249 18.1118562,2.71013984 17.2985448,1.39613265 C17.2578792,1.27294447 17.1358825,1.23188174 17.0138858,1.31400719 C16.9325546,1.31400719 16.9325546,1.39613265 16.9732202,1.43719537 C16.9732202,1.43719537 17.2578792,1.80675989 17.3392103,1.9710108 C17.5018726,2.25844987 17.6238694,2.58695167 17.5832037,2.91545346 C17.5832037,3.03864164 17.5832037,3.16182982 17.5425383,3.28501799 C17.3798759,4.06520977 16.7698923,4.68115064 16.037912,5.00965243 C15.8345841,5.09177788 15.6312563,5.1328406 15.4279284,5.17390334 C14.9806072,5.21496606 14.4926202,5.21496606 14.1672957,4.92752698 C14.045299,4.84540154 13.9639678,4.72221336 13.8826367,4.64008792 C13.76064,4.43477428 13.6793088,4.14733522 13.6793088,3.85989614 C13.6793088,3.77777069 13.7199744,3.65458252 13.8013056,3.57245707 L13.8013056,3.53139433 C14.0859645,3.16182982 14.1672957,3.85989614 14.8179449,3.98308431 C14.9399416,4.02414703 15.0619383,4.02414703 15.1432695,3.98308431 C15.2652662,3.94202159 15.3465973,3.85989614 15.4279284,3.77777069 C15.5092596,3.65458252 15.5905907,3.53139433 15.6312563,3.40820616 C15.6719219,3.32608071 15.6719219,3.24395527 15.6312563,3.12076709 C15.5905907,2.9565162 15.5092596,2.83332801 15.3872629,2.71013984 C15.0212727,2.42270076 14.4519547,2.17632442 14.2892924,1.76569717 C14.2486268,1.64250899 14.2486268,1.51932082 14.2892924,1.43719537 C14.329958,1.31400719 14.4112891,1.23188174 14.4519547,1.10869357 C14.4519547,1.06763085 14.7772793,0.739129048 14.7772793,0.739129048 L15.3059317,0.123188174 C15.3465973,-0.0410627249 15.1432695,2.0641917e-12 15.1026039,0.0410627249 C14.6959482,0.451689973 14.4926202,0.985505397 14.0046334,1.23188174 C13.3946499,1.43719537 12.8253318,1.64250899 12.3780105,2.17632442 C11.6866958,2.66907712 10.9953811,3.16182982 10.2634007,3.53139433 C10.1820696,3.69564524 10.2227352,3.90095886 10.2634007,4.06520977 C10.6293909,4.31158611 11.1173778,4.31158611 11.5646991,4.43477428 C11.768027,4.72221336 11.8086925,5.17390334 11.7273614,5.50240513 C12.0120204,5.58453058 12.7033351,5.00965243 12.9066629,4.55796247 C13.2319876,4.59902519 13.5166466,4.92752698 13.5573121,5.25602879 C13.5979777,5.50240513 13.5166466,5.74878149 13.4353154,5.99515783 C13.1099909,6.65216143 12.3780105,7.02172595 12.3780105,7.02172595 C12.6626695,7.14491413 12.9066629,7.39129048 13.0286596,7.43235321 C13.1506563,7.47341593 13.475981,6.73428689 13.5979777,6.69322415 C13.76064,6.65216143 14.4112891,7.14491413 14.5332858,7.14491413 C14.6552826,7.14491413 15.0619383,6.52897325 15.2652662,6.57003598 C15.468594,6.57003598 15.8752497,7.26810231 16.037912,7.30916503 C16.1192431,7.30916503 16.7698923,6.69322415 16.9732202,6.73428689 C17.1358825,6.73428689 17.3798759,7.30916503 17.5018726,7.35022776 C17.6238694,7.39129048 17.8271973,7.06278868 18.5998431,6.93960051 C18.6405087,6.85747506 18.6811742,6.36472236 18.6405087,5.99515783 L18.6405087,5.99515783 Z" id="Logo-path" fill="#004895"></path>
                        <path d="M14.7772793,1.10869357 C14.8586105,1.02656812 14.899276,1.02656812 15.1026039,1.10869357 C15.1026039,1.10869357 16.4039022,1.06763085 17.0545513,1.1497563 C16.9732202,1.27294447 16.7698923,1.23188174 16.6885612,1.39613265 C16.7698923,1.43719537 16.8512235,1.51932082 16.9325546,1.60144627 C17.0952169,1.76569717 17.2172136,1.92994807 17.3392103,2.13526169 C17.5018726,2.38163804 17.5832037,2.66907712 17.5832037,2.99757892 C17.5832037,3.12076709 17.5832037,3.20289254 17.5425383,3.32608071 C17.3798759,4.06520977 16.7698923,4.64008792 16.1192431,4.96858971 C15.956581,5.00965243 15.753253,5.05071516 15.5499252,5.09177788 C15.1026039,5.1328406 14.6552826,5.09177788 14.3706235,4.84540154 C14.2892924,4.76327609 14.2079613,4.68115064 14.1266301,4.55796247 C14.0046334,4.35264884 13.9233023,4.10627249 13.9639678,3.85989614 C13.9639678,3.81883341 13.9639678,3.69564524 14.0046334,3.65458252 C14.0046334,3.61351979 14.0046334,3.61351979 14.045299,3.57245707 C14.2892924,3.81883341 14.5332858,4.06520977 14.899276,4.10627249 C15.0212727,4.14733522 15.1432695,4.14733522 15.3059317,4.10627249 C15.4279284,4.06520977 15.5499252,3.98308431 15.6312563,3.85989614 C15.7125874,3.73670796 15.7939186,3.61351979 15.8345841,3.44926889 L15.8345841,3.12076709 C15.7939186,2.9565162 15.6719219,2.79226529 15.5499252,2.66907712 C15.2246006,2.38163804 14.6552826,2.13526169 14.4926202,1.76569717 C14.4519547,1.68357172 14.4519547,1.60144627 14.4926202,1.51932082 C14.5332858,1.43719537 14.5739515,1.31400719 14.6552826,1.23188174 C14.6959482,1.19081902 14.7366138,1.1497563 14.7772793,1.10869357 Z M16.1192431,4.64008792 C16.2005744,4.55796247 16.2005744,4.47583701 16.2005744,4.39371156 C16.1599088,4.31158611 16.1599088,4.22946066 16.0785777,4.18839794 L15.9972464,4.18839794 C15.9159153,4.18839794 15.8752497,4.27052339 15.9159153,4.31158611 C16.037912,4.39371156 16.1192431,4.51689973 16.1192431,4.64008792 Z M16.3225711,4.02414703 C16.4445678,4.02414703 16.6072301,4.10627249 16.7292268,4.22946066 C16.7292268,4.10627249 16.6885612,3.98308431 16.6072301,3.90095886 C16.5258989,3.85989614 16.4445678,3.77777069 16.3632366,3.77777069 C16.3632366,3.77777069 16.3225711,3.77777069 16.3225711,3.81883341 C16.2819055,3.90095886 16.2819055,3.98308431 16.3225711,4.02414703 Z M16.5665645,3.57245707 C16.6885612,3.49033161 16.9325546,3.49033161 17.0952169,3.57245707 C17.0545513,3.44926889 16.9325546,3.36714344 16.8105579,3.28501799 C16.6885612,3.24395527 16.5665645,3.24395527 16.4852334,3.28501799 C16.4445678,3.28501799 16.4445678,3.32608071 16.4445678,3.36714344 C16.4445678,3.49033161 16.4852334,3.57245707 16.5665645,3.57245707 Z M17.2578792,2.99757892 C17.176548,2.83332801 17.0138858,2.75120257 16.8512235,2.62801439 C16.6885612,2.58695167 16.5258989,2.58695167 16.4039022,2.66907712 C16.3632366,2.71013984 16.3632366,2.75120257 16.3632366,2.79226529 C16.3632366,2.91545346 16.4445678,3.03864164 16.5665645,3.03864164 C16.7292268,2.91545346 17.0545513,2.91545346 17.2578792,2.99757892 Z M17.1358825,2.38163804 C17.0138858,2.17632442 16.7698923,2.09419897 16.5258989,2.01207352 C16.3225711,2.01207352 16.1192431,2.01207352 15.956581,2.13526169 C15.9159153,2.13526169 15.9159153,2.21738714 15.956581,2.25844987 C16.037912,2.38163804 16.1599088,2.4637635 16.3225711,2.4637635 C16.5258989,2.25844987 16.8512235,2.25844987 17.1358825,2.38163804 Z M15.1026039,1.60144627 C15.0619383,1.60144627 15.0619383,1.68357172 15.1026039,1.76569717 C15.2652662,1.88888535 15.4279284,1.9710108 15.6312563,1.92994807 C15.9159153,1.68357172 16.3632366,1.64250899 16.7698923,1.72463444 C16.5665645,1.51932082 16.2005744,1.43719537 15.8752497,1.39613265 C15.5905907,1.39613265 15.3059317,1.43719537 15.1026039,1.60144627 Z M15.1432695,4.80433881 L15.1432695,4.68115064 L15.1026039,4.68115064 C15.0619383,4.64008792 15.0212727,4.64008792 15.0212727,4.68115064 C15.0619383,4.72221336 15.0619383,4.80433881 15.0212727,4.84540154 C15.0619383,4.84540154 15.1026039,4.84540154 15.1432695,4.80433881 Z M15.5499252,4.84540154 C15.6312563,4.80433881 15.6719219,4.72221336 15.7125874,4.68115064 C15.7125874,4.59902519 15.7125874,4.55796247 15.6719219,4.51689973 L15.5905907,4.51689973 C15.5092596,4.51689973 15.468594,4.55796247 15.468594,4.59902519 C15.5499252,4.64008792 15.5905907,4.76327609 15.5499252,4.84540154 Z M14.6959482,4.68115064 L14.6959482,4.59902519 L14.6552826,4.59902519 C14.6552826,4.64008792 14.6552826,4.68115064 14.6146171,4.68115064 L14.6959482,4.68115064 Z" id="Combined-Shape" fill="#004895"></path>
                        <polygon id="Logo-path" fill="#EDA72F" points="14.6552826 19.3405434 12.9879941 20.9830524 14.045299 18.8888535 11.7273614 19.2173553 13.8013056 18.1497244 11.7273614 17.0410309 14.0046334 17.4105953 12.9879941 15.3163963 14.6552826 16.9589054 15.0619383 14.6593928 15.4279284 16.9589054 17.0952169 15.3163963 16.037912 17.4105953 18.3558497 17.0820935 16.2819055 18.1497244 18.3558497 19.258418 16.2819055 18.1497244 18.3558497 19.258418 16.0785777 18.8888535 17.0952169 20.9830524 15.4279284 19.3405434 15.0212727 21.6400561"></polygon>
                        <path d="M25.838315,15.2753337 L25.838315,15.2753337 C25.7976494,15.2753337 25.7163183,15.2342709 25.6756527,15.1932082 C24.7810101,14.8236437 24.5370167,14.4540792 23.7237053,14.1255774 C22.9103938,13.7560128 22.0970824,14.0845146 22.0970824,14.0845146 C22.0970824,14.0845146 22.5850692,14.3719537 22.8290626,14.7004555 C22.9510593,14.9057691 22.9917249,15.07002 23.073056,15.2753337 C23.1137216,15.3985218 23.1543872,15.52171 23.2357183,15.6448981 C23.3983806,15.9733999 23.9676987,16.3019017 23.9676987,16.3019017 C23.9676987,16.3019017 23.1543872,16.6304036 22.7883971,16.9999681 C22.3817414,17.3284699 22.0564168,17.8212226 22.1377479,18.4782263 C22.2190791,19.1762925 22.7477315,19.6279825 22.7477315,19.6279825 C22.7477315,19.6279825 22.9103938,18.8888535 23.7237053,18.5603516 C24.6996789,18.1497244 25.4316593,18.6835398 25.4316593,18.6835398 C25.4316593,18.6835398 25.5943216,18.9709788 25.4316593,19.7511707 C25.268997,20.5313625 25.0656692,20.736676 25.0656692,20.736676 C25.0656692,20.736676 26.3263018,20.5313625 26.8549543,19.4226689 C27.3022756,18.5192889 27.2209445,17.6980344 27.2209445,16.7125291 C27.2209445,15.7270236 27.5869346,15.3163963 27.5869346,15.3163963 C27.5869346,15.3163963 26.8142888,15.6038355 25.838315,15.2753337 L25.838315,15.2753337 Z" id="Logo-path" fill="#EDA72F"></path>
                        <path d="M21.7717577,23.2004396 C21.4464332,22.543436 21.7717577,21.7632442 21.7717577,21.7632442 C21.7717577,21.7632442 20.6331218,22.1328087 19.7384791,23.7342549 C19.1691612,24.7608231 18.8845021,25.7463285 18.4371808,26.3212066 C17.949194,26.8550221 17.6238694,27.019273 17.6238694,27.019273 C17.6238694,27.019273 17.8271973,26.9371475 18.0711907,26.8550221 C18.4371808,26.731834 19.0471643,26.731834 19.8198103,26.1569557 C20.6737873,25.4999521 20.6331218,24.637635 20.6331218,24.637635 C20.6331218,24.637635 21.2024397,25.2946386 22.0564168,24.8018859 C22.6257348,24.4733841 22.6664004,23.8163804 22.6664004,23.8163804 C22.6664004,23.8163804 22.2597447,24.0627567 21.7717577,23.2004396 L21.7717577,23.2004396 Z" id="Logo-path" fill="#EDA72F"></path>
                        <path d="M25.268997,21.3115543 C24.3743544,20.9830524 23.9270331,21.1473033 23.9270331,21.1473033 C23.9270331,21.1473033 23.9270331,20.7777388 24.1710265,20.1617979 C24.4150199,19.5458571 24.7403445,19.258418 24.7403445,19.258418 C24.7403445,19.258418 23.7237053,18.9709788 22.9103938,19.9154215 C22.0970824,20.8598643 22.0564168,21.6400561 22.2190791,22.1738714 C22.4224069,22.7487496 22.6664004,22.9951259 22.8290626,23.3236277 C22.9917249,23.6110668 23.0323905,24.0627567 23.0323905,24.0627567 C23.0323905,24.0627567 23.3983806,22.830875 24.2930232,22.4613105 C25.3503282,22.0096205 26.122974,22.7076869 26.122974,22.7076869 C26.122974,22.7076869 26.1636395,21.6400561 25.268997,21.3115543 L25.268997,21.3115543 Z" id="Logo-path" fill="#EDA72F"></path>
                        <path d="M27.7495969,3.12076709 C27.7495969,3.12076709 27.9122591,3.57245707 27.6682657,4.18839794 C27.4242723,4.80433881 27.1396133,4.96858971 27.1396133,4.96858971 C27.1396133,4.96858971 27.4649379,4.96858971 27.830928,5.29709151 C28.1969182,5.6255933 28.2375838,6.03622056 28.2375838,6.03622056 C28.2375838,6.03622056 28.6442395,5.17390334 28.4002461,4.35264884 C28.2375838,3.57245707 27.7495969,3.12076709 27.7495969,3.12076709 L27.7495969,3.12076709 Z" id="Logo-path" fill="#EDA72F"></path>
                        <path d="M23.6017086,8.45892133 C23.6017086,8.45892133 23.0323905,8.0893568 22.9103938,7.43235321 C22.8290626,6.77534961 22.8697282,6.24153419 22.8290626,5.83090693 C22.7883971,5.37921696 22.4630725,4.80433881 22.4630725,4.80433881 C22.4630725,4.80433881 22.5037381,5.46134241 22.2597447,5.87196966 C22.0157511,6.28259691 21.649761,7.1038514 22.0970824,7.80191772 C22.6257348,8.7463604 23.6017086,8.45892133 23.6017086,8.45892133 L23.6017086,8.45892133 Z" id="Logo-path" fill="#EDA72F"></path>
                        <path d="M23.8863675,6.81641233 C24.0490298,7.47341593 23.845702,8.0893568 23.845702,8.0893568 C23.845702,8.0893568 24.8216756,8.04829408 25.553656,7.39129048 C26.122974,6.85747506 26.6922921,6.85747506 26.976951,6.89853778 C27.546269,7.02172595 27.6682657,7.51447865 27.6682657,7.51447865 C27.6682657,7.51447865 28.1155871,6.81641233 27.7089313,6.07728328 C27.4242723,5.6255933 26.5702952,5.54346786 26.5702952,5.54346786 C26.5702952,5.54346786 26.6922921,5.33815424 26.7329576,5.05071516 C26.7329576,4.72221336 26.7736232,4.31158611 26.976951,3.69564524 C27.26161,2.87439074 27.830928,2.54588895 27.830928,2.54588895 C27.830928,2.54588895 27.546269,2.42270076 26.8142888,2.58695167 C26.3263018,2.71013984 25.838315,3.24395527 25.4316593,3.73670796 C25.0250036,4.22946066 24.9436725,5.05071516 24.9436725,5.05071516 C24.9436725,5.05071516 24.9030068,4.68115064 24.5776822,4.39371156 C24.2523577,4.10627249 24.0083643,3.94202159 23.6017086,3.73670796 C23.2357183,3.53139433 23.073056,3.07970437 23.073056,3.07970437 C23.073056,3.07970437 22.8290626,3.53139433 22.7883971,3.98308431 C22.7477315,4.43477428 22.7070659,4.68115064 23.1137216,5.29709151 C23.4797117,5.95409511 23.6830397,6.15940873 23.8863675,6.81641233 L23.8863675,6.81641233 Z" id="Logo-path" fill="#EDA72F"></path>
                        <path d="M29.8235411,7.80191772 C28.9288985,6.6110987 28.034256,8.0893568 28.034256,8.0893568 C28.034256,8.0893568 28.7662362,7.9251059 29.1322263,8.49998405 C29.6202133,9.2391131 28.8069018,10.2246185 28.8069018,10.2246185 C28.8069018,10.2246185 30.8401805,9.19805037 29.8235411,7.80191772 L29.8235411,7.80191772 Z" id="Logo-path" fill="#EDA72F"></path>
                        <path d="M27.7902624,11.0048103 C27.7902624,11.0048103 28.1969182,10.9637475 28.4815772,10.2246185 C28.7662362,9.52655218 28.6442395,9.03379948 28.6442395,9.03379948 C28.6442395,9.03379948 28.5629084,9.2391131 28.3189149,9.28017582 C28.0749215,9.32123854 27.7902624,9.28017582 27.3836067,9.32123854 C26.9362855,9.40336399 26.6109609,9.5676149 26.6109609,9.5676149 C26.6109609,9.5676149 26.4076331,9.03379948 26.7329576,8.49998405 C26.9362855,8.17148225 27.4242723,7.9251059 27.4242723,7.9251059 C27.4242723,7.9251059 27.1396133,7.63766683 26.5296298,7.67872955 C25.7976494,7.760855 25.5129904,7.760855 24.7403445,8.29467042 C23.9676987,8.82848585 23.561043,9.03379948 23.1543872,9.19805037 C22.7477315,9.36230127 22.4630725,9.36230127 22.0564168,9.32123854 C22.2190791,9.60867762 22.3004102,9.81399124 22.6257348,9.93717943 C22.9917249,10.1014303 23.1950528,10.1014303 23.8050364,10.2656812 C24.4150199,10.4299321 25.3909937,10.9226848 25.838315,12.1956293 C26.2856363,13.427511 25.8789806,14.9057691 25.8789806,14.9057691 C25.8789806,14.9057691 26.4076331,14.7415182 26.8142888,14.2898283 C27.2209445,13.8381383 27.1396133,13.2221975 27.1396133,13.2221975 C27.1396133,13.2221975 27.5869346,13.5096365 27.9122591,13.6328247 C28.2782494,13.7970756 28.3189149,14.4951419 28.3189149,14.4951419 C28.3189149,14.4951419 29.457551,13.5917619 29.0915608,12.1545665 C28.8882329,11.1690612 27.7902624,11.0048103 27.7902624,11.0048103 L27.7902624,11.0048103 Z" id="Logo-path" fill="#EDA72F"></path>
                        <path d="M25.4316593,14.6593928 C25.7163183,13.5096365 25.268997,11.3743748 24.2523577,11.4154375 C23.2357183,11.4565002 22.0564168,12.7705075 22.0564168,12.7705075 C22.0564168,12.7705075 24.3336888,12.3598802 25.4316593,14.6593928 L25.4316593,14.6593928 Z" id="Logo-path" fill="#EDA72F"></path>
                        <path d="M20.0231381,7.5966041 C19.9011414,7.43235321 18.6811742,8.13041953 18.6811742,8.13041953 C18.6811742,8.13041953 18.6405087,7.47341593 18.5185119,7.35022776 C18.0305251,7.39129048 17.664535,7.63766683 17.3392103,7.96616863 L17.3392103,7.96616863 C17.2172136,7.5966041 17.0138858,7.26810231 16.9325546,7.26810231 C16.7698923,7.26810231 16.037912,7.9251059 16.037912,7.9251059 C16.037912,7.9251059 15.5905907,7.14491413 15.3465973,7.1038514 C15.2652662,7.1038514 14.8586105,7.51447865 14.6552826,7.80191772 C14.4112891,7.55554138 13.9233023,7.18597685 13.7199744,7.22703957 C13.5979777,7.26810231 13.3539843,7.760855 13.2319876,8.13041953 C13.1099909,8.00723135 12.4186761,7.47341593 12.0933515,7.43235321 C11.9306893,7.67872955 11.9306893,8.33573316 11.9306893,8.33573316 C11.9306893,8.33573316 11.2393745,7.67872955 10.7513876,7.63766683 C10.6293909,7.80191772 10.8327188,8.70529767 11.3613712,9.15698765 C11.3613712,9.03379948 11.1173778,8.5821095 11.1580433,8.29467042 C11.4020368,8.17148225 11.9713548,8.54104678 11.9713548,8.54104678 C11.9713548,8.54104678 12.0933515,8.0893568 12.3373449,7.96616863 C12.7033351,8.00723135 13.3133187,8.4178586 13.3133187,8.4178586 C13.3133187,8.4178586 13.5979777,7.88404318 13.8419711,7.71979227 C14.2079613,7.63766683 14.7366138,8.0893568 14.7366138,8.0893568 C14.7366138,8.0893568 15.1026039,7.63766683 15.3872629,7.63766683 C15.6719219,7.760855 16.037912,8.21254497 16.037912,8.21254497 C16.037912,8.21254497 16.5665645,7.84298046 16.8918891,7.760855 C17.0952169,7.84298046 17.3392103,8.33573316 17.3392103,8.33573316 C17.3392103,8.33573316 18.0305251,7.88404318 18.3965152,7.9251059 C18.5185119,8.04829408 18.6405087,8.4178586 18.6405087,8.4178586 C18.6405087,8.4178586 19.372489,8.13041953 19.6978136,8.17148225 C19.657148,8.5821095 19.4538201,8.86954857 19.2911579,9.19805037 C19.5758169,8.86954857 20.226466,7.84298046 20.0231381,7.5966041 L20.0231381,7.5966041 Z" id="Logo-path" fill="#EDA72F"></path>
                        <path d="M15.2246006,9.2391131 C15.5092596,9.28017582 15.6719219,8.0893568 15.3465973,8.04829408 C15.0619383,8.00723135 14.9399416,9.19805037 15.2246006,9.2391131 L15.2246006,9.2391131 Z" id="Logo-path" fill="#EDA72F"></path>
                        <path d="M16.3225711,9.2391131 C16.6072301,9.36230127 17.0545513,8.2536077 16.7292268,8.13041953 C16.4445678,8.04829408 16.037912,9.11592492 16.3225711,9.2391131 L16.3225711,9.2391131 Z" id="Logo-path" fill="#EDA72F"></path>
                        <path d="M13.8419711,8.2536077 C13.8419711,8.66423495 14.0859645,9.28017582 14.2892924,9.2391131 C14.4519547,9.19805037 14.3706235,8.29467042 14.045299,8.0893568 C13.9233023,8.0893568 13.8419711,8.21254497 13.8419711,8.2536077 L13.8419711,8.2536077 Z" id="Logo-path" fill="#EDA72F"></path>
                        <path d="M17.4205415,9.28017582 C17.664535,9.44442673 18.3558497,8.45892133 18.0305251,8.29467042 C17.8271973,8.13041953 17.1358825,9.0748622 17.4205415,9.28017582 L17.4205415,9.28017582 Z" id="Logo-path" fill="#EDA72F"></path>
                        <path d="M12.4186761,8.33573316 C12.3780105,8.7463604 12.7846662,9.36230127 12.9879941,9.28017582 C13.1099909,9.2391131 12.9066629,8.37679588 12.5406728,8.2536077 C12.4593417,8.21254497 12.4186761,8.29467042 12.4186761,8.33573316 L12.4186761,8.33573316 Z" id="Logo-path" fill="#EDA72F"></path>
                        <path d="M18.4371808,9.19805037 C18.6405087,9.36230127 19.1284956,8.66423495 19.0064989,8.54104678 C18.8845021,8.4178586 18.2745185,9.0748622 18.4371808,9.19805037 L18.4371808,9.19805037 Z" id="Logo-path" fill="#EDA72F"></path>
                        <path d="M11.9306893,9.32123854 C12.0933515,9.2391131 11.8086925,8.5821095 11.6053646,8.66423495 C11.4833679,8.7463604 11.768027,9.40336399 11.9306893,9.32123854 L11.9306893,9.32123854 Z" id="Logo-path" fill="#EDA72F"></path>
                        <path d="M14.4519547,9.52655218 C14.3706235,9.52655218 14.329958,9.5676149 14.3706235,9.64974035 L14.6552826,10.3478067 C14.6959482,10.4299321 14.7772793,10.4709948 14.8586105,10.4709948 L16.037912,10.4709948 C16.1192431,10.4709948 16.1599088,10.4299321 16.1599088,10.3478067 L15.8752497,9.64974035 C15.8345841,9.60867762 15.753253,9.52655218 15.6719219,9.52655218 L14.4519547,9.52655218 L14.4519547,9.52655218 Z" id="Logo-path" fill="#004895"></path>
                        <path d="M16.3632366,9.69080307 C16.3225711,9.69080307 16.2819055,9.7318658 16.2819055,9.77292852 L16.4852334,10.3067439 C16.4852334,10.3478067 16.5665645,10.3888694 16.6072301,10.3888694 L17.461207,10.3888694 C17.5018726,10.3888694 17.5425383,10.3478067 17.5425383,10.3067439 L17.3392103,9.77292852 C17.3392103,9.7318658 17.2578792,9.69080307 17.2172136,9.69080307 L16.3632366,9.69080307 L16.3632366,9.69080307 Z" id="Logo-path" fill="#004895"></path>
                        <path d="M17.7458661,9.7318658 C17.7052005,9.7318658 17.664535,9.77292852 17.7052005,9.77292852 L17.8678628,10.142493 C17.8678628,10.1835558 17.9085284,10.1835558 17.949194,10.1835558 L18.5591775,10.1835558 C18.5998431,10.1835558 18.6405087,10.142493 18.5998431,10.142493 L18.4371808,9.77292852 C18.4371808,9.7318658 18.3965152,9.7318658 18.3558497,9.7318658 L17.7458661,9.7318658 L17.7458661,9.7318658 Z" id="Logo-path" fill="#004895"></path>
                        <path d="M18.8438365,9.77292852 C18.8031709,9.77292852 18.8031709,9.77292852 18.8438365,9.77292852 L18.9251676,10.0603676 C18.9251676,10.1014303 18.9658332,10.1014303 19.0064989,10.1014303 L19.4131546,10.1014303 C19.4538201,10.1014303 19.4538201,10.1014303 19.4538201,10.0603676 L19.3318234,9.81399124 C19.3318234,9.77292852 19.2911579,9.77292852 19.2504923,9.77292852 L18.8438365,9.77292852 L18.8438365,9.77292852 Z" id="Logo-path" fill="#004895"></path>
                        <path d="M14.1672957,10.3478067 C14.2079613,10.3478067 14.2486268,10.3067439 14.2486268,10.2656812 L14.045299,9.7318658 C14.045299,9.69080307 13.9639678,9.64974035 13.9233023,9.64974035 L13.0693252,9.64974035 C13.0286596,9.64974035 12.9879941,9.69080307 12.9879941,9.7318658 L13.191322,10.2656812 C13.191322,10.3067439 13.2726532,10.3478067 13.3133187,10.3478067 L14.1672957,10.3478067 L14.1672957,10.3478067 Z" id="Logo-path" fill="#004895"></path>
                        <path d="M12.7440006,10.3067439 C12.7846662,10.3067439 12.7846662,10.2656812 12.7846662,10.2656812 L12.6220039,9.89611669 C12.6220039,9.85505397 12.5813384,9.85505397 12.5406728,9.85505397 L11.9306893,9.85505397 C11.8900237,9.85505397 11.8493581,9.89611669 11.8900237,9.89611669 L12.052686,10.2656812 C12.052686,10.3067439 12.0933515,10.3067439 12.1340171,10.3067439 L12.7440006,10.3067439 L12.7440006,10.3067439 Z" id="Logo-path" fill="#004895"></path>
                        <path d="M11.6866958,10.2656812 C11.7273614,10.2656812 11.7273614,10.2246185 11.6866958,10.2656812 L11.6053646,9.97824215 C11.6053646,9.93717943 11.5646991,9.93717943 11.5240335,9.93717943 L11.1173778,9.93717943 C11.0767122,9.93717943 11.0767122,9.93717943 11.0767122,9.97824215 L11.1987089,10.2246185 C11.1987089,10.2656812 11.2393745,10.2656812 11.2800401,10.2656812 L11.6866958,10.2656812 L11.6866958,10.2656812 Z" id="Logo-path" fill="#004895"></path>
                    </g>
                </g>
            </g>
        </g>
    </g>
</svg>