<?xml version="1.0" encoding="UTF-8"?>
<svg width="174px" height="29px" viewBox="0 0 174 29" version="1.1" xmlns="http://www.w3.org/2000/svg" xmlns:xlink="http://www.w3.org/1999/xlink">
    <!-- Generator: Sketch 50.2 (55047) - http://www.bohemiancoding.com/sketch -->
    <title>logo-geckoboard copy 3</title>
    <desc>Created with Sketch.</desc>
    <defs></defs>
    <g id="Page-1" stroke="none" stroke-width="1" fill="none" fill-rule="evenodd">
        <g id="logo-geckoboard-copy-3">
            <rect id="Square" fill="#8DC63F" x="0" y="0" width="29" height="29" rx="2"></rect>
            <path d="M15.698324,7 C17.8044693,7 19.3296089,7.72115385 20.7821229,8.94711538 C20.9273743,9.09134615 21,9.37980769 20.7821229,9.52403846 C20.5642458,9.74038462 20.3463687,9.95673077 20.2011173,10.1009615 C19.9832402,10.3173077 19.9106145,10.3173077 19.6201117,10.1009615 C18.5307263,9.16346154 17.0055866,8.44230769 15.6256983,8.44230769 C12.2849162,8.44230769 9.74301676,11.1826923 9.74301676,14.4278846 C9.74301676,17.6730769 12.2849162,20.4855769 15.6256983,20.4855769 C17.9497207,20.4855769 19.4022346,19.6201923 19.4022346,19.6201923 L19.4022346,16.6634615 L17.0055866,16.6634615 C16.7877095,16.6634615 16.5698324,16.5192308 16.5698324,16.3028846 L16.5698324,15.5096154 C16.5698324,15.2932692 16.7150838,15.0769231 17.0055866,15.0769231 L20.6368715,15.0769231 C20.8547486,15.0769231 21,15.2932692 21,15.5096154 L21,20.2692308 C21,20.3413462 20.9273743,20.5576923 20.8547486,20.6298077 C20.8547486,20.6298077 18.6759777,22 15.6256983,22 C11.4134078,22 8,18.6826923 8,14.5 C8.0726257,10.3894231 11.4860335,7 15.698324,7 Z" id="Shape" fill="#3D4351" fill-rule="nonzero"></path>
            <path d="M47.475,9 C48.975,9 50.175,9.56756757 51.225,10.5405405 C51.375,10.7027027 51.375,10.8648649 51.225,11.027027 L50.55,11.8378378 C50.4,12 50.325,12 50.175,11.8378378 C49.425,11.1891892 48.525,10.7027027 47.55,10.7027027 C45.375,10.7027027 43.725,12.6486486 43.725,15 C43.725,17.2702703 45.375,19.2972973 47.55,19.2972973 C48.825,19.2972973 49.725,18.8108108 49.875,18.7297297 L49.875,16.8648649 L48.375,16.8648649 C48.225,16.8648649 48.075,16.7027027 48.075,16.5405405 L48.075,15.5675676 C48.075,15.4054054 48.225,15.2432432 48.375,15.2432432 L51.15,15.2432432 C51.3,15.2432432 51.45,15.4054054 51.45,15.5675676 L51.45,19.5405405 C51.45,19.6216216 51.375,19.7837838 51.3,19.7837838 C51.3,19.7837838 49.725,20.8378378 47.475,20.8378378 C44.4,20.8378378 42,18.2432432 42,14.9189189 C42,11.5945946 44.4,9 47.475,9 Z M56.85,9.48648649 C56.85,9.32432432 57,9.16216216 57.15,9.16216216 L63.3,9.16216216 C63.45,9.16216216 63.6,9.32432432 63.6,9.48648649 L63.6,10.3783784 C63.6,10.5405405 63.45,10.7027027 63.3,10.7027027 L58.5,10.7027027 L58.5,14.1081081 L62.55,14.1081081 C62.7,14.1081081 62.85,14.2702703 62.85,14.4324324 L62.85,15.3243243 C62.85,15.4864865 62.7,15.6486486 62.55,15.6486486 L58.5,15.6486486 L58.5,19.2162162 L63.3,19.2162162 C63.45,19.2162162 63.6,19.3783784 63.6,19.5405405 L63.6,20.4324324 C63.6,20.5945946 63.45,20.7567568 63.3,20.7567568 L57.15,20.7567568 C57,20.7567568 56.85,20.5945946 56.85,20.4324324 C56.85,20.4324324 56.85,9.48648649 56.85,9.48648649 Z M73.575,9 C75.15,9 76.2,9.56756757 77.25,10.5405405 C77.4,10.7027027 77.4,10.8648649 77.25,11.027027 L76.575,11.7567568 C76.5,11.9189189 76.35,11.9189189 76.2,11.7567568 C75.45,11.1081081 74.475,10.6216216 73.575,10.6216216 C71.4,10.6216216 69.75,12.5675676 69.75,14.9189189 C69.75,17.2702703 71.4,19.2162162 73.575,19.2162162 C74.7,19.2162162 75.45,18.7297297 76.2,18.1621622 C76.35,18.0810811 76.5,18.0810811 76.575,18.1621622 L77.25,18.8918919 C77.4,18.972973 77.325,19.2162162 77.25,19.3783784 C76.2,20.4324324 74.925,21 73.5,21 C70.425,21 67.95,18.4054054 67.95,15.0810811 C67.95,11.7567568 70.575,9 73.575,9 Z M82.575,9.56756757 C82.575,9.32432432 82.725,9.16216216 82.95,9.16216216 L83.85,9.16216216 C84.075,9.16216216 84.225,9.32432432 84.225,9.56756757 L84.225,14.1081081 L88.575,9.32432432 C88.65,9.24324324 88.725,9.16216216 88.875,9.16216216 L90,9.16216216 C90.3,9.16216216 90.45,9.48648649 90.225,9.72972973 L85.8,14.5945946 L90.45,20.1891892 C90.6,20.3513514 90.525,20.7567568 90.15,20.7567568 L88.95,20.7567568 C88.8,20.7567568 88.725,20.6756757 88.65,20.6756757 L84.225,15.2432432 L84.225,20.3513514 C84.225,20.5945946 84.075,20.7567568 83.85,20.7567568 L82.95,20.7567568 C82.725,20.7567568 82.575,20.5945946 82.575,20.3513514 L82.575,9.56756757 Z M99.675,9 C102.75,9 105.15,11.6756757 105.15,15 C105.15,18.3243243 102.675,20.9189189 99.675,20.9189189 C96.675,20.9189189 94.2,18.3243243 94.2,15 C94.2,11.6756757 96.6,9 99.675,9 Z M99.675,19.2162162 C101.85,19.2162162 103.65,17.2702703 103.65,14.9189189 C103.65,12.5675676 101.85,10.6216216 99.675,10.6216216 C97.5,10.6216216 95.7,12.5675676 95.7,14.9189189 C95.7,17.3513514 97.5,19.2162162 99.675,19.2162162 Z M110.4,9.48648649 C110.4,9.32432432 110.55,9.16216216 110.7,9.16216216 L114.15,9.16216216 C116.025,9.16216216 117.3,10.4594595 117.3,12.2432432 C117.3,13.5405405 116.4,14.4324324 115.725,14.8378378 C116.55,15.1621622 117.675,15.972973 117.675,17.5135135 C117.675,19.3783784 116.25,20.6756757 114.375,20.6756757 L110.7,20.6756757 C110.55,20.6756757 110.4,20.5135135 110.4,20.3513514 L110.4,9.48648649 Z M114.3,19.2162162 C115.2,19.2162162 115.95,18.4054054 115.95,17.4324324 C115.95,16.4594595 115.05,15.7297297 114.075,15.7297297 L111.975,15.7297297 L111.975,19.2972973 L114.3,19.2162162 Z M114,14.1891892 C114.975,14.1891892 115.575,13.3783784 115.575,12.4054054 C115.575,11.4324324 114.975,10.7027027 114,10.7027027 L111.9,10.7027027 L111.9,14.1891892 C111.975,14.1891892 114,14.1891892 114,14.1891892 Z M127.65,9 C130.725,9 133.125,11.6756757 133.125,15 C133.125,18.3243243 130.65,20.9189189 127.65,20.9189189 C124.65,20.9189189 122.175,18.3243243 122.175,15 C122.175,11.6756757 124.65,9 127.65,9 Z M127.65,19.2162162 C129.825,19.2162162 131.625,17.2702703 131.625,14.9189189 C131.625,12.5675676 129.825,10.6216216 127.65,10.6216216 C125.475,10.6216216 123.675,12.5675676 123.675,14.9189189 C123.75,17.3513514 125.55,19.2162162 127.65,19.2162162 Z M136.95,20.2702703 L141.675,9.16216216 C141.75,9.08108108 141.825,9 141.9,9 L142.05,9 C142.125,9 142.275,9.08108108 142.275,9.16216216 L146.925,20.2702703 C147,20.5135135 146.925,20.6756757 146.7,20.6756757 L145.725,20.6756757 C145.575,20.6756757 145.425,20.5945946 145.35,20.4324324 L144.375,18.1621622 L139.35,18.1621622 L138.45,20.4324324 C138.375,20.5135135 138.3,20.6756757 138.075,20.6756757 L137.1,20.6756757 C136.95,20.7567568 136.875,20.5135135 136.95,20.2702703 Z M143.85,16.7837838 L141.975,12.2432432 L141.9,12.2432432 L140.025,16.7837838 L143.85,16.7837838 Z M151.575,9.48648649 C151.575,9.32432432 151.725,9.16216216 151.875,9.16216216 L156,9.16216216 C157.8,9.16216216 159.3,10.7027027 159.3,12.7297297 C159.3,14.2702703 158.4,15.4864865 157.05,16.0540541 L159.15,20.2702703 C159.225,20.5135135 159.15,20.7567568 158.925,20.7567568 L157.725,20.7567568 C157.575,20.7567568 157.5,20.6756757 157.5,20.5945946 L155.475,16.2162162 L153.15,16.2162162 L153.15,20.4324324 C153.15,20.5945946 153,20.7567568 152.85,20.7567568 L151.875,20.7567568 C151.725,20.7567568 151.575,20.5945946 151.575,20.4324324 C151.575,20.4324324 151.575,9.48648649 151.575,9.48648649 Z M155.925,14.7567568 C156.9,14.7567568 157.8,13.8648649 157.8,12.7297297 C157.8,11.6756757 156.9,10.7837838 155.925,10.7837838 L153.225,10.7837838 L153.225,14.8378378 L155.925,14.8378378 L155.925,14.7567568 Z M164.775,9.48648649 C164.775,9.32432432 164.925,9.16216216 165.075,9.16216216 L168.6,9.16216216 C171.525,9.16216216 174,11.7567568 174,14.9189189 C174,18.1621622 171.6,20.7567568 168.6,20.7567568 L165.075,20.7567568 C164.925,20.7567568 164.775,20.5945946 164.775,20.4324324 L164.775,9.48648649 Z M168.375,19.1351351 C170.625,19.1351351 172.275,17.3513514 172.275,14.9189189 C172.275,12.4864865 170.625,10.7027027 168.375,10.7027027 L166.35,10.7027027 L166.35,19.1351351 L168.375,19.1351351 Z" id="Shape" fill="#3D4351" fill-rule="nonzero"></path>
        </g>
    </g>
</svg>