<?xml version="1.0" encoding="UTF-8"?>
<svg width="103px" height="30px" viewBox="0 0 103 30" version="1.1" xmlns="http://www.w3.org/2000/svg" xmlns:xlink="http://www.w3.org/1999/xlink">
    <!-- Generator: Sketch 42 (36781) - http://www.bohemiancoding.com/sketch -->
    <title>Mitsubishi_Electric_logo Copy 5</title>
    <desc>Created with Sketch.</desc>
    <defs></defs>
    <g id="Page-1" stroke="none" stroke-width="1" fill="none" fill-rule="evenodd">
        <g id="Adelle-Copy-6" transform="translate(-774.000000, -992.000000)">
            <g id="Mitsubishi_Electric_logo-Copy-5" transform="translate(774.000000, 992.000000)">
                <g id="layer1" transform="translate(0.046974, 0.080251)">
                    <g id="g25441" transform="translate(0.011328, 0.011103)">
                        <g id="Group-2" fill="#F01716">
                            <polyline id="path274" points="11.4805239 29.1075989 0.0838727949 29.1075989 5.76708553 19.4221836 17.1637497 19.4221836"></polyline>
                            <polyline id="path276" points="22.8469624 29.1075989 34.2136627 29.1075989 28.5304499 19.4221836 17.1637497 19.4221836"></polyline>
                            <polyline id="path278" points="22.8469624 9.73383596 17.1637497 0.0484077215 11.4805239 9.73383596 17.1637497 19.4221836"></polyline>
                        </g>
                        <polyline id="path280" fill="#000000" points="39.3256768 24.9815995 43.8964301 24.9815995 43.8964301 23.3620114 39.3256768 23.3620114 39.3256768 21.3610646 44.4676287 21.3610646 44.4676287 19.7353805 37.4010513 19.7353805 37.4010513 29.1075989 44.5879685 29.1075989 44.5879685 27.4819149 39.3256768 27.4819149"></polyline>
                        <polyline id="path282" fill="#000000" points="39.205337 11.2086253 41.2200767 18.1749388 43.0845388 18.1749388 45.0992785 11.2086253 45.0992785 18.1749388 46.9033025 18.1749388 46.9033025 8.8056269 44.1368349 8.8056269 42.1523077 15.3818364 40.1675189 8.8056269 37.4010513 8.8056269 37.4010513 18.1749388 39.205337 18.1749388"></polyline>
                        <polygon id="path284" fill="#000000" points="81.1537069 18.1749388 83.0780576 18.1749388 83.0780576 8.8056269 81.1537069 8.8056269"></polygon>
                        <polygon id="path286" fill="#000000" points="82.717313 29.1075989 84.6416637 29.1075989 84.6416637 19.7353805 82.717313 19.7353805"></polygon>
                        <polygon id="path288" fill="#000000" points="100.158196 18.1749388 102.08256 18.1749388 102.08256 8.8056269 100.158196 8.8056269"></polygon>
                        <polygon id="path290" fill="#000000" points="47.6552921 18.1749388 49.5796428 18.1749388 49.5796428 8.8056269 47.6552921 8.8056269"></polygon>
                        <polyline id="path292" fill="#000000" points="97.4818559 12.4587766 93.6628174 12.4587766 93.6628174 8.8056269 91.7684175 8.8056269 91.7684175 18.1749388 93.6628174 18.1749388 93.6628174 14.081284 97.4818559 14.081284 97.4818559 18.1749388 99.3463049 18.1749388 99.3463049 8.8056269 97.4818559 8.8056269"></polyline>
                        <polyline id="path294" fill="#000000" points="52.4362246 18.1749388 54.3908009 18.1749388 54.3908009 10.4254851 56.7063966 10.4254851 56.7063966 8.8056269 50.0909528 8.8056269 50.0909528 10.4254851 52.4362246 10.4254851"></polyline>
                        <polyline id="path296" fill="#000000" points="69.9372842 29.1075989 71.8918605 29.1075989 71.8918605 21.3610646 74.2374071 21.3610646 74.2374071 19.7353805 67.6219633 19.7353805 67.6219633 21.3610646 69.9372842 21.3610646"></polyline>
                        <path d="M68.6443085,18.4348281 C71.0799693,18.4348281 72.4331214,17.3414103 72.4331214,15.245783 L72.4331214,8.8056269 L70.5087707,8.8056269 L70.5087707,15.42029 C70.5087707,16.2270296 69.8169444,16.8979858 68.6443085,16.8979858 C67.1708166,16.8979858 66.7499087,16.1029109 66.7499087,15.42029 L66.7499087,8.8056269 L64.8854465,8.8056269 L64.8854465,15.245783 C64.8854465,17.5010632 66.298762,18.4348281 68.6443085,18.4348281" id="path298" fill="#000000"></path>
                        <polyline id="path300" fill="#000000" points="54.1201705 24.9815995 58.6609729 24.9815995 58.6609729 23.3620114 54.1201705 23.3620114 54.1201705 21.3610646 59.2321846 21.3610646 59.2321846 19.7353805 52.1958198 19.7353805 52.1958198 29.1075989 59.3827369 29.1075989 59.3827369 27.4819149 54.1201705 27.4819149"></polyline>
                        <path d="M77.4247957,10.292351 C77.9360927,10.292351 78.53753,10.7710396 78.53753,11.4006229 C78.53753,11.9623273 78.1166089,12.5828953 77.3047176,12.5828953 L75.0193475,12.5828953 L75.0193475,10.292351 L77.4247957,10.292351 L77.4247957,10.292351 Z M77.2745051,16.7561064 L75.0193475,16.7561064 L75.0193475,14.0399111 L77.2445543,14.0399111 C78.0564325,14.0399111 78.7177714,14.492351 78.7177714,15.4025165 C78.7177714,16.1710726 78.1166089,16.7561064 77.2745051,16.7561064 L77.2745051,16.7561064 Z M75.0795109,18.1749388 L77.8459785,18.1749388 C79.6499894,18.1749388 80.7025603,17.1197045 80.7025603,15.6419958 C80.7025603,14.4509781 79.8305056,13.4280885 78.8683237,13.1917986 C79.7101658,12.9849469 80.3717665,12.1426603 80.3717665,11.108106 C80.3717665,9.72773998 79.3494212,8.8056269 77.4247957,8.8056269 L73.1249346,8.8056269 L73.1249346,18.1749388 L75.0795109,18.1749388 Z" id="path302" fill="#000000"></path>
                        <path d="M76.643117,23.896927 L76.643117,21.3462105 L78.958451,21.3462105 C79.7403784,21.3462105 80.2514267,21.8869648 80.2514267,22.6260828 C80.2514267,23.1490508 79.8005548,23.896927 79.0186144,23.896927 L76.643117,23.896927 L76.643117,23.896927 Z M80.4618807,24.6092561 C81.2737719,24.3668574 82.1458266,23.6455129 82.1458266,22.3452306 C82.1458266,20.6781736 81.0031415,19.7237158 79.0485652,19.7237158 L74.6885407,19.7237158 L74.6885407,29.0927448 L76.643117,29.0927448 L76.643117,25.4011416 L78.2668995,25.4011416 C79.259294,25.4011416 79.8005548,25.9066191 79.9508454,26.5746688 C80.1310869,27.3105973 80.1011361,28.4069345 80.2816392,29.0927448 L82.2362155,29.0927448 C82.0557124,28.3745898 81.9353726,27.3991691 81.8751961,26.630883 C81.8150328,25.3626881 81.1234813,24.8545614 80.4618807,24.6092561 L80.4618807,24.6092561 Z" id="path304" fill="#000000"></path>
                        <polyline id="path306" fill="#000000" points="47.1439821 19.7353805 45.2193566 19.7353805 45.2193566 29.1075989 51.6243333 29.1075989 51.6243333 27.4819149 47.1439821 27.4819149"></polyline>
                        <path d="M59.9539486,14.2144181 C61.4876039,14.4774969 62.3596585,14.7612556 62.3596585,15.6685146 C62.3596585,16.2803373 61.7582343,16.8656411 60.4652586,16.8656411 C59.1720082,16.8656411 58.5106823,16.1503926 58.5106823,15.2961712 L56.676171,15.2961712 C56.676171,16.9276941 57.7586927,18.4141481 60.5553728,18.4141481 C63.2015006,18.4141481 64.3744113,17.0282005 64.3744113,15.4468088 C64.3744113,13.9691 63.3820169,13.0321457 61.6378945,12.6892405 C59.9239978,12.3641089 58.7813127,12.2962172 58.7813127,11.2409828 C58.7813127,10.5169762 59.4426386,10.0854993 60.4952095,10.0854993 C61.5777312,10.0854993 62.2093679,10.620402 62.2093679,11.5189028 L64.0735553,11.5189028 C64.0735553,10.041207 62.9308702,8.51894876 60.4050822,8.51894876 C58.6609729,8.51894876 56.8566873,9.50921075 56.8566873,11.3621693 C56.8566873,12.9167851 57.9993723,13.8805283 59.9539486,14.2144181" id="path308" fill="#000000"></path>
                        <path d="M86.8069688,14.2144181 C88.3705749,14.4774969 89.2426295,14.7612556 89.2426295,15.6685146 C89.2426295,16.2803373 88.6109797,16.8656411 87.3482297,16.8656411 C86.0549792,16.8656411 85.3936533,16.1503926 85.3936533,15.2961712 L83.559142,15.2961712 C83.559142,16.9276941 84.6117129,18.4141481 87.4383439,18.4141481 C90.0844717,18.4141481 91.2573823,17.0282005 91.2573823,15.4468088 C91.2573823,13.9691 90.2649748,13.0321457 88.4909147,12.6892405 C86.8069688,12.3641089 85.6340582,12.2962172 85.6340582,11.2409828 C85.6340582,10.5169762 86.3256096,10.0854993 87.3482297,10.0854993 C88.4606891,10.0854993 89.0920772,10.620402 89.0920772,11.5189028 L90.9565263,11.5189028 C90.9565263,10.041207 89.8138412,8.51894876 87.2880532,8.51894876 C85.543944,8.51894876 83.7097074,9.50921075 83.7097074,11.3621693 C83.7097074,12.9167851 84.8823433,13.8805283 86.8069688,14.2144181" id="path310" fill="#000000"></path>
                        <path d="M63.7128106,27.6593413 C62.1791554,27.6593413 61.2771499,26.163859 61.2771499,24.3814415 C61.2771499,22.599294 62.1492045,21.1038246 63.7128106,21.1038246 C64.9156721,21.1038246 65.5170963,21.8219925 65.7575012,22.7056392 L67.7722539,22.7056392 C67.4414471,20.8704413 65.9981807,19.5107553 63.682585,19.5107553 C60.7658399,19.5107553 59.2623972,21.7037125 59.2623972,24.405311 C59.2623972,27.1154103 60.8260033,29.3086247 63.682585,29.3086247 C65.9679682,29.3086247 67.5016235,28.0022464 67.7722539,25.9983803 L65.7575012,25.9983803 C65.5170963,26.9411734 64.8854465,27.6593413 63.7128106,27.6593413" id="path312" fill="#000000"></path>
                        <path d="M89.5734364,27.6593413 C88.0095555,27.6593413 87.1075501,26.163859 87.1075501,24.3814415 C87.1075501,22.599294 87.9796047,21.1038246 89.5734364,21.1038246 C90.7460723,21.1038246 91.3474965,21.8219925 91.6181269,22.7056392 L93.6026541,22.7056392 C93.272122,20.8704413 91.828594,19.5107553 89.51326,19.5107553 C86.5962401,19.5107553 85.1230229,21.7037125 85.1230229,24.405311 C85.1230229,27.1154103 86.6564034,29.3086247 89.51326,29.3086247 C91.7986432,29.3086247 93.3320237,28.0022464 93.6328797,25.9983803 L91.6181269,25.9983803 C91.3474965,26.9411734 90.7161215,27.6593413 89.5734364,27.6593413" id="path314" fill="#000000"></path>
                    </g>
                </g>
            </g>
        </g>
    </g>
</svg>