<?xml version="1.0" encoding="UTF-8"?>
<svg width="91px" height="34px" viewBox="0 0 91 34" version="1.1" xmlns="http://www.w3.org/2000/svg" xmlns:xlink="http://www.w3.org/1999/xlink">
    <!-- Generator: Sketch 42 (36781) - http://www.bohemiancoding.com/sketch -->
    <title>Group 10 Copy</title>
    <desc>Created with Sketch.</desc>
    <defs></defs>
    <g id="Page-1" stroke="none" stroke-width="1" fill="none" fill-rule="evenodd">
        <g id="Adelle-Copy-6" transform="translate(-363.000000, -1539.000000)" fill="#000000">
            <g id="Group-10-Copy" transform="translate(363.000000, 1539.000000)">
                <g id="Group-11">
                    <path d="M44.16265,14.5536635 C43.292025,13.1034833 43.9017542,12.3988223 45.7898583,11.1637322 L45.7916083,11.1608137 C45.7968583,11.1571657 45.8013792,11.1554146 45.8066292,11.1519124 C45.8118792,11.1482644 45.8158167,11.1453459 45.8213583,11.1411142 L45.8247125,11.1415519 C47.728275,9.93185236 48.6226708,9.66787811 49.5824,11.0608567 C50.5484,12.4620069 53.1636292,16.7217837 53.853275,17.794024 C54.5442333,18.8664103 54.7908375,20.0358352 54.387025,21.3711742 C53.9826292,22.7068052 54.4431708,23.4219725 55.3063583,24.7628567 C55.3317333,24.8029854 58.9010042,30.4484446 58.9010042,30.4484446 L57.8074,31.0864189 C57.8074,31.0864189 54.2897542,25.4737923 54.2642333,25.4342472 C53.4011917,24.0933631 52.9410875,23.3787794 51.5575667,23.194333 C50.17565,23.0106163 49.2135875,22.3017236 48.5237958,21.2296292 C47.8328375,20.1568052 45.0383792,16.0131828 44.16265,14.5536635" id="Fill-34"></path>
                    <path d="M33.4128521,30.9749485 C32.8745812,30.6334893 32.2988312,30.3382876 31.8088312,29.9380215 C31.3245187,29.5418412 30.9263937,29.0395751 30.5313312,28.6258841 C29.9240812,29.1907511 29.3878521,29.8122361 28.7383104,30.2736438 C26.3819354,31.9475236 23.1607687,31.5352918 21.2389771,29.3690687 C20.4561437,28.4862361 19.9670187,28.3531545 18.8490604,28.7680129 C17.1054771,29.4154721 15.3702062,30.0864249 13.6239979,30.7258584 C13.4434562,30.7922532 13.1851854,30.7759099 13.0071229,30.6976953 C11.9852687,30.2492747 11.2234354,29.483618 10.5412271,28.5262189 C10.3477062,28.7483133 10.1811646,28.9326137 10.0211854,29.1223133 C8.77591458,30.5977382 7.21010208,31.3559528 5.25899792,31.2880987 C4.87851875,31.274382 4.73458125,31.1754464 4.81012292,30.7668627 C4.96018542,29.9580129 5.48926875,29.4979185 6.19626875,29.228691 C9.88235208,27.8253519 13.5601229,26.397206 17.2699771,25.0576352 C20.9124562,23.7418498 24.6074354,22.5692146 28.2424771,21.2337296 C29.5244979,20.7625451 30.6991854,19.9973262 31.9215604,19.3635837 C32.3039354,19.1651288 32.7010396,18.9873948 33.0571646,18.7485193 C33.9575396,18.1436695 34.8784771,18.0736266 35.9080604,18.4178584 C38.4900396,19.2806996 41.0936021,20.0796266 43.6825812,20.9217468 C44.8738937,21.3091717 45.4045812,22.3828712 45.0226437,23.5502532 C44.6815396,24.593309 43.5328104,25.120382 42.4049354,24.7564506 C39.9943104,23.9786824 37.5841229,23.1996009 35.1678104,22.4387597 C35.0003937,22.3863734 34.7606437,22.4368627 34.5964354,22.521206 C33.6940187,22.9866996 32.8136229,23.4969914 31.9050812,23.9512489 C31.5400604,24.1336524 31.5006854,24.3396953 31.6147271,24.6928283 C32.2483729,26.6613262 32.8665604,28.6350773 33.4892687,30.607515 C33.5093937,30.6714292 33.5210604,30.73797 33.5368104,30.8033433 C33.4955396,30.8602532 33.4539771,30.9177468 33.4128521,30.9749485" id="Fill-35"></path>
                    <path d="M15.3616313,18.9300618 C15.3463188,16.2274266 17.3809854,14.3553837 19.9063813,14.3278043 C22.4432979,14.299933 24.5654646,16.1527142 24.5721729,18.9105082 C24.5780063,21.4956755 22.5291938,23.5470575 19.9448813,23.5507056 C17.4002354,23.5539159 15.3673188,21.5050146 15.3616313,18.9300618" id="Fill-36"></path>
                    <path d="M90.3904604,30.7147391 C90.1052104,30.3970652 89.9099396,30.4833056 89.6413146,30.7704815 C87.2101271,33.3693657 83.4406271,33.295091 81.0801687,30.6163871 C80.5420437,30.0057004 80.3368562,30.004533 79.8169604,30.6105502 C77.3491687,33.4887305 72.9919604,33.3124558 70.7748562,30.2458893 C70.6974187,30.1390738 70.6096271,30.0398464 70.4818771,29.8816661 C70.2953562,30.0948592 70.1350854,30.265297 69.9886687,30.4471167 C67.6556271,33.3330309 63.5956271,33.4188335 61.1505854,30.6321468 C60.5843146,29.9870223 60.3759187,29.9865845 59.8058562,30.6308335 C57.3350021,33.4243785 53.3232729,33.340473 50.9698146,30.4463871 C50.8217937,30.2642755 50.6660437,30.0890223 50.4681479,29.8565674 C49.3041062,31.4675545 47.7191896,32.8093142 44.9929812,32.7267219 C43.5735854,32.6841124 42.1944396,31.9242927 41.1088562,30.6919751 C40.5708771,30.0809966 40.3652521,30.0804129 39.8456479,30.68643 C37.3777104,33.5641725 33.0207937,33.3877519 30.8032521,30.3211854 C30.7262521,30.214224 30.6386062,30.1152884 30.5104187,29.9571082 C30.3240437,30.1705931 30.1639187,30.340885 30.0172104,30.5227047 C27.6844604,33.408327 23.6243146,33.4944215 21.1792729,30.7077348 C20.6128562,30.0621725 20.4047521,30.0620266 19.8345437,30.7061296 C17.3636896,33.4999665 13.3518146,33.415915 10.9986479,30.5218292 C10.8507729,30.3400094 10.6948771,30.1643185 10.4963979,29.9318635 C9.33250208,31.5429966 7.88160625,32.5974343 5.89127292,32.7230738 C3.87877292,32.8498807 2.29123125,32.0003185 0.97435625,30.4868077 C0.673647917,30.724224 0.408960417,30.9333313 0.111022917,31.1688506 C1.11741875,32.4642069 2.36677292,33.3137691 3.90589792,33.6731768 C6.44296042,34.2657691 8.63425208,33.5392197 10.5214812,31.7326961 C11.9156479,33.1246532 13.5613771,33.8793657 15.4976062,33.8732369 C17.4510437,33.8669622 19.1113562,33.1053914 20.4852521,31.7021983 C20.5841271,31.7772026 20.6558771,31.8221468 20.7163979,31.8786189 C23.5182937,34.4880094 27.3052937,34.5571768 30.1580854,32.0372369 C30.4055646,31.8186446 30.5403146,31.7500609 30.8286271,32.0141811 C32.4186479,33.4732627 34.2947937,34.0934343 36.4442312,33.7909365 C37.8655229,33.5910223 39.1070021,32.9895288 40.1539396,32.0045502 C40.3796896,31.7922326 40.5217312,31.7262755 40.7862729,31.984121 C41.9688354,33.1355974 43.4054396,33.7700695 45.0483979,33.8561639 C47.1402312,33.9647305 48.8781271,33.2504386 50.3379187,31.7983614 C50.3895437,31.7510824 50.4417521,31.7061382 50.4926479,31.6572541 C51.8871062,33.0490652 53.5328354,33.8040695 55.4687729,33.7976489 C57.4220646,33.7913742 59.0825229,33.0298034 60.4565646,31.6266103 C60.5557312,31.7016146 60.6270437,31.7468506 60.6875646,31.8031768 C63.4896062,34.4127133 67.2768979,34.4818807 70.1292521,31.9619408 C70.3768771,31.7430567 70.5119187,31.674473 70.8000854,31.938885 C72.3898146,33.3979665 74.2661062,34.0175545 76.4152521,33.7156403 C77.8368354,33.5158721 79.0787521,32.9140867 80.1252521,31.9289622 C80.3507104,31.7169365 80.4930437,31.6509794 80.7577312,31.908679 C81.9400021,33.0603013 83.3767521,33.6947734 85.0194187,33.7802841 C87.3871687,33.9037348 89.3022521,32.973915 90.8728771,31.1117948 C90.6757104,30.9520094 90.5129604,30.8513227 90.3904604,30.7147391" id="Fill-37"></path>
                    <path d="M69.9886104,29.2036506 C70.1351729,29.0219768 70.2954438,28.8513931 70.4819646,28.6382 C70.6097146,28.7963803 70.6973604,28.8956077 70.7749438,29.0024232 C72.9920479,32.0689897 77.3492563,32.2454103 79.8170479,29.3670841 C80.3367979,28.761067 80.5419854,28.7622343 81.0802563,29.373067 C81.8483604,30.2448094 82.7663813,30.8390069 83.7385063,31.1565348 C85.0310271,14.1511356 79.5371938,0.0544145923 76.1986313,0.0647751073 C73.0467354,0.0744060086 64.1707354,13.6567494 61.6694021,29.9142944 C64.1382146,32.149685 67.8137979,31.8940283 69.9886104,29.2036506" id="Fill-38"></path>
                </g>
            </g>
        </g>
    </g>
</svg>