<svg width="930px" height="252px" viewBox="0 0 930 252" xmlns="http://www.w3.org/2000/svg"><title>Fill 9</title><path d="M210.36 223.13c4.63 2.32 9.53 4.18 14.65 5.5l-.1.5h-10.3v8.06h-4.2v-14.1zM53.72 143.56l21.82 48.8H74.5L44.55 154.2c2.4-5.22 5.44-9.1 9.17-10.66zM76.7 157.5l4.5 34.85h-2.12L58.66 142.9c.6.1 1.24.2 1.88.4 5.86 1.76 11.35 7.33 16.16 14.2zm8.07 34.85l-2.4-25.7c5.56 10.05 9.66 20.57 11.53 25.7h-9.13zm89.1-36.5c0-38.72 31.4-70.1 70.12-70.1 9.6 0 18.9 1.95 27.3 5.5v4.92c-8.4-3.8-17.6-5.93-27.3-5.93-36.3 0-65.7 29.38-65.7 65.62 0 10.95 2.7 21.28 7.4 30.36h-5.1c-4.4-9.18-6.9-19.48-6.9-30.36zm140.24 0c0 7.78-1.2 15.25-3.6 22.23h-4.7c2.5-6.94 3.9-14.42 3.9-22.22 0-21.98-10.8-41.43-27.4-53.34v-5.46c19.2 12.5 31.9 34.17 31.9 58.8zm410.7 63.37h-8.6v-8.14l8.6 8.14zm14.6-4.62v4.62h-5.7c2.1-1.45 4-3 5.8-4.62zm6.5-6.62v11.24H742v-7.07c1.37-1.36 2.66-2.75 3.9-4.17zm17.6 11.24h-2V181.2c.8-2.07 1.47-4.02 2-5.82v43.84zm-11.03 0h-3.9V204.8c1.4-1.82 2.7-3.66 3.9-5.5v19.92zm2.6 0v-24.2c1.46-2.58 2.74-5.13 3.86-7.6v31.8H755zm-38.66 3.3h28.97c0 2.64.64 7.2.64 7.2l-5.2 3.16v4.3h-24.4v-14.65zm-485.43-2.4c4.3.9 8.73 1.36 13.28 1.36 3.7 0 7.38-.32 10.9-.92L256 225c-1.2.2-2.4.3-3.6.5h-4.83v.4H244c-4.9 0-9.7-.5-14.3-1.5l1-4.4zm-20.35-7.9c5.2 3.1 10.9 5.52 16.9 7.1l-1.03 4.38c-5.6-1.46-10.9-3.6-15.85-6.3v-5.2zm-149-19.87H37.2c.1-3.88.4-7.98.9-12.1l23.3 12.1zm8.06 0L39 174.78c.83-5.34 2.02-10.54 3.6-15.15l28.8 32.72h-1.8zm184.7 23.85c-3.3.55-6.7.85-10.18.85-4.26 0-8.37-.43-12.3-1.24l12.3-54.7 10.1 55.2zm17.12-44.35h-2.05v6.23h-2.95v32.28l-3.85 3.84c-1.28.4-2.56.76-3.86 1.08l-12.07-54.25h1.1c.84 0 1.5-.67 1.5-1.5v-7.35c0-.82-.66-1.5-1.5-1.5h-7.34c-.8 0-1.5.68-1.5 1.5v7.36c0 .82.7 1.5 1.5 1.5h1l-13 53.97c-6.5-1.7-12.5-4.4-18-8v-.4h-.7c-1.06-.7-2.1-1.5-3.14-2.3V199H205v-6.52h-2.68v-6.12h-11.47c-5.12-8.93-8.05-19.3-8.05-30.35 0-33.8 27.4-61.2 61.2-61.2 9.8 0 19.07 2.3 27.3 6.5V172zm-9.6 48.48h-1.98l-.14-.73c.7-.17 1.4-.35 2.1-.55v1.28zm39.3-42.25h-16.8v-6.23h-2v-63.77c14 11.2 22.93 28.45 22.93 47.78 0 7.84-1.5 15.33-4.17 22.22zm553.8-30.4v58.94l-11.7-16.85h-23.9l16.4 31.9-7.8 7.18v8.34h-13.1l-6.73-12.1 8.3-33.4H808v-29.4l46.75-14.7zM685.3 99.23c0-7.1 5.76-12.83 12.85-12.83 7.08 0 12.83 5.75 12.83 12.84 0 7.1-5.75 12.84-12.83 12.84-7.1 0-12.84-5.75-12.84-12.84zm233.22 13.8h-8.86v-9.58l-3.26-22.6-5.76 22.6h-4.4v-8.43h-4.78l-9.2-33.15-5.06 14.85-1.64-6.5-4.74 22.9c-1.95-2.82-4.08-6.24-4.08-6.24l-6.9 8.13-2.58-10.4-2.4 10.5v24.6l-46.74 19.1v-23.9h-6.9V112h-16.67l-12.36 17.8-4.4-7.6-4.6 10.2v27.3c-13.8 42.9-30.6 54.2-35.1 56.5L716 204.74v-12.9l-2.7-76.25h3.1V83l-3.08-3.64V68.78h-3.56l-2.58-7.47-1.9-18.3-3.08-10.3-2.3-13.2L698.7.1l-1.35 19.37-1.25 13.2-4.6 10.37v18.4l-5.26 7.46h-3.56v10.5l-3 3.6v32.57h3.06v85.5h-5.32v-11.1h-4.6v11.1h-4.6V158.1h-3.07v14.82c-2.5-3.8-7.1-6.57-7.1-6.57-3.5.63-6.2 4.4-7.7 7.3V158h-3.1v26.26H638v-5.93h-3.84v5.93h-6.9v-65.9c0-24.9-14.18-100.76-30.66-100.76-16.47 0-29.5 69.36-29.5 99.25v65.8h-2.97v9.1h-3.16v-9.1l-2.3-24.6h-3.16V136.3l-2.3 10.94-2-20.84-2-3.16-1.4-10.78-2.6-31.04h-2.8v31.04l-2.6 10.78-1.4 3.16-2 20.84-2-10.93-2.3 21.8h-5.2v34.2H520v-34.2h-3.45v17.1l-2.44-7.7-2.4-5.9h-4.3v6l-2.4 7.7-2.4-17H499v23.33h-4.18v-9.2h-3.16v9.2h-7.32v-9.2h-3.16v9.2h-7.32v-9.2h-3.16v9.2H463V59.78h-3.73v25.4H455c-.5-11.6-7.63-17.55-10.13-19.3V23.3l-2.5 42.86c-6.82 4.46-9.3 15.27-9.95 18.93h-3.65V59.8h-3.73v118.3h-7.1v-20.02h-3.06v14.83c-2.48-3.8-7.1-6.5-7.1-6.5-3.47.7-6.1 4.4-7.65 7.3V158h-3.06v20.03h-17.73V144.9h-4.6v-18.86c.1-.32-5-12.36-15.32-16.57v-4.7L357.5 96l-.96-9.6-2.68-16.28-2.7 16.3h-2.85V96l-1.7 8.8-2.2 4.95c-9 4.1-13.3 14.4-14 16.3l-.2 18.88h-5.3v33.14H316c2.17-7.02 3.34-14.5 3.34-22.22 0-27.58-14.85-51.68-37-64.77V79.12l2.03-11.5H281V61.3l-2.5-2.67 2.5-2.7-2.5-2.67 2.5-2.68-2.5-6.32h-3.25v6.32l-2.5 2.68 2.5 2.68-2.5 2.7 2.5 2.67-2.5 6.4h-3.34v11.5l2 6.7c-8.4-3.3-17.6-5.1-27.3-5.1-41.5 0-75.2 33.7-75.2 75.2 0 10.8 2.3 21.1 6.4 30.4h-54.1v6.2H99.8c-4.2-13.53-22.1-65.03-48.1-56.7-25.8 8.27-25.04 53.64-24.35 65.9H19.9v5h-7.66v30.65H0v14.5h929.07v-14.5h-10.55V113.1z" fill="#DA291C" fill-rule="evenodd"/></svg>