<?xml version="1.0" encoding="UTF-8"?>
<svg width="62px" height="20px" viewBox="0 0 62 20" version="1.1" xmlns="http://www.w3.org/2000/svg" xmlns:xlink="http://www.w3.org/1999/xlink">
    <!-- Generator: Sketch 43.2 (39069) - http://www.bohemiancoding.com/sketch -->
    <title>Mike.</title>
    <desc>Created with Sketch.</desc>
    <defs></defs>
    <g id="Page-1" stroke="none" stroke-width="1" fill="none" fill-rule="evenodd">
        <path d="M0.222,18.402 C0.17,18.766 0.378,19 0.716,19 L3.056,19 C3.29,19 3.498,18.792 3.524,18.61 L5.032,8.756 L5.11,8.756 L9.712,18.974 C9.79,19.13 9.92,19.26 10.154,19.26 L10.622,19.26 C10.856,19.26 11.012,19.13 11.064,18.974 L15.614,8.756 L15.692,8.756 L17.226,18.61 C17.278,18.792 17.486,19 17.72,19 L20.086,19 C20.424,19 20.632,18.766 20.554,18.402 L17.486,0.93 C17.46,0.722 17.304,0.54 17.018,0.54 L16.602,0.54 C16.368,0.54 16.238,0.644 16.16,0.8 L10.44,13.072 L10.362,13.072 L4.642,0.8 C4.564,0.644 4.408,0.54 4.2,0.54 L3.784,0.54 C3.498,0.54 3.342,0.722 3.316,0.93 L0.222,18.402 Z M23.44,18.428 C23.44,18.74 23.726,19 24.012,19 L26.118,19 C26.404,19 26.69,18.74 26.69,18.428 L26.69,7.56 C26.69,7.222 26.404,6.988 26.118,6.988 L24.012,6.988 C23.726,6.988 23.44,7.222 23.44,7.56 L23.44,18.428 Z M25.026,4.934 C26.196,4.934 27.106,3.998 27.106,2.854 C27.106,1.71 26.196,0.8 25.026,0.8 C23.856,0.8 22.972,1.71 22.972,2.854 C22.972,3.998 23.856,4.934 25.026,4.934 Z M30.018,18.428 C30.018,18.74 30.304,19 30.59,19 L32.696,19 C33.008,19 33.268,18.74 33.268,18.428 L33.268,13.358 L37.792,18.766 C37.87,18.896 38.104,19 38.312,19 L40.86,19 C41.354,19 41.536,18.48 41.224,18.142 L36.232,12.552 L40.99,7.872 C41.276,7.534 41.094,6.988 40.6,6.988 L38.156,6.988 C37.818,6.988 37.61,7.17 37.402,7.352 L33.268,11.538 L33.268,1.372 C33.268,1.086 33.008,0.8 32.696,0.8 L30.59,0.8 C30.304,0.8 30.018,1.086 30.018,1.372 L30.018,18.428 Z M42.732,12.994 C42.732,9.614 45.228,6.728 48.79,6.728 C51.91,6.728 54.302,9.042 54.302,12.292 C54.302,12.474 54.276,12.89 54.25,13.072 C54.224,13.384 53.938,13.618 53.678,13.618 L45.982,13.618 C46.008,15.1 47.23,16.4 48.972,16.4 C50.168,16.4 51,15.958 51.546,15.516 C51.832,15.282 52.144,15.256 52.326,15.516 L53.34,16.868 C53.548,17.102 53.574,17.388 53.288,17.648 C52.248,18.532 50.766,19.286 48.816,19.286 C45.228,19.286 42.732,16.426 42.732,12.994 Z M46.164,11.486 L51.026,11.486 C50.974,10.316 50.038,9.406 48.712,9.406 C47.256,9.406 46.32,10.29 46.164,11.486 Z M56.096,16.816 C56.096,18.142 57.214,19.286 58.566,19.286 C59.918,19.286 61.062,18.142 61.062,16.816 C61.062,15.464 59.918,14.32 58.566,14.32 C57.214,14.32 56.096,15.464 56.096,16.816 Z" id="Mike." fill="#4A4A4A"></path>
    </g>
</svg>