<svg width="312px" height="67px" viewBox="0 0 312 67" xmlns="http://www.w3.org/2000/svg"><title>Group 17</title><g fill="none" fill-rule="evenodd" opacity="0.957653986"><path d="M.8 28.12c-.08.52.28.88.76.88h4.72c.4 0 .72-.32.76-.64L8.8 16h.08l6.76 12.96c.12.24.44.44.68.44h.72c.2 0 .56-.2.68-.44L24.44 16h.08l1.8 12.36c.04.32.4.64.76.64h4.72c.48 0 .84-.36.76-.88L28.04 1.24C28 .88 27.64.6 27.32.6h-.64c-.2 0-.56.16-.68.4l-9.28 17.28h-.08L7.36 1C7.24.76 6.88.6 6.68.6h-.64c-.32 0-.68.28-.72.64L.8 28.12zm40.6.12c0 .4.36.76.76.76h4.8c.4 0 .76-.36.76-.76V1.76c0-.4-.36-.76-.76-.76h-4.8c-.4 0-.76.36-.76.76v26.48zm16.64-.2c0 .52.4.96.96.96h4.68c.52 0 .96-.44.96-.96V16.28l9.24 12.4c.08.12.44.28.72.28h5.52c.76 0 1.2-.88.76-1.48l-10.2-13.12 9.36-11.88c.44-.6.04-1.48-.72-1.48h-5.04c-.24 0-.6.2-.76.4l-8.88 11.24V1.96c0-.52-.44-.96-.96-.96H59c-.56 0-.96.44-.96.96v26.08zm30.52.2c0 .4.32.76.76.76h16.56c.44 0 .76-.36.76-.76v-4.36c0-.4-.32-.76-.76-.76H94.8v-5.4h9.12c.4 0 .76-.32.76-.76V12.6c0-.4-.36-.76-.76-.76H94.8V6.88h11.08c.44 0 .76-.36.76-.76V1.76c0-.4-.32-.76-.76-.76H89.32c-.44 0-.76.36-.76.76v26.48zm40.72 0V1.76c0-.4.32-.76.72-.76h9.76c7.72 0 14.04 6.28 14.04 13.96 0 7.76-6.32 14.04-14.04 14.04H130c-.4 0-.72-.36-.72-.76zm6.24-5.16h4.2c4.52 0 7.44-3.56 7.44-8.12 0-4.52-2.92-8.08-7.44-8.08h-4.2v16.2zm27.04 5.16c0 .4.32.76.76.76h16.56c.44 0 .76-.36.76-.76v-4.36c0-.4-.32-.76-.76-.76H168.8v-5.4h9.12c.4 0 .76-.32.76-.76V12.6c0-.4-.36-.76-.76-.76h-9.12V6.88h11.08c.44 0 .76-.36.76-.76V1.76c0-.4-.32-.76-.76-.76h-16.56c-.44 0-.76.36-.76.76v26.48zm27.12 0c0 .4.36.76.76.76h4.76c.44 0 .76-.36.76-.76V13.32h.04l15.56 15.64c.32.32.6.44 1 .44h.4c.4 0 .76-.24.76-.72V1.76c0-.4-.36-.76-.76-.76h-4.8c-.44 0-.76.36-.76.76v14.2h-.04L192 1.2c-.32-.32-.6-.6-1-.6h-.6c-.4 0-.76.32-.76.72l.04 26.92zm38.72 0c0 .4.36.76.76.76h4.8c.4 0 .76-.36.76-.76V6.88h5.72c.44 0 .76-.36.76-.76V1.76c0-.4-.32-.76-.76-.76h-17.76c-.44 0-.76.36-.76.76v4.36c0 .4.32.76.76.76h5.72v21.36zm18.8-13.2c0-8 6.36-14.44 14.36-14.44 8 0 14.4 6.44 14.4 14.44 0 8-6.4 14.36-14.4 14.36s-14.36-6.36-14.36-14.36zm6.4 0c0 4.36 3.6 7.96 7.96 7.96 4.4 0 8-3.6 8-7.96 0-4.4-3.6-8.04-8-8.04-4.36 0-7.96 3.64-7.96 8.04zm31.08 13.2c0 .4.36.76.76.76h4.76c.44 0 .76-.36.76-.76V13.32h.04l15.56 15.64c.32.32.6.44 1 .44h.4c.4 0 .76-.24.76-.72V1.76c0-.4-.36-.76-.76-.76h-4.8c-.44 0-.76.36-.76.76v14.2h-.04L287 1.2c-.32-.32-.6-.6-1-.6h-.6c-.4 0-.76.32-.76.72l.04 26.92z" fill="#4A4A4A"/><path d="M3.17 60.98c0 3.06 2.06 5.22 5.22 5.22 3.18 0 5.26-2.16 5.26-5.22v-8.72c0-.14-.12-.26-.26-.26h-.4c-.2 0-.28.1-.28.26v8.64c0 2.58-1.64 4.38-4.32 4.38-2.66 0-4.28-1.82-4.28-4.4v-8.62c0-.14-.12-.26-.26-.26h-.42c-.14 0-.26.12-.26.26v8.72zm15.38 3.58c.26.24 1.86 1.64 4.24 1.64 2.3 0 4.36-1.34 4.36-3.56 0-2.32-1.74-3.28-4.48-4.22-2.02-.66-3.32-1.4-3.32-3.1 0-1.14.92-2.66 3.38-2.66 1.54 0 2.88.9 2.94.94.2.12.34.08.44-.1l.16-.26c.14-.22 0-.36-.08-.42 0 0-1.46-1.02-3.44-1.02-3.12 0-4.32 2.04-4.32 3.54 0 2.3 1.54 3.12 3.86 3.94 2.42.82 3.88 1.62 3.88 3.4 0 1.7-1.54 2.68-3.36 2.68-2.02 0-3.5-1.36-3.7-1.54-.16-.14-.3-.08-.44.08l-.18.24c-.16.22-.06.32.06.42zm13.22 1.18c0 .14.12.26.26.26h8.02c.14 0 .26-.12.26-.26v-.32c0-.14-.12-.26-.26-.26h-7.32v-5.92h6.34c.14 0 .26-.12.26-.26v-.34c0-.14-.12-.26-.26-.26h-6.34v-5.52h7.32c.14 0 .26-.12.26-.26v-.34c0-.14-.12-.26-.26-.26h-8.02c-.14 0-.26.12-.26.26v13.48zm13.28 0V52.26c0-.14.1-.26.26-.26h4.96c2.44 0 4.46 1.78 4.46 4.22 0 2.02-1.4 3.7-3.3 4.24l2.92 5.18c.1.16.06.36-.14.36h-.52c-.24 0-.32-.06-.42-.24l-2.86-5.18c-.26.02-.48.02-.74.02h-3.68v5.14c0 .14-.12.26-.32.26h-.36c-.14 0-.26-.12-.26-.26zm.96-6.06h4.22c1.92 0 3.54-1.48 3.54-3.46 0-1.9-1.62-3.3-3.56-3.3h-4.2v6.76zm20.12 6.06c0 .14.12.26.26.26h8.02c.14 0 .26-.12.26-.26v-.32c0-.14-.12-.26-.26-.26h-7.32v-5.92h6.34c.14 0 .26-.12.26-.26v-.34c0-.14-.12-.26-.26-.26h-6.34v-5.52h7.32c.14 0 .26-.12.26-.26v-.34c0-.14-.12-.26-.26-.26h-8.02c-.14 0-.26.12-.26.26v13.48zm11.86-.04c-.1.16-.04.3.16.3h.64c.1 0 .2-.04.26-.12l3.86-6.18h.02l3.92 6.18c.06.08.16.12.26.12h.64c.2 0 .26-.14.16-.3l-4.38-6.86 4.12-6.54c.1-.16.04-.3-.16-.3h-.64c-.1 0-.2.04-.26.12L82.93 58h-.02l-3.62-5.88c-.06-.08-.16-.12-.26-.12h-.64c-.2 0-.26.14-.16.3l4.1 6.54-4.34 6.86zm14.22.04V52.26c0-.14.12-.26.26-.26h4.3c2.48 0 4.52 1.9 4.52 4.48 0 2.62-2.04 4.54-4.5 4.54h-3.64v4.72c0 .14-.12.26-.32.26h-.36c-.14 0-.26-.12-.26-.26zm.94-5.64h3.58c1.96 0 3.62-1.48 3.62-3.64 0-2.12-1.66-3.52-3.64-3.52h-3.56v7.16zm12.6 5.64c0 .14.12.26.26.26h8.02c.14 0 .26-.12.26-.26v-.32c0-.14-.12-.26-.26-.26h-7.32v-5.92h6.34c.14 0 .26-.12.26-.26v-.34c0-.14-.12-.26-.26-.26h-6.34v-5.52h7.32c.14 0 .26-.12.26-.26v-.34c0-.14-.12-.26-.26-.26h-8.02c-.14 0-.26.12-.26.26v13.48zm13.28 0V52.26c0-.14.1-.26.26-.26h4.96c2.44 0 4.46 1.78 4.46 4.22 0 2.02-1.4 3.7-3.3 4.24l2.92 5.18c.1.16.06.36-.14.36h-.52c-.24 0-.32-.06-.42-.24l-2.86-5.18c-.26.02-.48.02-.74.02h-3.68v5.14c0 .14-.12.26-.32.26h-.36c-.14 0-.26-.12-.26-.26zm.96-6.06h4.22c1.92 0 3.54-1.48 3.54-3.46 0-1.9-1.62-3.3-3.56-3.3h-4.2v6.76zm13.62 6.06c0 .14.12.26.26.26h.42c.14 0 .28-.1.28-.26V52.26c0-.14-.12-.26-.26-.26h-.44c-.14 0-.26.12-.26.26v13.48zm6.7 0c0 .14.12.26.26.26h8.02c.14 0 .26-.12.26-.26v-.32c0-.14-.12-.26-.26-.26h-7.32v-5.92h6.34c.14 0 .26-.12.26-.26v-.34c0-.14-.12-.26-.26-.26h-6.34v-5.52h7.32c.14 0 .26-.12.26-.26v-.34c0-.14-.12-.26-.26-.26h-8.02c-.14 0-.26.12-.26.26v13.48zm13.3 0c0 .14.12.26.26.26h.38c.14 0 .26-.12.26-.26V53.58h.02l9.56 12.46c.08.12.18.16.32.16h.06c.16 0 .32-.08.32-.26V52.26c0-.14-.12-.26-.26-.26h-.4c-.14 0-.26.12-.26.26V64.3h-.02l-9.48-12.34c-.08-.12-.18-.16-.32-.16h-.14c-.16 0-.3.1-.3.26v13.68zm16.04-6.72c0 4.02 3.24 7.18 7.24 7.18 1.78 0 3.52-.62 4.88-1.94.1-.1.1-.26 0-.34l-.34-.34c-.08-.08-.2-.06-.32.04-1.2 1-2.5 1.68-4.22 1.68-3.5 0-6.24-2.84-6.24-6.28 0-3.46 2.74-6.32 6.24-6.32 1.64 0 3.08.62 4.22 1.64.12.12.22.14.34.02l.32-.34c.1-.1.08-.26-.02-.36-1.3-1.18-2.82-1.86-4.86-1.86-4 0-7.24 3.22-7.24 7.22zm16.9 6.72c0 .14.12.26.26.26h8.02c.14 0 .26-.12.26-.26v-.32c0-.14-.12-.26-.26-.26h-7.32v-5.92h6.34c.14 0 .26-.12.26-.26v-.34c0-.14-.12-.26-.26-.26h-6.34v-5.52h7.32c.14 0 .26-.12.26-.26v-.34c0-.14-.12-.26-.26-.26h-8.02c-.14 0-.26.12-.26.26v13.48zm19.78 0V52.26c0-.14.12-.26.24-.26h4.24c3.88 0 7.04 3.14 7.04 6.98 0 3.9-3.16 7.02-7.04 7.02h-4.24c-.12 0-.24-.12-.24-.26zm.94-.6h3.38c3.56 0 6.2-2.66 6.2-6.16 0-3.46-2.62-6.12-6.2-6.12h-3.38v12.28zm15.44.6c0 .14.12.26.26.26h8.02c.14 0 .26-.12.26-.26v-.32c0-.14-.12-.26-.26-.26h-7.32v-5.92h6.34c.14 0 .26-.12.26-.26v-.34c0-.14-.12-.26-.26-.26h-6.34v-5.52h7.32c.14 0 .26-.12.26-.26v-.34c0-.14-.12-.26-.26-.26h-8.02c-.14 0-.26.12-.26.26v13.48zm12.46-1.18c.26.24 1.86 1.64 4.24 1.64 2.3 0 4.36-1.34 4.36-3.56 0-2.32-1.74-3.28-4.48-4.22-2.02-.66-3.32-1.4-3.32-3.1 0-1.14.92-2.66 3.38-2.66 1.54 0 2.88.9 2.94.94.2.12.34.08.44-.1l.16-.26c.14-.22 0-.36-.08-.42 0 0-1.46-1.02-3.44-1.02-3.12 0-4.32 2.04-4.32 3.54 0 2.3 1.54 3.12 3.86 3.94 2.42.82 3.88 1.62 3.88 3.4 0 1.7-1.54 2.68-3.36 2.68-2.02 0-3.5-1.36-3.7-1.54-.16-.14-.3-.08-.44.08l-.18.24c-.16.22-.06.32.06.42zm13.22 1.18c0 .14.12.26.26.26h.42c.14 0 .28-.1.28-.26V52.26c0-.14-.12-.26-.26-.26h-.44c-.14 0-.26.12-.26.26v13.48zm5.8-6.72c0 4.02 3.22 7.18 7.24 7.18 2.62 0 4.44-1.04 4.8-1.28.16-.12.28-.22.28-.52v-4.64c0-.12-.12-.24-.26-.24h-4.1c-.22 0-.26.08-.26.24v.4c0 .18.04.26.26.26h3.42v3.76c-.2.16-1.72 1.1-4.16 1.1-3.48 0-6.22-2.84-6.22-6.3s2.74-6.3 6.22-6.3c1.64 0 3.1.64 4.22 1.68.12.12.22.14.34 0 .1-.1.22-.22.32-.34.1-.1.08-.26-.02-.36-1.3-1.18-2.82-1.86-4.84-1.86-4.02 0-7.24 3.22-7.24 7.22zm17.46 6.72c0 .14.12.26.26.26h.38c.14 0 .26-.12.26-.26V53.58h.02l9.56 12.46c.08.12.18.16.32.16h.06c.16 0 .32-.08.32-.26V52.26c0-.14-.12-.26-.26-.26h-.4c-.14 0-.26.12-.26.26V64.3h-.02l-9.48-12.34c-.08-.12-.18-.16-.32-.16h-.14c-.16 0-.3.1-.3.26v13.68zm16.94 0c0 .14.12.26.26.26h8.02c.14 0 .26-.12.26-.26v-.32c0-.14-.12-.26-.26-.26h-7.32v-5.92h6.34c.14 0 .26-.12.26-.26v-.34c0-.14-.12-.26-.26-.26h-6.34v-5.52h7.32c.14 0 .26-.12.26-.26v-.34c0-.14-.12-.26-.26-.26h-8.02c-.14 0-.26.12-.26.26v13.48zm13.28 0V52.26c0-.14.1-.26.26-.26h4.96c2.44 0 4.46 1.78 4.46 4.22 0 2.02-1.4 3.7-3.3 4.24l2.92 5.18c.1.16.06.36-.14.36h-.52c-.24 0-.32-.06-.42-.24l-2.86-5.18c-.26.02-.48.02-.74.02h-3.68v5.14c0 .14-.12.26-.32.26h-.36c-.14 0-.26-.12-.26-.26zm.96-6.06h4.22c1.92 0 3.54-1.48 3.54-3.46 0-1.9-1.62-3.3-3.56-3.3h-4.2v6.76z" fill="#9B9B9B"/></g></svg>