<?xml version="1.0" encoding="UTF-8"?>
<svg width="180px" height="138px" viewBox="0 0 180 138" version="1.1" xmlns="http://www.w3.org/2000/svg" xmlns:xlink="http://www.w3.org/1999/xlink">
    <!-- Generator: Sketch 43.2 (39069) - http://www.bohemiancoding.com/sketch -->
    <title>Group 20</title>
    <desc>Created with Sketch.</desc>
    <defs></defs>
    <g id="Page-1" stroke="none" stroke-width="1" fill="none" fill-rule="evenodd" opacity="0.957653986">
        <g id="Group-20">
            <path d="M36.73,28.12 C36.65,28.64 37.01,29 37.49,29 L42.21,29 C42.61,29 42.93,28.68 42.97,28.36 L44.73,16 L44.81,16 L51.57,28.96 C51.69,29.2 52.01,29.4 52.25,29.4 L52.97,29.4 C53.17,29.4 53.53,29.2 53.65,28.96 L60.37,16 L60.45,16 L62.25,28.36 C62.29,28.68 62.65,29 63.01,29 L67.73,29 C68.21,29 68.57,28.64 68.49,28.12 L63.97,1.24 C63.93,0.88 63.57,0.6 63.25,0.6 L62.61,0.6 C62.41,0.6 62.05,0.76 61.93,1 L52.65,18.28 L52.57,18.28 L43.29,1 C43.17,0.76 42.81,0.6 42.61,0.6 L41.97,0.6 C41.65,0.6 41.29,0.88 41.25,1.24 L36.73,28.12 Z M77.33,28.24 C77.33,28.64 77.69,29 78.09,29 L82.89,29 C83.29,29 83.65,28.64 83.65,28.24 L83.65,1.76 C83.65,1.36 83.29,1 82.89,1 L78.09,1 C77.69,1 77.33,1.36 77.33,1.76 L77.33,28.24 Z M93.97,28.04 C93.97,28.56 94.37,29 94.93,29 L99.61,29 C100.13,29 100.57,28.56 100.57,28.04 L100.57,16.28 L109.81,28.68 C109.89,28.8 110.25,28.96 110.53,28.96 L116.05,28.96 C116.81,28.96 117.25,28.08 116.81,27.48 L106.61,14.36 L115.97,2.48 C116.41,1.88 116.01,1 115.25,1 L110.21,1 C109.97,1 109.61,1.2 109.45,1.4 L100.57,12.64 L100.57,1.96 C100.57,1.44 100.13,1 99.61,1 L94.93,1 C94.37,1 93.97,1.44 93.97,1.96 L93.97,28.04 Z M124.49,28.24 C124.49,28.64 124.81,29 125.25,29 L141.81,29 C142.25,29 142.57,28.64 142.57,28.24 L142.57,23.88 C142.57,23.48 142.25,23.12 141.81,23.12 L130.73,23.12 L130.73,17.72 L139.85,17.72 C140.25,17.72 140.61,17.4 140.61,16.96 L140.61,12.6 C140.61,12.2 140.25,11.84 139.85,11.84 L130.73,11.84 L130.73,6.88 L141.81,6.88 C142.25,6.88 142.57,6.52 142.57,6.12 L142.57,1.76 C142.57,1.36 142.25,1 141.81,1 L125.25,1 C124.81,1 124.49,1.36 124.49,1.76 L124.49,28.24 Z M0.03,70.24 L0.03,43.76 C0.03,43.36 0.35,43 0.75,43 L10.51,43 C18.23,43 24.55,49.28 24.55,56.96 C24.55,64.72 18.23,71 10.51,71 L0.75,71 C0.35,71 0.03,70.64 0.03,70.24 Z M6.27,65.08 L10.47,65.08 C14.99,65.08 17.91,61.52 17.91,56.96 C17.91,52.44 14.99,48.88 10.47,48.88 L6.27,48.88 L6.27,65.08 Z M33.31,70.24 C33.31,70.64 33.63,71 34.07,71 L50.63,71 C51.07,71 51.39,70.64 51.39,70.24 L51.39,65.88 C51.39,65.48 51.07,65.12 50.63,65.12 L39.55,65.12 L39.55,59.72 L48.67,59.72 C49.07,59.72 49.43,59.4 49.43,58.96 L49.43,54.6 C49.43,54.2 49.07,53.84 48.67,53.84 L39.55,53.84 L39.55,48.88 L50.63,48.88 C51.07,48.88 51.39,48.52 51.39,48.12 L51.39,43.76 C51.39,43.36 51.07,43 50.63,43 L34.07,43 C33.63,43 33.31,43.36 33.31,43.76 L33.31,70.24 Z M60.43,70.24 C60.43,70.64 60.79,71 61.19,71 L65.95,71 C66.39,71 66.71,70.64 66.71,70.24 L66.71,55.32 L66.75,55.32 L82.31,70.96 C82.63,71.28 82.91,71.4 83.31,71.4 L83.71,71.4 C84.11,71.4 84.47,71.16 84.47,70.68 L84.47,43.76 C84.47,43.36 84.11,43 83.71,43 L78.91,43 C78.47,43 78.15,43.36 78.15,43.76 L78.15,57.96 L78.11,57.96 L62.75,43.2 C62.43,42.88 62.15,42.6 61.75,42.6 L61.15,42.6 C60.75,42.6 60.39,42.92 60.39,43.32 L60.43,70.24 Z M99.15,70.24 C99.15,70.64 99.51,71 99.91,71 L104.71,71 C105.11,71 105.47,70.64 105.47,70.24 L105.47,48.88 L111.19,48.88 C111.63,48.88 111.95,48.52 111.95,48.12 L111.95,43.76 C111.95,43.36 111.63,43 111.19,43 L93.43,43 C92.99,43 92.67,43.36 92.67,43.76 L92.67,48.12 C92.67,48.52 92.99,48.88 93.43,48.88 L99.15,48.88 L99.15,70.24 Z M117.95,57.04 C117.95,49.04 124.31,42.6 132.31,42.6 C140.31,42.6 146.71,49.04 146.71,57.04 C146.71,65.04 140.31,71.4 132.31,71.4 C124.31,71.4 117.95,65.04 117.95,57.04 Z M124.35,57.04 C124.35,61.4 127.95,65 132.31,65 C136.71,65 140.31,61.4 140.31,57.04 C140.31,52.64 136.71,49 132.31,49 C127.95,49 124.35,52.64 124.35,57.04 Z M155.43,70.24 C155.43,70.64 155.79,71 156.19,71 L160.95,71 C161.39,71 161.71,70.64 161.71,70.24 L161.71,55.32 L161.75,55.32 L177.31,70.96 C177.63,71.28 177.91,71.4 178.31,71.4 L178.71,71.4 C179.11,71.4 179.47,71.16 179.47,70.68 L179.47,43.76 C179.47,43.36 179.11,43 178.71,43 L173.91,43 C173.47,43 173.15,43.36 173.15,43.76 L173.15,57.96 L173.11,57.96 L157.75,43.2 C157.43,42.88 157.15,42.6 156.75,42.6 L156.15,42.6 C155.75,42.6 155.39,42.92 155.39,43.32 L155.43,70.24 Z" id="MIKE-DENTON" fill="#4A4A4A"></path>
            <path d="M5.26700021,106.482 C5.26700021,109.236 7.12100021,111.18 9.96500021,111.18 C12.8270002,111.18 14.6990002,109.236 14.6990002,106.482 L14.6990002,98.634 C14.6990002,98.508 14.5910002,98.4 14.4650002,98.4 L14.1050002,98.4 C13.9250002,98.4 13.8530002,98.49 13.8530002,98.634 L13.8530002,106.41 C13.8530002,108.732 12.3770002,110.352 9.96500021,110.352 C7.57100021,110.352 6.11300021,108.714 6.11300021,106.392 L6.11300021,98.634 C6.11300021,98.508 6.00500021,98.4 5.87900021,98.4 L5.50100021,98.4 C5.37500021,98.4 5.26700021,98.508 5.26700021,98.634 L5.26700021,106.482 Z M19.1090002,109.704 C19.3430002,109.92 20.7830002,111.18 22.9250002,111.18 C24.9950002,111.18 26.8490002,109.974 26.8490002,107.976 C26.8490002,105.888 25.2830002,105.024 22.8170002,104.178 C20.9990002,103.584 19.8290002,102.918 19.8290002,101.388 C19.8290002,100.362 20.6570002,98.994 22.8710002,98.994 C24.2570002,98.994 25.4630002,99.804 25.5170002,99.84 C25.6970002,99.948 25.8230002,99.912 25.9130002,99.75 L26.0570002,99.516 C26.1830002,99.318 26.0570002,99.192 25.9850002,99.138 C25.9850002,99.138 24.6710002,98.22 22.8890002,98.22 C20.0810002,98.22 19.0010002,100.056 19.0010002,101.406 C19.0010002,103.476 20.3870002,104.214 22.4750002,104.952 C24.6530002,105.69 25.9670002,106.41 25.9670002,108.012 C25.9670002,109.542 24.5810002,110.424 22.9430002,110.424 C21.1250002,110.424 19.7930002,109.2 19.6130002,109.038 C19.4690002,108.912 19.3430002,108.966 19.2170002,109.11 L19.0550002,109.326 C18.9110002,109.524 19.0010002,109.614 19.1090002,109.704 Z M31.0070002,110.766 C31.0070002,110.892 31.1150002,111 31.2410002,111 L38.4590002,111 C38.5850002,111 38.6930002,110.892 38.6930002,110.766 L38.6930002,110.478 C38.6930002,110.352 38.5850002,110.244 38.4590002,110.244 L31.8710002,110.244 L31.8710002,104.916 L37.5770002,104.916 C37.7030002,104.916 37.8110002,104.808 37.8110002,104.682 L37.8110002,104.376 C37.8110002,104.25 37.7030002,104.142 37.5770002,104.142 L31.8710002,104.142 L31.8710002,99.174 L38.4590002,99.174 C38.5850002,99.174 38.6930002,99.066 38.6930002,98.94 L38.6930002,98.634 C38.6930002,98.508 38.5850002,98.4 38.4590002,98.4 L31.2410002,98.4 C31.1150002,98.4 31.0070002,98.508 31.0070002,98.634 L31.0070002,110.766 Z M42.9590001,110.766 L42.9590001,98.634 C42.9590001,98.508 43.0490001,98.4 43.1930001,98.4 L47.6570001,98.4 C49.8530001,98.4 51.6710001,100.002 51.6710001,102.198 C51.6710001,104.016 50.4110001,105.528 48.7010001,106.014 L51.3290001,110.676 C51.4190001,110.82 51.3830001,111 51.2030001,111 L50.7350001,111 C50.5190001,111 50.4470001,110.946 50.3570001,110.784 L47.7830001,106.122 C47.5490001,106.14 47.3510001,106.14 47.1170001,106.14 L43.8050001,106.14 L43.8050001,110.766 C43.8050001,110.892 43.6970001,111 43.5170001,111 L43.1930001,111 C43.0670001,111 42.9590001,110.892 42.9590001,110.766 Z M43.8230001,105.312 L47.6210001,105.312 C49.3490001,105.312 50.8070001,103.98 50.8070001,102.198 C50.8070001,100.488 49.3490001,99.228 47.6030001,99.228 L43.8230001,99.228 L43.8230001,105.312 Z M61.9310001,110.766 C61.9310001,110.892 62.0390001,111 62.1650001,111 L69.3830001,111 C69.5090001,111 69.6170001,110.892 69.6170001,110.766 L69.6170001,110.478 C69.6170001,110.352 69.5090001,110.244 69.3830001,110.244 L62.7950001,110.244 L62.7950001,104.916 L68.5010001,104.916 C68.6270001,104.916 68.7350001,104.808 68.7350001,104.682 L68.7350001,104.376 C68.7350001,104.25 68.6270001,104.142 68.5010001,104.142 L62.7950001,104.142 L62.7950001,99.174 L69.3830001,99.174 C69.5090001,99.174 69.6170001,99.066 69.6170001,98.94 L69.6170001,98.634 C69.6170001,98.508 69.5090001,98.4 69.3830001,98.4 L62.1650001,98.4 C62.0390001,98.4 61.9310001,98.508 61.9310001,98.634 L61.9310001,110.766 Z M72.605,110.73 C72.515,110.874 72.569,111 72.749,111 L73.325,111 C73.415,111 73.505,110.964 73.559,110.892 L77.033,105.33 L77.051,105.33 L80.579,110.892 C80.633,110.964 80.723,111 80.813,111 L81.389,111 C81.569,111 81.623,110.874 81.533,110.73 L77.591,104.556 L81.299,98.67 C81.389,98.526 81.335,98.4 81.155,98.4 L80.579,98.4 C80.489,98.4 80.399,98.436 80.345,98.508 L77.051,103.8 L77.033,103.8 L73.775,98.508 C73.721,98.436 73.631,98.4 73.541,98.4 L72.965,98.4 C72.785,98.4 72.731,98.526 72.821,98.67 L76.511,104.556 L72.605,110.73 Z M85.403,110.766 L85.403,98.634 C85.403,98.508 85.511,98.4 85.637,98.4 L89.507,98.4 C91.739,98.4 93.575,100.11 93.575,102.432 C93.575,104.79 91.739,106.518 89.525,106.518 L86.249,106.518 L86.249,110.766 C86.249,110.892 86.141,111 85.961,111 L85.637,111 C85.511,111 85.403,110.892 85.403,110.766 Z M86.249,105.69 L89.471,105.69 C91.235,105.69 92.729,104.358 92.729,102.414 C92.729,100.506 91.235,99.246 89.453,99.246 L86.249,99.246 L86.249,105.69 Z M97.589,110.766 C97.589,110.892 97.697,111 97.823,111 L105.041,111 C105.167,111 105.275,110.892 105.275,110.766 L105.275,110.478 C105.275,110.352 105.167,110.244 105.041,110.244 L98.453,110.244 L98.453,104.916 L104.159,104.916 C104.285,104.916 104.393,104.808 104.393,104.682 L104.393,104.376 C104.393,104.25 104.285,104.142 104.159,104.142 L98.453,104.142 L98.453,99.174 L105.041,99.174 C105.167,99.174 105.275,99.066 105.275,98.94 L105.275,98.634 C105.275,98.508 105.167,98.4 105.041,98.4 L97.823,98.4 C97.697,98.4 97.589,98.508 97.589,98.634 L97.589,110.766 Z M109.541,110.766 L109.541,98.634 C109.541,98.508 109.631,98.4 109.775,98.4 L114.239,98.4 C116.435,98.4 118.253,100.002 118.253,102.198 C118.253,104.016 116.993,105.528 115.283,106.014 L117.911,110.676 C118.001,110.82 117.965,111 117.785,111 L117.317,111 C117.101,111 117.029,110.946 116.939,110.784 L114.365,106.122 C114.131,106.14 113.933,106.14 113.699,106.14 L110.387,106.14 L110.387,110.766 C110.387,110.892 110.279,111 110.099,111 L109.775,111 C109.649,111 109.541,110.892 109.541,110.766 Z M110.405,105.312 L114.203,105.312 C115.931,105.312 117.389,103.98 117.389,102.198 C117.389,100.488 115.931,99.228 114.185,99.228 L110.405,99.228 L110.405,105.312 Z M122.663,110.766 C122.663,110.892 122.771,111 122.897,111 L123.275,111 C123.401,111 123.527,110.91 123.527,110.766 L123.527,98.634 C123.527,98.508 123.419,98.4 123.293,98.4 L122.897,98.4 C122.771,98.4 122.663,98.508 122.663,98.634 L122.663,110.766 Z M128.693,110.766 C128.693,110.892 128.801,111 128.927,111 L136.145,111 C136.271,111 136.379,110.892 136.379,110.766 L136.379,110.478 C136.379,110.352 136.271,110.244 136.145,110.244 L129.557,110.244 L129.557,104.916 L135.263,104.916 C135.389,104.916 135.497,104.808 135.497,104.682 L135.497,104.376 C135.497,104.25 135.389,104.142 135.263,104.142 L129.557,104.142 L129.557,99.174 L136.145,99.174 C136.271,99.174 136.379,99.066 136.379,98.94 L136.379,98.634 C136.379,98.508 136.271,98.4 136.145,98.4 L128.927,98.4 C128.801,98.4 128.693,98.508 128.693,98.634 L128.693,110.766 Z M140.663,110.766 C140.663,110.892 140.771,111 140.897,111 L141.239,111 C141.365,111 141.473,110.892 141.473,110.766 L141.473,99.822 L141.491,99.822 L150.095,111.036 C150.167,111.144 150.257,111.18 150.383,111.18 L150.437,111.18 C150.581,111.18 150.725,111.108 150.725,110.946 L150.725,98.634 C150.725,98.508 150.617,98.4 150.491,98.4 L150.131,98.4 C150.005,98.4 149.897,98.508 149.897,98.634 L149.897,109.47 L149.879,109.47 L141.347,98.364 C141.275,98.256 141.185,98.22 141.059,98.22 L140.933,98.22 C140.789,98.22 140.663,98.31 140.663,98.454 L140.663,110.766 Z M155.099,104.718 C155.099,108.336 158.015,111.18 161.615,111.18 C163.217,111.18 164.783,110.622 166.007,109.434 C166.097,109.344 166.097,109.2 166.007,109.128 L165.701,108.822 C165.629,108.75 165.521,108.768 165.413,108.858 C164.333,109.758 163.163,110.37 161.615,110.37 C158.465,110.37 155.999,107.814 155.999,104.718 C155.999,101.604 158.465,99.03 161.615,99.03 C163.091,99.03 164.387,99.588 165.413,100.506 C165.521,100.614 165.611,100.632 165.719,100.524 L166.007,100.218 C166.097,100.128 166.079,99.984 165.989,99.894 C164.819,98.832 163.451,98.22 161.615,98.22 C158.015,98.22 155.099,101.118 155.099,104.718 Z M170.309,110.766 C170.309,110.892 170.417,111 170.543,111 L177.761,111 C177.887,111 177.995,110.892 177.995,110.766 L177.995,110.478 C177.995,110.352 177.887,110.244 177.761,110.244 L171.173,110.244 L171.173,104.916 L176.879,104.916 C177.005,104.916 177.113,104.808 177.113,104.682 L177.113,104.376 C177.113,104.25 177.005,104.142 176.879,104.142 L171.173,104.142 L171.173,99.174 L177.761,99.174 C177.887,99.174 177.995,99.066 177.995,98.94 L177.995,98.634 C177.995,98.508 177.887,98.4 177.761,98.4 L170.543,98.4 C170.417,98.4 170.309,98.508 170.309,98.634 L170.309,110.766 Z M44.2640001,136.766 L44.2640001,124.634 C44.2640001,124.508 44.3720001,124.4 44.4800001,124.4 L48.2960001,124.4 C51.7880001,124.4 54.6320001,127.226 54.6320001,130.682 C54.6320001,134.192 51.7880001,137 48.2960001,137 L44.4800001,137 C44.3720001,137 44.2640001,136.892 44.2640001,136.766 Z M45.1100001,136.226 L48.1520001,136.226 C51.3560001,136.226 53.7320001,133.832 53.7320001,130.682 C53.7320001,127.568 51.3740001,125.174 48.1520001,125.174 L45.1100001,125.174 L45.1100001,136.226 Z M59.0060001,136.766 C59.0060001,136.892 59.1140001,137 59.2400001,137 L66.4580001,137 C66.5840001,137 66.6920001,136.892 66.6920001,136.766 L66.6920001,136.478 C66.6920001,136.352 66.5840001,136.244 66.4580001,136.244 L59.8700001,136.244 L59.8700001,130.916 L65.5760001,130.916 C65.7020001,130.916 65.8100001,130.808 65.8100001,130.682 L65.8100001,130.376 C65.8100001,130.25 65.7020001,130.142 65.5760001,130.142 L59.8700001,130.142 L59.8700001,125.174 L66.4580001,125.174 C66.5840001,125.174 66.6920001,125.066 66.6920001,124.94 L66.6920001,124.634 C66.6920001,124.508 66.5840001,124.4 66.4580001,124.4 L59.2400001,124.4 C59.1140001,124.4 59.0060001,124.508 59.0060001,124.634 L59.0060001,136.766 Z M70.2200001,135.704 C70.4540001,135.92 71.8940001,137.18 74.0360001,137.18 C76.1060001,137.18 77.9600001,135.974 77.9600001,133.976 C77.9600001,131.888 76.3940001,131.024 73.9280001,130.178 C72.1100001,129.584 70.9400001,128.918 70.9400001,127.388 C70.9400001,126.362 71.7680001,124.994 73.9820001,124.994 C75.3680001,124.994 76.5740001,125.804 76.6280001,125.84 C76.8080001,125.948 76.9340001,125.912 77.0240001,125.75 L77.1680001,125.516 C77.2940001,125.318 77.1680001,125.192 77.0960001,125.138 C77.0960001,125.138 75.7820001,124.22 74.0000001,124.22 C71.1920001,124.22 70.1120001,126.056 70.1120001,127.406 C70.1120001,129.476 71.4980001,130.214 73.5860001,130.952 C75.7640001,131.69 77.0780001,132.41 77.0780001,134.012 C77.0780001,135.542 75.6920001,136.424 74.0540001,136.424 C72.2360001,136.424 70.9040001,135.2 70.7240001,135.038 C70.5800001,134.912 70.4540001,134.966 70.3280001,135.11 L70.1660001,135.326 C70.0220001,135.524 70.1120001,135.614 70.2200001,135.704 Z M82.118,136.766 C82.118,136.892 82.226,137 82.352,137 L82.73,137 C82.856,137 82.982,136.91 82.982,136.766 L82.982,124.634 C82.982,124.508 82.874,124.4 82.748,124.4 L82.352,124.4 C82.226,124.4 82.118,124.508 82.118,124.634 L82.118,136.766 Z M87.338,130.718 C87.338,134.336 90.236,137.18 93.854,137.18 C96.212,137.18 97.85,136.244 98.174,136.028 C98.318,135.92 98.426,135.83 98.426,135.56 L98.426,131.384 C98.426,131.276 98.318,131.168 98.192,131.168 L94.502,131.168 C94.304,131.168 94.268,131.24 94.268,131.384 L94.268,131.744 C94.268,131.906 94.304,131.978 94.502,131.978 L97.58,131.978 L97.58,135.362 C97.4,135.506 96.032,136.352 93.836,136.352 C90.704,136.352 88.238,133.796 88.238,130.682 C88.238,127.568 90.704,125.012 93.836,125.012 C95.312,125.012 96.626,125.588 97.634,126.524 C97.742,126.632 97.832,126.65 97.94,126.524 C98.03,126.434 98.138,126.326 98.228,126.218 C98.318,126.128 98.3,125.984 98.21,125.894 C97.04,124.832 95.672,124.22 93.854,124.22 C90.236,124.22 87.338,127.118 87.338,130.718 Z M103.862,125.822 L103.862002,125.822 L103.862,125.822 Z M103.862,125.822002 L103.862,136.766 C103.862,136.892 103.754,137 103.628,137 L103.286,137 C103.16,137 103.052,136.892 103.052,136.766 L103.052,124.454 C103.052,124.31 103.178,124.22 103.322,124.22 L103.448,124.22 C103.574,124.22 103.664,124.256 103.736,124.364 L112.268,135.47 L112.286,135.47 L112.286,124.634 C112.286,124.508 112.394,124.4 112.52,124.4 L112.88,124.4 C113.006,124.4 113.114,124.508 113.114,124.634 L113.114,136.946 C113.114,137.108 112.97,137.18 112.826,137.18 L112.772,137.18 C112.646,137.18 112.556,137.144 112.484,137.036 L103.88,125.822 L103.862002,125.822 L103.862,125.822002 Z M118.298,136.766 C118.298,136.892 118.406,137 118.532,137 L125.75,137 C125.876,137 125.984,136.892 125.984,136.766 L125.984,136.478 C125.984,136.352 125.876,136.244 125.75,136.244 L119.162,136.244 L119.162,130.916 L124.868,130.916 C124.994,130.916 125.102,130.808 125.102,130.682 L125.102,130.376 C125.102,130.25 124.994,130.142 124.868,130.142 L119.162,130.142 L119.162,125.174 L125.75,125.174 C125.876,125.174 125.984,125.066 125.984,124.94 L125.984,124.634 C125.984,124.508 125.876,124.4 125.75,124.4 L118.532,124.4 C118.406,124.4 118.298,124.508 118.298,124.634 L118.298,136.766 Z M130.25,136.766 L130.25,124.634 C130.25,124.508 130.34,124.4 130.484,124.4 L134.948,124.4 C137.144,124.4 138.962,126.002 138.962,128.198 C138.962,130.016 137.702,131.528 135.992,132.014 L138.62,136.676 C138.71,136.82 138.674,137 138.494,137 L138.026,137 C137.81,137 137.738,136.946 137.648,136.784 L135.074,132.122 C134.84,132.14 134.642,132.14 134.408,132.14 L131.096,132.14 L131.096,136.766 C131.096,136.892 130.988,137 130.808,137 L130.484,137 C130.358,137 130.25,136.892 130.25,136.766 Z M131.114,131.312 L134.912,131.312 C136.64,131.312 138.098,129.98 138.098,128.198 C138.098,126.488 136.64,125.228 134.894,125.228 L131.114,125.228 L131.114,131.312 Z" id="USER-EXPERIENCE-DESI" fill="#9B9B9B"></path>
        </g>
    </g>
</svg>